<?xml version="1.0" standalone="no"?>
<!DOCTYPE svg PUBLIC "-//W3C//DTD SVG 1.1//EN" "http://www.w3.org/Graphics/SVG/1.1/DTD/svg11.dtd" >
<svg xmlns="http://www.w3.org/2000/svg" xmlns:xlink="http://www.w3.org/1999/xlink" version="1.1">
<metadata>
Created by FontForge 20150715 at Mon Oct 19 16:52:04 2015
 By Jimmy Wärting
Copyright (c) 2011 Orange Brand Services Limited
</metadata>
<defs>
<font id="OrangeSans65-Medium" horiz-adv-x="610" >
  <font-face 
    font-family="Orange Sans 65 Medium"
    font-weight="500"
    font-stretch="normal"
    units-per-em="1000"
    panose-1="2 11 6 3 4 5 2 2 2 4"
    ascent="785"
    descent="-215"
    x-height="508"
    cap-height="700"
    bbox="-527 -270 1352 1101"
    underline-thickness="50"
    underline-position="-100"
    unicode-range="U+0020-FB17"
  />
<missing-glyph horiz-adv-x="500" 
d="M442 8v496h-384v-496h384zM50 512h400v-512h-400v512z" />
    <glyph glyph-name="IJ" unicode="IJ" horiz-adv-x="829" 
d="M213 700v-700h-128v700h128zM429 243v-29q0 -45 10.5 -70.5t26.5 -38.5t33.5 -16.5t31.5 -3.5q19 0 37 4t31.5 19t21.5 44t8 80v468h128v-452q0 -44 -5.5 -91.5t-28 -87t-68 -65t-125.5 -25.5q-70 0 -114.5 20.5t-70 53t-35 72.5t-9.5 79v39h128z" />
    <glyph glyph-name="ij" unicode="ij" horiz-adv-x="508" 
d="M192 508v-508h-120v508h120zM72 700h120v-106h-120v106zM436 508v-535q0 -33 -4.5 -62.5t-19 -51.5t-43 -35t-76.5 -13q-13 0 -33 1t-35 3v82q49 1 70 18t21 65v528h120zM316 700h120v-106h-120v106z" />
    <glyph glyph-name="fi" unicode="fi" horiz-adv-x="532" 
d="M108 572q0 43 12.5 69.5t32 40.5t43.5 18.5t48 4.5q20 0 36.5 -1.5t31.5 -3.5v-82q-4 0 -13.5 1t-16.5 1q-20 0 -31 -7t-16 -17t-6 -21t-1 -19v-48h232v-508h-120v426h-112v-426h-120v426h-94v82h94v64zM340 700h120v-106h-120v106z" />
    <glyph glyph-name="fl" unicode="fl" horiz-adv-x="532" 
d="M340 508v192h120v-700h-120v426h-112v-426h-120v426h-94v82h94v64q0 43 12.5 69.5t32 40.5t43.5 18.5t48 4.5q20 0 36.5 -1.5t31.5 -3.5v-82q-4 0 -13.5 1t-16.5 1q-20 0 -31 -7t-16 -17t-6 -21t-1 -19v-48h112z" />
    <glyph glyph-name=".notdef" horiz-adv-x="500" 
d="M442 8v496h-384v-496h384zM50 512h400v-512h-400v512z" />
    <glyph glyph-name=".null" horiz-adv-x="0" 
 />
    <glyph glyph-name="nonmarkingreturn" horiz-adv-x="233" 
 />
    <glyph glyph-name="space" unicode=" " horiz-adv-x="233" 
 />
    <glyph glyph-name="exclam" unicode="!" horiz-adv-x="344" 
d="M238 700v-241l-34 -240h-64l-34 240v241h132zM106 135h132v-135h-132v135z" />
    <glyph glyph-name="quotedbl" unicode="&#x22;" horiz-adv-x="500" 
d="M169 508h-68l-51 192h170zM399 508h-68l-51 192h170z" />
    <glyph glyph-name="numbersign" unicode="#" horiz-adv-x="730" 
d="M372 10l24 153h-120l-24 -153h-92l24 153h-134l15 100h134l28 179h-134l15 100h134l24 152h92l-24 -152h120l24 152h92l-24 -152h134l-15 -100h-134l-28 -179h134l-15 -100h-134l-24 -153h-92zM439 442h-120l-28 -179h120z" />
    <glyph glyph-name="dollar" unicode="$" horiz-adv-x="600" 
d="M146 205q1 -23 8 -48t22 -45q11 -15 32 -29.5t53 -16.5v250q-19 3 -41 8.5t-44 14.5t-41.5 20t-33.5 24q-19 17 -35 49.5t-16 84.5q0 55 20 93.5t54 64.5q27 20 63 31.5t74 12.5v58h82v-58q42 -1 83.5 -15.5t70.5 -41.5q25 -23 42 -61.5t17 -85.5h-110q2 26 -7 47.5
t-23 36.5q-4 4 -22.5 17.5t-50.5 16.5v-218q51 -8 86.5 -20t61.5 -31q42 -30 57.5 -69t15.5 -92q0 -17 -2 -38t-9.5 -44t-22 -46t-39.5 -43q-29 -23 -68.5 -36.5t-79.5 -15.5v-73h-82v73q-38 -1 -77.5 9.5t-68.5 31.5q-26 19 -42 44.5t-24 51t-10.5 49t-2.5 39.5h110z
M261 633q-34 -3 -55 -24q-12 -12 -20 -32.5t-8 -49.5q0 -27 9.5 -45t22.5 -28.5t27 -15.5t24 -6v201zM343 66q36 2 60 24q18 17 25.5 44.5t7.5 53.5q0 20 -6 41.5t-26 40.5q-6 6 -21 16t-40 13v-233z" />
    <glyph glyph-name="percent" unicode="%" horiz-adv-x="950" 
d="M639 700h93l-421 -700h-93zM224 708q41 0 72.5 -15t53.5 -42t33 -63.5t11 -79.5t-11 -79.5t-33 -63.5t-53.5 -42t-72.5 -15t-72.5 15t-53.5 42t-33 63.5t-11 79.5t11 79.5t33 63.5t53.5 42t72.5 15zM224 642q-8 0 -23 -2.5t-30 -15.5t-26 -40t-11 -76t11 -76t26 -40
t30 -15.5t23 -2.5t23 2.5t30 15.5t26 40t11 76t-11 76t-26 40t-30 15.5t-23 2.5zM726 392q41 0 72.5 -15t53.5 -42t33 -63.5t11 -79.5t-11 -79.5t-33 -63.5t-53.5 -42t-72.5 -15t-72.5 15t-53.5 42t-33 63.5t-11 79.5t11 79.5t33 63.5t53.5 42t72.5 15zM726 326
q-8 0 -23 -2.5t-30 -15.5t-26 -40t-11 -76t11 -76t26 -40t30 -15.5t23 -2.5t23 2.5t30 15.5t26 40t11 76t-11 76t-26 40t-30 15.5t-23 2.5z" />
    <glyph glyph-name="ampersand" unicode="&#x26;" horiz-adv-x="706" 
d="M650 314q-8 -46 -26 -91t-39 -77l121 -146h-138l-55 67q-43 -46 -97.5 -67t-120.5 -21q-57 0 -99 18t-69.5 48t-41 68t-13.5 78q0 42 12.5 74.5t35 58.5t53 46t65.5 36q-29 31 -45.5 69.5t-16.5 71.5q0 34 12.5 62.5t36 48.5t56 31t72.5 11q49 0 81 -15t50.5 -37.5
t26 -48t7.5 -47.5q0 -58 -33 -100t-93 -74l125 -148q7 11 15.5 31.5t13.5 52.5h104zM299 330q-51 -21 -75 -53.5t-24 -81.5q0 -52 31 -87t85 -35q24 0 45 7t38.5 17.5t30.5 22.5t22 23zM335 448q26 12 41.5 25.5t23.5 27t10 26t2 21.5q0 10 -2 22.5t-8 23t-18 17.5t-32 7
q-12 0 -24.5 -3t-22.5 -10t-16.5 -19.5t-6.5 -31.5q0 -26 13 -50.5t40 -55.5z" />
    <glyph glyph-name="quotesingle" unicode="'" horiz-adv-x="270" 
d="M169 508h-68l-51 192h170z" />
    <glyph glyph-name="parenleft" unicode="(" horiz-adv-x="394" 
d="M310 700q-68 -132 -95 -243t-27 -199q0 -50 8.5 -105.5t24.5 -113t38.5 -114.5t50.5 -109h-92q-39 66 -67 123.5t-46 110t-26.5 103.5t-8.5 105t8.5 105t26.5 103.5t46 110t67 123.5h92z" />
    <glyph glyph-name="parenright" unicode=")" horiz-adv-x="394" 
d="M84 -184q68 132 95 242.5t27 199.5q0 50 -8.5 105.5t-24.5 113t-38.5 114t-50.5 109.5h92q39 -66 67 -123.5t46 -110t26.5 -103.5t8.5 -105t-8.5 -105t-26.5 -103.5t-46 -110t-67 -123.5h-92z" />
    <glyph glyph-name="asterisk" unicode="*" horiz-adv-x="468" 
d="M159 414l-51 37l73 102l-115 38l19 58l117 -38v124h64v-124l117 38l19 -58l-115 -38l73 -102l-51 -37l-75 101z" />
    <glyph glyph-name="plus" unicode="+" horiz-adv-x="600" 
d="M257 398v207h86v-207h207v-86h-207v-207h-86v207h-207v86h207z" />
    <glyph glyph-name="comma" unicode="," horiz-adv-x="344" 
d="M238 135v-139q0 -43 -12 -71.5t-31 -46t-42.5 -26t-46.5 -10.5v69q29 2 48 23t19 55v11h-67v135h132z" />
    <glyph glyph-name="hyphen" unicode="-" horiz-adv-x="404" 
d="M62 315h280v-92h-280v92z" />
    <glyph glyph-name="period" unicode="." horiz-adv-x="344" 
d="M106 135h132v-135h-132v135z" />
    <glyph glyph-name="slash" unicode="/" horiz-adv-x="446" 
d="M358 700h88l-358 -885h-88z" />
    <glyph glyph-name="zero" unicode="0" 
d="M305 -21q-55 0 -95.5 17.5t-68.5 46.5t-46 67t-28 79.5t-13.5 83t-3.5 77.5t3.5 77.5t13.5 83t28 79.5t46 67t68.5 46.5t95.5 17.5t95.5 -17.5t68.5 -46.5t46 -67t28 -79.5t13.5 -83t3.5 -77.5t-3.5 -77.5t-13.5 -83t-28 -79.5t-46 -67t-68.5 -46.5t-95.5 -17.5zM305 85
q15 0 36.5 6t41 32t33.5 79t14 148q0 94 -14 147.5t-33.5 79.5t-41 32t-36.5 6t-36.5 -6t-41 -32t-33.5 -79.5t-14 -147.5q0 -95 14 -148t33.5 -79t41 -32t36.5 -6z" />
    <glyph glyph-name="one" unicode="1" 
d="M127 575h14q37 0 68.5 9.5t55.5 26t39 39.5t19 50h94v-700h-128v510h-162v65z" />
    <glyph glyph-name="two" unicode="2" 
d="M559 0h-505q-1 70 20 119t54.5 85t76 63t84.5 53q28 17 54.5 34.5t47 39t33 48t12.5 60.5q0 11 -3 30t-16 37.5t-38 32t-69 13.5q-48 0 -74.5 -15.5t-39.5 -36.5t-16 -43t-3 -36v-17h-123v18q0 58 17 98.5t42.5 66.5t57 40.5t60 21t51 8t31.5 1.5q54 0 100 -13t80 -40
t53.5 -68t19.5 -98t-18 -97.5t-48 -71t-68 -54.5t-78 -48q-42 -26 -69 -43.5t-44 -31t-26 -25t-15 -25.5h359v-106z" />
    <glyph glyph-name="three" unicode="3" 
d="M164 226v-13t1 -13q2 -19 9 -40.5t21.5 -39.5t38.5 -30t60 -12q11 0 21.5 1t21.5 4q30 8 47.5 24t26.5 34.5t11.5 36t2.5 28.5q0 37 -13 58.5t-32 31.5t-40 12.5t-37 2.5h-51v106h27q16 0 38.5 2t43.5 11.5t35.5 30t14.5 57.5q0 15 -4 32t-15 31.5t-31.5 24t-53.5 9.5
q-66 0 -92.5 -35t-27.5 -101h-123q-1 38 8 80.5t35.5 78.5t74 59.5t123.5 23.5q65 0 110 -15.5t73 -42t40.5 -62t12.5 -75.5q0 -57 -32.5 -99t-87.5 -53v-2q26 -3 50 -15t43 -33.5t30 -53.5t11 -75q0 -52 -18.5 -92t-52 -67.5t-81.5 -42t-106 -14.5q-60 0 -102.5 13.5
t-71 34.5t-45 48.5t-25 54.5t-10.5 52.5t-2 43.5h123z" />
    <glyph glyph-name="four" unicode="4" 
d="M28 153v106l330 441h127v-441h97v-106h-97v-153h-128v153h-329zM357 259v278l-200 -278h200z" />
    <glyph glyph-name="five" unicode="5" 
d="M199 189q2 -19 10 -39t23 -36t38.5 -26t55.5 -10q21 0 45 6t44.5 23t33.5 47.5t13 79.5q0 52 -16 81t-37.5 43t-43.5 17t-34 3q-13 0 -29 -2.5t-32.5 -8.5t-31.5 -17.5t-25 -29.5h-121l48 380h409v-106h-315l-23 -162q4 4 15 13t29.5 17.5t45.5 15t64 6.5q50 0 92 -16
t72 -47.5t46.5 -78t16.5 -107.5t-16.5 -104t-42 -71.5t-57.5 -44.5t-62.5 -24t-56 -10t-39.5 -2q-69 0 -114.5 20.5t-72.5 51.5t-39 68t-16 70h123z" />
    <glyph glyph-name="six" unicode="6" 
d="M437 541q-6 25 -19 40t-28.5 22.5t-32.5 9.5t-31 2q-19 0 -44 -6t-48 -26.5t-40.5 -61t-20.5 -109.5h2q8 11 20 22.5t31 20.5t45 14.5t62 5.5q107 0 169.5 -62.5t62.5 -179.5q0 -60 -18 -107t-52 -80t-81.5 -50t-107.5 -17q-59 0 -101 15.5t-70.5 41.5t-46 60t-26.5 71
t-12 74t-3 70q0 135 26.5 216t68 124t90.5 56.5t94 13.5q57 0 98.5 -15.5t70 -40.5t44.5 -57.5t21 -66.5h-123zM177 227q0 -23 5 -48t19 -46t39 -34.5t66 -13.5q34 0 58.5 11t40.5 30.5t23 45.5t7 55t-7 55t-23 45.5t-40.5 30.5t-58.5 11q-41 0 -66 -14t-39 -35t-19 -46
t-5 -47z" />
    <glyph glyph-name="seven" unicode="7" 
d="M35 700h540v-88q-35 -36 -63.5 -71t-51.5 -71.5t-43 -75t-38 -81.5q-18 -41 -30 -77t-20.5 -72.5t-14 -76t-9.5 -87.5h-134q9 71 31 148.5t51 146.5q27 61 74.5 137.5t130.5 161.5h-423v106z" />
    <glyph glyph-name="eight" unicode="8" 
d="M174 375q-43 19 -68 58t-25 96q0 32 9 66t33.5 62t68.5 46t113 18t113 -18t68.5 -46t33.5 -62t9 -66q0 -57 -25 -96t-68 -58q16 -5 36 -16.5t37 -32.5t29 -52.5t12 -77.5q0 -71 -25.5 -113.5t-63 -65.5t-80 -30.5t-76.5 -7.5t-76.5 7.5t-80 30.5t-63 65.5t-25.5 113.5
q0 46 11.5 77.5t29 52.5t37 32.5t36.5 16.5zM305 424q31 0 51 9.5t32 23.5t16.5 31.5t4.5 32.5q0 10 -3 26t-14 31t-31.5 26t-55.5 11t-55.5 -11t-31.5 -26t-14 -31t-3 -26q0 -15 4.5 -32.5t16.5 -31.5t32 -23.5t51 -9.5zM305 85q31 0 53 10.5t36 27t20 37.5t6 42
q0 18 -5 38t-18 37.5t-35.5 29t-56.5 11.5q-35 0 -57 -11.5t-35 -29t-18 -37.5t-5 -38q0 -21 6 -42t20 -37.5t35.5 -27t53.5 -10.5z" />
    <glyph glyph-name="nine" unicode="9" 
d="M173 159q6 -25 19 -40t28.5 -22.5t32.5 -9.5t31 -2q19 0 44 6t48 26.5t40.5 61t20.5 109.5h-2q-8 -11 -20 -22.5t-31 -20.5t-45 -14.5t-62 -5.5q-107 0 -169.5 62.5t-62.5 179.5q0 60 18 107t52 80t81.5 50t107.5 17q59 0 101 -15.5t70.5 -41.5t46 -60t26.5 -71t12 -74
t3 -70q0 -135 -26.5 -216t-67 -124t-90 -56.5t-95.5 -13.5q-57 0 -98.5 15.5t-70 40.5t-44.5 57.5t-21 66.5h123zM433 473q0 22 -5 47t-19 46t-39 35t-66 14q-35 0 -59 -11t-40 -30.5t-23 -45.5t-7 -55t7 -55t23 -45.5t40 -30.5t59 -11q41 0 66 13.5t39 34.5t19 46t5 48z
" />
    <glyph glyph-name="colon" unicode=":" horiz-adv-x="344" 
d="M106 508h132v-135h-132v135zM106 135h132v-135h-132v135z" />
    <glyph glyph-name="semicolon" unicode=";" horiz-adv-x="344" 
d="M106 508h132v-135h-132v135zM238 135v-139q0 -43 -12 -71.5t-31 -46t-42.5 -26t-46.5 -10.5v69q29 2 48 23t19 55v11h-67v135h132z" />
    <glyph glyph-name="less" unicode="&#x3c;" horiz-adv-x="678" 
d="M594 105l-40 -72l-494 278v62l494 278l40 -72l-433 -237z" />
    <glyph glyph-name="equal" unicode="=" horiz-adv-x="600" 
d="M550 488v-86h-500v86h500zM550 288v-86h-500v86h500z" />
    <glyph glyph-name="greater" unicode="&#x3e;" horiz-adv-x="678" 
d="M84 579l40 72l494 -278v-62l-494 -278l-40 72l433 237z" />
    <glyph glyph-name="question" unicode="?" horiz-adv-x="576" 
d="M215 135h132v-135h-132v135zM53 484q-1 34 7.5 75.5t34.5 77.5t73.5 60t123.5 24q64 0 108.5 -17t71.5 -44.5t39 -63t12 -71.5q0 -31 -8 -55t-21 -43t-30.5 -34.5t-35.5 -29.5q-28 -21 -46 -36.5t-29 -29.5t-15.5 -28.5t-4.5 -35.5v-18h-100q0 24 0.5 42.5t4.5 35t13 32
t24 33.5t35.5 33.5t38.5 33.5t31 40t13 52q0 19 -5.5 37t-18 31.5t-32 21.5t-47.5 8q-23 0 -44 -6t-37 -21t-25.5 -40t-7.5 -64h-123z" />
    <glyph glyph-name="at" unicode="@" horiz-adv-x="860" 
d="M616 31q-38 -23 -81 -37.5t-104 -14.5q-77 0 -144.5 24.5t-117.5 72t-79.5 116.5t-29.5 159q0 84 28.5 152t78 116.5t117.5 75t147 26.5q95 0 164.5 -29t115 -77.5t67.5 -111.5t22 -132q0 -47 -13.5 -87.5t-38 -71t-58.5 -48t-76 -17.5q-30 0 -58 10t-39 33
q-19 -29 -47 -39t-60 -10q-33 0 -64 11t-55 34.5t-39 61t-15 90.5q0 39 10 74.5t30 62.5t51.5 43.5t74.5 16.5q26 0 53.5 -10t44.5 -32h2v28h100v-237q0 -8 0.5 -17.5t3 -18t8 -14t16.5 -5.5q12 0 27.5 6.5t29 23t23 44t9.5 68.5q0 49 -15.5 98.5t-50 90t-89.5 66t-134 25.5
q-65 0 -119 -23t-92 -63.5t-59 -95t-21 -118.5q0 -66 21.5 -121.5t59.5 -95.5t91.5 -62.5t118.5 -22.5q49 0 85 12.5t65 32.5zM491 337q0 40 -8 63t-19 35t-23 15t-20 3q-22 0 -37 -10t-24.5 -26.5t-13.5 -37.5t-4 -42q0 -38 8 -60.5t20 -34.5t25.5 -15.5t24.5 -3.5
q24 0 38.5 11.5t21.5 29t9 37t2 36.5z" />
    <glyph glyph-name="A" unicode="A" horiz-adv-x="648" 
d="M133 0h-137l264 700h128l264 -700h-137l-51 147h-280zM430 253l-106 311l-106 -311h212z" />
    <glyph glyph-name="B" unicode="B" horiz-adv-x="715" 
d="M415 700q67 0 108.5 -17t64.5 -43t31.5 -57t8.5 -60q0 -58 -32.5 -99.5t-83.5 -50.5v-2q22 -4 47 -14t47 -30.5t36.5 -52t14.5 -78.5q0 -66 -25 -105t-63.5 -59.5t-83.5 -26t-84 -5.5h-316v700h330zM213 416h169q54 0 84 18.5t30 64.5q0 35 -14.5 54t-34 28t-39 11
t-29.5 2h-166v-178zM213 106h175q29 0 54 4.5t43.5 16t29 31.5t10.5 52q0 35 -13.5 55t-33.5 30t-43.5 12.5t-43.5 2.5h-178v-204z" />
    <glyph glyph-name="C" unicode="C" horiz-adv-x="733" 
d="M695 239q-4 -40 -18.5 -85.5t-48 -84.5t-90.5 -64.5t-146 -25.5q-13 0 -44 2t-70 12.5t-80 32.5t-75 61.5t-56 100.5t-22 150q0 108 28.5 181.5t76 118t109 64t126.5 19.5q90 0 147.5 -24.5t90.5 -61.5t46.5 -80.5t15.5 -80.5h-127q-3 22 -12 46.5t-28.5 45.5t-51.5 35
t-81 14q-59 0 -98 -22t-62 -59.5t-33 -87t-10 -103.5q0 -62 16 -110t44.5 -81t68.5 -50t87 -17q43 0 74.5 13.5t52.5 35.5t31 49.5t12 55.5h127z" />
    <glyph glyph-name="D" unicode="D" horiz-adv-x="746" 
d="M363 700q72 0 125 -15.5t90.5 -41.5t61.5 -60.5t37.5 -73.5t18.5 -79.5t5 -77.5q0 -79 -17 -136t-45.5 -96t-66 -62.5t-78 -36.5t-81 -17t-75.5 -4h-253v700h278zM213 106h119q16 0 39 2t48.5 9.5t51.5 23t46.5 42.5t33.5 67.5t13 99.5q0 54 -10.5 93t-27.5 66t-39 44
t-45.5 26t-47 12t-42.5 3h-139v-488z" />
    <glyph glyph-name="E" unicode="E" horiz-adv-x="638" 
d="M569 412v-106h-356v-200h408v-106h-536v700h525v-106h-397v-182h356z" />
    <glyph glyph-name="F" unicode="F" horiz-adv-x="594" 
d="M530 402v-106h-317v-296h-128v700h496v-106h-368v-192h317z" />
    <glyph glyph-name="G" unicode="G" horiz-adv-x="756" 
d="M698 375v-375h-92v95h-2q-28 -54 -81 -85t-136 -31q-61 0 -122 17.5t-110 59t-79.5 110.5t-30.5 172q0 82 16.5 142.5t44.5 103t63.5 69t74 42t76 21t69.5 5.5q90 0 147 -23.5t90 -58.5t47 -76.5t17 -78.5h-127q-3 20 -12 43t-29 42.5t-52.5 32.5t-80.5 13
q-67 0 -107.5 -27.5t-62.5 -68t-29.5 -88.5t-7.5 -88q0 -78 22 -128t55 -79t70.5 -40t68.5 -11q23 0 54.5 7t60 26.5t49 55.5t21.5 95h-171v106h286z" />
    <glyph glyph-name="H" unicode="H" horiz-adv-x="738" 
d="M213 0h-128v700h128v-280h312v280h128v-700h-128v314h-312v-314z" />
    <glyph glyph-name="I" unicode="I" horiz-adv-x="298" 
d="M213 700v-700h-128v700h128z" />
    <glyph glyph-name="J" unicode="J" horiz-adv-x="551" 
d="M151 243v-29q0 -45 10.5 -70.5t26.5 -38.5t33.5 -16.5t31.5 -3.5q19 0 37 4t31.5 19t21.5 44t8 80v468h128v-452q0 -44 -5.5 -91.5t-28 -87t-68 -65t-125.5 -25.5q-70 0 -114.5 20.5t-70 53t-35 72.5t-9.5 79v39h128z" />
    <glyph glyph-name="K" unicode="K" horiz-adv-x="706" 
d="M519 700h172l-290 -290l309 -410h-172l-231 324l-94 -91v-233h-128v700h128v-315z" />
    <glyph glyph-name="L" unicode="L" horiz-adv-x="548" 
d="M554 0h-469v700h128v-594h341v-106z" />
    <glyph glyph-name="M" unicode="M" horiz-adv-x="934" 
d="M213 554h-2l2 -27v-527h-128v700h191l191 -531l191 531h191v-700h-128v527l2 27h-2l-206 -554h-96z" />
    <glyph glyph-name="N" unicode="N" horiz-adv-x="770" 
d="M213 0h-128v700h136l336 -497v497h128v-700h-136l-336 497v-497z" />
    <glyph glyph-name="O" unicode="O" horiz-adv-x="776" 
d="M388 721q15 0 46.5 -2.5t69.5 -13t78.5 -33.5t73.5 -64.5t54 -104t21 -153.5t-21 -153.5t-54 -104t-73.5 -64.5t-78.5 -33.5t-69.5 -13t-46.5 -2.5t-46.5 2.5t-69.5 13t-78.5 33.5t-73.5 64.5t-54 104t-21 153.5t21 153.5t54 104t73.5 64.5t78.5 33.5t69.5 13t46.5 2.5z
M388 615q-65 0 -105 -26t-62.5 -66t-30.5 -86.5t-8 -86.5q0 -41 8 -87t30.5 -86t62.5 -66t105 -26t105 26t62.5 66t30.5 86t8 87q0 40 -8 86.5t-30.5 86.5t-62.5 66t-105 26z" />
    <glyph glyph-name="P" unicode="P" horiz-adv-x="668" 
d="M364 700q41 0 89 -6t88.5 -28t67.5 -65t27 -118q0 -48 -14.5 -89t-46.5 -71t-84 -47.5t-128 -17.5h-150v-258h-128v700h279zM213 364h149q22 0 47 3t46 14t35 34t14 62q0 42 -15 65.5t-37 35t-46.5 14t-42.5 2.5h-150v-230z" />
    <glyph glyph-name="Q" unicode="Q" horiz-adv-x="776" 
d="M702 -22l-69 -62l-80 101q-9 -6 -23 -12.5t-33.5 -12t-46.5 -9.5t-62 -4q-15 0 -46.5 2.5t-69.5 13.5t-78.5 34t-73.5 64t-54 103.5t-21 153.5t21 153.5t54 104t73.5 64.5t78.5 33.5t69.5 13t46.5 2.5q14 0 45 -2.5t69 -13t78.5 -33.5t74 -64.5t55 -104t21.5 -153.5
q0 -32 -4 -69t-15.5 -74.5t-31 -73t-50.5 -63.5zM551 172q6 9 13 24t14 37t11.5 51t4.5 66q0 40 -8 86.5t-30.5 86.5t-62.5 66t-105 26t-105 -26t-62.5 -66t-30.5 -86.5t-8 -86.5t8 -86.5t30.5 -86t62.5 -66t105 -26.5q43 0 64.5 9t29.5 15l-77 97l74 58z" />
    <glyph glyph-name="R" unicode="R" horiz-adv-x="708" 
d="M85 700h313q32 0 75.5 -4.5t83 -24t67 -58.5t27.5 -108q0 -39 -10.5 -68t-27 -50t-37.5 -33.5t-42 -18.5v-2q37 -12 58 -33t30.5 -46.5t12 -52t2.5 -50.5q0 -35 0.5 -58.5t3 -40t7.5 -28.5t15 -24h-132q-8 12 -12 23.5t-6.5 27.5t-3 38.5t-0.5 56.5q0 24 -3 47.5
t-17.5 42.5t-44 30.5t-83.5 11.5h-148v-278h-128v700zM213 384h160q24 0 50 3t47.5 14t35 31.5t13.5 56.5q0 38 -15 59t-37 31.5t-47 12.5t-44 2h-163v-210z" />
    <glyph glyph-name="S" unicode="S" horiz-adv-x="684" 
d="M172 225q1 -20 9 -44.5t28 -45.5t55 -35.5t90 -14.5q18 0 43 2.5t48.5 13t40 31.5t16.5 58q0 31 -13.5 51t-33 31.5t-41 17t-38.5 8.5q-21 4 -41.5 8t-40.5 9q-43 10 -82 22.5t-69 35t-48 57t-18 87.5q0 49 16.5 83.5t42 57.5t57.5 35.5t62.5 18.5t56.5 7.5t40 1.5
q69 0 119 -17t82.5 -45.5t49.5 -66t20 -77.5h-127q-5 37 -23 57t-41 29.5t-46 11.5t-37 2q-7 0 -29 -1.5t-45.5 -10t-42 -27.5t-18.5 -54q0 -27 13.5 -44t35.5 -27.5t50 -16.5t57 -11q61 -11 110.5 -25t84.5 -38t54.5 -61.5t19.5 -95.5q0 -74 -29 -118.5t-73 -68
t-95.5 -30.5t-95.5 -7q-90 0 -147.5 23t-91.5 58.5t-47.5 79t-14.5 85.5h127z" />
    <glyph glyph-name="T" unicode="T" horiz-adv-x="594" 
d="M13 594v106h568v-106h-220v-594h-128v594h-220z" />
    <glyph glyph-name="U" unicode="U" horiz-adv-x="722" 
d="M200 700v-411q0 -105 35.5 -154.5t125.5 -49.5t125.5 49.5t35.5 154.5v411h128v-431q0 -28 -2.5 -60.5t-12.5 -65t-28.5 -62t-51 -52.5t-80 -36.5t-114.5 -13.5t-114.5 13.5t-80 36.5t-51 52.5t-28.5 62t-12.5 65t-2.5 60.5v431h128z" />
    <glyph glyph-name="V" unicode="V" horiz-adv-x="622" 
d="M487 700h139l-241 -700h-148l-241 700h139l176 -567z" />
    <glyph glyph-name="W" unicode="W" horiz-adv-x="944" 
d="M348 0h-162l-190 700h144l137 -552l123 552h144l123 -552l137 552h144l-190 -700h-162l-124 549z" />
    <glyph glyph-name="X" unicode="X" horiz-adv-x="666" 
d="M488 700h160l-235 -342l253 -358h-165l-168 270l-168 -270h-165l253 358l-235 342h160l155 -253z" />
    <glyph glyph-name="Y" unicode="Y" horiz-adv-x="634" 
d="M487 700h151l-257 -421v-279h-128v279l-257 421h151l170 -307z" />
    <glyph glyph-name="Z" unicode="Z" horiz-adv-x="613" 
d="M565 700v-98l-378 -496h400v-106h-561v114l378 480h-359v106h520z" />
    <glyph glyph-name="bracketleft" unicode="[" horiz-adv-x="389" 
d="M336 700v-82h-112v-721h112v-82h-230v885h230z" />
    <glyph glyph-name="backslash" unicode="\" horiz-adv-x="446" 
d="M358 -185l-358 885h88l358 -885h-88z" />
    <glyph glyph-name="bracketright" unicode="]" horiz-adv-x="389" 
d="M283 700v-885h-230v82h112v721h-112v82h230z" />
    <glyph glyph-name="asciicircum" unicode="^" horiz-adv-x="482" 
d="M305 700l127 -218h-96l-95 168l-95 -168h-96l127 218h128z" />
    <glyph glyph-name="underscore" unicode="_" horiz-adv-x="494" 
d="M0 -99h494v-86h-494v86z" />
    <glyph glyph-name="grave" unicode="`" horiz-adv-x="340" 
d="M244 568h-90l-110 132h130z" />
    <glyph glyph-name="a" unicode="a" horiz-adv-x="577" 
d="M50 351q-1 35 12 67t41 56.5t72 39t107 14.5q77 0 121 -19.5t65.5 -48t27 -59.5t5.5 -53v-203q0 -18 1 -30.5t5.5 -20t13 -10t24.5 -1.5v-83q-23 -2 -34 -2.5t-19 -0.5q-12 0 -27 1.5t-30 8t-26.5 20t-15.5 36.5q-33 -42 -75.5 -58.5t-93.5 -16.5q-66 0 -103.5 17
t-56 40.5t-23 48.5t-4.5 41q0 40 15 66t35 42.5t39 24t28 9.5q29 8 57.5 11t60.5 8q12 2 24.5 3.5t24.5 3.5q16 2 27 4t18.5 7t11 15t3.5 29q0 30 -10 47.5t-25 26.5t-32 11.5t-32 2.5q-33 0 -56 -8t-37 -21.5t-20 -30.5t-5 -35h-114zM381 244q-10 -7 -26.5 -11.5
t-59.5 -9.5q-31 -4 -55.5 -8.5t-42 -13t-27 -23t-9.5 -39.5q0 -29 18.5 -49t60.5 -20q22 0 47 6t46 22.5t34.5 47t13.5 80.5v18z" />
    <glyph glyph-name="b" unicode="b" horiz-adv-x="636" 
d="M192 700v-244q15 27 40 41.5t50 21.5t45 8t25 1q75 0 122 -28t73.5 -70t36 -90.5t9.5 -88.5q0 -74 -22 -125.5t-57 -84t-78.5 -47t-87.5 -14.5q-20 0 -41.5 3t-43 11t-42 21.5t-37.5 34.5h-2v-50h-110v700h120zM183 253q0 -86 34.5 -138.5t100.5 -52.5q20 0 45.5 6.5
t48 26.5t38 57t15.5 98q0 54 -12 91.5t-31.5 60.5t-45.5 33.5t-53 10.5q-20 0 -44.5 -7t-45.5 -27.5t-35.5 -58.5t-14.5 -100z" />
    <glyph glyph-name="c" unicode="c" horiz-adv-x="574" 
d="M538 186q-3 -28 -14.5 -63.5t-38.5 -67t-72 -53.5t-115 -22q-65 0 -113 20t-79.5 56t-47 86.5t-15.5 110.5q0 65 14 110.5t36.5 76t50.5 48.5t55.5 26.5t52.5 11t42 2.5q58 0 102 -16t73.5 -42t46 -60t20.5 -71h-114q-2 20 -10 39t-23 34t-36.5 24.5t-51.5 9.5
q-37 0 -62 -15.5t-40 -42t-21.5 -61.5t-6.5 -74q0 -60 13.5 -97t33.5 -58t44.5 -28.5t45.5 -7.5q33 0 55 13t35.5 31.5t19 40t6.5 39.5h114z" />
    <glyph glyph-name="d" unicode="d" horiz-adv-x="636" 
d="M564 700v-700h-110v50h-2q-18 -23 -40.5 -36.5t-44.5 -21t-43 -10t-36 -2.5q-45 0 -88.5 14.5t-78.5 47t-56.5 84t-21.5 125.5q0 54 13.5 104t43 88.5t75 61.5t109.5 23q5 0 25 -1t45 -8t50 -21.5t40 -41.5v244h120zM171 250q0 -64 16.5 -101t39.5 -56.5t47.5 -25
t39.5 -5.5q32 0 58 14t44 39.5t27.5 60.5t9.5 77q0 62 -14.5 100t-36 58.5t-46 27.5t-43.5 7q-27 0 -53 -10.5t-45.5 -33.5t-31.5 -60.5t-12 -91.5z" />
    <glyph glyph-name="e" unicode="e" horiz-adv-x="594" 
d="M543 147q-5 -25 -17.5 -54t-40 -54t-72 -42t-112.5 -17q-13 0 -37 2t-52.5 10t-58.5 24.5t-54.5 46t-40 74t-15.5 108.5t16 116.5t48 89.5t80.5 57t114.5 20q55 0 94.5 -13.5t66.5 -36t43.5 -51t26 -59.5t13 -61t4.5 -55q0 -8 0.5 -14.5t0.5 -14.5h-380q0 -24 6.5 -52.5
t23 -52.5t43.5 -40t67 -16q20 0 40 5.5t36.5 16t27.5 26.5t14 37h114zM424 305q0 17 -4.5 41.5t-17 46.5t-36.5 37.5t-63 15.5q-35 0 -60.5 -13t-41.5 -33t-23.5 -45t-6.5 -50h253z" />
    <glyph glyph-name="f" unicode="f" horiz-adv-x="355" 
d="M342 426h-115v-426h-120v426h-94v82h94v64q0 23 4.5 46.5t20.5 43t47.5 31.5t84.5 12q24 0 42.5 -1.5t35.5 -3.5v-82q-8 1 -21.5 1.5t-25.5 0.5q-26 0 -40 -7.5t-20 -18t-7 -21.5t-1 -17v-48h115v-82z" />
    <glyph glyph-name="g" unicode="g" horiz-adv-x="640" 
d="M568 508v-485q0 -106 -68 -161t-189 -55q-93 0 -152 34t-70 110h110q4 -18 16.5 -29.5t29 -18t35.5 -9.5t36 -3q46 0 72.5 14t40 34.5t16.5 43.5t3 42v39q-15 -27 -40 -41.5t-50 -21.5t-45 -8t-25 -1q-64 0 -109.5 22t-75 58.5t-43 84.5t-13.5 100q0 74 21.5 125.5
t56.5 84t78.5 47t88.5 14.5q15 0 36 -2.5t43 -10t44.5 -21.5t40.5 -36h2v50h110zM175 256q0 -62 16.5 -98.5t39 -55t47 -23.5t40.5 -5q26 0 51 11t44.5 33.5t31.5 57.5t12 83q0 52 -12 88t-31.5 58t-44.5 31.5t-52 9.5q-67 0 -104.5 -50t-37.5 -140z" />
    <glyph glyph-name="h" unicode="h" horiz-adv-x="606" 
d="M192 700v-259q13 22 32.5 38.5t42 27t46.5 16t46 5.5q65 0 100.5 -24t52 -56t19.5 -63t3 -45v-340h-120v302q0 23 -1.5 48.5t-10.5 46.5t-28.5 35t-54.5 14q-12 0 -33.5 -4.5t-42.5 -21t-36 -48.5t-15 -88v-284h-120v700h120z" />
    <glyph glyph-name="i" unicode="i" horiz-adv-x="264" 
d="M192 508v-508h-120v508h120zM72 700h120v-106h-120v106z" />
    <glyph glyph-name="j" unicode="j" horiz-adv-x="264" 
d="M192 508v-535q0 -33 -4.5 -62.5t-19 -51.5t-43 -35t-76.5 -13q-13 0 -33 1t-35 3v82q49 1 70 18t21 65v528h120zM72 700h120v-106h-120v106z" />
    <glyph glyph-name="k" unicode="k" horiz-adv-x="564" 
d="M404 508h142l-198 -198l220 -310h-140l-163 237l-73 -74v-163h-120v700h120v-415z" />
    <glyph glyph-name="l" unicode="l" horiz-adv-x="264" 
d="M192 700v-700h-120v700h120z" />
    <glyph glyph-name="m" unicode="m" horiz-adv-x="916" 
d="M192 508v-63q12 21 30 37t39.5 26t44.5 15t44 5q53 0 88 -20t55 -72q28 45 75.5 68.5t105.5 23.5q57 0 91 -20.5t51.5 -51.5t22.5 -68t5 -69v-319h-120v312q0 24 -2.5 47.5t-11.5 43t-26.5 31.5t-47.5 12q-20 0 -40.5 -7.5t-38 -25t-28.5 -45.5t-11 -69v-299h-120v312
q0 24 -2.5 47.5t-11.5 43t-26.5 31.5t-47.5 12q-20 0 -40.5 -7.5t-38 -25t-28.5 -45.5t-11 -69v-299h-120v508h120z" />
    <glyph glyph-name="n" unicode="n" horiz-adv-x="606" 
d="M192 508v-67q13 22 32.5 38.5t42 27t46.5 16t46 5.5q65 0 100.5 -24t52 -56t19.5 -63t3 -45v-340h-120v302q0 23 -1.5 48.5t-10.5 46.5t-28.5 35t-54.5 14q-12 0 -33.5 -4.5t-42.5 -21t-36 -48.5t-15 -88v-284h-120v508h120z" />
    <glyph glyph-name="o" unicode="o" 
d="M305 528q54 0 94.5 -13.5t69.5 -36t48 -51t30 -59t15.5 -60.5t4.5 -54t-4.5 -54t-15.5 -60.5t-30 -59t-48 -51t-69.5 -36t-94.5 -13.5t-94.5 13.5t-69.5 36t-48 51t-30 59t-15.5 60t-4.5 54.5q0 24 4.5 54t15.5 60.5t30 59t48 51t69.5 36t94.5 13.5zM305 446
q-16 0 -39 -5.5t-44 -25t-36 -58t-15 -103.5t15 -103.5t36 -58t44 -25t39 -5.5t39 5.5t44 25t36 58t15 103.5t-15 103.5t-36 58t-44 25t-39 5.5z" />
    <glyph glyph-name="p" unicode="p" horiz-adv-x="636" 
d="M182 508v-50h2q17 21 37.5 34.5t42 21.5t43 11t41.5 3q44 0 87.5 -14.5t78.5 -47t57 -84t22 -125.5q0 -40 -9.5 -88.5t-36 -90.5t-73.5 -70t-122 -28q-5 0 -25 1t-45 8t-50 21.5t-40 41.5v-237h-120v693h110zM183 253q0 -86 34.5 -138.5t100.5 -52.5q20 0 45.5 6.5
t48 26.5t38 57t15.5 98q0 54 -12 91.5t-31.5 60.5t-45.5 33.5t-53 10.5q-20 0 -44.5 -7t-45.5 -27.5t-35.5 -58.5t-14.5 -100z" />
    <glyph glyph-name="q" unicode="q" horiz-adv-x="636" 
d="M564 508v-693h-120v237q-15 -27 -40 -41.5t-50 -21.5t-45 -8t-25 -1q-64 0 -109.5 23t-75 61.5t-43 88.5t-13.5 104q0 74 21.5 125.5t56.5 84t78.5 47t88.5 14.5q15 0 36 -2.5t43 -10t44.5 -21.5t40.5 -36h2v50h110zM171 250q0 -64 16.5 -101t39.5 -56.5t47.5 -25
t39.5 -5.5q32 0 58 14t44 39.5t27.5 60.5t9.5 77q0 62 -14.5 100t-36 58.5t-46 27.5t-43.5 7q-27 0 -53 -10.5t-45.5 -33.5t-31.5 -60.5t-12 -91.5z" />
    <glyph glyph-name="r" unicode="r" horiz-adv-x="402" 
d="M388 440q-59 1 -96.5 -13.5t-58.5 -38t-29.5 -53t-10.5 -56.5q-1 -13 -1 -26v-26v-227h-120v508h120v-93h2q13 32 34 52t45 31.5t49 15.5t46 4h20v-78z" />
    <glyph glyph-name="s" unicode="s" horiz-adv-x="540" 
d="M156 155q0 -26 11 -43.5t28 -28.5t38.5 -16t41.5 -5q17 0 35 3t33 12t25 25t10 42q0 33 -21.5 48t-72.5 24q-14 2 -27.5 4.5t-27.5 4.5q-42 7 -73 18.5t-51.5 28.5t-31 42t-10.5 61q0 50 23 80.5t56 46.5t69.5 21t63.5 5q61 0 102.5 -12.5t66.5 -33.5t35.5 -49.5
t11.5 -59.5h-113q-3 34 -29 53.5t-70 19.5q-37 0 -64.5 -13t-27.5 -50q0 -24 11 -38t29.5 -22t42 -12.5t48.5 -8.5q28 -5 60.5 -11t60.5 -21.5t46.5 -43.5t18.5 -75t-19 -79.5t-50.5 -52.5t-72 -29.5t-83.5 -9.5q-71 0 -117.5 16.5t-73.5 42.5t-38.5 56.5t-13.5 59.5h120z
" />
    <glyph glyph-name="t" unicode="t" horiz-adv-x="342" 
d="M96 508v152h120v-152h106v-82h-106v-287q0 -13 1 -24.5t6.5 -20t17.5 -13.5t34 -5q15 0 26 1.5t21 4.5v-82q-45 -12 -98 -12q-47 0 -73 12.5t-38 29.5t-14.5 36t-2.5 33v327h-82v82h82z" />
    <glyph glyph-name="u" unicode="u" horiz-adv-x="606" 
d="M414 0v67h-2q-25 -45 -72.5 -66t-96.5 -21q-42 0 -71 11t-48 29t-29.5 39.5t-15.5 42.5t-6 38.5t-1 27.5v340h120v-302q0 -22 2 -47t11 -46.5t28 -36t54 -14.5q47 0 73 22t38 50t14 54.5t2 35.5v284h120v-508h-120z" />
    <glyph glyph-name="v" unicode="v" horiz-adv-x="504" 
d="M380 508h128l-186 -508h-140l-186 508h128l128 -390z" />
    <glyph glyph-name="w" unicode="w" horiz-adv-x="771" 
d="M295 0h-122l-177 508h125l119 -372l90 372h112l89 -372l119 372h125l-177 -508h-122l-90 371z" />
    <glyph glyph-name="x" unicode="x" horiz-adv-x="521" 
d="M379 508h131l-183 -243l194 -265h-128l-132 189l-132 -189h-129l194 265l-182 243h131l118 -171z" />
    <glyph glyph-name="y" unicode="y" horiz-adv-x="541" 
d="M105 -101q9 -2 20.5 -4t25.5 -2q35 0 51 19.5t29 64.5l7 24l-231 507h144l153 -378l117 378h120l-194 -552q-6 -17 -15.5 -42t-27.5 -48t-47.5 -39t-76.5 -16q-17 0 -37 1.5t-38 4.5v82z" />
    <glyph glyph-name="z" unicode="z" horiz-adv-x="490" 
d="M447 508v-82l-281 -344h298v-82h-438v82l281 344h-261v82h401z" />
    <glyph glyph-name="braceleft" unicode="{" horiz-adv-x="366" 
d="M75 299q30 4 48 18.5t27 33t11.5 39t2.5 35.5q0 16 -0.5 25t-1.5 18.5t-1.5 23.5t-0.5 40q0 57 18.5 90t43.5 50t51.5 22.5t42.5 5.5v-66q-18 -8 -27 -22.5t-12 -32.5t-2 -38.5t3 -41.5q2 -14 3 -28.5t1 -28.5q0 -40 -10.5 -70t-28 -52.5t-41.5 -37.5t-51 -24v-2
q53 -18 80.5 -47t38.5 -62.5t11 -68.5q0 -34 -3 -63q-2 -21 -3 -41.5t2 -38.5t12 -32.5t27 -22.5v-66q-16 0 -42.5 5t-51.5 22.5t-43.5 50.5t-18.5 90q0 26 0.5 40t1.5 23.5t1.5 18.5t0.5 25q0 15 -2.5 35.5t-11.5 39t-27 33t-48 18.5v84z" />
    <glyph glyph-name="bar" unicode="|" horiz-adv-x="498" 
d="M208 829h82v-1053h-82v1053z" />
    <glyph glyph-name="braceright" unicode="}" horiz-adv-x="366" 
d="M291 215q-30 -4 -48 -18.5t-27 -33t-11.5 -39t-2.5 -35.5q0 -16 0.5 -25t1.5 -18.5t1.5 -23.5t0.5 -40q0 -57 -18.5 -90t-43.5 -50.5t-51.5 -22.5t-42.5 -5v66q18 8 27 22.5t12 32.5t2 38.5t-3 41.5q-2 14 -3 28.5t-1 28.5q0 40 10.5 70t28 52.5t41.5 37.5t51 24v2
q-53 18 -80.5 47t-38.5 62.5t-11 67.5q0 35 3 64q2 21 3 41.5t-2 38.5t-12 32.5t-27 22.5v66q16 0 42.5 -5.5t51.5 -22.5t43.5 -50t18.5 -90q0 -26 -0.5 -40t-1.5 -23.5t-1.5 -18.5t-0.5 -25q0 -15 2.5 -35.5t11.5 -39t27 -33t48 -18.5v-84z" />
    <glyph glyph-name="asciitilde" unicode="~" horiz-adv-x="614" 
d="M50 297q16 47 34.5 75t37.5 43t36.5 19.5t31.5 4.5q23 0 47 -6t43 -17l103 -55q25 -13 50 -13q9 0 20 3.5t22.5 12.5t22.5 25.5t20 42.5l46 -19q-10 -29 -23 -54.5t-30 -45t-38.5 -31t-48.5 -11.5q-21 0 -46 6t-44 17l-103 55q-23 13 -52 13q-16 0 -29 -7t-23.5 -19
t-18 -27t-12.5 -31z" />
    <glyph glyph-name="uni00A0" unicode="&#xa0;" horiz-adv-x="233" 
 />
    <glyph glyph-name="exclamdown" unicode="&#xa1;" horiz-adv-x="344" 
d="M106 -185v229l34 241h64l34 -241v-229h-132zM238 373h-132v135h132v-135z" />
    <glyph glyph-name="cent" unicode="&#xa2;" 
d="M556 186q-4 -36 -18 -71t-38.5 -63t-60.5 -47t-84 -23v-74h-67v73q-40 1 -80.5 16t-73 47.5t-53 83.5t-20.5 125q0 87 24.5 140.5t60 83t74.5 39.5t68 11v67h67v-68q33 -4 66 -16.5t61 -35.5t47.5 -56.5t24.5 -78.5h-114q-2 16 -8 32.5t-16.5 30.5t-25.5 25t-35 15v-377
q26 6 43 20.5t26.5 32.5t13.5 36.5t4 31.5h114zM288 442q-28 -6 -47 -23.5t-30.5 -43t-16.5 -57t-5 -65.5q0 -55 11.5 -90t27.5 -55t33 -29t27 -12v375z" />
    <glyph glyph-name="sterling" unicode="&#xa3;" 
d="M585 56q-42 -45 -78.5 -61t-70.5 -16q-41 0 -71 11.5t-54 22.5q-20 8 -40 14t-44 6q-28 0 -55.5 -9t-57.5 -29l-59 87q37 24 58 47t31.5 43.5t12.5 38t2 31.5q0 25 -5 36t-7 15h-109v82h75q-21 30 -29 64.5t-8 60.5q0 44 14 84t44.5 70.5t78.5 48.5t116 18
q113 0 175.5 -57.5t62.5 -171.5v-18h-112v16q0 42 -9.5 70.5t-26 46t-39.5 25t-50 7.5q-34 0 -58 -12.5t-39 -32t-22 -43t-7 -45.5q0 -34 12.5 -62.5t29.5 -68.5h130v-82h-98q2 -8 2.5 -19t0.5 -22q0 -39 -20.5 -72.5t-46.5 -56.5l2 -4q12 6 27 8.5t38 2.5q24 0 43 -4
t43 -15q14 -7 32 -15.5t40 -8.5q25 0 45.5 13.5t39.5 39.5z" />
    <glyph glyph-name="currency" unicode="&#xa4;" 
d="M74 160q-29 42 -41 85.5t-12 84.5t11 85t42 85l-111 111l61 61l111 -111q43 33 87.5 45t82.5 12q36 0 64.5 -6.5t49 -15.5t34.5 -18.5t22 -16.5l111 111l61 -61l-111 -111q31 -41 43 -85t12 -85q0 -40 -12.5 -84t-42.5 -86l111 -111l-61 -61l-111 111q-8 -6 -21.5 -16
t-34.5 -19t-49.5 -15.5t-65.5 -6.5q-36 0 -64 6t-48.5 15t-34.5 19t-22 17l-111 -111l-61 61zM124 330q0 -38 14 -71t38.5 -57.5t57.5 -38.5t71 -14t71 14t57.5 38.5t38.5 57.5t14 71t-14 71t-38.5 57.5t-57.5 38.5t-71 14t-71 -14t-57.5 -38.5t-38.5 -57.5t-14 -71z" />
    <glyph glyph-name="yen" unicode="&#xa5;" 
d="M477 700h151l-236 -421v-4h100v-54h-100v-52h100v-54h-100v-115h-128v115h-100v54h100v52h-100v54h100v4l-236 421h151l149 -307z" />
    <glyph glyph-name="brokenbar" unicode="&#xa6;" horiz-adv-x="498" 
d="M290 206v-430h-82v430h82zM208 399v430h82v-430h-82z" />
    <glyph glyph-name="section" unicode="&#xa7;" horiz-adv-x="584" 
d="M366 557q1 27 -4.5 43.5t-14.5 26t-20 12.5t-21 3q-18 0 -29 -6.5t-17.5 -15.5t-9 -19.5t-2.5 -18.5q0 -21 9.5 -36.5t24.5 -27.5t33.5 -21t37.5 -18q28 -14 57.5 -28.5t54 -36.5t40 -54t15.5 -80q0 -44 -13.5 -73.5t-32 -48t-37.5 -28.5t-30 -14q3 -2 12.5 -8.5
t19.5 -19.5t17.5 -33t7.5 -50t-10.5 -57.5t-33 -49t-59 -34.5t-87.5 -13q-57 0 -91.5 19.5t-52.5 47.5t-23.5 59t-5.5 55h100q-2 -18 1 -35.5t12 -31.5t23 -23t35 -9q12 0 24.5 3.5t23 11t17.5 19t7 28.5q0 22 -9 37.5t-23 27t-32.5 19.5t-36.5 16q-37 16 -69.5 35.5t-57 45
t-38.5 59.5t-14 80q0 54 27 95.5t78 55.5q-14 14 -27.5 38.5t-13.5 64.5q0 30 9.5 58t30.5 49.5t54.5 34.5t81.5 13q10 0 37.5 -3t55.5 -18.5t49.5 -49.5t19.5 -96h-100zM337 170q2 1 11 6t18.5 15.5t17.5 26.5t8 39q0 21 -5 36t-13.5 26t-19.5 19t-23 14l-87 49
q-17 -8 -34.5 -27.5t-17.5 -56.5q0 -23 6.5 -39.5t15.5 -28t19.5 -19t18.5 -11.5l85 -49v0z" />
    <glyph glyph-name="dieresis" unicode="&#xa8;" horiz-adv-x="406" 
d="M50 700h116v-106h-116v106zM240 700h116v-106h-116v106z" />
    <glyph glyph-name="copyright" unicode="&#xa9;" horiz-adv-x="800" 
d="M50 350q0 72 27 135.5t74.5 111.5t111 75.5t137.5 27.5q72 0 135.5 -27.5t111.5 -75t75.5 -111t27.5 -136.5t-27.5 -136.5t-75.5 -111t-111.5 -75t-135.5 -27.5q-74 0 -137.5 27.5t-111 75.5t-74.5 111.5t-27 135.5zM130 350q0 -57 21 -108t57.5 -89.5t85.5 -60.5
t106 -22q55 0 103.5 22t85.5 59.5t58.5 88.5t21.5 110q0 58 -21.5 109.5t-58.5 89t-85.5 59.5t-103.5 22q-57 0 -106 -22t-85.5 -60.5t-57.5 -89.5t-21 -108zM545 297q-2 -20 -9.5 -42t-23.5 -40.5t-42.5 -30.5t-65.5 -12q-43 0 -75 13.5t-53 37t-31.5 56.5t-10.5 72
q0 57 16 93.5t40 57.5t53.5 29t56.5 8q39 0 64.5 -11t41 -28.5t22 -37.5t8.5 -38h-76q0 21 -15.5 37t-44.5 16q-34 0 -56 -29t-22 -97q0 -42 9.5 -66t23 -35t27.5 -13.5t23 -2.5q4 0 13.5 1t19.5 7t18 19t9 36h80z" />
    <glyph glyph-name="ordfeminine" unicode="&#xaa;" horiz-adv-x="400" 
d="M61 615q0 16 5.5 34.5t20.5 34.5t41.5 26.5t68.5 10.5q47 0 72.5 -11.5t37.5 -27.5t14.5 -34t2.5 -30v-124q0 -17 4 -27.5t27 -8.5v-54q-5 -1 -9.5 -1.5t-9.5 -1.5t-11 -1h-10q-13 0 -29 7t-18 35q-19 -24 -46.5 -33t-61.5 -9q-17 0 -36.5 3t-35.5 13t-26.5 27.5
t-10.5 46.5q0 27 9 43.5t26.5 27t42.5 16t57 9.5l26 2t23.5 3.5t17 7.5t7.5 15v8q0 4 -1 11.5t-7 15t-19 13t-37 5.5q-41 0 -57.5 -16t-15.5 -36h-62zM260 552q-9 -6 -21.5 -8t-41.5 -5q-12 -2 -26 -3.5t-26 -6t-20 -13.5t-8 -24q0 -14 6 -21.5t14.5 -11t18.5 -4.5t18 -1
q4 0 18 1.5t29 9.5t27 23.5t12 44.5v19zM45 354h310v-44h-310v44z" />
    <glyph glyph-name="guillemotleft" unicode="&#xab;" horiz-adv-x="462" 
d="M211 189v-106l-149 132v110l149 132v-106l-95 -81zM387 189v-106l-149 132v110l149 132v-106l-95 -81z" />
    <glyph glyph-name="logicalnot" unicode="&#xac;" horiz-adv-x="600" 
d="M550 405v-225h-90v137h-410v88h500z" />
    <glyph glyph-name="uni00AD" unicode="&#xad;" horiz-adv-x="420" 
d="M80 322h260v-106h-260v106z" />
    <glyph glyph-name="registered" unicode="&#xae;" horiz-adv-x="800" 
d="M50 350q0 72 27.5 136t75 111.5t111.5 75t136 27.5q73 0 137 -27.5t111 -75t74.5 -111.5t27.5 -136t-27.5 -136t-74.5 -111.5t-111 -75t-137 -27.5q-72 0 -136 27.5t-111.5 75t-75 111.5t-27.5 136zM130 350q0 -58 21 -109t58 -89t86 -60t105 -22t105 22t85.5 60t57.5 89
t21 109t-21 109t-57.5 89t-85.5 60t-105 22t-105 -22t-86 -60t-58 -89t-21 -109zM272 528h153q44 0 67.5 -13t34.5 -30t13 -34t2 -25t-1.5 -19.5t-7.5 -22.5t-18 -21.5t-32 -16.5v-2q17 -3 26.5 -12t14.5 -20.5t6.5 -25t2.5 -25.5q1 -20 1.5 -33t1.5 -21.5t3.5 -15
t7.5 -13.5h-82q-5 6 -7.5 12t-3.5 14t-1 21t-1 33q0 10 -2 20t-9.5 18t-23 13t-42.5 5h-23v-136h-80v350zM352 376h60q29 0 39 14.5t10 30.5t-7 25.5t-16.5 13.5t-19 5t-13.5 1h-53v-90z" />
    <glyph glyph-name="macron" unicode="&#xaf;" horiz-adv-x="430" 
d="M50 684h330v-82h-165h-165v82z" />
    <glyph glyph-name="degree" unicode="&#xb0;" horiz-adv-x="300" 
d="M50 600q0 21 7.5 39t21 31.5t32 21.5t39.5 8t39 -8t31.5 -21.5t21.5 -31.5t8 -39t-8 -39.5t-21.5 -32t-31.5 -21t-39 -7.5t-39.5 7.5t-32 21t-21 32t-7.5 39.5zM104 600q0 -20 13 -33t33 -13t33 13t13 33t-13 33t-33 13t-33 -13t-13 -33z" />
    <glyph glyph-name="plusminus" unicode="&#xb1;" horiz-adv-x="600" 
d="M257 463v187h86v-187h207v-86h-207v-167h-86v167h-207v86h207zM550 166v-86h-500v86h500z" />
    <glyph glyph-name="twosuperior" unicode="&#xb2;" horiz-adv-x="372" 
d="M335 280h-300q1 41 12.5 69t31.5 49t46 38t55 35q13 9 28 19t27 23t20 29t8 36q0 10 -3 22.5t-11.5 23.5t-23.5 19t-39 8q-29 0 -45.5 -10t-24.5 -23t-9.5 -26.5t-1.5 -20.5v-12h-70v13q0 23 7 48t24.5 45.5t46.5 34t74 13.5q39 0 67 -11t46.5 -29.5t27.5 -42t9 -48.5
q0 -33 -11 -56.5t-30 -41.5t-43 -33t-49 -31q-28 -17 -50 -33t-36 -45h217v-62z" />
    <glyph glyph-name="threesuperior" unicode="&#xb3;" horiz-adv-x="372" 
d="M104 415q0 -11 3 -25.5t11.5 -28t24 -23t41.5 -9.5q44 0 62 21.5t18 50.5q0 24 -10 37t-22.5 19.5t-25 7.5t-16.5 1h-31v64h27q40 0 55 19.5t15 45.5q0 31 -22 43.5t-49 12.5q-30 0 -49 -18t-21 -68h-70q0 27 6.5 53.5t22.5 47.5t43.5 34t69.5 13q27 0 52 -6.5
t44.5 -20.5t31 -36t11.5 -53q0 -22 -7 -38t-17.5 -27t-23 -17.5t-24.5 -10.5v-4q13 -2 28 -7.5t27.5 -17.5t20.5 -31t8 -47q0 -35 -13 -60t-34.5 -40.5t-49.5 -22.5t-58 -7q-45 0 -73.5 15t-45 37.5t-23.5 48.5t-7 47h70z" />
    <glyph glyph-name="acute" unicode="&#xb4;" horiz-adv-x="340" 
d="M296 700l-110 -132h-90l70 132h130z" />
    <glyph glyph-name="mu" unicode="&#xb5;" horiz-adv-x="600" 
d="M205 -185h-120v693h120v-277q0 -15 1.5 -42t10.5 -53t28 -45.5t55 -19.5q15 0 31.5 6t31 23t23.5 48.5t9 82.5v277h120v-365q0 -9 0.5 -20.5t4.5 -20.5t12 -15t23 -5l13 1v-83q-16 -2 -38.5 -3.5t-38.5 -1.5q-15 0 -30 2t-28.5 8.5t-23.5 18t-14 31.5q-6 -13 -14.5 -26
t-20.5 -24t-27.5 -18t-35.5 -7q-30 0 -55 19.5t-37 45.5v-230z" />
    <glyph glyph-name="paragraph" unicode="&#xb6;" horiz-adv-x="560" 
d="M219 340q-41 0 -74 13.5t-56.5 37.5t-36 57t-12.5 72q0 87 49 133.5t130 46.5h82v-885h-82v525zM408 700h82v-885h-82v885z" />
    <glyph glyph-name="periodcentered" unicode="&#xb7;" horiz-adv-x="250" 
d="M59 335h132v-135h-132v135z" />
    <glyph glyph-name="cedilla" unicode="&#xb8;" horiz-adv-x="320" 
d="M69 -171q19 -6 33.5 -7.5t24.5 -1.5q18 0 28.5 4t16 9t7 11t1.5 10q0 11 -5.5 16.5t-13.5 8t-17 3t-16 0.5h-43l18 60h46q10 0 30 -1.5t40.5 -10t35.5 -26.5t15 -52q0 -26 -11 -43.5t-30 -28.5t-45 -15.5t-55 -4.5q-14 0 -33.5 1.5t-45.5 6.5z" />
    <glyph glyph-name="onesuperior" unicode="&#xb9;" horiz-adv-x="372" 
d="M82 631h12q48 0 72 21t29 48h57v-420h-74v309h-96v42z" />
    <glyph glyph-name="ordmasculine" unicode="&#xba;" horiz-adv-x="390" 
d="M195 721q48 0 77.5 -17.5t45.5 -43t21.5 -53.5t5.5 -50t-5.5 -50t-21.5 -53.5t-45.5 -43t-77.5 -17.5t-77.5 17.5t-45.5 43t-21.5 53.5t-5.5 50t5.5 50t21.5 53.5t45.5 43t77.5 17.5zM195 667q-25 0 -41 -10t-25 -26t-12.5 -35.5t-3.5 -38.5t3.5 -38.5t12.5 -35.5t25 -26
t41 -10t41 10t25 26t12.5 35.5t3.5 38.5t-3.5 38.5t-12.5 35.5t-25 26t-41 10zM45 354h300v-44h-300v44z" />
    <glyph glyph-name="guillemotright" unicode="&#xbb;" horiz-adv-x="462" 
d="M251 351v106l149 -132v-110l-149 -132v106l94 81zM75 351v106l149 -132v-110l-149 -132v106l94 81z" />
    <glyph glyph-name="onequarter" unicode="&#xbc;" horiz-adv-x="844" 
d="M490 94v62l202 264h74v-264h60v-62h-60v-94h-74v94h-202zM692 156v164l-122 -164h122zM82 631h12q48 0 72 21t29 48h57v-420h-74v309h-96v42zM620 700h72l-428 -700h-72z" />
    <glyph glyph-name="onehalf" unicode="&#xbd;" horiz-adv-x="844" 
d="M82 631h12q48 0 72 21t29 48h57v-420h-74v309h-96v42zM807 0h-300q1 41 12.5 69t31.5 49t46 38t55 35q13 9 28 19t27 23t20 29t8 36q0 10 -3 22.5t-11.5 23.5t-23.5 19t-39 8q-29 0 -45.5 -10t-24.5 -23t-9.5 -26.5t-1.5 -20.5v-12h-70v13q0 23 7 48t24.5 45.5t46.5 34
t74 13.5q39 0 67 -11t46.5 -29.5t27.5 -42t9 -48.5q0 -33 -11 -56.5t-30 -41.5t-43 -33t-49 -31q-28 -17 -50 -33t-36 -45h217v-62zM580 700h72l-428 -700h-72z" />
    <glyph glyph-name="threequarters" unicode="&#xbe;" horiz-adv-x="844" 
d="M104 415q0 -8 1 -12q3 -25 12.5 -39.5t21.5 -22t24 -10t21 -2.5q44 0 62 21.5t18 50.5q0 24 -10 37t-22.5 19.5t-25 7.5t-16.5 1h-31v64h27q40 0 55 19.5t15 45.5q0 31 -22 43.5t-49 12.5q-30 0 -49 -18t-21 -68h-70q0 27 6.5 53.5t22.5 47.5t43.5 34t69.5 13
q27 0 52 -6.5t44.5 -20.5t31 -36t11.5 -53q0 -22 -7 -38t-17.5 -27t-23 -17.5t-24.5 -10.5v-4q13 -2 28 -7.5t27.5 -17.5t20.5 -31t8 -47q0 -35 -13 -60t-34.5 -40.5t-49.5 -22.5t-58 -7q-35 0 -61 10t-44 27.5t-28 40t-14 47.5q-1 6 -1.5 11.5t-0.5 11.5h70zM490 94v62
l202 264h74v-264h60v-62h-60v-94h-74v94h-202zM692 156v164l-122 -164h122zM640 700h72l-428 -700h-72z" />
    <glyph glyph-name="questiondown" unicode="&#xbf;" horiz-adv-x="576" 
d="M361 373h-132v135h132v-135zM523 31q1 -35 -7.5 -76t-34.5 -77t-73.5 -60t-123.5 -24q-65 0 -109 17t-71 44.5t-39 63t-12 71.5q0 31 8 54.5t21.5 42t30.5 33t35 28.5q28 21 46 35.5t29 28t15.5 28.5t4.5 35v18h100q0 -24 -0.5 -42t-4.5 -34t-13 -31t-24 -33
q-15 -17 -35.5 -32.5t-38.5 -32.5t-31 -38.5t-13 -51.5q0 -19 5.5 -37t18 -31.5t32 -21.5t47.5 -8q22 0 43.5 6t37.5 21t25 40t8 64h123z" />
    <glyph glyph-name="Agrave" unicode="&#xc0;" horiz-adv-x="648" 
d="M133 0h-137l264 700h128l264 -700h-137l-51 147h-280zM430 253l-106 311l-106 -311h212zM405 760h-96l-118 140h136z" />
    <glyph glyph-name="Aacute" unicode="&#xc1;" horiz-adv-x="648" 
d="M133 0h-137l264 700h128l264 -700h-137l-51 147h-280zM430 253l-106 311l-106 -311h212zM457 900l-118 -140h-96l78 140h136z" />
    <glyph glyph-name="Acircumflex" unicode="&#xc2;" horiz-adv-x="648" 
d="M133 0h-137l264 700h128l264 -700h-137l-51 147h-280zM430 253l-106 311l-106 -311h212zM224 760h-120l134 140h172l134 -140h-120l-100 94z" />
    <glyph glyph-name="Atilde" unicode="&#xc3;" horiz-adv-x="648" 
d="M133 0h-137l264 700h128l264 -700h-137l-51 147h-280zM430 253l-106 311l-106 -311h212zM535 880q-4 -19 -12 -39.5t-23 -37.5t-38 -28t-56 -11q-23 0 -41 5.5t-44 16.5q-20 8 -38.5 15t-38.5 7t-34.5 -9.5t-16.5 -26.5h-80q3 21 11.5 41.5t24.5 37t38.5 27t54.5 10.5
q24 0 41.5 -4.5t43.5 -15.5q13 -5 22.5 -9.5t17.5 -7.5t17 -5t20 -2q24 0 36.5 11t14.5 25h80z" />
    <glyph glyph-name="Adieresis" unicode="&#xc4;" horiz-adv-x="648" 
d="M133 0h-137l264 700h128l264 -700h-137l-51 147h-280zM430 253l-106 311l-106 -311h212zM141 860h128v-88h-128v88zM379 860h128v-88h-128v88z" />
    <glyph glyph-name="Aring" unicode="&#xc5;" horiz-adv-x="648" 
d="M133 0h-137l264 700h128l264 -700h-137l-51 147h-280zM430 253l-106 311l-106 -311h212zM224 820q0 21 7.5 39t21 31.5t32 21.5t39.5 8t39 -8t31.5 -21.5t21.5 -31.5t8 -39t-8 -39.5t-21.5 -32t-31.5 -21t-39 -7.5t-39.5 7.5t-32 21t-21 32t-7.5 39.5zM280 820
q0 -18 13 -31t31 -13t31 13t13 31t-13 31t-31 13t-31 -13t-13 -31z" />
    <glyph glyph-name="AE" unicode="&#xc6;" horiz-adv-x="1062" 
d="M509 154h-278l-84 -154h-152l397 700h642v-106h-397v-182h356v-106h-356v-200h408v-106h-536v154zM509 594h-42l-180 -334h222v334z" />
    <glyph glyph-name="Ccedilla" unicode="&#xc7;" horiz-adv-x="733" 
d="M695 239q-4 -40 -18.5 -85.5t-48 -84.5t-90.5 -64.5t-146 -25.5q-13 0 -44 2t-70 12.5t-80 32.5t-75 61.5t-56 100.5t-22 150q0 108 28.5 181.5t76 118t109 64t126.5 19.5q90 0 147.5 -24.5t90.5 -61.5t46.5 -80.5t15.5 -80.5h-127q-3 22 -12 46.5t-28.5 45.5t-51.5 35
t-81 14q-59 0 -98 -22t-62 -59.5t-33 -87t-10 -103.5q0 -62 16 -110t44.5 -81t68.5 -50t87 -17q43 0 74.5 13.5t52.5 35.5t31 49.5t12 55.5h127zM276 -171q19 -6 33.5 -7.5t24.5 -1.5q18 0 28.5 4t16 9t7 11t1.5 10q0 11 -5.5 16.5t-13.5 8t-17 3t-16 0.5h-43l18 60h46
q10 0 30 -1.5t40.5 -10t35.5 -26.5t15 -52q0 -26 -11 -43.5t-30 -28.5t-45 -15.5t-55 -4.5q-14 0 -33.5 1.5t-45.5 6.5z" />
    <glyph glyph-name="Egrave" unicode="&#xc8;" horiz-adv-x="638" 
d="M569 412v-106h-356v-200h408v-106h-536v700h525v-106h-397v-182h356zM400 760h-96l-118 140h136z" />
    <glyph glyph-name="Eacute" unicode="&#xc9;" horiz-adv-x="638" 
d="M569 412v-106h-356v-200h408v-106h-536v700h525v-106h-397v-182h356zM452 900l-118 -140h-96l78 140h136z" />
    <glyph glyph-name="Ecircumflex" unicode="&#xca;" horiz-adv-x="638" 
d="M569 412v-106h-356v-200h408v-106h-536v700h525v-106h-397v-182h356zM219 760h-120l134 140h172l134 -140h-120l-100 94z" />
    <glyph glyph-name="Edieresis" unicode="&#xcb;" horiz-adv-x="638" 
d="M569 412v-106h-356v-200h408v-106h-536v700h525v-106h-397v-182h356zM136 860h128v-88h-128v88zM374 860h128v-88h-128v88z" />
    <glyph glyph-name="Igrave" unicode="&#xcc;" horiz-adv-x="298" 
d="M213 700v-700h-128v700h128zM210 760h-96l-118 140h136z" />
    <glyph glyph-name="Iacute" unicode="&#xcd;" horiz-adv-x="298" 
d="M213 700v-700h-128v700h128zM266 900l-118 -140h-96l78 140h136z" />
    <glyph glyph-name="Icircumflex" unicode="&#xce;" horiz-adv-x="298" 
d="M213 700v-700h-128v700h128zM49 760h-120l134 140h172l134 -140h-120l-100 94z" />
    <glyph glyph-name="Idieresis" unicode="&#xcf;" horiz-adv-x="298" 
d="M213 700v-700h-128v700h128zM-31 860h128v-88h-128v88zM207 860h128v-88h-128v88z" />
    <glyph glyph-name="Eth" unicode="&#xd0;" horiz-adv-x="756" 
d="M373 700q72 0 125 -15.5t90.5 -41.5t61.5 -60.5t37.5 -73.5t18.5 -79.5t5 -77.5q0 -79 -17 -136t-45.5 -96t-66 -62.5t-78 -36.5t-81 -17t-75.5 -4h-253v356h-95v82h95v262h278zM223 438h197v-82h-197v-250h119q15 0 38.5 2t49 9.5t51.5 23t46.5 42.5t33.5 67.5t13 99.5
q0 54 -10.5 93t-27.5 66t-39 44t-45.5 26t-47 12t-42.5 3h-139v-156z" />
    <glyph glyph-name="Ntilde" unicode="&#xd1;" horiz-adv-x="770" 
d="M213 0h-128v700h136l336 -497v497h128v-700h-136l-336 497v-497zM596 880q-4 -19 -12 -39.5t-23 -37.5t-38 -28t-56 -11q-23 0 -41 5.5t-44 16.5q-20 8 -38.5 15t-38.5 7t-34.5 -9.5t-16.5 -26.5h-80q3 21 11.5 41.5t24.5 37t38.5 27t54.5 10.5q24 0 41.5 -4.5
t43.5 -15.5q13 -5 22.5 -9.5t17.5 -7.5t17 -5t20 -2q24 0 36.5 11t14.5 25h80z" />
    <glyph glyph-name="Ograve" unicode="&#xd2;" horiz-adv-x="776" 
d="M388 721q15 0 46.5 -2.5t69.5 -13t78.5 -33.5t73.5 -64.5t54 -104t21 -153.5t-21 -153.5t-54 -104t-73.5 -64.5t-78.5 -33.5t-69.5 -13t-46.5 -2.5t-46.5 2.5t-69.5 13t-78.5 33.5t-73.5 64.5t-54 104t-21 153.5t21 153.5t54 104t73.5 64.5t78.5 33.5t69.5 13t46.5 2.5z
M388 615q-65 0 -105 -26t-62.5 -66t-30.5 -86.5t-8 -86.5q0 -41 8 -87t30.5 -86t62.5 -66t105 -26t105 26t62.5 66t30.5 86t8 87q0 40 -8 86.5t-30.5 86.5t-62.5 66t-105 26zM469 760h-96l-118 140h136z" />
    <glyph glyph-name="Oacute" unicode="&#xd3;" horiz-adv-x="776" 
d="M388 721q15 0 46.5 -2.5t69.5 -13t78.5 -33.5t73.5 -64.5t54 -104t21 -153.5t-21 -153.5t-54 -104t-73.5 -64.5t-78.5 -33.5t-69.5 -13t-46.5 -2.5t-46.5 2.5t-69.5 13t-78.5 33.5t-73.5 64.5t-54 104t-21 153.5t21 153.5t54 104t73.5 64.5t78.5 33.5t69.5 13t46.5 2.5z
M388 615q-65 0 -105 -26t-62.5 -66t-30.5 -86.5t-8 -86.5q0 -41 8 -87t30.5 -86t62.5 -66t105 -26t105 26t62.5 66t30.5 86t8 87q0 40 -8 86.5t-30.5 86.5t-62.5 66t-105 26zM521 900l-118 -140h-96l78 140h136z" />
    <glyph glyph-name="Ocircumflex" unicode="&#xd4;" horiz-adv-x="776" 
d="M388 721q15 0 46.5 -2.5t69.5 -13t78.5 -33.5t73.5 -64.5t54 -104t21 -153.5t-21 -153.5t-54 -104t-73.5 -64.5t-78.5 -33.5t-69.5 -13t-46.5 -2.5t-46.5 2.5t-69.5 13t-78.5 33.5t-73.5 64.5t-54 104t-21 153.5t21 153.5t54 104t73.5 64.5t78.5 33.5t69.5 13t46.5 2.5z
M388 615q-65 0 -105 -26t-62.5 -66t-30.5 -86.5t-8 -86.5q0 -41 8 -87t30.5 -86t62.5 -66t105 -26t105 26t62.5 66t30.5 86t8 87q0 40 -8 86.5t-30.5 86.5t-62.5 66t-105 26zM288 760h-120l134 140h172l134 -140h-120l-100 94z" />
    <glyph glyph-name="Otilde" unicode="&#xd5;" horiz-adv-x="776" 
d="M388 721q15 0 46.5 -2.5t69.5 -13t78.5 -33.5t73.5 -64.5t54 -104t21 -153.5t-21 -153.5t-54 -104t-73.5 -64.5t-78.5 -33.5t-69.5 -13t-46.5 -2.5t-46.5 2.5t-69.5 13t-78.5 33.5t-73.5 64.5t-54 104t-21 153.5t21 153.5t54 104t73.5 64.5t78.5 33.5t69.5 13t46.5 2.5z
M388 615q-65 0 -105 -26t-62.5 -66t-30.5 -86.5t-8 -86.5q0 -41 8 -87t30.5 -86t62.5 -66t105 -26t105 26t62.5 66t30.5 86t8 87q0 40 -8 86.5t-30.5 86.5t-62.5 66t-105 26zM599 880q-4 -19 -12 -39.5t-23 -37.5t-38 -28t-56 -11q-23 0 -41 5.5t-44 16.5q-20 8 -38.5 15
t-38.5 7t-34.5 -9.5t-16.5 -26.5h-80q3 21 11.5 41.5t24.5 37t38.5 27t54.5 10.5q24 0 41.5 -4.5t43.5 -15.5q13 -5 22.5 -9.5t17.5 -7.5t17 -5t20 -2q24 0 36.5 11t14.5 25h80z" />
    <glyph glyph-name="Odieresis" unicode="&#xd6;" horiz-adv-x="776" 
d="M388 721q15 0 46.5 -2.5t69.5 -13t78.5 -33.5t73.5 -64.5t54 -104t21 -153.5t-21 -153.5t-54 -104t-73.5 -64.5t-78.5 -33.5t-69.5 -13t-46.5 -2.5t-46.5 2.5t-69.5 13t-78.5 33.5t-73.5 64.5t-54 104t-21 153.5t21 153.5t54 104t73.5 64.5t78.5 33.5t69.5 13t46.5 2.5z
M388 615q-65 0 -105 -26t-62.5 -66t-30.5 -86.5t-8 -86.5q0 -41 8 -87t30.5 -86t62.5 -66t105 -26t105 26t62.5 66t30.5 86t8 87q0 40 -8 86.5t-30.5 86.5t-62.5 66t-105 26zM205 860h128v-88h-128v88zM443 860h128v-88h-128v88z" />
    <glyph glyph-name="multiply" unicode="&#xd7;" horiz-adv-x="600" 
d="M239 349l-183 183l61 61l183 -183l183 183l61 -61l-183 -183l183 -183l-61 -61l-183 183l-183 -183l-61 61z" />
    <glyph glyph-name="Oslash" unicode="&#xd8;" horiz-adv-x="796" 
d="M661 611q16 -19 30.5 -42.5t25.5 -55t17.5 -72t6.5 -91.5q0 -65 -11.5 -115t-30 -87.5t-42 -64t-47.5 -44.5q-53 -38 -108.5 -49t-103.5 -11q-45 0 -78.5 5.5t-58 14t-41.5 18.5t-28 18l-87 -107l-60 50l90 110q-15 19 -29.5 43t-26 55.5t-18 72t-6.5 91.5q0 65 11.5 115
t30 87.5t42 64t47.5 44.5q53 38 108.5 49t103.5 11q50 0 85.5 -6.5t60 -15.5t39 -18.5t21.5 -15.5l87 107l60 -50zM528 571q-34 28 -67.5 36t-62.5 8q-65 0 -105 -26t-62.5 -66t-30.5 -86.5t-8 -86.5q0 -35 6.5 -76.5t23.5 -78.5zM268 129q20 -17 50.5 -30.5t79.5 -13.5
q65 0 105 26.5t62.5 66t30.5 86t8 86.5q0 35 -6.5 76.5t-23.5 78.5z" />
    <glyph glyph-name="Ugrave" unicode="&#xd9;" horiz-adv-x="722" 
d="M200 700v-411q0 -105 35.5 -154.5t125.5 -49.5t125.5 49.5t35.5 154.5v411h128v-431q0 -28 -2.5 -60.5t-12.5 -65t-28.5 -62t-51 -52.5t-80 -36.5t-114.5 -13.5t-114.5 13.5t-80 36.5t-51 52.5t-28.5 62t-12.5 65t-2.5 60.5v431h128zM442 760h-96l-118 140h136z" />
    <glyph glyph-name="Uacute" unicode="&#xda;" horiz-adv-x="722" 
d="M200 700v-411q0 -105 35.5 -154.5t125.5 -49.5t125.5 49.5t35.5 154.5v411h128v-431q0 -28 -2.5 -60.5t-12.5 -65t-28.5 -62t-51 -52.5t-80 -36.5t-114.5 -13.5t-114.5 13.5t-80 36.5t-51 52.5t-28.5 62t-12.5 65t-2.5 60.5v431h128zM494 900l-118 -140h-96l78 140h136z
" />
    <glyph glyph-name="Ucircumflex" unicode="&#xdb;" horiz-adv-x="722" 
d="M200 700v-411q0 -105 35.5 -154.5t125.5 -49.5t125.5 49.5t35.5 154.5v411h128v-431q0 -28 -2.5 -60.5t-12.5 -65t-28.5 -62t-51 -52.5t-80 -36.5t-114.5 -13.5t-114.5 13.5t-80 36.5t-51 52.5t-28.5 62t-12.5 65t-2.5 60.5v431h128zM261 760h-120l134 140h172l134 -140
h-120l-100 94z" />
    <glyph glyph-name="Udieresis" unicode="&#xdc;" horiz-adv-x="722" 
d="M200 700v-411q0 -105 35.5 -154.5t125.5 -49.5t125.5 49.5t35.5 154.5v411h128v-431q0 -28 -2.5 -60.5t-12.5 -65t-28.5 -62t-51 -52.5t-80 -36.5t-114.5 -13.5t-114.5 13.5t-80 36.5t-51 52.5t-28.5 62t-12.5 65t-2.5 60.5v431h128zM178 860h128v-88h-128v88zM416 860
h128v-88h-128v88z" />
    <glyph glyph-name="Yacute" unicode="&#xdd;" horiz-adv-x="634" 
d="M487 700h151l-257 -421v-279h-128v279l-257 421h151l170 -307zM450 900l-118 -140h-96l78 140h136z" />
    <glyph glyph-name="Thorn" unicode="&#xde;" horiz-adv-x="670" 
d="M213 700v-121h182q19 0 44.5 -2t52.5 -9.5t53 -22t47 -39.5t33.5 -62.5t12.5 -89.5q0 -53 -15 -90t-38.5 -61t-52 -37.5t-55.5 -19.5t-49.5 -7.5t-33.5 -1.5h-181v-137h-128v700h128zM213 243h156q63 0 100 25.5t37 91.5q0 39 -13.5 61.5t-33.5 34t-43.5 14.5t-43.5 3
h-159v-230z" />
    <glyph glyph-name="germandbls" unicode="&#xdf;" horiz-adv-x="595" 
d="M72 458q0 28 1.5 58.5t8.5 59.5t21 55t39.5 46t63.5 31.5t93 11.5q96 0 150 -45.5t54 -136.5q0 -41 -19.5 -78t-70.5 -57v-2q22 -5 47.5 -16t47.5 -33t36.5 -56.5t14.5 -85.5q0 -63 -19 -104.5t-51.5 -67t-74.5 -36t-88 -10.5q-19 0 -34.5 1.5t-32.5 6.5v82q11 -4 23 -6
t28 -2q35 0 59 12.5t38.5 32.5t20.5 45t6 51q0 47 -16 73.5t-39.5 40t-50.5 16.5t-48 3h-21v82h25q34 0 54 12t30 28.5t12.5 34t2.5 29.5q0 55 -25 79.5t-66 24.5q-34 0 -54 -13t-30 -34.5t-13 -48.5t-3 -55v-487h-120v458z" />
    <glyph glyph-name="agrave" unicode="&#xe0;" horiz-adv-x="577" 
d="M50 351q-1 35 12 67t41 56.5t72 39t107 14.5q77 0 121 -19.5t65.5 -48t27 -59.5t5.5 -53v-203q0 -18 1 -30.5t5.5 -20t13 -10t24.5 -1.5v-83q-23 -2 -34 -2.5t-19 -0.5q-12 0 -27 1.5t-30 8t-26.5 20t-15.5 36.5q-33 -42 -75.5 -58.5t-93.5 -16.5q-66 0 -103.5 17
t-56 40.5t-23 48.5t-4.5 41q0 40 15 66t35 42.5t39 24t28 9.5q29 8 57.5 11t60.5 8q12 2 24.5 3.5t24.5 3.5q16 2 27 4t18.5 7t11 15t3.5 29q0 30 -10 47.5t-25 26.5t-32 11.5t-32 2.5q-33 0 -56 -8t-37 -21.5t-20 -30.5t-5 -35h-114zM381 244q-10 -7 -26.5 -11.5
t-59.5 -9.5q-31 -4 -55.5 -8.5t-42 -13t-27 -23t-9.5 -39.5q0 -29 18.5 -49t60.5 -20q22 0 47 6t46 22.5t34.5 47t13.5 80.5v18zM362 568h-90l-110 132h130z" />
    <glyph glyph-name="aacute" unicode="&#xe1;" horiz-adv-x="577" 
d="M50 351q-1 35 12 67t41 56.5t72 39t107 14.5q77 0 121 -19.5t65.5 -48t27 -59.5t5.5 -53v-203q0 -18 1 -30.5t5.5 -20t13 -10t24.5 -1.5v-83q-23 -2 -34 -2.5t-19 -0.5q-12 0 -27 1.5t-30 8t-26.5 20t-15.5 36.5q-33 -42 -75.5 -58.5t-93.5 -16.5q-66 0 -103.5 17
t-56 40.5t-23 48.5t-4.5 41q0 40 15 66t35 42.5t39 24t28 9.5q29 8 57.5 11t60.5 8q12 2 24.5 3.5t24.5 3.5q16 2 27 4t18.5 7t11 15t3.5 29q0 30 -10 47.5t-25 26.5t-32 11.5t-32 2.5q-33 0 -56 -8t-37 -21.5t-20 -30.5t-5 -35h-114zM381 244q-10 -7 -26.5 -11.5
t-59.5 -9.5q-31 -4 -55.5 -8.5t-42 -13t-27 -23t-9.5 -39.5q0 -29 18.5 -49t60.5 -20q22 0 47 6t46 22.5t34.5 47t13.5 80.5v18zM414 700l-110 -132h-90l70 132h130z" />
    <glyph glyph-name="acircumflex" unicode="&#xe2;" horiz-adv-x="577" 
d="M50 351q-1 35 12 67t41 56.5t72 39t107 14.5q77 0 121 -19.5t65.5 -48t27 -59.5t5.5 -53v-203q0 -18 1 -30.5t5.5 -20t13 -10t24.5 -1.5v-83q-23 -2 -34 -2.5t-19 -0.5q-12 0 -27 1.5t-30 8t-26.5 20t-15.5 36.5q-33 -42 -75.5 -58.5t-93.5 -16.5q-66 0 -103.5 17
t-56 40.5t-23 48.5t-4.5 41q0 40 15 66t35 42.5t39 24t28 9.5q29 8 57.5 11t60.5 8q12 2 24.5 3.5t24.5 3.5q16 2 27 4t18.5 7t11 15t3.5 29q0 30 -10 47.5t-25 26.5t-32 11.5t-32 2.5q-33 0 -56 -8t-37 -21.5t-20 -30.5t-5 -35h-114zM381 244q-10 -7 -26.5 -11.5
t-59.5 -9.5q-31 -4 -55.5 -8.5t-42 -13t-27 -23t-9.5 -39.5q0 -29 18.5 -49t60.5 -20q22 0 47 6t46 22.5t34.5 47t13.5 80.5v18zM198 568h-110l120 132h160l120 -132h-110l-90 89z" />
    <glyph glyph-name="atilde" unicode="&#xe3;" horiz-adv-x="577" 
d="M50 351q-1 35 12 67t41 56.5t72 39t107 14.5q77 0 121 -19.5t65.5 -48t27 -59.5t5.5 -53v-203q0 -18 1 -30.5t5.5 -20t13 -10t24.5 -1.5v-83q-23 -2 -34 -2.5t-19 -0.5q-12 0 -27 1.5t-30 8t-26.5 20t-15.5 36.5q-33 -42 -75.5 -58.5t-93.5 -16.5q-66 0 -103.5 17
t-56 40.5t-23 48.5t-4.5 41q0 40 15 66t35 42.5t39 24t28 9.5q29 8 57.5 11t60.5 8q12 2 24.5 3.5t24.5 3.5q16 2 27 4t18.5 7t11 15t3.5 29q0 30 -10 47.5t-25 26.5t-32 11.5t-32 2.5q-33 0 -56 -8t-37 -21.5t-20 -30.5t-5 -35h-114zM381 244q-10 -7 -26.5 -11.5
t-59.5 -9.5q-31 -4 -55.5 -8.5t-42 -13t-27 -23t-9.5 -39.5q0 -29 18.5 -49t60.5 -20q22 0 47 6t46 22.5t34.5 47t13.5 80.5v18zM480 700q-8 -49 -42.5 -75.5t-75.5 -26.5q-22 0 -40.5 6.5t-36.5 15.5q-18 8 -34 15t-35 7q-25 0 -34.5 -12.5t-11.5 -23.5h-74q3 20 12.5 38.5
t24.5 32.5t35.5 22.5t45.5 8.5q23 0 40.5 -5.5t36.5 -14.5q22 -10 35 -17t34 -7q25 0 34.5 12.5t11.5 23.5h74z" />
    <glyph glyph-name="adieresis" unicode="&#xe4;" horiz-adv-x="577" 
d="M50 351q-1 35 12 67t41 56.5t72 39t107 14.5q77 0 121 -19.5t65.5 -48t27 -59.5t5.5 -53v-203q0 -18 1 -30.5t5.5 -20t13 -10t24.5 -1.5v-83q-23 -2 -34 -2.5t-19 -0.5q-12 0 -27 1.5t-30 8t-26.5 20t-15.5 36.5q-33 -42 -75.5 -58.5t-93.5 -16.5q-66 0 -103.5 17
t-56 40.5t-23 48.5t-4.5 41q0 40 15 66t35 42.5t39 24t28 9.5q29 8 57.5 11t60.5 8q12 2 24.5 3.5t24.5 3.5q16 2 27 4t18.5 7t11 15t3.5 29q0 30 -10 47.5t-25 26.5t-32 11.5t-32 2.5q-33 0 -56 -8t-37 -21.5t-20 -30.5t-5 -35h-114zM381 244q-10 -7 -26.5 -11.5
t-59.5 -9.5q-31 -4 -55.5 -8.5t-42 -13t-27 -23t-9.5 -39.5q0 -29 18.5 -49t60.5 -20q22 0 47 6t46 22.5t34.5 47t13.5 80.5v18zM135 700h116v-106h-116v106zM325 700h116v-106h-116v106z" />
    <glyph glyph-name="aring" unicode="&#xe5;" horiz-adv-x="577" 
d="M50 351q-1 35 12 67t41 56.5t72 39t107 14.5q77 0 121 -19.5t65.5 -48t27 -59.5t5.5 -53v-203q0 -18 1 -30.5t5.5 -20t13 -10t24.5 -1.5v-83q-23 -2 -34 -2.5t-19 -0.5q-12 0 -27 1.5t-30 8t-26.5 20t-15.5 36.5q-33 -42 -75.5 -58.5t-93.5 -16.5q-66 0 -103.5 17
t-56 40.5t-23 48.5t-4.5 41q0 40 15 66t35 42.5t39 24t28 9.5q29 8 57.5 11t60.5 8q12 2 24.5 3.5t24.5 3.5q16 2 27 4t18.5 7t11 15t3.5 29q0 30 -10 47.5t-25 26.5t-32 11.5t-32 2.5q-33 0 -56 -8t-37 -21.5t-20 -30.5t-5 -35h-114zM381 244q-10 -7 -26.5 -11.5
t-59.5 -9.5q-31 -4 -55.5 -8.5t-42 -13t-27 -23t-9.5 -39.5q0 -29 18.5 -49t60.5 -20q22 0 47 6t46 22.5t34.5 47t13.5 80.5v18zM194 634q0 19 7.5 36t20.5 30t30 20.5t36 7.5t36 -7.5t30 -20.5t20.5 -30t7.5 -36t-7.5 -36t-20.5 -30t-30 -20.5t-36 -7.5t-36 7.5t-30 20.5
t-20.5 30t-7.5 36zM244 634q0 -18 13 -31t31 -13t31 13t13 31t-13 31t-31 13t-31 -13t-13 -31z" />
    <glyph glyph-name="ae" unicode="&#xe6;" horiz-adv-x="930" 
d="M50 351q-1 34 12 66t41 57t72 39.5t107 14.5q58 0 104.5 -15.5t68.5 -63.5q20 28 45.5 43.5t51 23.5t48.5 10t38 2q14 0 38.5 -2t52 -11t55.5 -26.5t51 -48t37.5 -76.5t14.5 -112v-29h-380q0 -24 6.5 -52.5t23 -52.5t43.5 -40t67 -16q20 0 40 5.5t36.5 16t27.5 26.5
t14 37h114q-5 -25 -17.5 -54t-40 -54t-72 -42t-112.5 -17q-27 0 -54.5 3.5t-53.5 13.5t-49 28t-41 47q-16 -29 -41.5 -46.5t-55 -28t-60.5 -14t-58 -3.5q-24 0 -56.5 4t-61.5 20t-49 47t-20 84q0 40 15 66t35 42.5t39 24t28 9.5q31 8 68.5 13t98.5 13q16 2 27 4t18.5 7
t11 15t3.5 29q0 30 -10 47.5t-25 26.5t-32 11.5t-32 2.5q-33 0 -56 -8t-37 -21.5t-20 -30.5t-5 -35h-114zM381 244q-10 -7 -26.5 -11.5t-59.5 -9.5q-31 -4 -56 -8.5t-42 -13t-26.5 -23t-9.5 -39.5q0 -32 18.5 -54.5t60.5 -22.5q22 0 47 6t46 22.5t34.5 47t13.5 80.5v26z
M760 305q0 17 -4.5 41.5t-17 46.5t-36.5 37.5t-63 15.5q-35 0 -60.5 -13t-41.5 -33t-23.5 -45t-6.5 -50h253z" />
    <glyph glyph-name="ccedilla" unicode="&#xe7;" horiz-adv-x="574" 
d="M538 186q-3 -28 -14.5 -63.5t-38.5 -67t-72 -53.5t-115 -22q-65 0 -113 20t-79.5 56t-47 86.5t-15.5 110.5q0 65 14 110.5t36.5 76t50.5 48.5t55.5 26.5t52.5 11t42 2.5q58 0 102 -16t73.5 -42t46 -60t20.5 -71h-114q-2 20 -10 39t-23 34t-36.5 24.5t-51.5 9.5
q-37 0 -62 -15.5t-40 -42t-21.5 -61.5t-6.5 -74q0 -60 13.5 -97t33.5 -58t44.5 -28.5t45.5 -7.5q33 0 55 13t35.5 31.5t19 40t6.5 39.5h114zM194 -171q19 -6 33.5 -7.5t24.5 -1.5q18 0 28.5 4t16 9t7 11t1.5 10q0 11 -5.5 16.5t-13.5 8t-17 3t-16 0.5h-43l18 60h46
q10 0 30 -1.5t40.5 -10t35.5 -26.5t15 -52q0 -26 -11 -43.5t-30 -28.5t-45 -15.5t-55 -4.5q-14 0 -33.5 1.5t-45.5 6.5z" />
    <glyph glyph-name="egrave" unicode="&#xe8;" horiz-adv-x="594" 
d="M543 147q-5 -25 -17.5 -54t-40 -54t-72 -42t-112.5 -17q-13 0 -37 2t-52.5 10t-58.5 24.5t-54.5 46t-40 74t-15.5 108.5t16 116.5t48 89.5t80.5 57t114.5 20q55 0 94.5 -13.5t66.5 -36t43.5 -51t26 -59.5t13 -61t4.5 -55q0 -8 0.5 -14.5t0.5 -14.5h-380q0 -24 6.5 -52.5
t23 -52.5t43.5 -40t67 -16q20 0 40 5.5t36.5 16t27.5 26.5t14 37h114zM424 305q0 17 -4.5 41.5t-17 46.5t-36.5 37.5t-63 15.5q-35 0 -60.5 -13t-41.5 -33t-23.5 -45t-6.5 -50h253zM371 568h-90l-110 132h130z" />
    <glyph glyph-name="eacute" unicode="&#xe9;" horiz-adv-x="594" 
d="M543 147q-5 -25 -17.5 -54t-40 -54t-72 -42t-112.5 -17q-13 0 -37 2t-52.5 10t-58.5 24.5t-54.5 46t-40 74t-15.5 108.5t16 116.5t48 89.5t80.5 57t114.5 20q55 0 94.5 -13.5t66.5 -36t43.5 -51t26 -59.5t13 -61t4.5 -55q0 -8 0.5 -14.5t0.5 -14.5h-380q0 -24 6.5 -52.5
t23 -52.5t43.5 -40t67 -16q20 0 40 5.5t36.5 16t27.5 26.5t14 37h114zM424 305q0 17 -4.5 41.5t-17 46.5t-36.5 37.5t-63 15.5q-35 0 -60.5 -13t-41.5 -33t-23.5 -45t-6.5 -50h253zM423 700l-110 -132h-90l70 132h130z" />
    <glyph glyph-name="ecircumflex" unicode="&#xea;" horiz-adv-x="594" 
d="M543 147q-5 -25 -17.5 -54t-40 -54t-72 -42t-112.5 -17q-13 0 -37 2t-52.5 10t-58.5 24.5t-54.5 46t-40 74t-15.5 108.5t16 116.5t48 89.5t80.5 57t114.5 20q55 0 94.5 -13.5t66.5 -36t43.5 -51t26 -59.5t13 -61t4.5 -55q0 -8 0.5 -14.5t0.5 -14.5h-380q0 -24 6.5 -52.5
t23 -52.5t43.5 -40t67 -16q20 0 40 5.5t36.5 16t27.5 26.5t14 37h114zM424 305q0 17 -4.5 41.5t-17 46.5t-36.5 37.5t-63 15.5q-35 0 -60.5 -13t-41.5 -33t-23.5 -45t-6.5 -50h253zM207 568h-110l120 132h160l120 -132h-110l-90 89z" />
    <glyph glyph-name="edieresis" unicode="&#xeb;" horiz-adv-x="594" 
d="M543 147q-5 -25 -17.5 -54t-40 -54t-72 -42t-112.5 -17q-13 0 -37 2t-52.5 10t-58.5 24.5t-54.5 46t-40 74t-15.5 108.5t16 116.5t48 89.5t80.5 57t114.5 20q55 0 94.5 -13.5t66.5 -36t43.5 -51t26 -59.5t13 -61t4.5 -55q0 -8 0.5 -14.5t0.5 -14.5h-380q0 -24 6.5 -52.5
t23 -52.5t43.5 -40t67 -16q20 0 40 5.5t36.5 16t27.5 26.5t14 37h114zM424 305q0 17 -4.5 41.5t-17 46.5t-36.5 37.5t-63 15.5q-35 0 -60.5 -13t-41.5 -33t-23.5 -45t-6.5 -50h253zM144 700h116v-106h-116v106zM334 700h116v-106h-116v106z" />
    <glyph glyph-name="igrave" unicode="&#xec;" horiz-adv-x="264" 
d="M192 508v-508h-120v508h120zM192 568h-90l-110 132h130z" />
    <glyph glyph-name="iacute" unicode="&#xed;" horiz-adv-x="264" 
d="M192 508v-508h-120v508h120zM245 700l-110 -132h-90l70 132h130z" />
    <glyph glyph-name="icircumflex" unicode="&#xee;" horiz-adv-x="264" 
d="M192 508v-508h-120v508h120zM41 568h-110l120 132h160l120 -132h-110l-90 89z" />
    <glyph glyph-name="idieresis" unicode="&#xef;" horiz-adv-x="264" 
d="M192 508v-508h-120v508h120zM-22 700h116v-106h-116v106zM168 700h116v-106h-116v106z" />
    <glyph glyph-name="eth" unicode="&#xf0;" horiz-adv-x="633" 
d="M181 738q43 -6 88 -17.5t93 -30.5l75 43l32 -39l-54 -29q57 -28 90 -68t50 -85t21.5 -91.5t4.5 -87.5q0 -24 -2 -59.5t-11 -74.5t-26 -78t-46.5 -70.5t-74 -51t-107.5 -19.5q-82 0 -134 27.5t-81.5 68t-40.5 86.5t-11 82q0 51 15 98.5t46 84t78 59t111 22.5q63 0 112 -23
t84 -77h4q-2 26 -10.5 55t-26 57t-46 53.5t-71.5 44.5l-136 -79l-30 38l110 64q-29 13 -59.5 22t-62.5 16zM453 244q0 54 -12.5 89.5t-32 56t-44.5 28.5t-50 8t-50 -8t-44.5 -28.5t-32 -56t-12.5 -89.5t12.5 -89.5t32 -56t44.5 -28.5t50 -8t50 8t44.5 28.5t32 56t12.5 89.5z
" />
    <glyph glyph-name="ntilde" unicode="&#xf1;" horiz-adv-x="606" 
d="M192 508v-67q13 22 32.5 38.5t42 27t46.5 16t46 5.5q65 0 100.5 -24t52 -56t19.5 -63t3 -45v-340h-120v302q0 23 -1.5 48.5t-10.5 46.5t-28.5 35t-54.5 14q-12 0 -33.5 -4.5t-42.5 -21t-36 -48.5t-15 -88v-284h-120v508h120zM495 700q-8 -49 -42.5 -75.5t-75.5 -26.5
q-22 0 -40.5 6.5t-36.5 15.5q-18 8 -34 15t-35 7q-25 0 -34.5 -12.5t-11.5 -23.5h-74q3 20 12.5 38.5t24.5 32.5t35.5 22.5t45.5 8.5q23 0 40.5 -5.5t36.5 -14.5q22 -10 35 -17t34 -7q25 0 34.5 12.5t11.5 23.5h74z" />
    <glyph glyph-name="ograve" unicode="&#xf2;" 
d="M305 528q54 0 94.5 -13.5t69.5 -36t48 -51t30 -59t15.5 -60.5t4.5 -54t-4.5 -54t-15.5 -60.5t-30 -59t-48 -51t-69.5 -36t-94.5 -13.5t-94.5 13.5t-69.5 36t-48 51t-30 59t-15.5 60t-4.5 54.5q0 24 4.5 54t15.5 60.5t30 59t48 51t69.5 36t94.5 13.5zM305 446
q-16 0 -39 -5.5t-44 -25t-36 -58t-15 -103.5t15 -103.5t36 -58t44 -25t39 -5.5t39 5.5t44 25t36 58t15 103.5t-15 103.5t-36 58t-44 25t-39 5.5zM379 568h-90l-110 132h130z" />
    <glyph glyph-name="oacute" unicode="&#xf3;" 
d="M305 528q54 0 94.5 -13.5t69.5 -36t48 -51t30 -59t15.5 -60.5t4.5 -54t-4.5 -54t-15.5 -60.5t-30 -59t-48 -51t-69.5 -36t-94.5 -13.5t-94.5 13.5t-69.5 36t-48 51t-30 59t-15.5 60t-4.5 54.5q0 24 4.5 54t15.5 60.5t30 59t48 51t69.5 36t94.5 13.5zM305 446
q-16 0 -39 -5.5t-44 -25t-36 -58t-15 -103.5t15 -103.5t36 -58t44 -25t39 -5.5t39 5.5t44 25t36 58t15 103.5t-15 103.5t-36 58t-44 25t-39 5.5zM431 700l-110 -132h-90l70 132h130z" />
    <glyph glyph-name="ocircumflex" unicode="&#xf4;" 
d="M305 528q54 0 94.5 -13.5t69.5 -36t48 -51t30 -59t15.5 -60.5t4.5 -54t-4.5 -54t-15.5 -60.5t-30 -59t-48 -51t-69.5 -36t-94.5 -13.5t-94.5 13.5t-69.5 36t-48 51t-30 59t-15.5 60t-4.5 54.5q0 24 4.5 54t15.5 60.5t30 59t48 51t69.5 36t94.5 13.5zM305 446
q-16 0 -39 -5.5t-44 -25t-36 -58t-15 -103.5t15 -103.5t36 -58t44 -25t39 -5.5t39 5.5t44 25t36 58t15 103.5t-15 103.5t-36 58t-44 25t-39 5.5zM215 568h-110l120 132h160l120 -132h-110l-90 89z" />
    <glyph glyph-name="otilde" unicode="&#xf5;" 
d="M305 528q54 0 94.5 -13.5t69.5 -36t48 -51t30 -59t15.5 -60.5t4.5 -54t-4.5 -54t-15.5 -60.5t-30 -59t-48 -51t-69.5 -36t-94.5 -13.5t-94.5 13.5t-69.5 36t-48 51t-30 59t-15.5 60t-4.5 54.5q0 24 4.5 54t15.5 60.5t30 59t48 51t69.5 36t94.5 13.5zM305 446
q-16 0 -39 -5.5t-44 -25t-36 -58t-15 -103.5t15 -103.5t36 -58t44 -25t39 -5.5t39 5.5t44 25t36 58t15 103.5t-15 103.5t-36 58t-44 25t-39 5.5zM497 700q-8 -49 -42.5 -75.5t-75.5 -26.5q-22 0 -40.5 6.5t-36.5 15.5q-18 8 -34 15t-35 7q-25 0 -34.5 -12.5t-11.5 -23.5h-74
q3 20 12.5 38.5t24.5 32.5t35.5 22.5t45.5 8.5q23 0 40.5 -5.5t36.5 -14.5q22 -10 35 -17t34 -7q25 0 34.5 12.5t11.5 23.5h74z" />
    <glyph glyph-name="odieresis" unicode="&#xf6;" 
d="M305 528q54 0 94.5 -13.5t69.5 -36t48 -51t30 -59t15.5 -60.5t4.5 -54t-4.5 -54t-15.5 -60.5t-30 -59t-48 -51t-69.5 -36t-94.5 -13.5t-94.5 13.5t-69.5 36t-48 51t-30 59t-15.5 60t-4.5 54.5q0 24 4.5 54t15.5 60.5t30 59t48 51t69.5 36t94.5 13.5zM305 446
q-16 0 -39 -5.5t-44 -25t-36 -58t-15 -103.5t15 -103.5t36 -58t44 -25t39 -5.5t39 5.5t44 25t36 58t15 103.5t-15 103.5t-36 58t-44 25t-39 5.5zM152 700h116v-106h-116v106zM342 700h116v-106h-116v106z" />
    <glyph glyph-name="divide" unicode="&#xf7;" horiz-adv-x="600" 
d="M230 500q0 29 20.5 49.5t49.5 20.5t49.5 -20.5t20.5 -49.5t-20.5 -49.5t-49.5 -20.5t-49.5 20.5t-20.5 49.5zM230 152q0 29 20.5 49.5t49.5 20.5t49.5 -20.5t20.5 -49.5t-20.5 -49.5t-49.5 -20.5t-49.5 20.5t-20.5 49.5zM50 369h500v-86h-500v86z" />
    <glyph glyph-name="oslash" unicode="&#xf8;" horiz-adv-x="604" 
d="M305 528q49 0 84 -10t66 -30l54 65l55 -45l-56 -68q5 -6 15 -21t19.5 -38t17 -55t7.5 -72q0 -24 -4.5 -54t-15.5 -60.5t-30 -59t-48 -51t-69.5 -36t-94.5 -13.5q-44 0 -78.5 9t-68.5 29l-52 -63l-57 45l55 66q-21 25 -33 52t-18 52.5t-8 47.5t-2 36q0 24 4.5 54
t15.5 60.5t30 59t48 51t69.5 36t94.5 13.5zM305 446q-17 0 -40 -5.5t-44 -25.5t-35.5 -58t-14.5 -103q0 -29 2.5 -50t8.5 -44l209 251q-13 12 -33.5 23.5t-52.5 11.5zM305 62q16 0 39 5.5t44 25.5t36 58t15 103q0 29 -2.5 49.5t-7.5 41.5l-207 -251q21 -20 43 -26t40 -6z
" />
    <glyph glyph-name="ugrave" unicode="&#xf9;" horiz-adv-x="606" 
d="M414 0v67h-2q-25 -45 -72.5 -66t-96.5 -21q-42 0 -71 11t-48 29t-29.5 39.5t-15.5 42.5t-6 38.5t-1 27.5v340h120v-302q0 -22 2 -47t11 -46.5t28 -36t54 -14.5q47 0 73 22t38 50t14 54.5t2 35.5v284h120v-508h-120zM377 568h-90l-110 132h130z" />
    <glyph glyph-name="uacute" unicode="&#xfa;" horiz-adv-x="606" 
d="M414 0v67h-2q-25 -45 -72.5 -66t-96.5 -21q-42 0 -71 11t-48 29t-29.5 39.5t-15.5 42.5t-6 38.5t-1 27.5v340h120v-302q0 -22 2 -47t11 -46.5t28 -36t54 -14.5q47 0 73 22t38 50t14 54.5t2 35.5v284h120v-508h-120zM429 700l-110 -132h-90l70 132h130z" />
    <glyph glyph-name="ucircumflex" unicode="&#xfb;" horiz-adv-x="606" 
d="M414 0v67h-2q-25 -45 -72.5 -66t-96.5 -21q-42 0 -71 11t-48 29t-29.5 39.5t-15.5 42.5t-6 38.5t-1 27.5v340h120v-302q0 -22 2 -47t11 -46.5t28 -36t54 -14.5q47 0 73 22t38 50t14 54.5t2 35.5v284h120v-508h-120zM213 568h-110l120 132h160l120 -132h-110l-90 89z" />
    <glyph glyph-name="udieresis" unicode="&#xfc;" horiz-adv-x="606" 
d="M414 0v67h-2q-25 -45 -72.5 -66t-96.5 -21q-42 0 -71 11t-48 29t-29.5 39.5t-15.5 42.5t-6 38.5t-1 27.5v340h120v-302q0 -22 2 -47t11 -46.5t28 -36t54 -14.5q47 0 73 22t38 50t14 54.5t2 35.5v284h120v-508h-120zM150 700h116v-106h-116v106zM340 700h116v-106h-116
v106z" />
    <glyph glyph-name="yacute" unicode="&#xfd;" horiz-adv-x="541" 
d="M105 -101q9 -2 20.5 -4t25.5 -2q35 0 51 19.5t29 64.5l7 24l-231 507h144l153 -378l117 378h120l-194 -552q-6 -17 -15.5 -42t-27.5 -48t-47.5 -39t-76.5 -16q-17 0 -37 1.5t-38 4.5v82zM396 700l-110 -132h-90l70 132h130z" />
    <glyph glyph-name="thorn" unicode="&#xfe;" horiz-adv-x="636" 
d="M192 700v-242q15 20 34 33.5t40 21.5t42 11.5t40 3.5q44 0 87.5 -15t78.5 -47t57 -84t22 -125q0 -40 -9.5 -88.5t-36 -90.5t-73.5 -70t-122 -28q-5 0 -25 1t-45 8t-50 21.5t-40 41.5v-237h-120v885h120zM183 253q0 -86 34.5 -138.5t100.5 -52.5q20 0 45.5 6.5t48 26.5
t38 57t15.5 98q0 54 -12 91.5t-31.5 60.5t-45.5 33.5t-53 10.5q-20 0 -44.5 -7t-45.5 -27.5t-35.5 -58.5t-14.5 -100z" />
    <glyph glyph-name="ydieresis" unicode="&#xff;" horiz-adv-x="541" 
d="M105 -101q9 -2 20.5 -4t25.5 -2q35 0 51 19.5t29 64.5l7 24l-231 507h144l153 -378l117 378h120l-194 -552q-6 -17 -15.5 -42t-27.5 -48t-47.5 -39t-76.5 -16q-17 0 -37 1.5t-38 4.5v82zM117 700h116v-106h-116v106zM307 700h116v-106h-116v106z" />
    <glyph glyph-name="Amacron" unicode="&#x100;" horiz-adv-x="648" 
d="M133 0h-137l264 700h128l264 -700h-137l-51 147h-280zM430 253l-106 311l-106 -311h212zM159 840h330v-80h-165h-165v80z" />
    <glyph glyph-name="amacron" unicode="&#x101;" horiz-adv-x="577" 
d="M50 351q-1 35 12 67t41 56.5t72 39t107 14.5q77 0 121 -19.5t65.5 -48t27 -59.5t5.5 -53v-203q0 -18 1 -30.5t5.5 -20t13 -10t24.5 -1.5v-83q-23 -2 -34 -2.5t-19 -0.5q-12 0 -27 1.5t-30 8t-26.5 20t-15.5 36.5q-33 -42 -75.5 -58.5t-93.5 -16.5q-66 0 -103.5 17
t-56 40.5t-23 48.5t-4.5 41q0 40 15 66t35 42.5t39 24t28 9.5q29 8 57.5 11t60.5 8q12 2 24.5 3.5t24.5 3.5q16 2 27 4t18.5 7t11 15t3.5 29q0 30 -10 47.5t-25 26.5t-32 11.5t-32 2.5q-33 0 -56 -8t-37 -21.5t-20 -30.5t-5 -35h-114zM381 244q-10 -7 -26.5 -11.5
t-59.5 -9.5q-31 -4 -55.5 -8.5t-42 -13t-27 -23t-9.5 -39.5q0 -29 18.5 -49t60.5 -20q22 0 47 6t46 22.5t34.5 47t13.5 80.5v18zM123 684h330v-82h-165h-165v82z" />
    <glyph glyph-name="Abreve" unicode="&#x102;" horiz-adv-x="648" 
d="M133 0h-137l264 700h128l264 -700h-137l-51 147h-280zM430 253l-106 311l-106 -311h212zM217 913q4 -40 34.5 -60.5t72.5 -20.5t72.5 20.5t34.5 60.5h103q-6 -32 -22 -60t-42 -48.5t-63 -32.5t-83 -12q-47 0 -83.5 12t-62.5 32.5t-42 48.5t-22 60h103z" />
    <glyph glyph-name="abreve" unicode="&#x103;" horiz-adv-x="577" 
d="M50 351q-1 35 12 67t41 56.5t72 39t107 14.5q77 0 121 -19.5t65.5 -48t27 -59.5t5.5 -53v-203q0 -18 1 -30.5t5.5 -20t13 -10t24.5 -1.5v-83q-23 -2 -34 -2.5t-19 -0.5q-12 0 -27 1.5t-30 8t-26.5 20t-15.5 36.5q-33 -42 -75.5 -58.5t-93.5 -16.5q-66 0 -103.5 17
t-56 40.5t-23 48.5t-4.5 41q0 40 15 66t35 42.5t39 24t28 9.5q29 8 57.5 11t60.5 8q12 2 24.5 3.5t24.5 3.5q16 2 27 4t18.5 7t11 15t3.5 29q0 30 -10 47.5t-25 26.5t-32 11.5t-32 2.5q-33 0 -56 -8t-37 -21.5t-20 -30.5t-5 -35h-114zM381 244q-10 -7 -26.5 -11.5
t-59.5 -9.5q-31 -4 -55.5 -8.5t-42 -13t-27 -23t-9.5 -39.5q0 -29 18.5 -49t60.5 -20q22 0 47 6t46 22.5t34.5 47t13.5 80.5v18zM193 700q2 -35 29.5 -54t65.5 -19t65.5 19t29.5 54h102q-5 -21 -15.5 -46t-33 -46.5t-58.5 -36t-90 -14.5t-90 14.5t-58.5 36t-33.5 46.5
t-15 46h102z" />
    <glyph glyph-name="Aogonek" unicode="&#x104;" horiz-adv-x="648" 
d="M133 0h-137l264 700h128l264 -700q-40 -13 -61.5 -45t-21.5 -75q0 -26 13.5 -43t37.5 -17q26 0 38 18t11 39h80q-1 -11 -6.5 -30.5t-20.5 -38.5t-43 -33.5t-73 -14.5q-35 0 -59 10.5t-39 27t-22 37t-7 41.5q0 34 17 69t56 55h-37l-51 147h-280zM430 253l-106 311
l-106 -311h212z" />
    <glyph glyph-name="aogonek" unicode="&#x105;" horiz-adv-x="577" 
d="M50 351q-1 35 12 67t41 56.5t72 39t107 14.5q77 0 121 -19.5t65.5 -48t27 -59.5t5.5 -53v-203q0 -18 1 -30.5t5.5 -20t13 -10t24.5 -1.5v-83q-40 -13 -61.5 -45t-21.5 -75q0 -26 13.5 -43t37.5 -17q26 0 38 18t11 39h80q-1 -11 -6.5 -30.5t-20.5 -38.5t-43 -33.5
t-73 -14.5q-35 0 -59 10.5t-39 27t-22 37t-7 41.5q0 24 6.5 44t17 35.5t23.5 27.5t25 20q-15 5 -30.5 18t-20.5 42q-33 -42 -75.5 -58.5t-93.5 -16.5q-66 0 -103.5 17t-56 40.5t-23 48.5t-4.5 41q0 40 15 66t35 42.5t39 24t28 9.5q31 8 68.5 13t98.5 13q16 2 27 4t18.5 7
t11 15t3.5 29q0 30 -10 47.5t-25 26.5t-32 11.5t-32 2.5q-33 0 -56 -8t-37 -21.5t-20 -30.5t-5 -35h-114zM381 244q-10 -7 -26.5 -11.5t-59.5 -9.5q-31 -4 -55.5 -8.5t-42 -13t-27 -23t-9.5 -39.5q0 -29 18.5 -49t60.5 -20q22 0 47 6t46 22.5t34.5 47t13.5 80.5v18z" />
    <glyph glyph-name="Cacute" unicode="&#x106;" horiz-adv-x="733" 
d="M695 239q-4 -40 -18.5 -85.5t-48 -84.5t-90.5 -64.5t-146 -25.5q-13 0 -44 2t-70 12.5t-80 32.5t-75 61.5t-56 100.5t-22 150q0 108 28.5 181.5t76 118t109 64t126.5 19.5q90 0 147.5 -24.5t90.5 -61.5t46.5 -80.5t15.5 -80.5h-127q-3 22 -12 46.5t-28.5 45.5t-51.5 35
t-81 14q-59 0 -98 -22t-62 -59.5t-33 -87t-10 -103.5q0 -62 16 -110t44.5 -81t68.5 -50t87 -17q43 0 74.5 13.5t52.5 35.5t31 49.5t12 55.5h127zM499 900l-118 -140h-96l78 140h136z" />
    <glyph glyph-name="cacute" unicode="&#x107;" horiz-adv-x="574" 
d="M538 186q-3 -28 -14.5 -63.5t-38.5 -67t-72 -53.5t-115 -22q-65 0 -113 20t-79.5 56t-47 86.5t-15.5 110.5q0 65 14 110.5t36.5 76t50.5 48.5t55.5 26.5t52.5 11t42 2.5q58 0 102 -16t73.5 -42t46 -60t20.5 -71h-114q-2 20 -10 39t-23 34t-36.5 24.5t-51.5 9.5
q-37 0 -62 -15.5t-40 -42t-21.5 -61.5t-6.5 -74q0 -60 13.5 -97t33.5 -58t44.5 -28.5t45.5 -7.5q33 0 55 13t35.5 31.5t19 40t6.5 39.5h114zM413 700l-110 -132h-90l70 132h130z" />
    <glyph glyph-name="Ccircumflex" unicode="&#x108;" horiz-adv-x="733" 
d="M695 239q-4 -40 -18.5 -85.5t-48 -84.5t-90.5 -64.5t-146 -25.5q-13 0 -44 2t-70 12.5t-80 32.5t-75 61.5t-56 100.5t-22 150q0 108 28.5 181.5t76 118t109 64t126.5 19.5q90 0 147.5 -24.5t90.5 -61.5t46.5 -80.5t15.5 -80.5h-127q-3 22 -12 46.5t-28.5 45.5t-51.5 35
t-81 14q-59 0 -98 -22t-62 -59.5t-33 -87t-10 -103.5q0 -62 16 -110t44.5 -81t68.5 -50t87 -17q43 0 74.5 13.5t52.5 35.5t31 49.5t12 55.5h127zM266 760h-120l134 140h172l134 -140h-120l-100 94z" />
    <glyph glyph-name="ccircumflex" unicode="&#x109;" horiz-adv-x="574" 
d="M538 186q-3 -28 -14.5 -63.5t-38.5 -67t-72 -53.5t-115 -22q-65 0 -113 20t-79.5 56t-47 86.5t-15.5 110.5q0 65 14 110.5t36.5 76t50.5 48.5t55.5 26.5t52.5 11t42 2.5q58 0 102 -16t73.5 -42t46 -60t20.5 -71h-114q-2 20 -10 39t-23 34t-36.5 24.5t-51.5 9.5
q-37 0 -62 -15.5t-40 -42t-21.5 -61.5t-6.5 -74q0 -60 13.5 -97t33.5 -58t44.5 -28.5t45.5 -7.5q33 0 55 13t35.5 31.5t19 40t6.5 39.5h114zM197 568h-110l120 132h160l120 -132h-110l-90 89z" />
    <glyph glyph-name="Cdotaccent" unicode="&#x10a;" horiz-adv-x="733" 
d="M695 239q-4 -40 -18.5 -85.5t-48 -84.5t-90.5 -64.5t-146 -25.5q-13 0 -44 2t-70 12.5t-80 32.5t-75 61.5t-56 100.5t-22 150q0 108 28.5 181.5t76 118t109 64t126.5 19.5q90 0 147.5 -24.5t90.5 -61.5t46.5 -80.5t15.5 -80.5h-127q-3 22 -12 46.5t-28.5 45.5t-51.5 35
t-81 14q-59 0 -98 -22t-62 -59.5t-33 -87t-10 -103.5q0 -62 16 -110t44.5 -81t68.5 -50t87 -17q43 0 74.5 13.5t52.5 35.5t31 49.5t12 55.5h127zM306 860h128v-88h-128v88z" />
    <glyph glyph-name="cdotaccent" unicode="&#x10b;" horiz-adv-x="574" 
d="M538 186q-3 -28 -14.5 -63.5t-38.5 -67t-72 -53.5t-115 -22q-65 0 -113 20t-79.5 56t-47 86.5t-15.5 110.5q0 65 14 110.5t36.5 76t50.5 48.5t55.5 26.5t52.5 11t42 2.5q58 0 102 -16t73.5 -42t46 -60t20.5 -71h-114q-2 20 -10 39t-23 34t-36.5 24.5t-51.5 9.5
q-37 0 -62 -15.5t-40 -42t-21.5 -61.5t-6.5 -74q0 -60 13.5 -97t33.5 -58t44.5 -28.5t45.5 -7.5q33 0 55 13t35.5 31.5t19 40t6.5 39.5h114zM227 700h120v-106h-120v106z" />
    <glyph glyph-name="Ccaron" unicode="&#x10c;" horiz-adv-x="733" 
d="M695 239q-4 -40 -18.5 -85.5t-48 -84.5t-90.5 -64.5t-146 -25.5q-13 0 -44 2t-70 12.5t-80 32.5t-75 61.5t-56 100.5t-22 150q0 108 28.5 181.5t76 118t109 64t126.5 19.5q90 0 147.5 -24.5t90.5 -61.5t46.5 -80.5t15.5 -80.5h-127q-3 22 -12 46.5t-28.5 45.5t-51.5 35
t-81 14q-59 0 -98 -22t-62 -59.5t-33 -87t-10 -103.5q0 -62 16 -110t44.5 -81t68.5 -50t87 -17q43 0 74.5 13.5t52.5 35.5t31 49.5t12 55.5h127zM466 900h120l-134 -140h-172l-134 140h120l100 -94z" />
    <glyph glyph-name="ccaron" unicode="&#x10d;" horiz-adv-x="574" 
d="M538 186q-3 -28 -14.5 -63.5t-38.5 -67t-72 -53.5t-115 -22q-65 0 -113 20t-79.5 56t-47 86.5t-15.5 110.5q0 65 14 110.5t36.5 76t50.5 48.5t55.5 26.5t52.5 11t42 2.5q58 0 102 -16t73.5 -42t46 -60t20.5 -71h-114q-2 20 -10 39t-23 34t-36.5 24.5t-51.5 9.5
q-37 0 -62 -15.5t-40 -42t-21.5 -61.5t-6.5 -74q0 -60 13.5 -97t33.5 -58t44.5 -28.5t45.5 -7.5q33 0 55 13t35.5 31.5t19 40t6.5 39.5h114zM377 700h110l-120 -132h-160l-120 132h110l90 -89z" />
    <glyph glyph-name="Dcaron" unicode="&#x10e;" horiz-adv-x="746" 
d="M363 700q72 0 125 -15.5t90.5 -41.5t61.5 -60.5t37.5 -73.5t18.5 -79.5t5 -77.5q0 -79 -17 -136t-45.5 -96t-66 -62.5t-78 -36.5t-81 -17t-75.5 -4h-253v700h278zM213 106h119q16 0 39 2t48.5 9.5t51.5 23t46.5 42.5t33.5 67.5t13 99.5q0 54 -10.5 93t-27.5 66t-39 44
t-45.5 26t-47 12t-42.5 3h-139v-488zM473 900h120l-134 -140h-172l-134 140h120l100 -94z" />
    <glyph glyph-name="dcaron" unicode="&#x10f;" horiz-adv-x="755" 
d="M564 700v-700h-110v50h-2q-18 -23 -40.5 -36.5t-44.5 -21t-43 -10t-36 -2.5q-45 0 -88.5 14.5t-78.5 47t-56.5 84t-21.5 125.5q0 54 13.5 104t43 88.5t75 61.5t109.5 23q5 0 25 -1t45 -8t50 -21.5t40 -41.5v244h120zM171 250q0 -64 16.5 -101t39.5 -56.5t47.5 -25
t39.5 -5.5q32 0 58 14t44 39.5t27.5 60.5t9.5 77q0 62 -14.5 100t-36 58.5t-46 27.5t-43.5 7q-27 0 -53 -10.5t-45.5 -33.5t-31.5 -60.5t-12 -91.5zM772 700v-139q0 -43 -12 -71.5t-31 -46t-42.5 -26t-46.5 -10.5v69q29 2 48 23t19 55v11h-67v135h132z" />
    <glyph glyph-name="Dcroat" unicode="&#x110;" horiz-adv-x="756" 
d="M373 700q72 0 125 -15.5t90.5 -41.5t61.5 -60.5t37.5 -73.5t18.5 -79.5t5 -77.5q0 -79 -17 -136t-45.5 -96t-66 -62.5t-78 -36.5t-81 -17t-75.5 -4h-253v356h-95v82h95v262h278zM223 438h197v-82h-197v-250h119q15 0 38.5 2t49 9.5t51.5 23t46.5 42.5t33.5 67.5t13 99.5
q0 54 -10.5 93t-27.5 66t-39 44t-45.5 26t-47 12t-42.5 3h-139v-156z" />
    <glyph glyph-name="dcroat" unicode="&#x111;" horiz-adv-x="644" 
d="M564 700v-61h80v-68h-80v-571h-110v50h-2q-18 -23 -40.5 -36.5t-44.5 -21t-43 -10t-36 -2.5q-45 0 -88.5 14.5t-78.5 47t-56.5 84t-21.5 125.5q0 54 13.5 104t43 88.5t75 61.5t109.5 23q5 0 25 -1t45 -8t50 -21.5t40 -41.5v115h-200v68h200v61h120zM171 250
q0 -64 16.5 -101t39.5 -56.5t47.5 -25t39.5 -5.5q32 0 58 14t44 39.5t27.5 60.5t9.5 77q0 62 -14.5 100t-36 58.5t-46 27.5t-43.5 7q-27 0 -53 -10.5t-45.5 -33.5t-31.5 -60.5t-12 -91.5z" />
    <glyph glyph-name="Emacron" unicode="&#x112;" horiz-adv-x="638" 
d="M569 412v-106h-356v-200h408v-106h-536v700h525v-106h-397v-182h356zM154 840h330v-80h-165h-165v80z" />
    <glyph glyph-name="emacron" unicode="&#x113;" horiz-adv-x="594" 
d="M543 147q-5 -25 -17.5 -54t-40 -54t-72 -42t-112.5 -17q-13 0 -37 2t-52.5 10t-58.5 24.5t-54.5 46t-40 74t-15.5 108.5t16 116.5t48 89.5t80.5 57t114.5 20q55 0 94.5 -13.5t66.5 -36t43.5 -51t26 -59.5t13 -61t4.5 -55q0 -8 0.5 -14.5t0.5 -14.5h-380q0 -24 6.5 -52.5
t23 -52.5t43.5 -40t67 -16q20 0 40 5.5t36.5 16t27.5 26.5t14 37h114zM424 305q0 17 -4.5 41.5t-17 46.5t-36.5 37.5t-63 15.5q-35 0 -60.5 -13t-41.5 -33t-23.5 -45t-6.5 -50h253zM132 684h330v-82h-165h-165v82z" />
    <glyph glyph-name="Edotaccent" unicode="&#x116;" horiz-adv-x="638" 
d="M569 412v-106h-356v-200h408v-106h-536v700h525v-106h-397v-182h356zM255 860h128v-88h-128v88z" />
    <glyph glyph-name="edotaccent" unicode="&#x117;" horiz-adv-x="594" 
d="M543 147q-5 -25 -17.5 -54t-40 -54t-72 -42t-112.5 -17q-13 0 -37 2t-52.5 10t-58.5 24.5t-54.5 46t-40 74t-15.5 108.5t16 116.5t48 89.5t80.5 57t114.5 20q55 0 94.5 -13.5t66.5 -36t43.5 -51t26 -59.5t13 -61t4.5 -55q0 -8 0.5 -14.5t0.5 -14.5h-380q0 -24 6.5 -52.5
t23 -52.5t43.5 -40t67 -16q20 0 40 5.5t36.5 16t27.5 26.5t14 37h114zM424 305q0 17 -4.5 41.5t-17 46.5t-36.5 37.5t-63 15.5q-35 0 -60.5 -13t-41.5 -33t-23.5 -45t-6.5 -50h253zM237 700h120v-106h-120v106z" />
    <glyph glyph-name="Eogonek" unicode="&#x118;" horiz-adv-x="638" 
d="M569 412v-106h-356v-200h408v-106h-164q-40 -13 -61.5 -45t-21.5 -75q0 -26 13.5 -43t37.5 -17q26 0 38 18t11 39h80q-1 -11 -6.5 -30.5t-20.5 -38.5t-43 -33.5t-73 -14.5q-35 0 -59 10.5t-39 27t-22 37t-7 41.5q0 34 17 69t56 55h-272v700h525v-106h-397v-182h356z" />
    <glyph glyph-name="eogonek" unicode="&#x119;" horiz-adv-x="594" 
d="M543 147q-6 -33 -19.5 -57t-28 -40.5t-28 -25.5t-19.5 -12q-20 -11 -39 -17q-38 -17 -54 -49t-16 -66q0 -26 13.5 -43t37.5 -17q26 0 38 18t11 39h80q-1 -11 -6.5 -30.5t-20.5 -38.5t-43 -33.5t-73 -14.5q-47 0 -72.5 16.5t-37.5 37t-14.5 39t-2.5 23.5q0 32 11.5 57.5
t32.5 46.5q-45 -1 -89.5 12.5t-80 45t-58 82.5t-22.5 125q0 64 16 116.5t48 89.5t80.5 57t114.5 20q60 0 105.5 -16.5t77 -53t48.5 -94.5t18 -141h-380q0 -24 6.5 -52.5t23 -52.5t43.5 -40t67 -16q20 0 40 5.5t36.5 16t27.5 26.5t14 37h114zM424 305v8t-1 8q-4 37 -16 61.5
t-29 38.5t-36.5 19.5t-38.5 5.5q-35 0 -60.5 -13t-41.5 -33t-23.5 -45t-6.5 -50h253z" />
    <glyph glyph-name="Ecaron" unicode="&#x11a;" horiz-adv-x="638" 
d="M569 412v-106h-356v-200h408v-106h-536v700h525v-106h-397v-182h356zM419 900h120l-134 -140h-172l-134 140h120l100 -94z" />
    <glyph glyph-name="ecaron" unicode="&#x11b;" horiz-adv-x="594" 
d="M543 147q-5 -25 -17.5 -54t-40 -54t-72 -42t-112.5 -17q-13 0 -37 2t-52.5 10t-58.5 24.5t-54.5 46t-40 74t-15.5 108.5t16 116.5t48 89.5t80.5 57t114.5 20q55 0 94.5 -13.5t66.5 -36t43.5 -51t26 -59.5t13 -61t4.5 -55q0 -8 0.5 -14.5t0.5 -14.5h-380q0 -24 6.5 -52.5
t23 -52.5t43.5 -40t67 -16q20 0 40 5.5t36.5 16t27.5 26.5t14 37h114zM424 305q0 17 -4.5 41.5t-17 46.5t-36.5 37.5t-63 15.5q-35 0 -60.5 -13t-41.5 -33t-23.5 -45t-6.5 -50h253zM387 700h110l-120 -132h-160l-120 132h110l90 -89z" />
    <glyph glyph-name="Gcircumflex" unicode="&#x11c;" horiz-adv-x="756" 
d="M698 375v-375h-92v95h-2q-28 -54 -81 -85t-136 -31q-61 0 -122 17.5t-110 59t-79.5 110.5t-30.5 172q0 82 16.5 142.5t44.5 103t63.5 69t74 42t76 21t69.5 5.5q90 0 147 -23.5t90 -58.5t47 -76.5t17 -78.5h-127q-3 20 -12 43t-29 42.5t-52.5 32.5t-80.5 13
q-67 0 -107.5 -27.5t-62.5 -68t-29.5 -88.5t-7.5 -88q0 -78 22 -128t55 -79t70.5 -40t68.5 -11q23 0 54.5 7t60 26.5t49 55.5t21.5 95h-171v106h286zM278 760h-120l134 140h172l134 -140h-120l-100 94z" />
    <glyph glyph-name="gcircumflex" unicode="&#x11d;" horiz-adv-x="640" 
d="M568 508v-485q0 -106 -68 -161t-189 -55q-93 0 -152 34t-70 110h110q4 -18 16.5 -29.5t29 -18t35.5 -9.5t36 -3q46 0 72.5 14t40 34.5t16.5 43.5t3 42v39q-15 -27 -40 -41.5t-50 -21.5t-45 -8t-25 -1q-64 0 -109.5 22t-75 58.5t-43 84.5t-13.5 100q0 74 21.5 125.5
t56.5 84t78.5 47t88.5 14.5q15 0 36 -2.5t43 -10t44.5 -21.5t40.5 -36h2v50h110zM175 256q0 -62 16.5 -98.5t39 -55t47 -23.5t40.5 -5q26 0 51 11t44.5 33.5t31.5 57.5t12 83q0 52 -12 88t-31.5 58t-44.5 31.5t-52 9.5q-67 0 -104.5 -50t-37.5 -140zM230 568h-110l120 132
h160l120 -132h-110l-90 89z" />
    <glyph glyph-name="Gbreve" unicode="&#x11e;" horiz-adv-x="756" 
d="M698 375v-375h-92v95h-2q-28 -54 -81 -85t-136 -31q-61 0 -122 17.5t-110 59t-79.5 110.5t-30.5 172q0 82 16.5 142.5t44.5 103t63.5 69t74 42t76 21t69.5 5.5q90 0 147 -23.5t90 -58.5t47 -76.5t17 -78.5h-127q-3 20 -12 43t-29 42.5t-52.5 32.5t-80.5 13
q-67 0 -107.5 -27.5t-62.5 -68t-29.5 -88.5t-7.5 -88q0 -78 22 -128t55 -79t70.5 -40t68.5 -11q23 0 54.5 7t60 26.5t49 55.5t21.5 95h-171v106h286zM271 913q4 -40 34.5 -60.5t72.5 -20.5t72.5 20.5t34.5 60.5h103q-6 -32 -22 -60t-42 -48.5t-63 -32.5t-83 -12
q-47 0 -83.5 12t-62.5 32.5t-42 48.5t-22 60h103z" />
    <glyph glyph-name="gbreve" unicode="&#x11f;" horiz-adv-x="640" 
d="M568 508v-485q0 -106 -68 -161t-189 -55q-93 0 -152 34t-70 110h110q4 -18 16.5 -29.5t29 -18t35.5 -9.5t36 -3q46 0 72.5 14t40 34.5t16.5 43.5t3 42v39q-15 -27 -40 -41.5t-50 -21.5t-45 -8t-25 -1q-64 0 -109.5 22t-75 58.5t-43 84.5t-13.5 100q0 74 21.5 125.5
t56.5 84t78.5 47t88.5 14.5q15 0 36 -2.5t43 -10t44.5 -21.5t40.5 -36h2v50h110zM175 256q0 -62 16.5 -98.5t39 -55t47 -23.5t40.5 -5q26 0 51 11t44.5 33.5t31.5 57.5t12 83q0 52 -12 88t-31.5 58t-44.5 31.5t-52 9.5q-67 0 -104.5 -50t-37.5 -140zM225 700q2 -35 29.5 -54
t65.5 -19t65.5 19t29.5 54h102q-5 -21 -15.5 -46t-33 -46.5t-58.5 -36t-90 -14.5t-90 14.5t-58.5 36t-33.5 46.5t-15 46h102z" />
    <glyph glyph-name="Gdotaccent" unicode="&#x120;" horiz-adv-x="756" 
d="M698 375v-375h-92v95h-2q-28 -54 -81 -85t-136 -31q-61 0 -122 17.5t-110 59t-79.5 110.5t-30.5 172q0 82 16.5 142.5t44.5 103t63.5 69t74 42t76 21t69.5 5.5q90 0 147 -23.5t90 -58.5t47 -76.5t17 -78.5h-127q-3 20 -12 43t-29 42.5t-52.5 32.5t-80.5 13
q-67 0 -107.5 -27.5t-62.5 -68t-29.5 -88.5t-7.5 -88q0 -78 22 -128t55 -79t70.5 -40t68.5 -11q23 0 54.5 7t60 26.5t49 55.5t21.5 95h-171v106h286zM318 860h128v-88h-128v88z" />
    <glyph glyph-name="gdotaccent" unicode="&#x121;" horiz-adv-x="640" 
d="M568 508v-485q0 -106 -68 -161t-189 -55q-93 0 -152 34t-70 110h110q4 -18 16.5 -29.5t29 -18t35.5 -9.5t36 -3q46 0 72.5 14t40 34.5t16.5 43.5t3 42v39q-15 -27 -40 -41.5t-50 -21.5t-45 -8t-25 -1q-64 0 -109.5 22t-75 58.5t-43 84.5t-13.5 100q0 74 21.5 125.5
t56.5 84t78.5 47t88.5 14.5q15 0 36 -2.5t43 -10t44.5 -21.5t40.5 -36h2v50h110zM175 256q0 -62 16.5 -98.5t39 -55t47 -23.5t40.5 -5q26 0 51 11t44.5 33.5t31.5 57.5t12 83q0 52 -12 88t-31.5 58t-44.5 31.5t-52 9.5q-67 0 -104.5 -50t-37.5 -140zM260 700h120v-106h-120
v106z" />
    <glyph glyph-name="Gcommaaccent" unicode="&#x122;" horiz-adv-x="756" 
d="M698 375v-375h-92v95h-2q-28 -54 -81 -85t-136 -31q-61 0 -122 17.5t-110 59t-79.5 110.5t-30.5 172q0 82 16.5 142.5t44.5 103t63.5 69t74 42t76 21t69.5 5.5q90 0 147 -23.5t90 -58.5t47 -76.5t17 -78.5h-127q-3 20 -12 43t-29 42.5t-52.5 32.5t-80.5 13
q-67 0 -107.5 -27.5t-62.5 -68t-29.5 -88.5t-7.5 -88q0 -78 22 -128t55 -79t70.5 -40t68.5 -11q23 0 54.5 7t60 26.5t49 55.5t21.5 95h-171v106h286zM444 -60v-99q0 -39 -16.5 -61t-39 -33t-44.5 -14t-32 -3v64q25 -1 46 8t21 29v9h-67v100h132z" />
    <glyph glyph-name="gcommaaccent" unicode="&#x123;" horiz-adv-x="640" 
d="M568 508v-485q0 -106 -68 -161t-189 -55q-93 0 -152 34t-70 110h110q4 -18 16.5 -29.5t29 -18t35.5 -9.5t36 -3q46 0 72.5 14t40 34.5t16.5 43.5t3 42v39q-15 -27 -40 -41.5t-50 -21.5t-45 -8t-25 -1q-64 0 -109.5 22t-75 58.5t-43 84.5t-13.5 100q0 74 21.5 125.5
t56.5 84t78.5 47t88.5 14.5q15 0 36 -2.5t43 -10t44.5 -21.5t40.5 -36h2v50h110zM175 256q0 -62 16.5 -98.5t39 -55t47 -23.5t40.5 -5q26 0 51 11t44.5 33.5t31.5 57.5t12 83q0 52 -12 88t-31.5 58t-44.5 31.5t-52 9.5q-67 0 -104.5 -50t-37.5 -140zM237.985 558.966
v98.9941q0 38.9971 16.499 60.9961t38.998 32.998q22.498 10.999 44.4971 13.999t31.998 3v-63.9961q-24.999 1 -45.9971 -8q-20.999 -8.99902 -20.999 -28.998v-8.99902h66.9961v-99.9941h-131.992z" />
    <glyph glyph-name="Hcircumflex" unicode="&#x124;" horiz-adv-x="738" 
d="M213 0h-128v700h128v-280h312v280h128v-700h-128v314h-312v-314zM269 760h-120l134 140h172l134 -140h-120l-100 94z" />
    <glyph glyph-name="hcircumflex" unicode="&#x125;" horiz-adv-x="606" 
d="M192 700v-259q13 22 32.5 38.5t42 27t46.5 16t46 5.5q65 0 100.5 -24t52 -56t19.5 -63t3 -45v-340h-120v302q0 23 -1.5 48.5t-10.5 46.5t-28.5 35t-54.5 14q-12 0 -33.5 -4.5t-42.5 -21t-36 -48.5t-15 -88v-284h-120v700h120zM44 756h-110l120 132h160l120 -132h-110
l-90 89z" />
    <glyph glyph-name="Hbar" unicode="&#x126;" horiz-adv-x="738" 
d="M213 0h-128v554h-81v82h81v64h128v-64h312v64h128v-64h81v-82h-81v-554h-128v314h-312v-314zM525 420v134h-312v-134h312z" />
    <glyph glyph-name="hbar" unicode="&#x127;" horiz-adv-x="606" 
d="M8 649h64v51h120v-51h146v-72h-146v-136q13 22 32.5 38.5t42 27t46.5 16t46 5.5q65 0 100.5 -24t52 -56t19.5 -63t3 -45v-340h-120v302q0 23 -1.5 48.5t-10.5 46.5t-28.5 35t-54.5 14q-12 0 -33.5 -4.5t-42.5 -21t-36 -48.5t-15 -88v-284h-120v577h-64v72z" />
    <glyph glyph-name="Itilde" unicode="&#x128;" horiz-adv-x="298" 
d="M213 700v-700h-128v700h128zM361 880q-4 -19 -12 -39.5t-23 -37.5t-38 -28t-56 -11q-23 0 -41 5.5t-44 16.5q-20 8 -38.5 15t-38.5 7t-34.5 -9.5t-16.5 -26.5h-80q3 21 11.5 41.5t24.5 37t38.5 27t54.5 10.5q24 0 41.5 -4.5t43.5 -15.5q13 -5 22.5 -9.5t17.5 -7.5t17 -5
t20 -2q24 0 36.5 11t14.5 25h80z" />
    <glyph glyph-name="itilde" unicode="&#x129;" horiz-adv-x="264" 
d="M192 508v-508h-120v508h120zM325 700q-8 -49 -42.5 -75.5t-75.5 -26.5q-22 0 -40.5 6.5t-36.5 15.5q-18 8 -34 15t-35 7q-25 0 -34.5 -12.5t-11.5 -23.5h-74q3 20 12.5 38.5t24.5 32.5t35.5 22.5t45.5 8.5q23 0 40.5 -5.5t36.5 -14.5q22 -10 35 -17t34 -7q25 0 34.5 12.5
t11.5 23.5h74z" />
    <glyph glyph-name="Imacron" unicode="&#x12a;" horiz-adv-x="298" 
d="M213 700v-700h-128v700h128zM-17 840h330v-80h-165h-165v80z" />
    <glyph glyph-name="imacron" unicode="&#x12b;" horiz-adv-x="264" 
d="M192 508v-508h-120v508h120zM-35 684h330v-82h-165h-165v82z" />
    <glyph glyph-name="Iogonek" unicode="&#x12e;" horiz-adv-x="298" 
d="M213 700v-700q-26 -9 -45 -26q-14 -13 -26 -36t-12 -58q0 -26 13.5 -43t37.5 -17q26 0 38 18t11 39h80q-1 -11 -6.5 -30.5t-20.5 -38.5t-43 -33.5t-73 -14.5q-35 0 -59 10.5t-39 27t-22 37t-7 41.5q0 34 17 69t56 55h-28v700h128z" />
    <glyph glyph-name="iogonek" unicode="&#x12f;" horiz-adv-x="264" 
d="M192 508v-508q-40 -13 -61.5 -45t-21.5 -75q0 -26 13.5 -43t37.5 -17q26 0 38 18t11 39h80q-1 -11 -6.5 -30.5t-20.5 -38.5t-43 -33.5t-73 -14.5q-35 0 -59 10.5t-39 27t-22 37t-7 41.5q0 29 12 63t41 61v508h120zM72 700h120v-106h-120v106z" />
    <glyph glyph-name="Idotaccent" unicode="&#x130;" horiz-adv-x="298" 
d="M213 700v-700h-128v700h128zM85 860h128v-88h-128v88z" />
    <glyph glyph-name="dotlessi" unicode="&#x131;" horiz-adv-x="264" 
d="M192 508v-508h-120v508h120z" />
    <glyph glyph-name="Jcircumflex" unicode="&#x134;" horiz-adv-x="551" 
d="M151 243v-29q0 -45 10.5 -70.5t26.5 -38.5t33.5 -16.5t31.5 -3.5q19 0 37 4t31.5 19t21.5 44t8 80v468h128v-452q0 -44 -5.5 -91.5t-28 -87t-68 -65t-125.5 -25.5q-70 0 -114.5 20.5t-70 53t-35 72.5t-9.5 79v39h128zM304 760h-120l134 140h172l134 -140h-120l-100 94z
" />
    <glyph glyph-name="jcircumflex" unicode="&#x135;" horiz-adv-x="264" 
d="M192 508v-535q0 -33 -4.5 -62.5t-19 -51.5t-43 -35t-76.5 -13q-13 0 -33 1t-35 3v82q49 1 70 18t21 65v528h120zM42 568h-110l120 132h160l120 -132h-110l-90 89z" />
    <glyph glyph-name="Kcommaaccent" unicode="&#x136;" horiz-adv-x="706" 
d="M519 700h172l-290 -290l309 -410h-172l-231 324l-94 -91v-233h-128v700h128v-315zM419 -60v-99q0 -39 -16.5 -61t-39 -33t-44.5 -14t-32 -3v64q25 -1 46 8t21 29v9h-67v100h132z" />
    <glyph glyph-name="kcommaaccent" unicode="&#x137;" horiz-adv-x="564" 
d="M404 508h142l-198 -198l220 -310h-140l-163 237l-73 -74v-163h-120v700h120v-415zM348 -60v-99q0 -39 -16.5 -61t-39 -33t-44.5 -14t-32 -3v64q25 -1 46 8t21 29v9h-67v100h132z" />
    <glyph glyph-name="Lacute" unicode="&#x139;" horiz-adv-x="548" 
d="M554 0h-469v700h128v-594h341v-106zM407 900l-118 -140h-96l78 140h136z" />
    <glyph glyph-name="lacute" unicode="&#x13a;" horiz-adv-x="264" 
d="M192 700v-700h-120v700h120zM289 884l-110 -132h-90l70 132h130z" />
    <glyph glyph-name="Lcommaaccent" unicode="&#x13b;" horiz-adv-x="548" 
d="M554 0h-469v700h128v-594h341v-106zM340 -60v-99q0 -39 -16.5 -61t-39 -33t-44.5 -14t-32 -3v64q25 -1 46 8t21 29v9h-67v100h132z" />
    <glyph glyph-name="lcommaaccent" unicode="&#x13c;" horiz-adv-x="264" 
d="M192 700v-700h-120v700h120zM192 -60v-99q0 -39 -16.5 -61t-39 -33t-44.5 -14t-32 -3v64q25 -1 46 8t21 29v9h-67v100h132z" />
    <glyph glyph-name="Lcaron" unicode="&#x13d;" horiz-adv-x="548" 
d="M554 0h-469v700h128v-594h341v-106zM546 700v-139q0 -43 -12 -71.5t-31 -46t-42.5 -26t-46.5 -10.5v69q29 2 48 23t19 55v11h-67v135h132z" />
    <glyph glyph-name="lcaron" unicode="&#x13e;" horiz-adv-x="385" 
d="M192 700v-700h-120v700h120zM402 700v-139q0 -43 -12 -71.5t-31 -46t-42.5 -26t-46.5 -10.5v69q29 2 48 23t19 55v11h-67v135h132z" />
    <glyph glyph-name="Ldot" unicode="&#x13f;" horiz-adv-x="548" 
d="M554 0h-469v700h128v-594h341v-106zM359 401h120v-106h-120v106z" />
    <glyph glyph-name="ldot" unicode="&#x140;" horiz-adv-x="399" 
d="M192 700v-700h-120v700h120zM264 401h120v-106h-120v106z" />
    <glyph glyph-name="Lslash" unicode="&#x141;" horiz-adv-x="540" 
d="M546 0h-469v133l-67 -67v110l67 67v457h128v-345l198 203v-110l-198 -203v-139h341v-106z" />
    <glyph glyph-name="lslash" unicode="&#x142;" horiz-adv-x="320" 
d="M220 700v-226l120 84v-92l-120 -84v-382h-120v312l-120 -82v92l120 82v296h120z" />
    <glyph glyph-name="Nacute" unicode="&#x143;" horiz-adv-x="770" 
d="M213 0h-128v700h136l336 -497v497h128v-700h-136l-336 497v-497zM518 900l-118 -140h-96l78 140h136z" />
    <glyph glyph-name="nacute" unicode="&#x144;" horiz-adv-x="606" 
d="M192 508v-67q13 22 32.5 38.5t42 27t46.5 16t46 5.5q65 0 100.5 -24t52 -56t19.5 -63t3 -45v-340h-120v302q0 23 -1.5 48.5t-10.5 46.5t-28.5 35t-54.5 14q-12 0 -33.5 -4.5t-42.5 -21t-36 -48.5t-15 -88v-284h-120v508h120zM429 700l-110 -132h-90l70 132h130z" />
    <glyph glyph-name="Ncommaaccent" unicode="&#x145;" horiz-adv-x="770" 
d="M213 0h-128v700h136l336 -497v497h128v-700h-136l-336 497v-497zM451 -60v-99q0 -39 -16.5 -61t-39 -33t-44.5 -14t-32 -3v64q25 -1 46 8t21 29v9h-67v100h132z" />
    <glyph glyph-name="ncommaaccent" unicode="&#x146;" horiz-adv-x="606" 
d="M192 508v-67q13 22 32.5 38.5t42 27t46.5 16t46 5.5q65 0 100.5 -24t52 -56t19.5 -63t3 -45v-340h-120v302q0 23 -1.5 48.5t-10.5 46.5t-28.5 35t-54.5 14q-12 0 -33.5 -4.5t-42.5 -21t-36 -48.5t-15 -88v-284h-120v508h120zM369 -60v-99q0 -39 -16.5 -61t-39 -33
t-44.5 -14t-32 -3v64q25 -1 46 8t21 29v9h-67v100h132z" />
    <glyph glyph-name="Ncaron" unicode="&#x147;" horiz-adv-x="770" 
d="M213 0h-128v700h136l336 -497v497h128v-700h-136l-336 497v-497zM485 900h120l-134 -140h-172l-134 140h120l100 -94z" />
    <glyph glyph-name="ncaron" unicode="&#x148;" horiz-adv-x="606" 
d="M192 508v-67q13 22 32.5 38.5t42 27t46.5 16t46 5.5q65 0 100.5 -24t52 -56t19.5 -63t3 -45v-340h-120v302q0 23 -1.5 48.5t-10.5 46.5t-28.5 35t-54.5 14q-12 0 -33.5 -4.5t-42.5 -21t-36 -48.5t-15 -88v-284h-120v508h120zM393 700h110l-120 -132h-160l-120 132h110
l90 -89z" />
    <glyph glyph-name="Omacron" unicode="&#x14c;" horiz-adv-x="776" 
d="M388 721q15 0 46.5 -2.5t69.5 -13t78.5 -33.5t73.5 -64.5t54 -104t21 -153.5t-21 -153.5t-54 -104t-73.5 -64.5t-78.5 -33.5t-69.5 -13t-46.5 -2.5t-46.5 2.5t-69.5 13t-78.5 33.5t-73.5 64.5t-54 104t-21 153.5t21 153.5t54 104t73.5 64.5t78.5 33.5t69.5 13t46.5 2.5z
M388 615q-65 0 -105 -26t-62.5 -66t-30.5 -86.5t-8 -86.5q0 -41 8 -87t30.5 -86t62.5 -66t105 -26t105 26t62.5 66t30.5 86t8 87q0 40 -8 86.5t-30.5 86.5t-62.5 66t-105 26zM223 840h330v-80h-165h-165v80z" />
    <glyph glyph-name="omacron" unicode="&#x14d;" 
d="M305 528q54 0 94.5 -13.5t69.5 -36t48 -51t30 -59t15.5 -60.5t4.5 -54t-4.5 -54t-15.5 -60.5t-30 -59t-48 -51t-69.5 -36t-94.5 -13.5t-94.5 13.5t-69.5 36t-48 51t-30 59t-15.5 60t-4.5 54.5q0 24 4.5 54t15.5 60.5t30 59t48 51t69.5 36t94.5 13.5zM305 446
q-16 0 -39 -5.5t-44 -25t-36 -58t-15 -103.5t15 -103.5t36 -58t44 -25t39 -5.5t39 5.5t44 25t36 58t15 103.5t-15 103.5t-36 58t-44 25t-39 5.5zM140 684h330v-82h-165h-165v82z" />
    <glyph glyph-name="Ohungarumlaut" unicode="&#x150;" horiz-adv-x="776" 
d="M388 721q15 0 46.5 -2.5t69.5 -13t78.5 -33.5t73.5 -64.5t54 -104t21 -153.5t-21 -153.5t-54 -104t-73.5 -64.5t-78.5 -33.5t-69.5 -13t-46.5 -2.5t-46.5 2.5t-69.5 13t-78.5 33.5t-73.5 64.5t-54 104t-21 153.5t21 153.5t54 104t73.5 64.5t78.5 33.5t69.5 13t46.5 2.5z
M388 615q-65 0 -105 -26t-62.5 -66t-30.5 -86.5t-8 -86.5q0 -41 8 -87t30.5 -86t62.5 -66t105 -26t105 26t62.5 66t30.5 86t8 87q0 40 -8 86.5t-30.5 86.5t-62.5 66t-105 26zM455 900l-118 -140h-90l78 140h130zM627 900l-118 -140h-90l78 140h130z" />
    <glyph glyph-name="ohungarumlaut" unicode="&#x151;" 
d="M305 528q54 0 94.5 -13.5t69.5 -36t48 -51t30 -59t15.5 -60.5t4.5 -54t-4.5 -54t-15.5 -60.5t-30 -59t-48 -51t-69.5 -36t-94.5 -13.5t-94.5 13.5t-69.5 36t-48 51t-30 59t-15.5 60t-4.5 54.5q0 24 4.5 54t15.5 60.5t30 59t48 51t69.5 36t94.5 13.5zM305 446
q-16 0 -39 -5.5t-44 -25t-36 -58t-15 -103.5t15 -103.5t36 -58t44 -25t39 -5.5t39 5.5t44 25t36 58t15 103.5t-15 103.5t-36 58t-44 25t-39 5.5zM342 700l-110 -132h-80l70 132h120zM512 700l-110 -132h-80l70 132h120z" />
    <glyph glyph-name="OE" unicode="&#x152;" horiz-adv-x="1147" 
d="M1119 700v-106h-397v-182h356v-106h-356v-200h408v-106h-536v68q-24 -30 -51 -47.5t-54.5 -27t-53.5 -12t-47 -2.5q-15 0 -46.5 2.5t-69.5 13.5t-78.5 34t-73.5 64t-54 103.5t-21 153.5q0 90 21 153t54 104t73.5 64t78.5 34t69.5 13.5t46.5 2.5q21 0 47 -2.5t53.5 -12
t54.5 -27t51 -47.5v68h525zM388 85q65 0 105 26t62.5 66t30.5 86t8 87q0 40 -8 86.5t-30.5 86.5t-62.5 66t-105 26t-105 -26t-62.5 -66t-30.5 -86.5t-8 -86.5q0 -41 8 -87t30.5 -86t62.5 -66t105 -26z" />
    <glyph glyph-name="oe" unicode="&#x153;" horiz-adv-x="982" 
d="M931 147q-5 -25 -17.5 -54t-40 -54t-72 -42t-112.5 -17q-43 0 -75 7.5t-55 19t-38.5 24t-24.5 23.5q-23 -24 -48 -38.5t-50 -22.5t-49 -10.5t-44 -2.5q-54 0 -94.5 13.5t-69.5 36t-48 51t-30 59t-15.5 60t-4.5 54.5q0 24 4.5 54t15.5 60.5t30 59t48 51t69.5 36t94.5 13.5
q20 0 44 -2.5t49 -10.5t50 -22.5t48 -38.5q12 12 29 25.5t40.5 24t54.5 17.5t70 7q123 0 186 -73t63 -203v-29h-380q0 -24 6.5 -52.5t23 -52.5t43.5 -40t67 -16q20 0 40 5.5t36.5 16t27.5 26.5t14 37h114zM171 254q0 -65 15 -103.5t36 -58t44 -25t39 -5.5t39 5.5t44 25
t36 58t15 103.5t-15 103.5t-36 58t-44 25t-39 5.5t-39 -5.5t-44 -25t-36 -58t-15 -103.5zM812 305q0 17 -4.5 41.5t-17 46.5t-36.5 37.5t-63 15.5q-35 0 -60.5 -13t-41.5 -33t-23.5 -45t-6.5 -50h253z" />
    <glyph glyph-name="Racute" unicode="&#x154;" horiz-adv-x="708" 
d="M85 700h313q32 0 75.5 -4.5t83 -24t67 -58.5t27.5 -108q0 -39 -10.5 -68t-27 -50t-37.5 -33.5t-42 -18.5v-2q37 -12 58 -33t30.5 -46.5t12 -52t2.5 -50.5q0 -35 0.5 -58.5t3 -40t7.5 -28.5t15 -24h-132q-8 12 -12 23.5t-6.5 27.5t-3 38.5t-0.5 56.5q0 24 -3 47.5
t-17.5 42.5t-44 30.5t-83.5 11.5h-148v-278h-128v700zM213 384h160q24 0 50 3t47.5 14t35 31.5t13.5 56.5q0 38 -15 59t-37 31.5t-47 12.5t-44 2h-163v-210zM487 900l-118 -140h-96l78 140h136z" />
    <glyph glyph-name="racute" unicode="&#x155;" horiz-adv-x="402" 
d="M388 440q-59 1 -96.5 -13.5t-58.5 -38t-29.5 -53t-10.5 -56.5q-1 -13 -1 -26v-26v-227h-120v508h120v-93h2q13 32 34 52t45 31.5t49 15.5t46 4h20v-78zM327 700l-110 -132h-90l70 132h130z" />
    <glyph glyph-name="Rcommaaccent" unicode="&#x156;" horiz-adv-x="708" 
d="M85 700h313q32 0 75.5 -4.5t83 -24t67 -58.5t27.5 -108q0 -39 -10.5 -68t-27 -50t-37.5 -33.5t-42 -18.5v-2q37 -12 58 -33t30.5 -46.5t12 -52t2.5 -50.5q0 -35 0.5 -58.5t3 -40t7.5 -28.5t15 -24h-132q-8 12 -12 23.5t-6.5 27.5t-3 38.5t-0.5 56.5q0 24 -3 47.5
t-17.5 42.5t-44 30.5t-83.5 11.5h-148v-278h-128v700zM213 384h160q24 0 50 3t47.5 14t35 31.5t13.5 56.5q0 38 -15 59t-37 31.5t-47 12.5t-44 2h-163v-210zM420 -60v-99q0 -39 -16.5 -61t-39 -33t-44.5 -14t-32 -3v64q25 -1 46 8t21 29v9h-67v100h132z" />
    <glyph glyph-name="rcommaaccent" unicode="&#x157;" horiz-adv-x="402" 
d="M388 440q-59 1 -96.5 -13.5t-58.5 -38t-29.5 -53t-10.5 -56.5q-1 -13 -1 -26v-26v-227h-120v508h120v-93h2q13 32 34 52t45 31.5t49 15.5t46 4h20v-78zM202 -60v-99q0 -39 -16.5 -61t-39 -33t-44.5 -14t-32 -3v64q25 -1 46 8t21 29v9h-67v100h132z" />
    <glyph glyph-name="Rcaron" unicode="&#x158;" horiz-adv-x="708" 
d="M85 700h313q32 0 75.5 -4.5t83 -24t67 -58.5t27.5 -108q0 -39 -10.5 -68t-27 -50t-37.5 -33.5t-42 -18.5v-2q37 -12 58 -33t30.5 -46.5t12 -52t2.5 -50.5q0 -35 0.5 -58.5t3 -40t7.5 -28.5t15 -24h-132q-8 12 -12 23.5t-6.5 27.5t-3 38.5t-0.5 56.5q0 24 -3 47.5
t-17.5 42.5t-44 30.5t-83.5 11.5h-148v-278h-128v700zM213 384h160q24 0 50 3t47.5 14t35 31.5t13.5 56.5q0 38 -15 59t-37 31.5t-47 12.5t-44 2h-163v-210zM454 900h120l-134 -140h-172l-134 140h120l100 -94z" />
    <glyph glyph-name="rcaron" unicode="&#x159;" horiz-adv-x="402" 
d="M388 440q-59 1 -96.5 -13.5t-58.5 -38t-29.5 -53t-10.5 -56.5q-1 -13 -1 -26v-26v-227h-120v508h120v-93h2q13 32 34 52t45 31.5t49 15.5t46 4h20v-78zM319 700h110l-120 -132h-160l-120 132h110l90 -89z" />
    <glyph glyph-name="Sacute" unicode="&#x15a;" horiz-adv-x="684" 
d="M172 225q1 -20 9 -44.5t28 -45.5t55 -35.5t90 -14.5q18 0 43 2.5t48.5 13t40 31.5t16.5 58q0 31 -13.5 51t-33 31.5t-41 17t-38.5 8.5q-21 4 -41.5 8t-40.5 9q-43 10 -82 22.5t-69 35t-48 57t-18 87.5q0 49 16.5 83.5t42 57.5t57.5 35.5t62.5 18.5t56.5 7.5t40 1.5
q69 0 119 -17t82.5 -45.5t49.5 -66t20 -77.5h-127q-5 37 -23 57t-41 29.5t-46 11.5t-37 2q-7 0 -29 -1.5t-45.5 -10t-42 -27.5t-18.5 -54q0 -27 13.5 -44t35.5 -27.5t50 -16.5t57 -11q61 -11 110.5 -25t84.5 -38t54.5 -61.5t19.5 -95.5q0 -74 -29 -118.5t-73 -68
t-95.5 -30.5t-95.5 -7q-90 0 -147.5 23t-91.5 58.5t-47.5 79t-14.5 85.5h127zM475 900l-118 -140h-96l78 140h136z" />
    <glyph glyph-name="sacute" unicode="&#x15b;" horiz-adv-x="540" 
d="M156 155q0 -26 11 -43.5t28 -28.5t38.5 -16t41.5 -5q17 0 35 3t33 12t25 25t10 42q0 33 -21.5 48t-72.5 24q-14 2 -27.5 4.5t-27.5 4.5q-42 7 -73 18.5t-51.5 28.5t-31 42t-10.5 61q0 50 23 80.5t56 46.5t69.5 21t63.5 5q61 0 102.5 -12.5t66.5 -33.5t35.5 -49.5
t11.5 -59.5h-113q-3 34 -29 53.5t-70 19.5q-37 0 -64.5 -13t-27.5 -50q0 -24 11 -38t29.5 -22t42 -12.5t48.5 -8.5q28 -5 60.5 -11t60.5 -21.5t46.5 -43.5t18.5 -75t-19 -79.5t-50.5 -52.5t-72 -29.5t-83.5 -9.5q-71 0 -117.5 16.5t-73.5 42.5t-38.5 56.5t-13.5 59.5h120z
M396 700l-110 -132h-90l70 132h130z" />
    <glyph glyph-name="Scircumflex" unicode="&#x15c;" horiz-adv-x="684" 
d="M172 225q1 -20 9 -44.5t28 -45.5t55 -35.5t90 -14.5q18 0 43 2.5t48.5 13t40 31.5t16.5 58q0 31 -13.5 51t-33 31.5t-41 17t-38.5 8.5q-21 4 -41.5 8t-40.5 9q-43 10 -82 22.5t-69 35t-48 57t-18 87.5q0 49 16.5 83.5t42 57.5t57.5 35.5t62.5 18.5t56.5 7.5t40 1.5
q69 0 119 -17t82.5 -45.5t49.5 -66t20 -77.5h-127q-5 37 -23 57t-41 29.5t-46 11.5t-37 2q-7 0 -29 -1.5t-45.5 -10t-42 -27.5t-18.5 -54q0 -27 13.5 -44t35.5 -27.5t50 -16.5t57 -11q61 -11 110.5 -25t84.5 -38t54.5 -61.5t19.5 -95.5q0 -74 -29 -118.5t-73 -68
t-95.5 -30.5t-95.5 -7q-90 0 -147.5 23t-91.5 58.5t-47.5 79t-14.5 85.5h127zM242 760h-120l134 140h172l134 -140h-120l-100 94z" />
    <glyph glyph-name="scircumflex" unicode="&#x15d;" horiz-adv-x="540" 
d="M156 155q0 -26 11 -43.5t28 -28.5t38.5 -16t41.5 -5q17 0 35 3t33 12t25 25t10 42q0 33 -21.5 48t-72.5 24q-14 2 -27.5 4.5t-27.5 4.5q-42 7 -73 18.5t-51.5 28.5t-31 42t-10.5 61q0 50 23 80.5t56 46.5t69.5 21t63.5 5q61 0 102.5 -12.5t66.5 -33.5t35.5 -49.5
t11.5 -59.5h-113q-3 34 -29 53.5t-70 19.5q-37 0 -64.5 -13t-27.5 -50q0 -24 11 -38t29.5 -22t42 -12.5t48.5 -8.5q28 -5 60.5 -11t60.5 -21.5t46.5 -43.5t18.5 -75t-19 -79.5t-50.5 -52.5t-72 -29.5t-83.5 -9.5q-71 0 -117.5 16.5t-73.5 42.5t-38.5 56.5t-13.5 59.5h120z
M180 568h-110l120 132h160l120 -132h-110l-90 89z" />
    <glyph glyph-name="Scedilla" unicode="&#x15e;" horiz-adv-x="684" 
d="M172 225q1 -20 9 -44.5t28 -45.5t55 -35.5t90 -14.5q18 0 43 2.5t48.5 13t40 31.5t16.5 58q0 31 -13.5 51t-33 31.5t-41 17t-38.5 8.5q-21 4 -41.5 8t-40.5 9q-43 10 -82 22.5t-69 35t-48 57t-18 87.5q0 49 16.5 83.5t42 57.5t57.5 35.5t62.5 18.5t56.5 7.5t40 1.5
q69 0 119 -17t82.5 -45.5t49.5 -66t20 -77.5h-127q-5 37 -23 57t-41 29.5t-46 11.5t-37 2q-7 0 -29 -1.5t-45.5 -10t-42 -27.5t-18.5 -54q0 -27 13.5 -44t35.5 -27.5t50 -16.5t57 -11q61 -11 110.5 -25t84.5 -38t54.5 -61.5t19.5 -95.5q0 -74 -29 -118.5t-73 -68
t-95.5 -30.5t-95.5 -7q-90 0 -147.5 23t-91.5 58.5t-47.5 79t-14.5 85.5h127zM248 -171q19 -6 33.5 -7.5t24.5 -1.5q18 0 28.5 4t16 9t7 11t1.5 10q0 11 -5.5 16.5t-13.5 8t-17 3t-16 0.5h-43l18 60h46q10 0 30 -1.5t40.5 -10t35.5 -26.5t15 -52q0 -26 -11 -43.5t-30 -28.5
t-45 -15.5t-55 -4.5q-14 0 -33.5 1.5t-45.5 6.5z" />
    <glyph glyph-name="scedilla" unicode="&#x15f;" horiz-adv-x="540" 
d="M156 155q0 -26 11 -43.5t28 -28.5t38.5 -16t41.5 -5q17 0 35 3t33 12t25 25t10 42q0 33 -21.5 48t-72.5 24q-14 2 -27.5 4.5t-27.5 4.5q-42 7 -73 18.5t-51.5 28.5t-31 42t-10.5 61q0 50 23 80.5t56 46.5t69.5 21t63.5 5q61 0 102.5 -12.5t66.5 -33.5t35.5 -49.5
t11.5 -59.5h-113q-3 34 -29 53.5t-70 19.5q-37 0 -64.5 -13t-27.5 -50q0 -24 11 -38t29.5 -22t42 -12.5t48.5 -8.5q28 -5 60.5 -11t60.5 -21.5t46.5 -43.5t18.5 -75t-19 -79.5t-50.5 -52.5t-72 -29.5t-83.5 -9.5q-71 0 -117.5 16.5t-73.5 42.5t-38.5 56.5t-13.5 59.5h120z
M173 -171q19 -6 33.5 -7.5t24.5 -1.5q18 0 28.5 4t16 9t7 11t1.5 10q0 11 -5.5 16.5t-13.5 8t-17 3t-16 0.5h-43l18 60h46q10 0 30 -1.5t40.5 -10t35.5 -26.5t15 -52q0 -26 -11 -43.5t-30 -28.5t-45 -15.5t-55 -4.5q-14 0 -33.5 1.5t-45.5 6.5z" />
    <glyph glyph-name="Scaron" unicode="&#x160;" horiz-adv-x="684" 
d="M172 225q1 -20 9 -44.5t28 -45.5t55 -35.5t90 -14.5q18 0 43 2.5t48.5 13t40 31.5t16.5 58q0 31 -13.5 51t-33 31.5t-41 17t-38.5 8.5q-21 4 -41.5 8t-40.5 9q-43 10 -82 22.5t-69 35t-48 57t-18 87.5q0 49 16.5 83.5t42 57.5t57.5 35.5t62.5 18.5t56.5 7.5t40 1.5
q69 0 119 -17t82.5 -45.5t49.5 -66t20 -77.5h-127q-5 37 -23 57t-41 29.5t-46 11.5t-37 2q-7 0 -29 -1.5t-45.5 -10t-42 -27.5t-18.5 -54q0 -27 13.5 -44t35.5 -27.5t50 -16.5t57 -11q61 -11 110.5 -25t84.5 -38t54.5 -61.5t19.5 -95.5q0 -74 -29 -118.5t-73 -68
t-95.5 -30.5t-95.5 -7q-90 0 -147.5 23t-91.5 58.5t-47.5 79t-14.5 85.5h127zM442 900h120l-134 -140h-172l-134 140h120l100 -94z" />
    <glyph glyph-name="scaron" unicode="&#x161;" horiz-adv-x="540" 
d="M156 155q0 -26 11 -43.5t28 -28.5t38.5 -16t41.5 -5q17 0 35 3t33 12t25 25t10 42q0 33 -21.5 48t-72.5 24q-14 2 -27.5 4.5t-27.5 4.5q-42 7 -73 18.5t-51.5 28.5t-31 42t-10.5 61q0 50 23 80.5t56 46.5t69.5 21t63.5 5q61 0 102.5 -12.5t66.5 -33.5t35.5 -49.5
t11.5 -59.5h-113q-3 34 -29 53.5t-70 19.5q-37 0 -64.5 -13t-27.5 -50q0 -24 11 -38t29.5 -22t42 -12.5t48.5 -8.5q28 -5 60.5 -11t60.5 -21.5t46.5 -43.5t18.5 -75t-19 -79.5t-50.5 -52.5t-72 -29.5t-83.5 -9.5q-71 0 -117.5 16.5t-73.5 42.5t-38.5 56.5t-13.5 59.5h120z
M360 700h110l-120 -132h-160l-120 132h110l90 -89z" />
    <glyph glyph-name="Tcedilla" unicode="&#x162;" horiz-adv-x="594" 
d="M13 594v106h568v-106h-220v-594h-128v594h-220zM199 -171q19 -6 33.5 -7.5t24.5 -1.5q18 0 28.5 4t16 9t7 11t1.5 10q0 11 -5.5 16.5t-13.5 8t-17 3t-16 0.5h-43l18 60h46q10 0 30 -1.5t40.5 -10t35.5 -26.5t15 -52q0 -26 -11 -43.5t-30 -28.5t-45 -15.5t-55 -4.5
q-14 0 -33.5 1.5t-45.5 6.5z" />
    <glyph glyph-name="tcedilla" unicode="&#x163;" horiz-adv-x="342" 
d="M96 508v152h120v-152h106v-82h-106v-287q0 -13 1 -24.5t6.5 -20t17.5 -13.5t34 -5q15 0 26 1.5t21 4.5v-82q-45 -12 -98 -12q-47 0 -73 12.5t-38 29.5t-14.5 36t-2.5 33v327h-82v82h82zM119 -171q19 -6 33.5 -7.5t24.5 -1.5q18 0 28.5 4t16 9t7 11t1.5 10q0 11 -5.5 16.5
t-13.5 8t-17 3t-16 0.5h-43l18 60h46q10 0 30 -1.5t40.5 -10t35.5 -26.5t15 -52q0 -26 -11 -43.5t-30 -28.5t-45 -15.5t-55 -4.5q-14 0 -33.5 1.5t-45.5 6.5z" />
    <glyph glyph-name="Tcaron" unicode="&#x164;" horiz-adv-x="594" 
d="M13 594v106h568v-106h-220v-594h-128v594h-220zM397 900h120l-134 -140h-172l-134 140h120l100 -94z" />
    <glyph glyph-name="tcaron" unicode="&#x165;" horiz-adv-x="507" 
d="M96 508v152h120v-152h106v-82h-106v-287q0 -13 1 -24.5t6.5 -20t17.5 -13.5t34 -5q15 0 26 1.5t21 4.5v-82q-45 -12 -98 -12q-47 0 -73 12.5t-38 29.5t-14.5 36t-2.5 33v327h-82v82h82zM524 700v-139q0 -43 -12 -71.5t-31 -46t-42.5 -26t-46.5 -10.5v69q29 2 48 23t19 55
v11h-67v135h132z" />
    <glyph glyph-name="Tbar" unicode="&#x166;" horiz-adv-x="594" 
d="M102 446h131v148h-220v106h568v-106h-220v-148h131v-92h-131v-354h-128v354h-131v92z" />
    <glyph glyph-name="tbar" unicode="&#x167;" horiz-adv-x="342" 
d="M14 324h82v102h-82v82h82v152h120v-152h106v-82h-106v-102h106v-82h-106v-103q0 -13 1 -24.5t6.5 -20t17.5 -13.5t34 -5q15 0 26 1.5t21 4.5v-82q-45 -12 -98 -12q-47 0 -73 12.5t-38 29.5t-14.5 36t-2.5 33v143h-82v82z" />
    <glyph glyph-name="Utilde" unicode="&#x168;" horiz-adv-x="722" 
d="M200 700v-411q0 -105 35.5 -154.5t125.5 -49.5t125.5 49.5t35.5 154.5v411h128v-431q0 -28 -2.5 -60.5t-12.5 -65t-28.5 -62t-51 -52.5t-80 -36.5t-114.5 -13.5t-114.5 13.5t-80 36.5t-51 52.5t-28.5 62t-12.5 65t-2.5 60.5v431h128zM572 880q-4 -19 -12 -39.5t-23 -37.5
t-38 -28t-56 -11q-23 0 -41 5.5t-44 16.5q-20 8 -38.5 15t-38.5 7t-34.5 -9.5t-16.5 -26.5h-80q3 21 11.5 41.5t24.5 37t38.5 27t54.5 10.5q24 0 41.5 -4.5t43.5 -15.5q13 -5 22.5 -9.5t17.5 -7.5t17 -5t20 -2q24 0 36.5 11t14.5 25h80z" />
    <glyph glyph-name="utilde" unicode="&#x169;" horiz-adv-x="606" 
d="M414 0v67h-2q-25 -45 -72.5 -66t-96.5 -21q-42 0 -71 11t-48 29t-29.5 39.5t-15.5 42.5t-6 38.5t-1 27.5v340h120v-302q0 -22 2 -47t11 -46.5t28 -36t54 -14.5q47 0 73 22t38 50t14 54.5t2 35.5v284h120v-508h-120zM495 700q-8 -49 -42.5 -75.5t-75.5 -26.5
q-22 0 -40.5 6.5t-36.5 15.5q-18 8 -34 15t-35 7q-25 0 -34.5 -12.5t-11.5 -23.5h-74q3 20 12.5 38.5t24.5 32.5t35.5 22.5t45.5 8.5q23 0 40.5 -5.5t36.5 -14.5q22 -10 35 -17t34 -7q25 0 34.5 12.5t11.5 23.5h74z" />
    <glyph glyph-name="Umacron" unicode="&#x16a;" horiz-adv-x="722" 
d="M200 700v-411q0 -105 35.5 -154.5t125.5 -49.5t125.5 49.5t35.5 154.5v411h128v-431q0 -28 -2.5 -60.5t-12.5 -65t-28.5 -62t-51 -52.5t-80 -36.5t-114.5 -13.5t-114.5 13.5t-80 36.5t-51 52.5t-28.5 62t-12.5 65t-2.5 60.5v431h128zM196 840h330v-80h-165h-165v80z" />
    <glyph glyph-name="umacron" unicode="&#x16b;" horiz-adv-x="606" 
d="M414 0v67h-2q-25 -45 -72.5 -66t-96.5 -21q-42 0 -71 11t-48 29t-29.5 39.5t-15.5 42.5t-6 38.5t-1 27.5v340h120v-302q0 -22 2 -47t11 -46.5t28 -36t54 -14.5q47 0 73 22t38 50t14 54.5t2 35.5v284h120v-508h-120zM138 684h330v-82h-165h-165v82z" />
    <glyph glyph-name="Ubreve" unicode="&#x16c;" horiz-adv-x="722" 
d="M200 700v-411q0 -105 35.5 -154.5t125.5 -49.5t125.5 49.5t35.5 154.5v411h128v-431q0 -28 -2.5 -60.5t-12.5 -65t-28.5 -62t-51 -52.5t-80 -36.5t-114.5 -13.5t-114.5 13.5t-80 36.5t-51 52.5t-28.5 62t-12.5 65t-2.5 60.5v431h128zM254 913q4 -40 34.5 -60.5
t72.5 -20.5t72.5 20.5t34.5 60.5h103q-6 -32 -22 -60t-42 -48.5t-63 -32.5t-83 -12q-47 0 -83.5 12t-62.5 32.5t-42 48.5t-22 60h103z" />
    <glyph glyph-name="ubreve" unicode="&#x16d;" horiz-adv-x="606" 
d="M414 0v67h-2q-25 -45 -72.5 -66t-96.5 -21q-42 0 -71 11t-48 29t-29.5 39.5t-15.5 42.5t-6 38.5t-1 27.5v340h120v-302q0 -22 2 -47t11 -46.5t28 -36t54 -14.5q47 0 73 22t38 50t14 54.5t2 35.5v284h120v-508h-120zM208 700q2 -35 29.5 -54t65.5 -19t65.5 19t29.5 54h102
q-5 -21 -15.5 -46t-33 -46.5t-58.5 -36t-90 -14.5t-90 14.5t-58.5 36t-33.5 46.5t-15 46h102z" />
    <glyph glyph-name="Uring" unicode="&#x16e;" horiz-adv-x="722" 
d="M200 700v-411q0 -105 35.5 -154.5t125.5 -49.5t125.5 49.5t35.5 154.5v411h128v-431q0 -28 -2.5 -60.5t-12.5 -65t-28.5 -62t-51 -52.5t-80 -36.5t-114.5 -13.5t-114.5 13.5t-80 36.5t-51 52.5t-28.5 62t-12.5 65t-2.5 60.5v431h128zM261 820q0 21 7.5 39t21 31.5
t32 21.5t39.5 8t39 -8t31.5 -21.5t21.5 -31.5t8 -39t-8 -39.5t-21.5 -32t-31.5 -21t-39 -7.5t-39.5 7.5t-32 21t-21 32t-7.5 39.5zM317 820q0 -18 13 -31t31 -13t31 13t13 31t-13 31t-31 13t-31 -13t-13 -31z" />
    <glyph glyph-name="uring" unicode="&#x16f;" horiz-adv-x="606" 
d="M414 0v67h-2q-25 -45 -72.5 -66t-96.5 -21q-42 0 -71 11t-48 29t-29.5 39.5t-15.5 42.5t-6 38.5t-1 27.5v340h120v-302q0 -22 2 -47t11 -46.5t28 -36t54 -14.5q47 0 73 22t38 50t14 54.5t2 35.5v284h120v-508h-120zM209 634q0 19 7.5 36t20.5 30t30 20.5t36 7.5t36 -7.5
t30 -20.5t20.5 -30t7.5 -36t-7.5 -36t-20.5 -30t-30 -20.5t-36 -7.5t-36 7.5t-30 20.5t-20.5 30t-7.5 36zM259 634q0 -18 13 -31t31 -13t31 13t13 31t-13 31t-31 13t-31 -13t-13 -31z" />
    <glyph glyph-name="Uhungarumlaut" unicode="&#x170;" horiz-adv-x="722" 
d="M200 700v-411q0 -105 35.5 -154.5t125.5 -49.5t125.5 49.5t35.5 154.5v411h128v-431q0 -28 -2.5 -60.5t-12.5 -65t-28.5 -62t-51 -52.5t-80 -36.5t-114.5 -13.5t-114.5 13.5t-80 36.5t-51 52.5t-28.5 62t-12.5 65t-2.5 60.5v431h128zM445 900l-118 -140h-90l78 140h130z
M617 900l-118 -140h-90l78 140h130z" />
    <glyph glyph-name="uhungarumlaut" unicode="&#x171;" horiz-adv-x="606" 
d="M414 0v67h-2q-25 -45 -72.5 -66t-96.5 -21q-42 0 -71 11t-48 29t-29.5 39.5t-15.5 42.5t-6 38.5t-1 27.5v340h120v-302q0 -22 2 -47t11 -46.5t28 -36t54 -14.5q47 0 73 22t38 50t14 54.5t2 35.5v284h120v-508h-120zM335 700l-110 -132h-80l70 132h120zM505 700l-110 -132
h-80l70 132h120z" />
    <glyph glyph-name="Uogonek" unicode="&#x172;" horiz-adv-x="722" 
d="M200 700v-411q0 -105 35.5 -154.5t125.5 -49.5t125.5 49.5t35.5 154.5v411h128v-431q0 -24 -2.5 -54.5t-11 -62.5t-25.5 -62t-46 -54t-71.5 -39.5t-102.5 -16.5q-15 -12 -24 -26.5t-13.5 -28.5t-6 -26t-1.5 -19q0 -26 13.5 -43t37.5 -17q26 0 38 18t11 39h80
q-1 -11 -6.5 -30.5t-20.5 -38.5t-43 -33.5t-73 -14.5q-35 0 -59 10.5t-39 27t-22 37t-7 41.5q0 29 12 59t35 47q-54 5 -92 21.5t-64 40.5t-40.5 53t-22.5 59.5t-10 59.5t-2 53v431h128z" />
    <glyph glyph-name="uogonek" unicode="&#x173;" horiz-adv-x="606" 
d="M192 508v-302q0 -22 2 -47t11 -46.5t28 -36t54 -14.5q47 0 73 22t38 50t14 54.5t2 35.5v284h120v-508h-10q-40 -13 -61.5 -45t-21.5 -75q0 -26 13.5 -43t37.5 -17q26 0 38 18t11 39h80q-1 -11 -6.5 -30.5t-20.5 -38.5t-43 -33.5t-73 -14.5q-35 0 -59 10.5t-39 27t-22 37
t-7 41.5q0 35 15 68.5t48 55.5v67h-2q-25 -45 -72.5 -66t-96.5 -21q-42 0 -71 11t-48 29t-29.5 39.5t-15.5 42.5t-6 38.5t-1 27.5v340h120z" />
    <glyph glyph-name="Wcircumflex" unicode="&#x174;" horiz-adv-x="944" 
d="M348 0h-162l-190 700h144l137 -552l123 552h144l123 -552l137 552h144l-190 -700h-162l-124 549zM372 760h-120l134 140h172l134 -140h-120l-100 94z" />
    <glyph glyph-name="wcircumflex" unicode="&#x175;" horiz-adv-x="771" 
d="M295 0h-122l-177 508h125l119 -372l90 372h112l89 -372l119 372h125l-177 -508h-122l-90 371zM295 568h-110l120 132h160l120 -132h-110l-90 89z" />
    <glyph glyph-name="Ycircumflex" unicode="&#x176;" horiz-adv-x="634" 
d="M487 700h151l-257 -421v-279h-128v279l-257 421h151l170 -307zM217 760h-120l134 140h172l134 -140h-120l-100 94z" />
    <glyph glyph-name="ycircumflex" unicode="&#x177;" horiz-adv-x="541" 
d="M105 -101q9 -2 20.5 -4t25.5 -2q35 0 51 19.5t29 64.5l7 24l-231 507h144l153 -378l117 378h120l-194 -552q-6 -17 -15.5 -42t-27.5 -48t-47.5 -39t-76.5 -16q-17 0 -37 1.5t-38 4.5v82zM190 568h-110l120 132h160l120 -132h-110l-90 89z" />
    <glyph glyph-name="Ydieresis" unicode="&#x178;" horiz-adv-x="634" 
d="M487 700h151l-257 -421v-279h-128v279l-257 421h151l170 -307zM134 860h128v-88h-128v88zM372 860h128v-88h-128v88z" />
    <glyph glyph-name="Zacute" unicode="&#x179;" horiz-adv-x="613" 
d="M565 700v-98l-378 -496h400v-106h-561v114l378 480h-359v106h520zM439 900l-118 -140h-96l78 140h136z" />
    <glyph glyph-name="zacute" unicode="&#x17a;" horiz-adv-x="490" 
d="M447 508v-82l-281 -344h298v-82h-438v82l281 344h-261v82h401zM371 700l-110 -132h-90l70 132h130z" />
    <glyph glyph-name="Zdotaccent" unicode="&#x17b;" horiz-adv-x="613" 
d="M565 700v-98l-378 -496h400v-106h-561v114l378 480h-359v106h520zM242 860h128v-88h-128v88z" />
    <glyph glyph-name="zdotaccent" unicode="&#x17c;" horiz-adv-x="490" 
d="M447 508v-82l-281 -344h298v-82h-438v82l281 344h-261v82h401zM185 700h120v-106h-120v106z" />
    <glyph glyph-name="Zcaron" horiz-adv-x="613" 
d="M565 700v-98l-378 -496h400v-106h-561v114l378 480h-359v106h520zM406 900h120l-134 -140h-172l-134 140h120l100 -94z" />
    <glyph glyph-name="Zcaron" unicode="&#x17d;" horiz-adv-x="613" 
d="M565 700v-98l-378 -496h400v-106h-561v114l378 480h-359v106h520zM406 900h120l-134 -140h-172l-134 140h120l100 -94z" />
    <glyph glyph-name="zcaron" horiz-adv-x="490" 
d="M447 508v-82l-281 -344h298v-82h-438v82l281 344h-261v82h401zM336 700h110l-120 -132h-160l-120 132h110l90 -89z" />
    <glyph glyph-name="zcaron" unicode="&#x17e;" horiz-adv-x="490" 
d="M447 508v-82l-281 -344h298v-82h-438v82l281 344h-261v82h401zM336 700h110l-120 -132h-160l-120 132h110l90 -89z" />
    <glyph glyph-name="uni018F" unicode="&#x18f;" horiz-adv-x="774" 
d="M592 367q1 21 -1.5 47.5t-10.5 54t-22.5 54t-39 47t-60 33t-83.5 12.5q-35 0 -67 -7.5t-57 -22.5t-42 -37.5t-23 -53.5h-127q2 11 8 32.5t19 46.5t34.5 51.5t55.5 48t82 35t113 13.5q87 0 147.5 -22.5t100.5 -58t62 -79t32.5 -84.5t13 -75t2.5 -51q0 -92 -22 -155.5
t-56.5 -104.5t-75.5 -64t-79 -33.5t-68 -12.5t-41 -2q-95 0 -161.5 34t-107.5 89t-58.5 124.5t-14.5 140.5h547zM185 254q3 -27 14 -56.5t34.5 -54.5t60.5 -41.5t93 -16.5q45 0 80 13.5t60.5 36.5t41 53.5t20.5 65.5h-404z" />
    <glyph glyph-name="florin" unicode="&#x192;" 
d="M480 426h-110l-93 -446q-6 -29 -13.5 -59t-25 -54.5t-49 -40t-85.5 -15.5q-18 0 -39 1.5t-32 2.5l19 87h18q23 1 37.5 5.5t23.5 14.5t14 25t10 37l93 442h-93l18 82h92l11 54q5 24 14 48.5t28.5 44.5t53 32.5t86.5 12.5q22 0 41.5 -2t37.5 -5l-16 -78q-11 4 -25 5.5
t-28 1.5q-28 0 -46 -17t-24 -44l-11 -53h110z" />
    <glyph glyph-name="Ohorn" unicode="&#x1a0;" horiz-adv-x="785" 
d="M45 350q0 91 21 153.5t54 104t73.5 64.5t78.5 33.5t69.5 13t46.5 2.5q10 0 29 -1t42.5 -5t50.5 -12t54 -22q22 -7 47 -7q45 0 62 25.5t17 60.5q0 13 -3.5 31.5t-8.5 35.5h121q6 -14 9 -35t3 -36q0 -29 -11 -54.5t-31.5 -44.5t-49 -30.5t-63.5 -11.5h-7q36 -42 59 -106
t23 -159q0 -91 -21 -153.5t-54 -104t-73.5 -64.5t-78.5 -33.5t-69.5 -13t-46.5 -2.5t-46.5 2.5t-69.5 13t-78.5 33.5t-73.5 64.5t-54 104t-21 153.5zM182 350q0 -41 8 -87t30.5 -86t62.5 -66t105 -26t105 26t62.5 66t30.5 86t8 87q0 40 -8 86.5t-30.5 86.5t-62.5 66t-105 26
t-105 -26t-62.5 -66t-30.5 -86.5t-8 -86.5z" />
    <glyph glyph-name="ohorn" unicode="&#x1a1;" horiz-adv-x="622" 
d="M43 254q0 24 4.5 54t15.5 60.5t30 59t48 51t69.5 36t94.5 13.5q40 0 71.5 -7.5t57.5 -20.5q4 -1 7.5 -1h6.5q43 0 59.5 26t16.5 61q0 11 -2.5 27t-6.5 31h118q5 -14 7 -31.5t2 -30.5q0 -27 -9.5 -51t-27.5 -43t-43.5 -30.5t-56.5 -14.5q18 -22 30 -47t19 -50t10 -48.5
t3 -43.5q0 -24 -4.5 -54t-15.5 -60.5t-30 -59t-48 -51t-69.5 -36t-94.5 -13.5t-94.5 13.5t-69.5 36t-48 51t-30 59t-15.5 60t-4.5 54.5zM171 254q0 -65 15 -103.5t36 -58t44 -25t39 -5.5t39 5.5t44 25t36 58t15 103.5t-15 103.5t-36 58t-44 25t-39 5.5t-39 -5.5t-44 -25
t-36 -58t-15 -103.5z" />
    <glyph glyph-name="Uhorn" unicode="&#x1af;" horiz-adv-x="773" 
d="M200 700v-411q0 -105 35.5 -154.5t125.5 -49.5t125.5 49.5t35.5 154.5v411h115q45 0 62 25.5t17 60.5q0 13 -3.5 31.5t-8.5 35.5h121q6 -14 9 -35t3 -36q0 -29 -11 -54.5t-31 -45t-48 -31t-62 -11.5h-16.5t-18.5 1v-372q0 -28 -2.5 -60.5t-12.5 -65t-28.5 -62t-51 -52.5
t-80 -36.5t-114.5 -13.5t-114.5 13.5t-80 36.5t-51 52.5t-28.5 62t-12.5 65t-2.5 60.5v431h128z" />
    <glyph glyph-name="uhorn" unicode="&#x1b0;" horiz-adv-x="660" 
d="M414 0v67h-2q-25 -45 -72.5 -66t-96.5 -21q-42 0 -71 11t-48 29t-29.5 39.5t-15.5 42.5t-6 38.5t-1 27.5v340h120v-302q0 -22 2 -47t11 -46.5t28 -36t54 -14.5q47 0 73 22t38 50t14 54.5t2 35.5v284h103q20 0 32.5 7.5t19 19.5t9 26t2.5 28q0 11 -2.5 27t-6.5 31h118
q5 -14 7 -31.5t2 -30.5q0 -29 -10.5 -54t-30.5 -44t-48 -30t-63 -11h-12v-446h-120z" />
    <glyph glyph-name="uni01DD" unicode="&#x1dd;" horiz-adv-x="594" 
d="M51 361q5 24 18.5 53.5t40.5 54.5t71 42t112 17q61 0 104 -15.5t71.5 -40t45 -54.5t25 -59.5t10.5 -55t2 -40.5q0 -64 -16 -116.5t-48 -89.5t-80.5 -57t-114.5 -20q-18 0 -44 2.5t-54.5 12.5t-56.5 29.5t-49.5 53.5t-34 84.5t-10.5 122.5h380q0 24 -6.5 52.5t-22 52.5
t-42 40t-65.5 16q-41 0 -76.5 -21.5t-45.5 -63.5h-114zM170 203q0 -17 4.5 -41.5t17 -46.5t36.5 -37.5t63 -15.5q42 0 67.5 15.5t39.5 37.5t19.5 46.5t5.5 41.5h-253z" />
    <glyph glyph-name="Gcaron" unicode="&#x1e6;" horiz-adv-x="756" 
d="M698 375v-375h-92v95h-2q-28 -54 -81 -85t-136 -31q-61 0 -122 17.5t-110 59t-79.5 110.5t-30.5 172q0 82 16.5 142.5t44.5 103t63.5 69t74 42t76 21t69.5 5.5q90 0 147 -23.5t90 -58.5t47 -76.5t17 -78.5h-127q-3 20 -12 43t-29 42.5t-52.5 32.5t-80.5 13
q-67 0 -107.5 -27.5t-62.5 -68t-29.5 -88.5t-7.5 -88q0 -78 22 -128t55 -79t70.5 -40t68.5 -11q23 0 54.5 7t60 26.5t49 55.5t21.5 95h-171v106h286zM478 900h120l-134 -140h-172l-134 140h120l100 -94z" />
    <glyph glyph-name="gcaron" unicode="&#x1e7;" horiz-adv-x="640" 
d="M568 508v-485q0 -106 -68 -161t-189 -55q-93 0 -152 34t-70 110h110q4 -18 16.5 -29.5t29 -18t35.5 -9.5t36 -3q46 0 72.5 14t40 34.5t16.5 43.5t3 42v39q-15 -27 -40 -41.5t-50 -21.5t-45 -8t-25 -1q-64 0 -109.5 22t-75 58.5t-43 84.5t-13.5 100q0 74 21.5 125.5
t56.5 84t78.5 47t88.5 14.5q15 0 36 -2.5t43 -10t44.5 -21.5t40.5 -36h2v50h110zM175 256q0 -62 16.5 -98.5t39 -55t47 -23.5t40.5 -5q26 0 51 11t44.5 33.5t31.5 57.5t12 83q0 52 -12 88t-31.5 58t-44.5 31.5t-52 9.5q-67 0 -104.5 -50t-37.5 -140zM410 700h110l-120 -132
h-160l-120 132h110l90 -89z" />
    <glyph glyph-name="Scommaaccent" unicode="&#x218;" horiz-adv-x="684" 
d="M172 225q1 -20 9 -44.5t28 -45.5t55 -35.5t90 -14.5q18 0 43 2.5t48.5 13t40 31.5t16.5 58q0 31 -13.5 51t-33 31.5t-41 17t-38.5 8.5q-21 4 -41.5 8t-40.5 9q-43 10 -82 22.5t-69 35t-48 57t-18 87.5q0 49 16.5 83.5t42 57.5t57.5 35.5t62.5 18.5t56.5 7.5t40 1.5
q69 0 119 -17t82.5 -45.5t49.5 -66t20 -77.5h-127q-5 37 -23 57t-41 29.5t-46 11.5t-37 2q-7 0 -29 -1.5t-45.5 -10t-42 -27.5t-18.5 -54q0 -27 13.5 -44t35.5 -27.5t50 -16.5t57 -11q61 -11 110.5 -25t84.5 -38t54.5 -61.5t19.5 -95.5q0 -74 -29 -118.5t-73 -68
t-95.5 -30.5t-95.5 -7q-90 0 -147.5 23t-91.5 58.5t-47.5 79t-14.5 85.5h127zM408 -60v-99q0 -39 -16.5 -61t-39 -33t-44.5 -14t-32 -3v64q25 -1 46 8t21 29v9h-67v100h132z" />
    <glyph glyph-name="scommaaccent" unicode="&#x219;" horiz-adv-x="540" 
d="M156 155q0 -26 11 -43.5t28 -28.5t38.5 -16t41.5 -5q17 0 35 3t33 12t25 25t10 42q0 33 -21.5 48t-72.5 24q-14 2 -27.5 4.5t-27.5 4.5q-42 7 -73 18.5t-51.5 28.5t-31 42t-10.5 61q0 50 23 80.5t56 46.5t69.5 21t63.5 5q61 0 102.5 -12.5t66.5 -33.5t35.5 -49.5
t11.5 -59.5h-113q-3 34 -29 53.5t-70 19.5q-37 0 -64.5 -13t-27.5 -50q0 -24 11 -38t29.5 -22t42 -12.5t48.5 -8.5q28 -5 60.5 -11t60.5 -21.5t46.5 -43.5t18.5 -75t-19 -79.5t-50.5 -52.5t-72 -29.5t-83.5 -9.5q-71 0 -117.5 16.5t-73.5 42.5t-38.5 56.5t-13.5 59.5h120z
M336 -60v-99q0 -39 -16.5 -61t-39 -33t-44.5 -14t-32 -3v64q25 -1 46 8t21 29v9h-67v100h132z" />
    <glyph glyph-name="Tcommaaccent" unicode="&#x21a;" horiz-adv-x="594" 
d="M13 594v106h568v-106h-220v-594h-128v594h-220zM363 -60v-99q0 -39 -16.5 -61t-39 -33t-44.5 -14t-32 -3v64q25 -1 46 8t21 29v9h-67v100h132z" />
    <glyph glyph-name="tcommaaccent" unicode="&#x21b;" horiz-adv-x="342" 
d="M96 508v152h120v-152h106v-82h-106v-287q0 -13 1 -24.5t6.5 -20t17.5 -13.5t34 -5q15 0 26 1.5t21 4.5v-82q-45 -12 -98 -12q-47 0 -73 12.5t-38 29.5t-14.5 36t-2.5 33v327h-82v82h82zM283 -60v-99q0 -39 -16.5 -61t-39 -33t-44.5 -14t-32 -3v64q25 -1 46 8t21 29v9h-67
v100h132z" />
    <glyph glyph-name="uni0237" unicode="&#x237;" horiz-adv-x="264" 
d="M192 508v-535q0 -33 -4.5 -62.5t-19 -51.5t-43 -35t-76.5 -13q-13 0 -33 1t-35 3v82q49 1 70 18t21 65v528h120z" />
    <glyph glyph-name="uni0259" unicode="&#x259;" horiz-adv-x="594" 
d="M51 361q5 24 18.5 53.5t40.5 54.5t71 42t112 17q61 0 104 -15.5t71.5 -40t45 -54.5t25 -59.5t10.5 -55t2 -40.5q0 -64 -16 -116.5t-48 -89.5t-80.5 -57t-114.5 -20q-18 0 -44 2.5t-54.5 12.5t-56.5 29.5t-49.5 53.5t-34 84.5t-10.5 122.5h380q0 24 -6.5 52.5t-22 52.5
t-42 40t-65.5 16q-41 0 -76.5 -21.5t-45.5 -63.5h-114zM170 203q0 -17 4.5 -41.5t17 -46.5t36.5 -37.5t63 -15.5q42 0 67.5 15.5t39.5 37.5t19.5 46.5t5.5 41.5h-253z" />
    <glyph glyph-name="afii57929" unicode="&#x2bc;" horiz-adv-x="232" 
d="M182 700v-139q0 -43 -12 -71.5t-31 -46t-42.5 -26t-46.5 -10.5v69q29 2 48 23t19 55v11h-67v135h132z" />
    <glyph glyph-name="circumflex" unicode="&#x2c6;" horiz-adv-x="500" 
d="M160 568h-110l120 132h160l120 -132h-110l-90 89z" />
    <glyph glyph-name="caron" unicode="&#x2c7;" horiz-adv-x="500" 
d="M340 700h110l-120 -132h-160l-120 132h110l90 -89z" />
    <glyph glyph-name="uni02C9" unicode="&#x2c9;" horiz-adv-x="430" 
d="M50 684h330v-82h-165h-165v82z" />
    <glyph glyph-name="breve" unicode="&#x2d8;" horiz-adv-x="494" 
d="M152 700q2 -35 29.5 -54t65.5 -19t65.5 19t29.5 54h102q-5 -21 -15.5 -46t-33 -46.5t-58.5 -36t-90 -14.5t-90 14.5t-58.5 36t-33.5 46.5t-15 46h102z" />
    <glyph glyph-name="dotaccent" unicode="&#x2d9;" horiz-adv-x="220" 
d="M50 700h120v-106h-120v106z" />
    <glyph glyph-name="ring" unicode="&#x2da;" horiz-adv-x="288" 
d="M50 634q0 19 7.5 36t20.5 30t30 20.5t36 7.5t36 -7.5t30 -20.5t20.5 -30t7.5 -36t-7.5 -36t-20.5 -30t-30 -20.5t-36 -7.5t-36 7.5t-30 20.5t-20.5 30t-7.5 36zM100 634q0 -18 13 -31t31 -13t31 13t13 31t-13 31t-31 13t-31 -13t-13 -31z" />
    <glyph glyph-name="ogonek" unicode="&#x2db;" horiz-adv-x="370" 
d="M223 0q-40 -13 -61.5 -45t-21.5 -75q0 -26 13.5 -43t37.5 -17q26 0 38 18t11 39h80q-1 -11 -6.5 -30.5t-20.5 -38.5t-43 -33.5t-73 -14.5q-35 0 -59 10.5t-39 27t-22 37t-7 41.5q0 34 17 69t56 55h100z" />
    <glyph glyph-name="tilde" unicode="&#x2dc;" horiz-adv-x="484" 
d="M434 700q-8 -49 -42.5 -75.5t-75.5 -26.5q-22 0 -40.5 6.5t-36.5 15.5q-18 8 -34 15t-35 7q-25 0 -34.5 -12.5t-11.5 -23.5h-74q3 20 12.5 38.5t24.5 32.5t35.5 22.5t45.5 8.5q23 0 40.5 -5.5t36.5 -14.5q22 -10 35 -17t34 -7q25 0 34.5 12.5t11.5 23.5h74z" />
    <glyph glyph-name="hungarumlaut" unicode="&#x2dd;" horiz-adv-x="460" 
d="M240 700l-110 -132h-80l70 132h120zM410 700l-110 -132h-80l70 132h120z" />
    <glyph glyph-name="gravecomb" unicode="&#x300;" horiz-adv-x="2" 
d="M-255 568h-90l-110 132h130z" />
    <glyph glyph-name="acutecomb" unicode="&#x301;" horiz-adv-x="2" 
d="M-147 700l-110 -132h-90l70 132h130z" />
    <glyph glyph-name="tildecomb" unicode="&#x303;" horiz-adv-x="2" 
d="M-127 700q-8 -49 -42.5 -75.5t-75.5 -26.5q-22 0 -40.5 6.5t-36.5 15.5q-18 8 -34 15t-35 7q-25 0 -34.5 -12.5t-11.5 -23.5h-74q3 20 12.5 38.5t24.5 32.5t35.5 22.5t45.5 8.5q23 0 40.5 -5.5t36.5 -14.5q22 -10 35 -17t34 -7q25 0 34.5 12.5t11.5 23.5h74z" />
    <glyph glyph-name="hookabovecomb" unicode="&#x309;" horiz-adv-x="545" 
d="M140 687q0 19 5 38t19.5 34.5t39.5 25t66 9.5q66 0 95.5 -23.5t29.5 -58.5q0 -29 -15.5 -48t-38.5 -36q-19 -14 -26 -24t-7 -21v-15h-91v17q0 14 9 31t36 38q22 17 32 27.5t10 26.5q0 10 -6.5 19.5t-27.5 9.5q-22 0 -32 -13.5t-11 -36.5h-87z" />
    <glyph glyph-name="uni0313" unicode="&#x313;" horiz-adv-x="232" 
d="M182 700v-139q0 -43 -12 -71.5t-31 -46t-42.5 -26t-46.5 -10.5v69q29 2 48 23t19 55v11h-67v135h132z" />
    <glyph glyph-name="uni0315" unicode="&#x315;" horiz-adv-x="232" 
d="M182 700v-139q0 -43 -12 -71.5t-31 -46t-42.5 -26t-46.5 -10.5v69q29 2 48 23t19 55v11h-67v135h132z" />
    <glyph glyph-name="uni031B" unicode="&#x31b;" horiz-adv-x="405" 
d="M85 502q8 -2 14.5 -2h13.5q45 0 62 25.5t17 60.5q0 11 -2.5 27t-6.5 31h118q5 -14 7 -31.5t2 -30.5q0 -29 -10.5 -54t-30.5 -44t-48 -30t-63 -11q-16 0 -34.5 1t-38.5 4v54z" />
    <glyph glyph-name="dotbelowcomb" unicode="&#x323;" horiz-adv-x="264" 
d="M72 -79h120v-106h-120v106z" />
    <glyph glyph-name="uni0326" unicode="&#x326;" horiz-adv-x="232" 
d="M182 -60v-99q0 -39 -16.5 -61t-39 -33t-44.5 -14t-32 -3v64q25 -1 46 8t21 29v9h-67v100h132z" />
    <glyph glyph-name="uni037E" unicode="&#x37e;" horiz-adv-x="344" 
d="M106 508h132v-135h-132v135zM238 135v-139q0 -43 -12 -71.5t-31 -46t-42.5 -26t-46.5 -10.5v69q29 2 48 23t19 55v11h-67v135h132z" />
    <glyph glyph-name="tonos" unicode="&#x384;" horiz-adv-x="227" 
d="M237 712l-117 -144h-90l77 144h130z" />
    <glyph glyph-name="dieresistonos" unicode="&#x385;" horiz-adv-x="584" 
d="M80 695h109v-100h-109v100zM395 695h109v-100h-109v100zM381 715l-89 -141h-74l49 141h114z" />
    <glyph glyph-name="Alphatonos" unicode="&#x386;" horiz-adv-x="642" 
d="M209 720l-123 -152h-95l83 152h135zM128 0h-137l264 700h128l264 -700h-137l-51 147h-280zM425 253l-106 311l-106 -311h212z" />
    <glyph glyph-name="anoteleia" unicode="&#x387;" horiz-adv-x="250" 
d="M59 335h132v-135h-132v135z" />
    <glyph glyph-name="Epsilontonos" unicode="&#x388;" horiz-adv-x="774" 
d="M705 412v-106h-356v-200h408v-106h-536v700h525v-106h-397v-182h356zM199 720l-123 -152h-95l83 152h135z" />
    <glyph glyph-name="Etatonos" unicode="&#x389;" horiz-adv-x="868" 
d="M343 0h-128v700h128v-280h312v280h128v-700h-128v314h-312v-314zM199 720l-123 -152h-95l83 152h135z" />
    <glyph glyph-name="Iotatonos" unicode="&#x38a;" horiz-adv-x="427" 
d="M199 720l-123 -152h-95l83 152h135zM342 700v-700h-128v700h128z" />
    <glyph glyph-name="Omicrontonos" unicode="&#x38c;" horiz-adv-x="819" 
d="M199 720l-123 -152h-95l83 152h135zM431 721q15 0 46.5 -2.5t69.5 -13t78.5 -33.5t73.5 -64.5t54 -104t21 -153.5t-21 -153.5t-54 -104t-73.5 -64.5t-78.5 -33.5t-69.5 -13t-46.5 -2.5t-46.5 2.5t-69.5 13t-78.5 33.5t-73.5 64.5t-54 104t-21 153.5t21 153.5t54 104
t73.5 64.5t78.5 33.5t69.5 13t46.5 2.5zM431 615q-65 0 -105 -26t-62.5 -66t-30.5 -86.5t-8 -86.5q0 -41 8 -87t30.5 -86t62.5 -66t105 -26t105 26t62.5 66t30.5 86t8 87q0 40 -8 86.5t-30.5 86.5t-62.5 66t-105 26z" />
    <glyph glyph-name="Upsilontonos" unicode="&#x38e;" horiz-adv-x="837" 
d="M199 720l-123 -152h-95l83 152h135zM690 700h151l-257 -421v-279h-128v279l-257 421h151l170 -307z" />
    <glyph glyph-name="Omegatonos" unicode="&#x38f;" horiz-adv-x="803" 
d="M199 720l-123 -152h-95l83 152h135zM760 0h-273v134q25 7 49.5 24.5t43.5 47t31 72.5t12 103q0 12 -1.5 34t-7.5 48t-18 52.5t-33.5 48t-53.5 35t-77 13.5t-77 -13.5t-53.5 -35t-33.5 -48t-18 -52.5t-7.5 -48t-1.5 -34q0 -60 12 -103t31 -72.5t43.5 -47t49.5 -24.5v-134
h-273v106h129v6q-64 36 -96.5 107t-32.5 162q0 77 18.5 132t48.5 92.5t67 60.5t73.5 35t68.5 16t52 4t52 -4t68.5 -16t73.5 -35t67 -60.5t48.5 -92.5t18.5 -132q0 -91 -32.5 -162t-96.5 -107v-6h129v-106z" />
    <glyph glyph-name="iotadieresistonos" unicode="&#x390;" horiz-adv-x="274" 
d="M72 508h120v-380q0 -31 6 -43.5t26 -12.5h25v-72q-19 -2 -31.5 -2.5t-28.5 -0.5q-57 0 -87 22.5t-30 80.5v408zM-72 695h109v-100h-109v100zM243 695h109v-100h-109v100zM229 715l-89 -141h-74l49 141h114z" />
    <glyph glyph-name="Alpha" unicode="&#x391;" horiz-adv-x="648" 
d="M133 0h-137l264 700h128l264 -700h-137l-51 147h-280zM430 253l-106 311l-106 -311h212z" />
    <glyph glyph-name="Beta" unicode="&#x392;" horiz-adv-x="715" 
d="M415 700q67 0 108.5 -17t64.5 -43t31.5 -57t8.5 -60q0 -58 -32.5 -99.5t-83.5 -50.5v-2q22 -4 47 -14t47 -30.5t36.5 -52t14.5 -78.5q0 -66 -25 -105t-63.5 -59.5t-83.5 -26t-84 -5.5h-316v700h330zM213 416h169q54 0 84 18.5t30 64.5q0 35 -14.5 54t-34 28t-39 11
t-29.5 2h-166v-178zM213 106h175q29 0 54 4.5t43.5 16t29 31.5t10.5 52q0 35 -13.5 55t-33.5 30t-43.5 12.5t-43.5 2.5h-178v-204z" />
    <glyph glyph-name="Gamma" unicode="&#x393;" horiz-adv-x="556" 
d="M213 0h-128v700h458v-106h-330v-594z" />
    <glyph glyph-name="uni0394" unicode="&#x394;" horiz-adv-x="648" 
d="M170 106h308l-154 458zM260 700h128l264 -700h-656z" />
    <glyph glyph-name="Epsilon" unicode="&#x395;" horiz-adv-x="638" 
d="M569 412v-106h-356v-200h408v-106h-536v700h525v-106h-397v-182h356z" />
    <glyph glyph-name="Zeta" unicode="&#x396;" horiz-adv-x="613" 
d="M565 700v-98l-378 -496h400v-106h-561v114l378 480h-359v106h520z" />
    <glyph glyph-name="Eta" unicode="&#x397;" horiz-adv-x="738" 
d="M213 0h-128v700h128v-280h312v280h128v-700h-128v314h-312v-314z" />
    <glyph glyph-name="Theta" unicode="&#x398;" horiz-adv-x="776" 
d="M388 721q15 0 46.5 -2.5t69.5 -13t78.5 -33.5t73.5 -64.5t54 -104t21 -153.5t-21 -153.5t-54 -104t-73.5 -64.5t-78.5 -33.5t-69.5 -13t-46.5 -2.5t-46.5 2.5t-69.5 13t-78.5 33.5t-73.5 64.5t-54 104t-21 153.5t21 153.5t54 104t73.5 64.5t78.5 33.5t69.5 13t46.5 2.5z
M388 615q-65 0 -105 -26t-62.5 -66t-30.5 -86.5t-8 -86.5q0 -41 8 -87t30.5 -86t62.5 -66t105 -26t105 26t62.5 66t30.5 86t8 87q0 40 -8 86.5t-30.5 86.5t-62.5 66t-105 26zM242 412h292v-106h-292v106z" />
    <glyph glyph-name="Iota" unicode="&#x399;" horiz-adv-x="298" 
d="M213 700v-700h-128v700h128z" />
    <glyph glyph-name="Kappa" unicode="&#x39a;" horiz-adv-x="668" 
d="M494 700h152l-310 -323l336 -377h-162l-297 363v-363h-128v700h128v-315z" />
    <glyph glyph-name="Lambda" unicode="&#x39b;" horiz-adv-x="648" 
d="M133 0h-137l264 700h128l264 -700h-137l-191 564z" />
    <glyph glyph-name="Mu" unicode="&#x39c;" horiz-adv-x="934" 
d="M213 554h-2l2 -27v-527h-128v700h191l191 -531l191 531h191v-700h-128v527l2 27h-2l-206 -554h-96z" />
    <glyph glyph-name="Nu" unicode="&#x39d;" horiz-adv-x="770" 
d="M213 0h-128v700h136l336 -497v497h128v-700h-136l-336 497v-497z" />
    <glyph glyph-name="Xi" unicode="&#x39e;" horiz-adv-x="560" 
d="M39 700h482v-106h-482v106zM69 412h422v-106h-422v106zM20 106h520v-106h-520v106z" />
    <glyph glyph-name="Omicron" unicode="&#x39f;" horiz-adv-x="776" 
d="M388 721q15 0 46.5 -2.5t69.5 -13t78.5 -33.5t73.5 -64.5t54 -104t21 -153.5t-21 -153.5t-54 -104t-73.5 -64.5t-78.5 -33.5t-69.5 -13t-46.5 -2.5t-46.5 2.5t-69.5 13t-78.5 33.5t-73.5 64.5t-54 104t-21 153.5t21 153.5t54 104t73.5 64.5t78.5 33.5t69.5 13t46.5 2.5z
M388 615q-65 0 -105 -26t-62.5 -66t-30.5 -86.5t-8 -86.5q0 -41 8 -87t30.5 -86t62.5 -66t105 -26t105 26t62.5 66t30.5 86t8 87q0 40 -8 86.5t-30.5 86.5t-62.5 66t-105 26z" />
    <glyph glyph-name="Pi" unicode="&#x3a0;" horiz-adv-x="736" 
d="M213 0h-128v700h566v-700h-128v594h-310v-594z" />
    <glyph glyph-name="Rho" unicode="&#x3a1;" horiz-adv-x="668" 
d="M364 700q41 0 89 -6t88.5 -28t67.5 -65t27 -118q0 -48 -14.5 -89t-46.5 -71t-84 -47.5t-128 -17.5h-150v-258h-128v700h279zM213 364h149q22 0 47 3t46 14t35 34t14 62q0 42 -15 65.5t-37 35t-46.5 14t-42.5 2.5h-150v-230z" />
    <glyph glyph-name="Sigma" unicode="&#x3a3;" horiz-adv-x="575" 
d="M542 594h-332l199 -226l-225 -262h374v-106h-525v96l223 269l-207 237v98h493v-106z" />
    <glyph glyph-name="Tau" unicode="&#x3a4;" horiz-adv-x="594" 
d="M13 594v106h568v-106h-220v-594h-128v594h-220z" />
    <glyph glyph-name="Upsilon" unicode="&#x3a5;" horiz-adv-x="634" 
d="M487 700h151l-257 -421v-279h-128v279l-257 421h151l170 -307z" />
    <glyph glyph-name="Phi" unicode="&#x3a6;" horiz-adv-x="906" 
d="M389 80h-22q-17 0 -47.5 2.5t-67 12t-73.5 27.5t-67.5 49t-50 76.5t-19.5 109.5q0 42 14 89.5t50.5 88t99.5 67.5t161 27h22v71h128v-71h22q98 0 161 -27t99.5 -67.5t50.5 -88t14 -89.5q0 -64 -19.5 -109.5t-50 -76t-67.5 -49t-73.5 -28t-67 -12t-47.5 -2.5h-22v-80h-128
v80zM389 532h-7q-63 0 -102.5 -15.5t-62 -40.5t-30.5 -56.5t-8 -62.5t8 -63t30.5 -58t62 -42.5t102.5 -16.5h7v355zM524 177q63 0 102.5 16.5t62 42.5t30.5 58t8 63t-8 62.5t-30.5 56.5t-62 40.5t-102.5 15.5h-7v-355h7z" />
    <glyph glyph-name="Chi" unicode="&#x3a7;" horiz-adv-x="666" 
d="M488 700h160l-235 -342l253 -358h-165l-168 270l-168 -270h-165l253 358l-235 342h160l155 -253z" />
    <glyph glyph-name="Psi" unicode="&#x3a8;" horiz-adv-x="832" 
d="M480 302q55 0 89 16.5t52 44.5t24 65.5t6 79.5v192h128v-192q0 -80 -17.5 -136.5t-54 -93.5t-93 -56t-134.5 -23v-199h-128v199q-78 4 -134.5 23t-93 56t-54 93.5t-17.5 136.5v192h128v-192q0 -42 6 -79.5t24 -65.5t51.5 -44.5t89.5 -16.5v398h128v-398z" />
    <glyph glyph-name="uni03A9" unicode="&#x3a9;" horiz-adv-x="740" 
d="M698 0h-273v134q25 7 49.5 24.5t43.5 47t31 72.5t12 103q0 12 -1.5 34t-7.5 48t-18 52.5t-33.5 48t-53.5 35t-77 13.5t-77 -13.5t-53.5 -35t-33.5 -48t-18 -52.5t-7.5 -48t-1.5 -34q0 -60 12 -103t31 -72.5t43.5 -47t49.5 -24.5v-134h-273v106h129v6q-64 36 -96.5 107
t-32.5 162q0 77 18.5 132t48.5 92.5t67 60.5t73.5 35t68.5 16t52 4t52 -4t68.5 -16t73.5 -35t67 -60.5t48.5 -92.5t18.5 -132q0 -91 -32.5 -162t-96.5 -107v-6h129v-106z" />
    <glyph glyph-name="Iotadieresis" unicode="&#x3aa;" horiz-adv-x="466" 
d="M50 860h128v-88h-128v88zM288 860h128v-88h-128v88zM295 700v-700h-128v700h128z" />
    <glyph glyph-name="Upsilondieresis" unicode="&#x3ab;" horiz-adv-x="634" 
d="M487 700h151l-257 -421v-279h-128v279l-257 421h151l170 -307zM134 860h128v-88h-128v88zM372 860h128v-88h-128v88z" />
    <glyph glyph-name="alphatonos" unicode="&#x3ac;" horiz-adv-x="651" 
d="M473 508h120l-39 -239q3 -73 17 -141.5t40 -127.5h-118q-4 9 -8.5 21t-8 24.5t-7 24t-5.5 19.5h-4q-30 -57 -75 -83t-104 -26q-53 0 -96.5 16.5t-75 50.5t-49 85.5t-17.5 121.5q0 58 15 108t46 87t77.5 58t109.5 21q51 0 96.5 -22t70.5 -66h3zM444 261l-9 49
q-11 63 -42.5 99.5t-83.5 36.5q-63 0 -100.5 -45.5t-37.5 -146.5q0 -104 35 -148t100 -44q55 0 88.5 37t44.5 115zM445 712l-117 -144h-90l77 144h130z" />
    <glyph glyph-name="epsilontonos" unicode="&#x3ad;" horiz-adv-x="550" 
d="M284 62q37 0 60.5 10t36.5 24t18 30.5t5 30.5h114q-1 -24 -10 -54.5t-34 -58t-70 -46t-119 -18.5q-75 0 -122 15.5t-74 40.5t-36.5 54.5t-9.5 58.5q0 19 5.5 37t18 33t33 26.5t51.5 17.5v2q-16 3 -32 10.5t-29 21t-21 32.5t-8 44q0 30 11.5 57.5t37.5 49.5t67 35t101 13
q66 0 108.5 -15.5t67.5 -39.5t35.5 -53t12.5 -56h-114q-3 28 -15 44t-27.5 24.5t-32 11t-28.5 2.5q-27 0 -45.5 -6.5t-30.5 -17t-17 -24.5t-5 -28q0 -12 4 -25t14 -23.5t26 -17t39 -6.5h81v-82h-83q-9 0 -25.5 -1.5t-33.5 -8t-29.5 -21t-12.5 -40.5q0 -12 4 -26.5t17 -27
t35.5 -21t60.5 -8.5zM428 712l-117 -144h-90l77 144h130z" />
    <glyph glyph-name="etatonos" unicode="&#x3ae;" horiz-adv-x="606" 
d="M72 0v381q0 22 -6.5 37t-29.5 15h-16v72q29 7 55 7q45 0 71.5 -16t40.5 -57h2q13 22 33 38.5t43 28t47.5 17t46.5 5.5q65 0 100.5 -24t52 -56t19.5 -63t3 -45v-525h-120v487q0 23 -1.5 48.5t-10.5 46.5t-28.5 35t-54.5 14q-12 0 -33.5 -4.5t-42 -21.5t-36 -51t-15.5 -92
v-277h-120zM424 712l-117 -144h-90l77 144h130z" />
    <glyph glyph-name="iotatonos" unicode="&#x3af;" horiz-adv-x="274" 
d="M72 508h120v-380q0 -31 6 -43.5t26 -12.5h25v-72q-19 -2 -31.5 -2.5t-28.5 -0.5q-57 0 -87 22.5t-30 80.5v408zM283 712l-117 -144h-90l77 144h130z" />
    <glyph glyph-name="upsilondieresistonos" unicode="&#x3b0;" horiz-adv-x="596" 
d="M192 508v-294q0 -83 23 -117.5t77 -34.5q27 0 48.5 9.5t35.5 33t21.5 63t7.5 99.5q0 87 -11.5 143.5t-31.5 95.5l106 16q32 -48 47 -113t15 -142q0 -138 -58.5 -212.5t-181.5 -74.5q-110 0 -164 55.5t-54 178.5v294h120zM73 695h109v-100h-109v100zM388 695h109v-100
h-109v100zM374 715l-89 -141h-74l49 141h114z" />
    <glyph glyph-name="alpha" unicode="&#x3b1;" horiz-adv-x="651" 
d="M473 508h120l-39 -239q3 -73 17 -141.5t40 -127.5h-118q-4 9 -8.5 21t-8 24.5t-7 24t-5.5 19.5h-4q-30 -57 -75 -83t-104 -26q-53 0 -96.5 16.5t-75 50.5t-49 85.5t-17.5 121.5q0 58 15 108t46 87t77.5 58t109.5 21q51 0 96.5 -22t70.5 -66h3zM444 261l-9 49
q-11 63 -42.5 99.5t-83.5 36.5q-63 0 -100.5 -45.5t-37.5 -146.5q0 -104 35 -148t100 -44q55 0 88.5 37t44.5 115z" />
    <glyph glyph-name="beta" unicode="&#x3b2;" horiz-adv-x="606" 
d="M72 -185v640q0 58 12 106.5t39.5 83.5t73 55t111.5 20q48 0 87 -10.5t67.5 -31t44 -50.5t15.5 -69q0 -58 -31 -99t-94 -56v-6q83 -13 124.5 -65.5t41.5 -126.5q0 -53 -17 -94.5t-46 -70.5t-69.5 -44.5t-86.5 -15.5q-29 0 -53.5 7t-43.5 18t-33 24.5t-22 27.5v-243h-120z
M192 136q23 -39 55.5 -56.5t65.5 -17.5q54 0 88 35t34 111q-1 79 -39 112t-117 33h-33v81h39q112 0 112 104q0 54 -26.5 77t-64.5 23q-55 0 -84.5 -38.5t-29.5 -131.5v-332z" />
    <glyph glyph-name="gamma" unicode="&#x3b3;" horiz-adv-x="549" 
d="M231 -185v235l-145 347q-9 23 -21.5 29t-23.5 6h-14t-21 -2v77q17 2 31.5 3.5t36.5 1.5q47 0 76 -16.5t46 -60.5l99 -259q32 81 65 166t65 166h124l-198 -458v-235h-120z" />
    <glyph glyph-name="delta" unicode="&#x3b4;" horiz-adv-x="604" 
d="M385 570q0 30 -21.5 49t-61.5 19q-39 0 -60.5 -18t-21.5 -41t8 -38t24.5 -25t42 -17.5t60.5 -16.5q100 -25 153 -84t53 -164q-1 -121 -70.5 -187.5t-188.5 -66.5q-125 0 -192 66t-67 186q0 85 43 142.5t119 74.5v3q-55 15 -84 48t-29 81q0 67 54.5 103t156.5 36
q100 0 151.5 -38.5t51.5 -111.5h-121zM171 236q0 -91 34.5 -132.5t96.5 -41.5q61 0 96 42t35 132q0 88 -35.5 130.5t-98.5 42.5q-60 0 -94 -45.5t-34 -127.5z" />
    <glyph glyph-name="epsilon" unicode="&#x3b5;" horiz-adv-x="550" 
d="M284 62q37 0 60.5 10t36.5 24t18 30.5t5 30.5h114q-1 -24 -10 -54.5t-34 -58t-70 -46t-119 -18.5q-75 0 -122 15.5t-74 40.5t-36.5 54.5t-9.5 58.5q0 19 5.5 37t18 33t33 26.5t51.5 17.5v2q-16 3 -32 10.5t-29 21t-21 32.5t-8 44q0 30 11.5 57.5t37.5 49.5t67 35t101 13
q66 0 108.5 -15.5t67.5 -39.5t35.5 -53t12.5 -56h-114q-3 28 -15 44t-27.5 24.5t-32 11t-28.5 2.5q-27 0 -45.5 -6.5t-30.5 -17t-17 -24.5t-5 -28q0 -12 4 -25t14 -23.5t26 -17t39 -6.5h81v-82h-83q-9 0 -25.5 -1.5t-33.5 -8t-29.5 -21t-12.5 -40.5q0 -12 4 -26.5t17 -27
t35.5 -21t60.5 -8.5z" />
    <glyph glyph-name="zeta" unicode="&#x3b6;" horiz-adv-x="471" 
d="M91 700h381v-81q-74 -9 -130 -39.5t-94 -77.5t-57.5 -109.5t-19.5 -135.5q0 -50 7 -83.5t23.5 -54t43 -29t65.5 -8.5h41q68 0 106 -31.5t38 -93.5q0 -20 -5 -39t-12.5 -37t-17 -35t-17.5 -31l-107 36q17 34 28 56.5t11 48.5q0 23 -15 33.5t-40 10.5h-37q-66 0 -111.5 16
t-74 48t-41.5 80t-13 113q0 55 16 109t47.5 101.5t79.5 85.5t111 61v4h-206v82z" />
    <glyph glyph-name="eta" unicode="&#x3b7;" horiz-adv-x="606" 
d="M72 0v381q0 22 -6.5 37t-29.5 15h-16v72q29 7 55 7q45 0 71.5 -16t40.5 -57h2q13 22 33 38.5t43 28t47.5 17t46.5 5.5q65 0 100.5 -24t52 -56t19.5 -63t3 -45v-525h-120v487q0 23 -1.5 48.5t-10.5 46.5t-28.5 35t-54.5 14q-12 0 -33.5 -4.5t-42 -21.5t-36 -51t-15.5 -92
v-277h-120z" />
    <glyph glyph-name="theta" unicode="&#x3b8;" horiz-adv-x="620" 
d="M44 350q0 166 69 270q67 100 197 100q64 0 113 -25.5t82 -74.5q34 -51 52.5 -120t18.5 -150q0 -168 -70 -271q-68 -98 -196 -98q-131 0 -197 98q-35 52 -52 119t-17 152zM168 326q0 -54 8 -104t26 -82q42 -78 108 -78q65 0 107 78q18 35 26.5 83.5t8.5 102.5h-284z
M450 407q-2 51 -11.5 93t-28.5 72q-41 66 -101 66q-62 0 -102 -66q-19 -30 -27.5 -73.5t-10.5 -91.5h281z" />
    <glyph glyph-name="iota" unicode="&#x3b9;" horiz-adv-x="274" 
d="M72 508h120v-380q0 -31 6 -43.5t26 -12.5h25v-72q-19 -2 -31.5 -2.5t-28.5 -0.5q-57 0 -87 22.5t-30 80.5v408z" />
    <glyph glyph-name="kappa" unicode="&#x3ba;" horiz-adv-x="530" 
d="M385 508h138l-226 -237l237 -271h-138l-204 246v-246h-120v508h120v-212z" />
    <glyph glyph-name="lambda" unicode="&#x3bb;" horiz-adv-x="561" 
d="M137 0h-137l224 498l-26 77q-11 32 -22 39.5t-27 7.5q-6 0 -14.5 -1.5t-22.5 -3.5v81q21 3 38.5 4.5t39.5 1.5q48 0 74 -18t40 -59l174 -518q6 -17 16 -25t20 -8q6 0 16.5 1t24.5 5v-82l-32 -4t-34 -2q-49 0 -79.5 20t-48.5 77l-85 272z" />
    <glyph glyph-name="uni03BC" unicode="&#x3bc;" horiz-adv-x="600" 
d="M205 -185h-120v693h120v-277q0 -15 1.5 -42t10.5 -53t28 -45.5t55 -19.5q15 0 31.5 6t31 23t23.5 48.5t9 82.5v277h120v-365q0 -9 0.5 -20.5t4.5 -20.5t12 -15t23 -5l13 1v-83q-16 -2 -38.5 -3.5t-38.5 -1.5q-15 0 -30 2t-28.5 8.5t-23.5 18t-14 31.5q-6 -13 -14.5 -26
t-20.5 -24t-27.5 -18t-35.5 -7q-30 0 -55 19.5t-37 45.5v-230z" />
    <glyph glyph-name="nu" unicode="&#x3bd;" horiz-adv-x="493" 
d="M256 118l99 279q12 36 12 72q0 22 -4 37l116 16q3 -11 4 -21.5t1 -21.5q0 -23 -4.5 -47t-12.5 -45l-143 -387h-138l-186 508h128z" />
    <glyph glyph-name="xi" unicode="&#x3be;" horiz-adv-x="492" 
d="M275 0q-116 0 -174.5 45t-58.5 144q0 65 40 108t114 58v7q-38 7 -62 20t-38 30t-19.5 38t-5.5 44q0 18 5 35.5t16.5 33.5t30.5 29.5t48 22.5v3h-123v82h402v-82h-109q-77 0 -112 -30t-35 -89q0 -48 32.5 -74t104.5 -26h99v-82h-99q-82 0 -121.5 -28.5t-39.5 -99.5
q0 -56 28.5 -81.5t81.5 -25.5h68q68 0 106 -31.5t38 -93.5q0 -20 -5 -39t-12.5 -37t-17 -35t-17.5 -31l-107 36q17 34 28 56.5t11 48.5q0 23 -15 33.5t-40 10.5h-42z" />
    <glyph glyph-name="omicron" unicode="&#x3bf;" 
d="M305 528q54 0 94.5 -13.5t69.5 -36t48 -51t30 -59t15.5 -60.5t4.5 -54t-4.5 -54t-15.5 -60.5t-30 -59t-48 -51t-69.5 -36t-94.5 -13.5t-94.5 13.5t-69.5 36t-48 51t-30 59t-15.5 60t-4.5 54.5q0 24 4.5 54t15.5 60.5t30 59t48 51t69.5 36t94.5 13.5zM305 446
q-16 0 -39 -5.5t-44 -25t-36 -58t-15 -103.5t15 -103.5t36 -58t44 -25t39 -5.5t39 5.5t44 25t36 58t15 103.5t-15 103.5t-36 58t-44 25t-39 5.5z" />
    <glyph glyph-name="pi" unicode="&#x3c0;" horiz-adv-x="600" 
d="M106 426h-13q-17 0 -35.5 -6t-31.5 -14v82q23 13 43 16.5t42 3.5h463v-82h-64v-283q0 -11 1 -22.5t5 -20.5t12.5 -14.5t24.5 -3.5l10 1v-83q-16 -2 -36 -3.5t-36 -1.5q-38 0 -58.5 11.5t-30 28t-11 35.5t-1.5 33v323h-164v-426h-120v426z" />
    <glyph glyph-name="rho" unicode="&#x3c1;" horiz-adv-x="636" 
d="M72 -185v414q0 154 68 226.5t197 72.5q65 0 113 -20.5t80 -57t47.5 -86t15.5 -107.5q0 -64 -16.5 -115.5t-47.5 -87.5t-76 -55t-103 -19q-24 0 -47.5 4.5t-44.5 13.5t-38.5 22.5t-27.5 31.5v-237h-120zM186 250q0 -86 34 -137t106 -51q17 0 41 6.5t45.5 26.5t37 57
t15.5 98q0 54 -12 91.5t-31.5 60.5t-45.5 33.5t-53 10.5q-20 0 -44 -7.5t-44.5 -28.5t-34.5 -59.5t-14 -100.5z" />
    <glyph glyph-name="sigma1" unicode="&#x3c2;" horiz-adv-x="568" 
d="M307 0q-133 0 -198.5 68t-65.5 185q0 65 14 110.5t36.5 76t50.5 48.5t55.5 26.5t52.5 11t42 2.5q58 0 102 -16t73.5 -42t46 -60t20.5 -71h-114q-2 20 -10 39t-23 34t-36.5 24.5t-51.5 9.5q-37 0 -62 -15t-40 -40.5t-21.5 -60t-6.5 -72.5q0 -93 36.5 -134.5t101.5 -41.5
h82q68 0 106 -31.5t38 -93.5q0 -20 -5 -39t-12.5 -37t-17 -35t-17.5 -31l-107 36q17 34 28 56.5t11 48.5q0 23 -15 33.5t-40 10.5h-53z" />
    <glyph glyph-name="sigma" unicode="&#x3c3;" horiz-adv-x="619" 
d="M43 254q0 24 4.5 54t15.5 60.5t30 59t48 51t69.5 36t94.5 13.5q33 0 61 -5.5t51 -14.5h200v-82h-104q28 -39 41 -87.5t13 -84.5q0 -24 -4.5 -54t-15.5 -60.5t-30 -59t-48 -51t-69.5 -36t-94.5 -13.5t-94.5 13.5t-69.5 36t-48 51t-30 59t-15.5 60t-4.5 54.5zM171 254
q0 -65 15 -103.5t36 -58t44 -25t39 -5.5t39 5.5t44 25t36 58t15 103.5t-15 103.5t-36 58t-44 25t-39 5.5t-39 -5.5t-44 -25t-36 -58t-15 -103.5z" />
    <glyph glyph-name="tau" unicode="&#x3c4;" horiz-adv-x="464" 
d="M175 426h-52q-28 0 -55.5 -6.5t-64.5 -27.5v93q47 23 120 23h338v-82h-166v-298q0 -31 5.5 -43.5t20.5 -12.5h31v-72q-30 -3 -60 -3q-56 0 -86.5 19.5t-30.5 72.5v337z" />
    <glyph glyph-name="upsilon" unicode="&#x3c5;" horiz-adv-x="596" 
d="M192 508v-294q0 -83 23 -117.5t77 -34.5q27 0 48.5 9.5t35.5 33t21.5 63t7.5 99.5q0 87 -11.5 143.5t-31.5 95.5l106 16q32 -48 47 -113t15 -142q0 -138 -58.5 -212.5t-181.5 -74.5q-110 0 -164 55.5t-54 178.5v294h120z" />
    <glyph glyph-name="phi" unicode="&#x3c6;" horiz-adv-x="774" 
d="M327 -185v185q-79 4 -136 23t-93.5 51.5t-53.5 78.5t-17 103q0 52 16.5 95.5t46.5 76t72.5 53t95.5 26.5v-86q-51 -15 -78.5 -55t-27.5 -111q0 -90 45 -130.5t130 -42.5v426h104q162 0 239 -67t77 -184q0 -64 -24 -111.5t-65.5 -79.5t-96 -48.5t-114.5 -17.5v-185h-120z
M445 82q89 5 132.5 47t44.5 129q0 86 -45 127t-132 41v-344z" />
    <glyph glyph-name="chi" unicode="&#x3c7;" horiz-adv-x="480" 
d="M4 506q19 2 33 4t32 2q38 0 64.5 -14t42.5 -49l78 -170l102 229h123l-170 -327l112 -234q9 -20 18 -30.5t16.5 -16t14 -6.5t11.5 -1q6 0 13 1.5t22 4.5v-82q-22 -3 -37 -4.5t-32 -1.5q-38 0 -65.5 15.5t-45.5 54.5l-94 204l-127 -270h-128l200 375l-92 188
q-18 36 -29.5 44t-24.5 8q-6 0 -15.5 -1.5t-21.5 -3.5v81z" />
    <glyph glyph-name="psi" unicode="&#x3c8;" horiz-adv-x="780" 
d="M325 -185v185q-67 3 -115 22.5t-78.5 53.5t-45 81t-14.5 106v245h120v-233q0 -41 6.5 -74t21.5 -57.5t40.5 -40.5t64.5 -22v619h120v-619q34 4 60.5 15t45 34t28.5 60t10 93q0 82 -16 138.5t-31 85.5l117 15q31 -57 43 -117.5t12 -123.5t-18 -114.5t-52.5 -88.5
t-84.5 -57.5t-114 -20.5v-185h-120z" />
    <glyph glyph-name="omega" unicode="&#x3c9;" horiz-adv-x="772" 
d="M446 210q0 -76 14.5 -112.5t56.5 -36.5q15 0 30 6t28 25t21 53t8 91q0 54 -9.5 91t-27.5 60.5t-44.5 35t-59.5 14.5v81q129 -2 197.5 -75.5t68.5 -206.5q0 -125 -52 -190.5t-149 -65.5q-29 0 -53.5 9t-42.5 24.5t-29.5 36t-14.5 43.5h-4q-3 -23 -14.5 -43.5t-29.5 -36
t-42.5 -24.5t-53.5 -9q-97 0 -149 65.5t-52 190.5q0 133 68.5 206.5t197.5 75.5v-81q-33 -3 -59.5 -14.5t-44.5 -35t-27.5 -60.5t-9.5 -91q0 -57 8 -91t21 -53t28 -25t30 -6q42 0 56.5 36.5t14.5 112.5v68h120v-68z" />
    <glyph glyph-name="iotadieresis" unicode="&#x3ca;" horiz-adv-x="274" 
d="M72 508h120v-380q0 -31 6 -43.5t26 -12.5h25v-72q-19 -2 -31.5 -2.5t-28.5 -0.5q-57 0 -87 22.5t-30 80.5v408zM-15 700h116v-106h-116v106zM175 700h116v-106h-116v106z" />
    <glyph glyph-name="upsilondieresis" unicode="&#x3cb;" horiz-adv-x="596" 
d="M192 508v-294q0 -83 23 -117.5t77 -34.5q27 0 48.5 9.5t35.5 33t21.5 63t7.5 99.5q0 87 -11.5 143.5t-31.5 95.5l106 16q32 -48 47 -113t15 -142q0 -138 -58.5 -212.5t-181.5 -74.5q-110 0 -164 55.5t-54 178.5v294h120zM119 700h116v-106h-116v106zM309 700h116v-106
h-116v106z" />
    <glyph glyph-name="omicrontonos" unicode="&#x3cc;" 
d="M305 528q54 0 94.5 -13.5t69.5 -36t48 -51t30 -59t15.5 -60.5t4.5 -54t-4.5 -54t-15.5 -60.5t-30 -59t-48 -51t-69.5 -36t-94.5 -13.5t-94.5 13.5t-69.5 36t-48 51t-30 59t-15.5 60t-4.5 54.5q0 24 4.5 54t15.5 60.5t30 59t48 51t69.5 36t94.5 13.5zM305 446
q-16 0 -39 -5.5t-44 -25t-36 -58t-15 -103.5t15 -103.5t36 -58t44 -25t39 -5.5t39 5.5t44 25t36 58t15 103.5t-15 103.5t-36 58t-44 25t-39 5.5zM455 712l-117 -144h-90l77 144h130z" />
    <glyph glyph-name="upsilontonos" unicode="&#x3cd;" horiz-adv-x="596" 
d="M192 508v-294q0 -83 23 -117.5t77 -34.5q27 0 48.5 9.5t35.5 33t21.5 63t7.5 99.5q0 87 -11.5 143.5t-31.5 95.5l106 16q32 -48 47 -113t15 -142q0 -138 -58.5 -212.5t-181.5 -74.5q-110 0 -164 55.5t-54 178.5v294h120zM434 712l-117 -144h-90l77 144h130z" />
    <glyph glyph-name="omegatonos" unicode="&#x3ce;" horiz-adv-x="772" 
d="M446 210q0 -76 14.5 -112.5t56.5 -36.5q15 0 30 6t28 25t21 53t8 91q0 54 -9.5 91t-27.5 60.5t-44.5 35t-59.5 14.5v81q129 -2 197.5 -75.5t68.5 -206.5q0 -125 -52 -190.5t-149 -65.5q-29 0 -53.5 9t-42.5 24.5t-29.5 36t-14.5 43.5h-4q-3 -23 -14.5 -43.5t-29.5 -36
t-42.5 -24.5t-53.5 -9q-97 0 -149 65.5t-52 190.5q0 133 68.5 206.5t197.5 75.5v-81q-33 -3 -59.5 -14.5t-44.5 -35t-27.5 -60.5t-9.5 -91q0 -57 8 -91t21 -53t28 -25t30 -6q42 0 56.5 36.5t14.5 112.5v68h120v-68zM542 712l-117 -144h-90l77 144h130z" />
    <glyph glyph-name="afii10023" unicode="&#x401;" horiz-adv-x="639" 
d="M568 412v-106h-355v-200h409v-106h-537v700h526v-106h-398v-182h355zM172 860h128v-88h-128v88zM410 860h128v-88h-128v88z" />
    <glyph glyph-name="afii10051" unicode="&#x402;" horiz-adv-x="780" 
d="M12 700h568v-106h-230v-196q42 5 72 6t59 1q34 0 78.5 -4t84 -23.5t66.5 -61.5t27 -117q0 -14 -2.5 -35.5t-10 -45t-22.5 -47t-39.5 -42.5t-60 -30.5t-85.5 -11.5q-22 0 -40.5 3t-38.5 10v106q16 -5 34.5 -9t33.5 -4q48 0 71 27.5t23 74.5q0 38 -12 59t-31.5 31t-43 12
t-46.5 2q-29 0 -56.5 -1.5t-60.5 -5.5v-292h-128v594h-210v106z" />
    <glyph glyph-name="afii10052" unicode="&#x403;" horiz-adv-x="556" 
d="M213 0h-128v700h458v-106h-330v-594zM411 900l-118 -140h-96l78 140h136z" />
    <glyph glyph-name="afii10053" unicode="&#x404;" horiz-adv-x="750" 
d="M509 306h-326q1 -33 11 -71.5t33.5 -71.5t63 -55.5t99.5 -22.5q46 0 79.5 12t56 31t35 43t17.5 48h127q-6 -35 -23 -77t-53 -78t-95 -60.5t-148 -24.5q-75 0 -138 22t-108 67t-70 112.5t-25 157.5q0 75 18 144t58.5 122t107 85t164.5 32q87 0 144.5 -22t92 -56t49 -73.5
t16.5 -75.5h-127q-7 51 -51 86t-128 35q-56 0 -95 -19t-63 -48.5t-35.5 -65.5t-12.5 -70h326v-106z" />
    <glyph glyph-name="afii10054" unicode="&#x405;" horiz-adv-x="684" 
d="M172 225q1 -20 9 -44.5t28 -45.5t55 -35.5t90 -14.5q18 0 43 2.5t48.5 13t40 31.5t16.5 58q0 31 -13.5 51t-33 31.5t-41 17t-38.5 8.5q-21 4 -41.5 8t-40.5 9q-43 10 -82 22.5t-69 35t-48 57t-18 87.5q0 49 16.5 83.5t42 57.5t57.5 35.5t62.5 18.5t56.5 7.5t40 1.5
q69 0 119 -17t82.5 -45.5t49.5 -66t20 -77.5h-127q-5 37 -23 57t-41 29.5t-46 11.5t-37 2q-7 0 -29 -1.5t-45.5 -10t-42 -27.5t-18.5 -54q0 -27 13.5 -44t35.5 -27.5t50 -16.5t57 -11q61 -11 110.5 -25t84.5 -38t54.5 -61.5t19.5 -95.5q0 -74 -29 -118.5t-73 -68
t-95.5 -30.5t-95.5 -7q-90 0 -147.5 23t-91.5 58.5t-47.5 79t-14.5 85.5h127z" />
    <glyph glyph-name="afii10055" unicode="&#x406;" horiz-adv-x="298" 
d="M213 700v-700h-128v700h128z" />
    <glyph glyph-name="afii10056" unicode="&#x407;" horiz-adv-x="340" 
d="M234 700v-700h-128v700h128zM20 860h120v-88h-120v88zM200 860h120v-88h-120v88z" />
    <glyph glyph-name="afii10057" unicode="&#x408;" horiz-adv-x="551" 
d="M151 243v-29q0 -45 10.5 -70.5t26.5 -38.5t33.5 -16.5t31.5 -3.5q19 0 37 4t31.5 19t21.5 44t8 80v468h128v-452q0 -44 -5.5 -91.5t-28 -87t-68 -65t-125.5 -25.5q-70 0 -114.5 20.5t-70 53t-35 72.5t-9.5 79v39h128z" />
    <glyph glyph-name="afii10058" unicode="&#x409;" horiz-adv-x="1106" 
d="M13 106q6 -1 12.5 -1.5t12.5 -0.5q48 0 75 30.5t39.5 77.5t15 103.5t2.5 109.5v275h479v-270h182q19 0 44.5 -2t52.5 -9.5t53 -21.5t47 -38.5t33.5 -60.5t12.5 -87q0 -33 -10 -70t-37 -68.5t-74.5 -52t-122.5 -20.5h-309v594h-223v-207q0 -79 -8 -150t-33 -124.5
t-71.5 -85t-123.5 -31.5q-12 0 -24.5 1t-24.5 3v106zM649 106h156q25 0 50 4t44 15.5t31 33.5t12 58q0 37 -13.5 58.5t-33.5 32.5t-43.5 13.5t-43.5 2.5h-159v-218z" />
    <glyph glyph-name="afii10059" unicode="&#x40a;" horiz-adv-x="1110" 
d="M213 0h-128v700h128v-280h312v280h128v-270h182q19 0 44.5 -2t52.5 -9.5t53 -21.5t47 -38.5t33.5 -60.5t12.5 -87q0 -33 -10 -70t-37 -68.5t-74.5 -52t-122.5 -20.5h-309v314h-312v-314zM653 106h156q25 0 50 4t44 15.5t31 33.5t12 58q0 37 -13.5 58.5t-33.5 32.5
t-43.5 13.5t-43.5 2.5h-159v-218z" />
    <glyph glyph-name="afii10060" unicode="&#x40b;" horiz-adv-x="802" 
d="M624 0v182q0 25 -2.5 46.5t-17 37.5t-46 24.5t-89.5 8.5q-28 0 -54.5 -1t-64.5 -6v-292h-128v594h-210v106h568v-106h-230v-196q29 2 69 4.5t74 2.5q88 0 139.5 -17.5t78 -45.5t34 -62.5t7.5 -68.5v-211h-128z" />
    <glyph glyph-name="afii10061" unicode="&#x40c;" horiz-adv-x="668" 
d="M494 700h152l-310 -323l336 -377h-162l-297 363v-363h-128v700h128v-315zM486 900l-118 -140h-96l78 140h136z" />
    <glyph glyph-name="afii10062" unicode="&#x40e;" horiz-adv-x="623" 
d="M493 700h134l-235 -564q-22 -54 -47 -83.5t-51 -43.5t-51.5 -16.5t-48.5 -2.5q-25 0 -45 1.5t-46 9.5v111q17 -5 35 -8.5t38 -3.5q17 0 32.5 3.5t28.5 12.5t23 25.5t16 42.5l-267 516h157l179 -378zM204 883q4 -40 34.5 -60.5t72.5 -20.5t72.5 20.5t34.5 60.5h103
q-6 -32 -22 -60t-42 -48.5t-63 -32.5t-83 -12q-47 0 -83.5 12t-62.5 32.5t-42 48.5t-22 60h103z" />
    <glyph glyph-name="afii10145" unicode="&#x40f;" horiz-adv-x="754" 
d="M536 700h128v-700h-227v-185h-120v185h-227v700h128v-594h318v594z" />
    <glyph glyph-name="afii10017" unicode="&#x410;" horiz-adv-x="648" 
d="M133 0h-137l264 700h128l264 -700h-137l-51 147h-280zM430 253l-106 311l-106 -311h212z" />
    <glyph glyph-name="afii10018" unicode="&#x411;" horiz-adv-x="692" 
d="M213 422h204q28 0 68.5 -5.5t77.5 -27t63 -64.5t26 -118q0 -51 -14.5 -86.5t-37.5 -58.5t-50.5 -35.5t-54 -18.5t-48 -7t-31.5 -1h-331v700h521v-106h-393v-172zM213 106h170q25 0 49.5 4t44 15t31.5 32t12 56q0 36 -13.5 56.5t-33.5 31t-43.5 13t-43.5 2.5h-173v-210z
" />
    <glyph glyph-name="afii10019" unicode="&#x412;" horiz-adv-x="715" 
d="M415 700q67 0 108.5 -17t64.5 -43t31.5 -57t8.5 -60q0 -58 -32.5 -99.5t-83.5 -50.5v-2q22 -4 47 -14t47 -30.5t36.5 -52t14.5 -78.5q0 -66 -25 -105t-63.5 -59.5t-83.5 -26t-84 -5.5h-316v700h330zM213 416h169q54 0 84 18.5t30 64.5q0 35 -14.5 54t-34 28t-39 11
t-29.5 2h-166v-178zM213 106h175q29 0 54 4.5t43.5 16t29 31.5t10.5 52q0 35 -13.5 55t-33.5 30t-43.5 12.5t-43.5 2.5h-178v-204z" />
    <glyph glyph-name="afii10020" unicode="&#x413;" horiz-adv-x="556" 
d="M213 0h-128v700h458v-106h-330v-594z" />
    <glyph glyph-name="afii10021" unicode="&#x414;" horiz-adv-x="758" 
d="M745 106l-6 -264h-112v158h-509v-158h-112l-6 264h60q17 22 38 58t39.5 89t31 126t12.5 170v151h468v-594h96zM309 594v-84q0 -58 -4 -110t-14.5 -100.5t-29.5 -96.5t-49 -97h309v488h-212z" />
    <glyph glyph-name="afii10022" unicode="&#x415;" horiz-adv-x="638" 
d="M569 412v-106h-356v-200h408v-106h-536v700h525v-106h-397v-182h356z" />
    <glyph glyph-name="afii10024" unicode="&#x416;" horiz-adv-x="966" 
d="M419 335l-269 -335h-154l309 376l-290 324h154l250 -296v296h128v-296l250 296h154l-290 -324l309 -376h-154l-269 335v-335h-128v335z" />
    <glyph glyph-name="afii10025" unicode="&#x417;" horiz-adv-x="697" 
d="M172 239q0 -22 6.5 -48.5t26 -50t54.5 -39.5t92 -16q72 0 114 30t42 87q0 33 -10.5 54t-29 33.5t-44 17.5t-54.5 5h-96v106h83q11 0 31.5 1.5t41 10.5t35.5 27.5t15 52.5q0 47 -32.5 76t-109.5 29q-45 0 -75 -10.5t-48 -27.5t-25.5 -38.5t-8.5 -44.5h-127q1 69 26 113
t65.5 69.5t93.5 35t110 9.5q36 0 81.5 -6.5t86 -27.5t68 -60t27.5 -104q0 -34 -9.5 -61t-25.5 -46.5t-37.5 -31.5t-44.5 -15v-2q28 -4 54.5 -17t46.5 -35t32 -53.5t12 -72.5q0 -31 -11 -67.5t-43 -68t-90 -53t-152 -21.5q-68 0 -122 15t-92 46.5t-59.5 80.5t-24.5 118h127z
" />
    <glyph glyph-name="afii10026" unicode="&#x418;" horiz-adv-x="756" 
d="M546 700h125v-700h-128v512l-333 -512h-125v700h128v-512z" />
    <glyph glyph-name="afii10027" unicode="&#x419;" horiz-adv-x="756" 
d="M546 700h125v-700h-128v512l-333 -512h-125v700h128v-512zM271 883q4 -40 34.5 -60.5t72.5 -20.5t72.5 20.5t34.5 60.5h103q-6 -32 -22 -60t-42 -48.5t-63 -32.5t-83 -12q-47 0 -83.5 12t-62.5 32.5t-42 48.5t-22 60h103z" />
    <glyph glyph-name="afii10028" unicode="&#x41a;" horiz-adv-x="668" 
d="M494 700h152l-310 -323l336 -377h-162l-297 363v-363h-128v700h128v-315z" />
    <glyph glyph-name="afii10029" unicode="&#x41b;" horiz-adv-x="734" 
d="M13 106q57 -10 89 18.5t47 77.5t18 109.5t3 113.5v275h479v-700h-128v594h-223v-207q0 -44 -2.5 -93t-12 -95.5t-28 -87.5t-50 -69t-78.5 -40.5t-114 -1.5v106z" />
    <glyph glyph-name="afii10030" unicode="&#x41c;" horiz-adv-x="934" 
d="M213 554h-2l2 -27v-527h-128v700h191l191 -531l191 531h191v-700h-128v527l2 27h-2l-206 -554h-96z" />
    <glyph glyph-name="afii10031" unicode="&#x41d;" horiz-adv-x="738" 
d="M213 0h-128v700h128v-280h312v280h128v-700h-128v314h-312v-314z" />
    <glyph glyph-name="afii10032" unicode="&#x41e;" horiz-adv-x="776" 
d="M388 721q15 0 46.5 -2.5t69.5 -13t78.5 -33.5t73.5 -64.5t54 -104t21 -153.5t-21 -153.5t-54 -104t-73.5 -64.5t-78.5 -33.5t-69.5 -13t-46.5 -2.5t-46.5 2.5t-69.5 13t-78.5 33.5t-73.5 64.5t-54 104t-21 153.5t21 153.5t54 104t73.5 64.5t78.5 33.5t69.5 13t46.5 2.5z
M388 615q-65 0 -105 -26t-62.5 -66t-30.5 -86.5t-8 -86.5q0 -41 8 -87t30.5 -86t62.5 -66t105 -26t105 26t62.5 66t30.5 86t8 87q0 40 -8 86.5t-30.5 86.5t-62.5 66t-105 26z" />
    <glyph glyph-name="afii10033" unicode="&#x41f;" horiz-adv-x="736" 
d="M213 0h-128v700h566v-700h-128v594h-310v-594z" />
    <glyph glyph-name="afii10034" unicode="&#x420;" horiz-adv-x="668" 
d="M364 700q41 0 89 -6t88.5 -28t67.5 -65t27 -118q0 -48 -14.5 -89t-46.5 -71t-84 -47.5t-128 -17.5h-150v-258h-128v700h279zM213 364h149q22 0 47 3t46 14t35 34t14 62q0 42 -15 65.5t-37 35t-46.5 14t-42.5 2.5h-150v-230z" />
    <glyph glyph-name="afii10035" unicode="&#x421;" horiz-adv-x="733" 
d="M695 239q-4 -40 -18.5 -85.5t-48 -84.5t-90.5 -64.5t-146 -25.5q-13 0 -44 2t-70 12.5t-80 32.5t-75 61.5t-56 100.5t-22 150q0 108 28.5 181.5t76 118t109 64t126.5 19.5q90 0 147.5 -24.5t90.5 -61.5t46.5 -80.5t15.5 -80.5h-127q-3 22 -12 46.5t-28.5 45.5t-51.5 35
t-81 14q-59 0 -98 -22t-62 -59.5t-33 -87t-10 -103.5q0 -62 16 -110t44.5 -81t68.5 -50t87 -17q43 0 74.5 13.5t52.5 35.5t31 49.5t12 55.5h127z" />
    <glyph glyph-name="afii10036" unicode="&#x422;" horiz-adv-x="594" 
d="M13 594v106h568v-106h-220v-594h-128v594h-220z" />
    <glyph glyph-name="afii10037" unicode="&#x423;" horiz-adv-x="623" 
d="M493 700h134l-235 -564q-22 -54 -47 -83.5t-51 -43.5t-51.5 -16.5t-48.5 -2.5q-25 0 -45 1.5t-46 9.5v111q17 -5 35 -8.5t38 -3.5q17 0 32.5 3.5t28.5 12.5t23 25.5t16 42.5l-267 516h157l179 -378z" />
    <glyph glyph-name="afii10038" unicode="&#x424;" horiz-adv-x="926" 
d="M399 70h-27q-17 0 -48 2.5t-67.5 11.5t-75 27t-69.5 50t-50.5 80t-19.5 116q0 28 5 60t18 64t36.5 61.5t60 52t88.5 36t122 13.5h27v111h128v-111h27q70 0 122 -13.5t88.5 -36t60 -52t36.5 -61.5t18 -64t5 -60q0 -68 -19.5 -116t-50.5 -80t-69.5 -50t-75 -27t-67.5 -11.5
t-48 -2.5h-27v-100h-128v100zM399 547h-9q-71 0 -112.5 -18t-63.5 -46t-28.5 -61.5t-6.5 -64.5t6.5 -64.5t28.5 -61.5t63.5 -46t112.5 -18h9v380zM536 167q70 0 112 18t64 46t28.5 61.5t6.5 64.5t-6.5 64.5t-28.5 61.5t-64 46t-112 18h-9v-380h9z" />
    <glyph glyph-name="afii10039" unicode="&#x425;" horiz-adv-x="666" 
d="M488 700h160l-235 -342l253 -358h-165l-168 270l-168 -270h-165l253 358l-235 342h160l155 -253z" />
    <glyph glyph-name="afii10040" unicode="&#x426;" horiz-adv-x="766" 
d="M529 106v594h128v-594h96l-6 -264h-112v158h-550v700h128v-594h316z" />
    <glyph glyph-name="afii10041" unicode="&#x427;" horiz-adv-x="673" 
d="M186 700v-189q0 -25 3 -46.5t17 -37t43.5 -24.5t83.5 -9q21 0 42 1t38.5 2t30 2.5t16.5 1.5v299h128v-700h-128v295q-29 -2 -69 -4.5t-74 -2.5q-56 0 -103.5 8t-82 30t-54 59.5t-19.5 96.5v218h128z" />
    <glyph glyph-name="afii10042" unicode="&#x428;" horiz-adv-x="1024" 
d="M448 106v594h128v-594h235v594h128v-700h-854v700h128v-594h235z" />
    <glyph glyph-name="afii10043" unicode="&#x429;" horiz-adv-x="1048" 
d="M213 106h235v594h128v-594h235v594h128v-594h96l-6 -264h-112v158h-832v700h128v-594z" />
    <glyph glyph-name="afii10044" unicode="&#x42a;" horiz-adv-x="744" 
d="M287 430h182q19 0 44.5 -2t52.5 -9.5t53 -21.5t47 -38.5t33.5 -60.5t12.5 -87q0 -33 -10 -70t-37 -68.5t-74.5 -52t-122.5 -20.5h-309v594h-146v106h274v-270zM287 106h156q25 0 50 4t44 15.5t31 33.5t12 58q0 37 -13.5 58.5t-33.5 32.5t-43.5 13.5t-43.5 2.5h-159v-218z
" />
    <glyph glyph-name="afii10045" unicode="&#x42b;" horiz-adv-x="908" 
d="M213 430h182q19 0 44.5 -2t52.5 -9.5t53 -21.5t47 -38.5t33.5 -60.5t12.5 -87q0 -33 -10 -70t-37 -68.5t-74.5 -52t-122.5 -20.5h-309v700h128v-270zM213 106h156q25 0 50 4t44 15.5t31 33.5t12 58q0 37 -13.5 58.5t-33.5 32.5t-43.5 13.5t-43.5 2.5h-159v-218zM823 700
v-700h-128v700h128z" />
    <glyph glyph-name="afii10046" unicode="&#x42c;" horiz-adv-x="670" 
d="M213 430h182q19 0 44.5 -2t52.5 -9.5t53 -21.5t47 -38.5t33.5 -60.5t12.5 -87q0 -33 -10 -70t-37 -68.5t-74.5 -52t-122.5 -20.5h-309v700h128v-270zM213 106h156q25 0 50 4t44 15.5t31 33.5t12 58q0 37 -13.5 58.5t-33.5 32.5t-43.5 13.5t-43.5 2.5h-159v-218z" />
    <glyph glyph-name="afii10047" unicode="&#x42d;" horiz-adv-x="748" 
d="M565 412q-2 33 -13 69t-35 66t-63 49t-95 19q-83 0 -126 -35t-51 -86h-127q3 36 17.5 75.5t48 73.5t90 56t144.5 22q98 0 164.5 -32t107.5 -85t58.5 -122t17.5 -144q0 -90 -25.5 -157t-72 -112t-111 -67.5t-142.5 -22.5q-87 0 -144.5 26t-92.5 65t-51 84.5t-19 84.5h127
q2 -28 14 -55.5t35 -49.5t57 -35.5t80 -13.5q58 0 97.5 22t63 55t34 72t12.5 72h-306v106h306z" />
    <glyph glyph-name="afii10048" unicode="&#x42e;" horiz-adv-x="1030" 
d="M303 420q4 46 21.5 98.5t56.5 97.5t102.5 75t158.5 30q15 0 46.5 -2.5t69.5 -13t78.5 -33.5t73.5 -64.5t54 -104t21 -153.5t-21 -153.5t-54 -104t-73.5 -64.5t-78.5 -33.5t-69.5 -13t-46.5 -2.5q-99 0 -164 32t-103.5 81.5t-55 108.5t-19.5 113h-87v-314h-128v700h128
v-280h90zM642 85q65 0 105 26t62.5 66t30.5 86t8 87q0 40 -8 86.5t-30.5 86.5t-62.5 66t-105 26t-105 -26t-62.5 -66t-30.5 -86.5t-8 -86.5q0 -41 8 -87t30.5 -86t62.5 -66t105 -26z" />
    <glyph glyph-name="afii10049" unicode="&#x42f;" horiz-adv-x="720" 
d="M385 261l-168 -261h-162l198 275q-24 3 -56.5 13t-61 33t-48.5 61.5t-20 98.5q0 52 14 89t36.5 61t52 38t60.5 21t61 8.5t55 1.5h289v-700h-128v261h-122zM340 594q-13 0 -36.5 -2t-47 -12.5t-40.5 -34.5t-17 -67q0 -38 15.5 -60.5t38.5 -33.5t49 -14t47 -3h158v227h-167
z" />
    <glyph glyph-name="afii10065" unicode="&#x430;" horiz-adv-x="577" 
d="M50 351q-1 35 12 67t41 56.5t72 39t107 14.5q77 0 121 -19.5t65.5 -48t27 -59.5t5.5 -53v-203q0 -18 1 -30.5t5.5 -20t13 -10t24.5 -1.5v-83q-23 -2 -34 -2.5t-19 -0.5q-12 0 -27 1.5t-30 8t-26.5 20t-15.5 36.5q-33 -42 -75.5 -58.5t-93.5 -16.5q-66 0 -103.5 17
t-56 40.5t-23 48.5t-4.5 41q0 40 15 66t35 42.5t39 24t28 9.5q29 8 57.5 11t60.5 8q12 2 24.5 3.5t24.5 3.5q16 2 27 4t18.5 7t11 15t3.5 29q0 30 -10 47.5t-25 26.5t-32 11.5t-32 2.5q-33 0 -56 -8t-37 -21.5t-20 -30.5t-5 -35h-114zM381 244q-10 -7 -26.5 -11.5
t-59.5 -9.5q-31 -4 -55.5 -8.5t-42 -13t-27 -23t-9.5 -39.5q0 -29 18.5 -49t60.5 -20q22 0 47 6t46 22.5t34.5 47t13.5 80.5v18z" />
    <glyph glyph-name="afii10066" unicode="&#x431;" horiz-adv-x="634" 
d="M542 739q-3 -44 -20 -69.5t-42 -39t-55 -19t-60 -8.5q-35 -4 -76 -12t-75.5 -30t-56.5 -64t-19 -113h2q12 33 33 58.5t48.5 42.5t59.5 26t65 9q51 0 95.5 -18t78 -52.5t52.5 -85t19 -114.5q0 -51 -15 -99.5t-47.5 -86.5t-83 -61t-121.5 -23q-66 0 -111.5 18t-75 46.5
t-46 63.5t-24 68.5t-9 62t-1.5 43.5q0 61 3.5 106.5t9 79t12.5 56t13 37.5q16 37 39 62t56.5 41.5t78 26t103.5 15.5q36 3 51.5 9.5t20.5 23.5h98zM185 250q0 -64 15.5 -101t37 -56.5t45.5 -25t41 -5.5t41 5.5t45.5 25t37 56.5t15.5 101t-15.5 101t-37 56.5t-45.5 25
t-41 5.5t-41 -5.5t-45.5 -25t-37 -56.5t-15.5 -101z" />
    <glyph glyph-name="afii10067" unicode="&#x432;" horiz-adv-x="574" 
d="M346 508q79 0 122 -28.5t43 -94.5q0 -29 -9.5 -50t-24 -35t-31.5 -22t-33 -11v-2q23 -5 44 -14t37 -24.5t25.5 -38.5t9.5 -54q0 -39 -15.5 -64.5t-41 -41t-59 -22t-69.5 -6.5h-272v508h274zM192 304h103q28 0 46.5 6t28.5 15.5t14 21t4 21.5q0 19 -8 30.5t-20 17.5t-26 8
t-26 2h-116v-122zM192 82h114q13 0 30 2t32.5 8.5t26 20t10.5 36.5q0 24 -10 38.5t-25.5 22t-33.5 10t-34 2.5h-110v-140z" />
    <glyph glyph-name="afii10068" unicode="&#x433;" horiz-adv-x="454" 
d="M192 0h-120v508h370v-82h-250v-426z" />
    <glyph glyph-name="afii10069" unicode="&#x434;" horiz-adv-x="640" 
d="M70 82q30 46 46 94.5t24 93.5t9.5 83.5t1.5 65.5v89h397v-426h88l-10 -214h-100v132h-416v-132h-100l-10 214h70zM263 426v-62q0 -45 -3.5 -80t-11.5 -67.5t-20.5 -64.5t-30.5 -70h231v344h-165z" />
    <glyph glyph-name="afii10070" unicode="&#x435;" horiz-adv-x="594" 
d="M543 147q-5 -25 -17.5 -54t-40 -54t-72 -42t-112.5 -17q-13 0 -37 2t-52.5 10t-58.5 24.5t-54.5 46t-40 74t-15.5 108.5t16 116.5t48 89.5t80.5 57t114.5 20q55 0 94.5 -13.5t66.5 -36t43.5 -51t26 -59.5t13 -61t4.5 -55q0 -8 0.5 -14.5t0.5 -14.5h-380q0 -24 6.5 -52.5
t23 -52.5t43.5 -40t67 -16q20 0 40 5.5t36.5 16t27.5 26.5t14 37h114zM424 305q0 17 -4.5 41.5t-17 46.5t-36.5 37.5t-63 15.5q-35 0 -60.5 -13t-41.5 -33t-23.5 -45t-6.5 -50h253z" />
    <glyph glyph-name="afii10072" unicode="&#x436;" horiz-adv-x="756" 
d="M318 242l-174 -242h-148l222 268l-211 240h141l170 -223v223h120v-223l170 223h141l-211 -240l222 -268h-148l-174 242v-242h-120v242z" />
    <glyph glyph-name="afii10073" unicode="&#x437;" horiz-adv-x="550" 
d="M146 159q0 -14 4.5 -30.5t17.5 -31.5t36.5 -25t61.5 -10q37 0 60 8.5t36 21t17 27t4 26.5q0 27 -12.5 41.5t-29.5 21t-33.5 7.5t-25.5 1h-68v82h55q27 0 44.5 6.5t27.5 17t14 23.5t4 25q0 14 -5 28t-17 24.5t-30.5 17t-45.5 6.5q-12 0 -29 -2.5t-32 -12t-26.5 -27.5
t-12.5 -49h-114q1 27 10 57.5t33 56t66.5 42.5t111.5 17q60 0 101 -13t67 -35t37.5 -49.5t11.5 -57.5q0 -25 -7.5 -44t-19.5 -32.5t-27.5 -21t-31.5 -10.5v-2q31 -6 51.5 -17.5t33 -26.5t18 -33t5.5 -37q0 -29 -9.5 -58.5t-36.5 -54.5t-74 -40.5t-122 -15.5t-120.5 19
t-70 47t-33 58.5t-9.5 54.5h114z" />
    <glyph glyph-name="afii10074" unicode="&#x438;" horiz-adv-x="634" 
d="M430 508h132v-508h-120v366l-238 -366h-132v508h120v-366z" />
    <glyph glyph-name="afii10075" unicode="&#x439;" horiz-adv-x="634" 
d="M430 508h132v-508h-120v366l-238 -366h-132v508h120v-366zM222 700q2 -35 29.5 -54t65.5 -19t65.5 19t29.5 54h102q-5 -21 -15.5 -46t-33 -46.5t-58.5 -36t-90 -14.5t-90 14.5t-58.5 36t-33.5 46.5t-15 46h102z" />
    <glyph glyph-name="afii10076" unicode="&#x43a;" horiz-adv-x="530" 
d="M385 508h138l-226 -237l237 -271h-138l-204 246v-246h-120v508h120v-212z" />
    <glyph glyph-name="afii10077" unicode="&#x43b;" horiz-adv-x="591" 
d="M13 82q49 -9 73 12t34 59.5t10 88.5v100v166h389v-508h-120v426h-157v-95q0 -44 -1.5 -89t-8.5 -85.5t-21.5 -74t-40 -55.5t-64 -30t-93.5 3v82z" />
    <glyph glyph-name="afii10078" unicode="&#x43c;" horiz-adv-x="778" 
d="M192 375h-2l2 -27v-348h-120v508h164l153 -380l153 380h164v-508h-120v348l2 27h-2l-154 -375h-86z" />
    <glyph glyph-name="afii10079" unicode="&#x43d;" horiz-adv-x="604" 
d="M192 0h-120v508h120v-200h220v200h120v-508h-120v226h-220v-226z" />
    <glyph glyph-name="afii10080" unicode="&#x43e;" 
d="M305 528q54 0 94.5 -13.5t69.5 -36t48 -51t30 -59t15.5 -60.5t4.5 -54t-4.5 -54t-15.5 -60.5t-30 -59t-48 -51t-69.5 -36t-94.5 -13.5t-94.5 13.5t-69.5 36t-48 51t-30 59t-15.5 60t-4.5 54.5q0 24 4.5 54t15.5 60.5t30 59t48 51t69.5 36t94.5 13.5zM305 446
q-16 0 -39 -5.5t-44 -25t-36 -58t-15 -103.5t15 -103.5t36 -58t44 -25t39 -5.5t39 5.5t44 25t36 58t15 103.5t-15 103.5t-36 58t-44 25t-39 5.5z" />
    <glyph glyph-name="afii10081" unicode="&#x43f;" horiz-adv-x="612" 
d="M192 0h-120v508h468v-508h-120v426h-228v-426z" />
    <glyph glyph-name="afii10082" unicode="&#x440;" horiz-adv-x="636" 
d="M182 508v-50h2q17 21 37.5 34.5t42 21.5t43 11t41.5 3q44 0 87.5 -14.5t78.5 -47t57 -84t22 -125.5q0 -40 -9.5 -88.5t-36 -90.5t-73.5 -70t-122 -28q-5 0 -25 1t-45 8t-50 21.5t-40 41.5v-237h-120v693h110zM183 253q0 -86 34.5 -138.5t100.5 -52.5q20 0 45.5 6.5
t48 26.5t38 57t15.5 98q0 54 -12 91.5t-31.5 60.5t-45.5 33.5t-53 10.5q-20 0 -44.5 -7t-45.5 -27.5t-35.5 -58.5t-14.5 -100z" />
    <glyph glyph-name="afii10083" unicode="&#x441;" horiz-adv-x="574" 
d="M538 186q-3 -28 -14.5 -63.5t-38.5 -67t-72 -53.5t-115 -22q-65 0 -113 20t-79.5 56t-47 86.5t-15.5 110.5q0 65 14 110.5t36.5 76t50.5 48.5t55.5 26.5t52.5 11t42 2.5q58 0 102 -16t73.5 -42t46 -60t20.5 -71h-114q-2 20 -10 39t-23 34t-36.5 24.5t-51.5 9.5
q-37 0 -62 -15.5t-40 -42t-21.5 -61.5t-6.5 -74q0 -60 13.5 -97t33.5 -58t44.5 -28.5t45.5 -7.5q33 0 55 13t35.5 31.5t19 40t6.5 39.5h114z" />
    <glyph glyph-name="afii10084" unicode="&#x442;" horiz-adv-x="494" 
d="M13 426v82h468v-82h-174v-426h-120v426h-174z" />
    <glyph glyph-name="afii10085" unicode="&#x443;" horiz-adv-x="541" 
d="M105 -101q9 -2 20.5 -4t25.5 -2q35 0 51 19.5t29 64.5l7 24l-231 507h144l153 -378l117 378h120l-194 -552q-6 -17 -15.5 -42t-27.5 -48t-47.5 -39t-76.5 -16q-17 0 -37 1.5t-38 4.5v82z" />
    <glyph glyph-name="afii10086" unicode="&#x444;" horiz-adv-x="846" 
d="M363 -12q-54 1 -111 11t-103.5 38.5t-76 80.5t-29.5 136q0 58 15.5 100t41 72t58.5 48.5t68.5 29t71 14t65.5 2.5v180h120v-180q30 1 65.5 -2.5t71 -14t68.5 -29t58.5 -48.5t41 -72t15.5 -100q0 -84 -30 -136t-76.5 -80.5t-103 -38.5t-110.5 -11v-173h-120v173zM363 438
q-99 0 -145.5 -47t-46.5 -137q0 -54 16 -90t43 -57t61.5 -29.5t71.5 -8.5v369zM483 69q37 0 71.5 8.5t61.5 29.5t43 57t16 90q0 90 -46.5 137t-145.5 47v-369z" />
    <glyph glyph-name="afii10087" unicode="&#x445;" horiz-adv-x="521" 
d="M379 508h131l-183 -243l194 -265h-128l-132 189l-132 -189h-129l194 265l-182 243h131l118 -171z" />
    <glyph glyph-name="afii10088" unicode="&#x446;" horiz-adv-x="632" 
d="M420 82v426h120v-426h88l-10 -214h-100v132h-446v508h120v-426h228z" />
    <glyph glyph-name="afii10089" unicode="&#x447;" horiz-adv-x="542" 
d="M164 508v-140q0 -18 1.5 -34t11.5 -27.5t31.5 -18t61.5 -6.5q11 0 26 0.5t54 1.5v224h120v-508h-120v202q-7 0 -20.5 -0.5t-29.5 -0.5t-33 -0.5t-31 -0.5q-67 0 -105 11.5t-57.5 31t-24.5 46t-5 56.5v163h120z" />
    <glyph glyph-name="afii10090" unicode="&#x448;" horiz-adv-x="884" 
d="M382 82v426h120v-426h190v426h120v-508h-740v508h120v-426h190z" />
    <glyph glyph-name="afii10091" unicode="&#x449;" horiz-adv-x="904" 
d="M382 82v426h120v-426h190v426h120v-426h88l-10 -214h-100v132h-718v508h120v-426h190z" />
    <glyph glyph-name="afii10092" unicode="&#x44a;" horiz-adv-x="625" 
d="M14 508h257v-196h117q30 0 67 -3t69 -18.5t53.5 -47t21.5 -88.5q0 -52 -19 -83t-46.5 -47t-59.5 -20.5t-58 -4.5h-265v426h-137v82zM271 82h116q35 0 61.5 17t26.5 59q0 27 -11 42t-26 21.5t-29.5 7.5t-21.5 1h-116v-148z" />
    <glyph glyph-name="afii10093" unicode="&#x44b;" horiz-adv-x="772" 
d="M192 508v-196h117q30 0 67 -3t69 -18.5t53.5 -47t21.5 -88.5q0 -52 -19 -83t-46.5 -47t-59.5 -20.5t-58 -4.5h-265v508h120zM192 82h116q35 0 61.5 17t26.5 59q0 27 -11 42t-26 21.5t-29.5 7.5t-21.5 1h-116v-148zM700 508v-508h-120v508h120z" />
    <glyph glyph-name="afii10094" unicode="&#x44c;" horiz-adv-x="543" 
d="M192 508v-196h117q30 0 67 -3t69 -18.5t53.5 -47t21.5 -88.5q0 -52 -19 -83t-46.5 -47t-59.5 -20.5t-58 -4.5h-265v508h120zM192 82h116q35 0 61.5 17t26.5 59q0 27 -11 42t-26 21.5t-29.5 7.5t-21.5 1h-116v-148z" />
    <glyph glyph-name="afii10095" unicode="&#x44d;" horiz-adv-x="588" 
d="M220 302h197q-1 25 -9.5 51t-25 46.5t-41 33.5t-58.5 13q-52 0 -88.5 -25t-41.5 -72h-114q5 43 26 76.5t53.5 56t76 34.5t93.5 12q16 0 41.5 -2.5t54 -11t57.5 -26.5t52 -48.5t37.5 -76t14.5 -110.5q0 -11 -1.5 -35.5t-9.5 -54.5t-24 -62.5t-46 -59.5t-75.5 -44
t-111.5 -17q-64 0 -108.5 17.5t-72.5 45.5t-42 62t-17 67h114q1 -21 9.5 -41t24 -35.5t38.5 -24.5t52 -9q39 0 66 16t43.5 40t24 51.5t8.5 50.5h-197v82z" />
    <glyph glyph-name="afii10096" unicode="&#x44e;" horiz-adv-x="828" 
d="M267 309q3 44 21.5 83.5t51 69.5t78.5 48t105 18q54 0 94.5 -13.5t69.5 -36t48 -51t30 -59t15.5 -60.5t4.5 -54t-4.5 -54t-15.5 -60.5t-30 -59t-48 -51t-69.5 -36t-94.5 -13.5q-67 0 -115.5 22t-80 57t-47 79t-16.5 89h-72v-227h-120v508h120v-199h75zM389 254
q0 -65 15 -103.5t36 -58t44 -25t39 -5.5t39 5.5t44 25t36 58t15 103.5t-15 103.5t-36 58t-44 25t-39 5.5t-39 -5.5t-44 -25t-36 -58t-15 -103.5z" />
    <glyph glyph-name="afii10097" unicode="&#x44f;" horiz-adv-x="577" 
d="M169 0h-132l150 190q-19 2 -43 9.5t-45.5 24t-36 45t-14.5 72.5q0 41 11 69.5t28.5 47t39 29t41.5 15t37 5.5t25 1h275v-508h-120v189h-78zM279 426q-54 0 -80.5 -17.5t-26.5 -62.5q0 -39 25 -57t82 -18h106v155h-106z" />
    <glyph glyph-name="afii10071" unicode="&#x451;" horiz-adv-x="594" 
d="M543 147q-5 -25 -17.5 -54t-40 -54t-72 -42t-112.5 -17q-13 0 -37 2t-52.5 10t-58.5 24.5t-54.5 46t-40 74t-15.5 108.5t16 116.5t48 89.5t80.5 57t114.5 20q60 0 105.5 -16.5t77 -53t48.5 -94.5t18 -141h-380q0 -24 6.5 -52.5t23 -52.5t43.5 -40t67 -16q20 0 40 5.5
t36.5 16t27.5 26.5t14 37h114zM424 305q0 17 -4.5 41.5t-17 46.5t-36.5 37.5t-63 15.5q-35 0 -60.5 -13t-41.5 -33t-23.5 -45t-6.5 -50h253zM158 700h116v-106h-116v106zM348 700h116v-106h-116v106z" />
    <glyph glyph-name="afii10099" unicode="&#x452;" horiz-adv-x="622" 
d="M200 700v-61h205v-68h-205v-130q13 22 32.5 38.5t42 27.5t46.5 16t46 5q60 0 98 -23.5t59 -66t28.5 -101t7.5 -128.5q0 -96 -10 -169.5t-37 -123.5t-75.5 -75.5t-125.5 -25.5v87h14q43 0 65 29t31 73.5t9.5 98.5t0.5 104q0 47 -0.5 90.5t-10 76.5t-31 52.5t-63.5 19.5
q-12 0 -33.5 -4.5t-42.5 -21t-36 -48.5t-15 -88v-284h-120v571h-80v68h80v61h120z" />
    <glyph glyph-name="afii10100" unicode="&#x453;" horiz-adv-x="454" 
d="M192 0h-120v508h370v-82h-250v-426zM353 700l-110 -132h-90l70 132h130z" />
    <glyph glyph-name="afii10101" unicode="&#x454;" horiz-adv-x="588" 
d="M368 220h-197q1 -23 8 -50.5t23 -51.5t42.5 -40t66.5 -16q31 0 53.5 9.5t38 24.5t24 35t10.5 41h114q-3 -35 -18.5 -69.5t-45 -61.5t-74.5 -44t-108 -17q-58 0 -106.5 16.5t-83 50.5t-53.5 85.5t-19 120.5q0 65 15 110.5t39 76t54 48.5t60 26.5t56 11t43 2.5
q48 0 89.5 -12t73.5 -34.5t51.5 -56t24.5 -76.5h-114q-5 47 -41.5 72t-88.5 25q-34 0 -59 -13t-41.5 -33.5t-24.5 -46.5t-9 -51h197v-82z" />
    <glyph glyph-name="afii10102" unicode="&#x455;" horiz-adv-x="540" 
d="M156 155q0 -26 11 -43.5t28 -28.5t38.5 -16t41.5 -5q17 0 35 3t33 12t25 25t10 42q0 33 -21.5 48t-72.5 24q-14 2 -27.5 4.5t-27.5 4.5q-42 7 -73 18.5t-51.5 28.5t-31 42t-10.5 61q0 50 23 80.5t56 46.5t69.5 21t63.5 5q61 0 102.5 -12.5t66.5 -33.5t35.5 -49.5
t11.5 -59.5h-113q-3 34 -29 53.5t-70 19.5q-37 0 -64.5 -13t-27.5 -50q0 -24 11 -38t29.5 -22t42 -12.5t48.5 -8.5q28 -5 60.5 -11t60.5 -21.5t46.5 -43.5t18.5 -75t-19 -79.5t-50.5 -52.5t-72 -29.5t-83.5 -9.5q-71 0 -117.5 16.5t-73.5 42.5t-38.5 56.5t-13.5 59.5h120z
" />
    <glyph glyph-name="afii10103" unicode="&#x456;" horiz-adv-x="264" 
d="M192 508v-508h-120v508h120zM72 700h120v-106h-120v106z" />
    <glyph glyph-name="afii10104" unicode="&#x457;" horiz-adv-x="310" 
d="M215 508v-508h-120v508h120zM20 700h110v-106h-110v106zM180 700h110v-106h-110v106z" />
    <glyph glyph-name="afii10105" unicode="&#x458;" horiz-adv-x="264" 
d="M192 508v-535q0 -33 -4.5 -62.5t-19 -51.5t-43 -35t-76.5 -13q-13 0 -33 1t-35 3v82q49 1 70 18t21 65v528h120zM72 700h120v-106h-120v106z" />
    <glyph glyph-name="afii10106" unicode="&#x459;" horiz-adv-x="870" 
d="M13 82q5 -1 10 -1.5t10 -0.5q36 0 56 17t29 50t10.5 82t1.5 113v166h389v-196h125q27 0 62 -3t66.5 -18.5t53 -47t21.5 -88.5q0 -52 -19 -83t-46.5 -47t-59.5 -20.5t-58 -4.5h-265v426h-157v-95q0 -68 -3.5 -129t-21.5 -106.5t-57 -72.5t-110 -27q-9 0 -18.5 1t-18.5 3
v82zM519 82h116q35 0 61.5 17t26.5 59q0 27 -11 42t-26 21.5t-29.5 7.5t-21.5 1h-116v-148z" />
    <glyph glyph-name="afii10107" unicode="&#x45a;" horiz-adv-x="883" 
d="M192 0h-120v508h120v-200h220v200h120v-196h125q27 0 62 -3t66.5 -18.5t53 -47t21.5 -88.5q0 -52 -19 -83t-46.5 -47t-59.5 -20.5t-58 -4.5h-265v226h-220v-226zM532 82h116q17 0 33 4t28 13t19.5 23.5t7.5 35.5q0 27 -11 42t-25.5 21.5t-29.5 7.5t-22 1h-116v-148z" />
    <glyph glyph-name="afii10108" unicode="&#x45b;" horiz-adv-x="614" 
d="M200 700v-61h205v-68h-205v-130q13 22 32.5 38.5t42 27t46.5 16t46 5.5q65 0 100.5 -24t52 -56t19.5 -63t3 -45v-340h-120v302q0 23 -1.5 48.5t-10.5 46.5t-28.5 35t-54.5 14q-12 0 -33.5 -4.5t-42.5 -21t-36 -48.5t-15 -88v-284h-120v571h-80v68h80v61h120z" />
    <glyph glyph-name="afii10109" unicode="&#x45c;" horiz-adv-x="530" 
d="M385 508h138l-226 -237l237 -271h-138l-204 246v-246h-120v508h120v-212zM391 700l-110 -132h-90l70 132h130z" />
    <glyph glyph-name="afii10110" unicode="&#x45e;" horiz-adv-x="541" 
d="M105 -101q9 -2 20.5 -4t25.5 -2q35 0 51 19.5t29 64.5l7 24l-231 507h144l153 -378l117 378h120l-194 -552q-6 -17 -15.5 -42t-27.5 -48t-47.5 -39t-76.5 -16q-17 0 -37 1.5t-38 4.5v82zM175 700q2 -35 29.5 -54t65.5 -19t65.5 19t29.5 54h102q-5 -21 -15.5 -46
t-33 -46.5t-58.5 -36t-90 -14.5t-90 14.5t-58.5 36t-33.5 46.5t-15 46h102z" />
    <glyph glyph-name="afii10193" unicode="&#x45f;" horiz-adv-x="614" 
d="M422 508h120v-508h-182v-185h-106v185h-182v508h120v-426h230v426z" />
    <glyph glyph-name="afii10050" unicode="&#x490;" horiz-adv-x="556" 
d="M213 0h-128v700h340v158h112l6 -264h-330v-594z" />
    <glyph glyph-name="afii10098" unicode="&#x491;" horiz-adv-x="454" 
d="M192 0h-120v508h260v132h100l10 -214h-250v-426z" />
    <glyph glyph-name="uni0531" unicode="&#x531;" horiz-adv-x="789" 
d="M200 700v-411q0 -105 35.5 -154.5t125.5 -49.5t125.5 49.5t35.5 154.5v411h128v-431q0 -26 -2 -55t-10 -58l133 -87l-67 -91l-118 78q-32 -34 -85.5 -55.5t-139.5 -21.5q-67 0 -114.5 13.5t-80 36.5t-51 52.5t-28.5 62t-12.5 65t-2.5 60.5v431h128z" />
    <glyph glyph-name="uni0532" unicode="&#x532;" horiz-adv-x="700" 
d="M522 412q0 105 -35.5 154t-125.5 49t-125.5 -49.5t-35.5 -154.5v-126h460v-106h-460v-179h-128v431q0 28 2.5 60.5t12.5 65t28.5 62t51 52.5t80 36.5t114.5 13.5t114.5 -13.5t80 -36.5t51 -52.5t28.5 -61.5t12.5 -64.5t2.5 -60.5v-20h-128z" />
    <glyph glyph-name="uni0533" unicode="&#x533;" horiz-adv-x="780" 
d="M625 0h-128v189h-121q-57 0 -115 9.5t-105 38t-76.5 80.5t-29.5 137q0 63 21.5 113t59.5 84t90.5 52t115.5 18q150 0 219 -71t69 -213v-142h140v-106h-140v-189zM497 433q0 85 -35.5 134t-120.5 49q-52 0 -83 -18t-48 -43.5t-22.5 -53.5t-5.5 -48q0 -46 15 -76.5
t39 -48.5t55 -25.5t64 -7.5h142v138z" />
    <glyph glyph-name="uni0534" unicode="&#x534;" horiz-adv-x="776" 
d="M43 326v105q0 28 2.5 60.5t12.5 65t28.5 62t51 52.5t80 36.5t114.5 13.5t114.5 -13.5t80 -36.5t51 -52.5t28.5 -62t12.5 -65t2.5 -60.5v-136h140v-106h-140v-189h-128v411q0 105 -35.5 154.5t-125.5 49.5t-125.5 -49.5t-35.5 -154.5v-85h-128z" />
    <glyph glyph-name="uni0535" unicode="&#x535;" horiz-adv-x="700" 
d="M650 300v-32q0 -28 -2.5 -60.5t-12.5 -64.5t-28.5 -61.5t-51 -52.5t-80 -36.5t-114.5 -13.5t-114.5 13.5t-80 36.5t-51 52.5t-28.5 62t-12.5 65t-2.5 60.5v431h128v-158h460v-106h-460v-147q0 -105 35.5 -154.5t125.5 -49.5t125.5 49t35.5 154v12h128z" />
    <glyph glyph-name="uni0536" unicode="&#x536;" horiz-adv-x="699" 
d="M188 237v-59q23 1 48.5 10t50.5 21t46 26.5t35 26.5l-2 3q-23 -4 -46 -4q-49 0 -91 16t-73 45t-48.5 69.5t-17.5 90.5q0 51 19 94.5t54.5 75.5t86 50.5t113.5 18.5q130 0 202 -62t72 -177q0 -49 -16 -91.5t-45 -80t-70 -69.5t-91 -60v-3h77q76 0 119 -28t43 -94v-56h-128
v44q0 30 -39 30h-299v-74h-128v237h128zM505 482q0 64 -36.5 98.5t-105.5 34.5q-39 0 -65.5 -11.5t-43.5 -30.5t-24.5 -43t-7.5 -48q0 -36 12.5 -60t32.5 -39t45 -21.5t50 -6.5q19 0 44 3.5t47 16.5t37 38.5t15 68.5z" />
    <glyph glyph-name="uni0537" unicode="&#x537;" horiz-adv-x="600" 
d="M213 700v-158h370v-106h-370v-330h182q36 0 65.5 -5t51 -20t33.5 -42t12 -71v-56h-128v45q0 29 -12.5 36t-31.5 7h-300v700h128z" />
    <glyph glyph-name="uni0538" unicode="&#x538;" horiz-adv-x="695" 
d="M522 326v85q0 105 -35.5 154.5t-125.5 49.5t-125.5 -49.5t-35.5 -154.5v-305h460v-106h-588v431q0 28 2.5 60.5t12.5 65t28.5 62t51 52.5t80 36.5t114.5 13.5t114.5 -13.5t80 -36.5t51 -52.5t28.5 -62t12.5 -65t2.5 -60.5v-105h-128z" />
    <glyph glyph-name="uni0539" unicode="&#x539;" horiz-adv-x="847" 
d="M832 502v-106h-105v-45q0 -34 -6.5 -77.5t-30 -82.5t-70 -65.5t-126.5 -26.5q-62 0 -105 18t-69.5 46.5t-38.5 64.5t-12 72q0 94 57.5 148t175.5 54h91q-13 63 -60.5 88.5t-119.5 25.5q-59 0 -99.5 -14t-65.5 -40t-36 -63t-11 -84v-415h-129v415q0 159 86 232.5t255 73.5
q60 0 113 -11t95 -36.5t69 -67.5t34 -104h108zM519 399q-24 0 -46 -4t-39.5 -14.5t-28 -30t-10.5 -50.5q0 -96 99 -96q33 0 53.5 10.5t32 29.5t15.5 45t4 57v53h-80z" />
    <glyph glyph-name="uni053A" unicode="&#x53a;" horiz-adv-x="780" 
d="M496 405h-133q-36 0 -68.5 -8.5t-57.5 -27.5t-40 -51t-15 -78q0 -21 4.5 -48t20 -50.5t46 -40t82.5 -16.5q86 0 123.5 50t37.5 136v134zM625 511h140v-105h-140v-139q0 -140 -71 -214t-220 -74q-65 0 -117.5 16.5t-89.5 49t-57 81.5t-20 114q0 85 29 138t74.5 82.5
t100.5 40t107 10.5h135v189h129v-189z" />
    <glyph glyph-name="uni053B" unicode="&#x53b;" horiz-adv-x="677" 
d="M484 195v161q0 58 -27.5 83t-79.5 25q-29 0 -72 -6.5t-92 -28.5v-429h-128v700h128v-159q44 13 90.5 21t89.5 8q62 0 104.5 -15.5t68.5 -43.5t37 -65.5t11 -81.5v-169h-130z" />
    <glyph glyph-name="uni053C" unicode="&#x53c;" horiz-adv-x="549" 
d="M534 0h-449v700h128v-594h321v-106z" />
    <glyph glyph-name="uni053D" unicode="&#x53d;" horiz-adv-x="880" 
d="M213 527h240v-175q0 -30 3 -59.5t15 -52.5t35 -37.5t64 -14.5q40 0 63.5 14t35.5 37t15.5 52.5t3.5 60.5v175h128v-175q0 -46 -7.5 -94t-33 -87t-74.5 -64t-131 -25q-84 0 -133 25t-73.5 64t-31.5 87t-7 94v69h-112v-421h-128v700h128v-173z" />
    <glyph glyph-name="uni053E" unicode="&#x53e;" horiz-adv-x="780" 
d="M735 629v-102h-131v-4q27 -17 45.5 -43t30 -57t17 -63.5t5.5 -61.5q0 -157 -83.5 -238t-233.5 -81q-147 0 -230.5 81.5t-83.5 237.5q0 28 4.5 59t17 62t34 59t54.5 49v3h-20q-65 0 -90.5 31.5t-25.5 83.5v55h128v-43q0 -17 8.5 -22.5t28.5 -5.5h525zM571 299
q0 52 -12.5 94.5t-36.5 72.5t-58.5 46.5t-78.5 16.5q-43 0 -77 -16.5t-57.5 -46.5t-36 -72.5t-12.5 -94.5q0 -98 44 -156t139 -58q48 0 83.5 15t58 43t33.5 67.5t11 88.5z" />
    <glyph glyph-name="uni053F" unicode="&#x53f;" horiz-adv-x="682" 
d="M198 700v-316q0 -58 27.5 -83t79.5 -25q29 0 72 6.5t92 28.5v246h128v-557h-128v199q-44 -13 -90.5 -21t-89.5 -8q-62 0 -104.5 15.5t-68.5 43.5t-37 65.5t-11 81.5v324h130z" />
    <glyph glyph-name="uni0540" unicode="&#x540;" horiz-adv-x="602" 
d="M592 0h-557v79l243 470q9 18 9 30q0 18 -18 27l-69 35l62 100l96 -51q38 -20 54.5 -41t16.5 -47q0 -34 -28 -85l-220 -411h411v-106z" />
    <glyph glyph-name="uni0541" unicode="&#x541;" horiz-adv-x="717" 
d="M364 615q-50 0 -81.5 -15.5t-49.5 -39t-25 -52t-7 -53.5v-51h-128v51q0 52 17 100.5t53 85t91.5 58.5t133.5 22q47 0 97 -11.5t91.5 -40.5t68.5 -79t27 -127q0 -54 -13.5 -102.5t-35 -91t-49 -77.5t-54.5 -61q34 -25 75 -25h73v-106h-73q-32 0 -55.5 4.5t-41.5 12
t-32.5 16.5t-27.5 19q-38 -29 -82.5 -50t-109.5 -21q-47 0 -79 11.5t-52 31t-29 45t-9 52.5q0 28 9.5 54.5t30 47.5t51.5 33.5t75 12.5q31 0 55 -5.5t45.5 -15t42.5 -23.5t46 -31q57 63 82.5 130.5t25.5 137.5q0 69 -41.5 111t-114.5 42zM231 167q-26 0 -38.5 -13t-12.5 -35
q0 -17 14 -28t39 -11q33 0 56 10t46 27q-33 26 -55.5 38t-48.5 12z" />
    <glyph glyph-name="uni0542" unicode="&#x542;" horiz-adv-x="776" 
d="M43 326v105q0 28 2.5 60.5t12.5 65t28.5 62t51 52.5t80 36.5t114.5 13.5t114.5 -13.5t80 -36.5t51 -52.5t28.5 -62t12.5 -65t2.5 -60.5v-325h140v-106h-268v411q0 105 -35.5 154.5t-125.5 49.5t-125.5 -49.5t-35.5 -154.5v-85h-128z" />
    <glyph glyph-name="uni0543" unicode="&#x543;" horiz-adv-x="707" 
d="M161 480q7 22 18.5 46.5t27 48t34.5 44t43 34.5q24 15 51.5 24t54.5 14t52.5 7t45.5 2h121v-106h-121q-32 0 -64 -3t-61 -18q-20 -11 -39 -35.5t-31 -57.5h44q86 0 145 -19t96 -56.5t53 -94t16 -132.5v-178h-556q10 137 21.5 227t22.5 147h-85v106h111zM519 106v66
q0 54 -9.5 92t-31.5 62.5t-56.5 36t-84.5 11.5h-74q-13 -59 -20 -121.5t-14 -146.5h290z" />
    <glyph glyph-name="uni0544" unicode="&#x544;" horiz-adv-x="805" 
d="M200 700v-411q0 -105 35.5 -154.5t125.5 -49.5t125.5 49.5t35.5 154.5v411h268v-106h-140v-325q0 -28 -2.5 -60.5t-12.5 -65t-28.5 -62t-51 -52.5t-80 -36.5t-114.5 -13.5t-114.5 13.5t-80 36.5t-51 52.5t-28.5 62t-12.5 65t-2.5 60.5v431h128z" />
    <glyph glyph-name="uni0545" unicode="&#x545;" horiz-adv-x="730" 
d="M370 -20q-87 0 -144 20t-91 52.5t-49 73.5t-18 82h130q3 -20 10.5 -41.5t26 -39.5t50.5 -29.5t85 -11.5q80 0 120 35.5t40 89.5q0 37 -15 57.5t-37 30.5t-46 12t-42 2h-322v105h321q25 0 46.5 5.5t37.5 18.5t25 33t9 50q0 12 -5 27.5t-19.5 29.5t-40 23.5t-67.5 9.5
t-69.5 -10t-44.5 -26t-25.5 -35.5t-11.5 -37.5h-129q3 37 19 75t49 69t85.5 51t129.5 20q70 0 119.5 -14.5t81 -40t46 -61t14.5 -77.5q0 -49 -21 -91.5t-74 -61.5v-5q36 -9 59 -25.5t36 -37.5t18 -46t5 -50q0 -31 -11 -71t-43 -75.5t-89 -60t-149 -24.5z" />
    <glyph glyph-name="uni0546" unicode="&#x546;" horiz-adv-x="776" 
d="M733 374v-105q0 -28 -2.5 -60.5t-12.5 -65t-28.5 -62t-51 -52.5t-80 -36.5t-114.5 -13.5t-114.5 13.5t-80 36.5t-51 52.5t-28.5 62t-12.5 65t-2.5 60.5v325h-140v106h268v-411q0 -105 35.5 -154.5t125.5 -49.5t125.5 49.5t35.5 154.5v85h128z" />
    <glyph glyph-name="uni0547" unicode="&#x547;" horiz-adv-x="676" 
d="M363 85q28 0 53.5 8t46.5 26.5t36 49t22 74.5h130q-10 -68 -36 -117.5t-65 -82t-88.5 -48.5t-106.5 -16q-24 0 -56.5 4.5t-67 16.5t-68 34t-60 58t-42.5 86.5t-16 120.5q0 111 54.5 186.5t163.5 95.5v3l-126 49l51 101l445 -175l-43 -100l-161 65q-6 1 -11.5 1h-11.5
q-48 0 -90 -12.5t-72.5 -40t-48.5 -70t-18 -102.5q0 -45 9 -84t31 -68t57.5 -46t88.5 -17z" />
    <glyph glyph-name="uni0548" unicode="&#x548;" horiz-adv-x="722" 
d="M522 0v411q0 105 -35.5 154.5t-125.5 49.5t-125.5 -49.5t-35.5 -154.5v-411h-128v431q0 28 2.5 60.5t12.5 65t28.5 62t51 52.5t80 36.5t114.5 13.5t114.5 -13.5t80 -36.5t51 -52.5t28.5 -62t12.5 -65t2.5 -60.5v-431h-128z" />
    <glyph glyph-name="uni0549" unicode="&#x549;" horiz-adv-x="676" 
d="M38 420v45q0 60 23 107.5t63 80.5t95 50.5t118 17.5q26 0 57.5 -2.5t64.5 -11t64 -25.5t55 -46.5t38.5 -73t14.5 -105.5q0 -58 -18.5 -110.5t-51.5 -96.5t-80 -77t-104 -52l-1 -3l154 -53l-43 -99l-458 165l42 98l157 -58q46 5 94 25t87.5 55.5t64.5 86t25 116.5
q0 36 -8 65.5t-27 50.5t-50 33t-77 12q-35 0 -65.5 -9t-54 -27.5t-37 -47t-13.5 -66.5v-45h-129z" />
    <glyph glyph-name="uni054A" unicode="&#x54a;" horiz-adv-x="804" 
d="M604 0v415q0 43 -6 78.5t-23 62t-47 42t-78 18.5v-436h-128v436q-80 -6 -114.5 -55t-34.5 -143v-50h-128v55q0 153 79.5 225.5t252.5 72.5h28q88 0 150 -16t101.5 -51.5t57.5 -91.5t18 -136v-426h-128z" />
    <glyph glyph-name="uni054B" unicode="&#x54b;" horiz-adv-x="699" 
d="M188 178q53 4 74 22t21 36q0 24 -9 36.5t-28 20.5q-26 10 -54 23.5t-50.5 35.5t-37 53.5t-14.5 76.5q0 52 18.5 96t53.5 75.5t85 49t112 17.5q131 0 204.5 -60.5t73.5 -177.5q0 -95 -58.5 -167t-162.5 -134v-3h76q76 0 119 -28t43 -98v-52h-128v44q0 19 -9.5 25t-29.5 6
h-299v-75h-128v237h128v-59zM359 615q-38 0 -64 -11.5t-42 -30.5t-23.5 -43t-7.5 -48q0 -25 6 -41.5t16.5 -28t24 -19t29.5 -13.5q32 -12 52.5 -34t20.5 -63v-8t-1 -9l2 -1q28 17 52.5 40.5t42.5 52t28 60t10 64.5q0 68 -38.5 100.5t-107.5 32.5z" />
    <glyph glyph-name="uni054C" unicode="&#x54c;" horiz-adv-x="805" 
d="M522 0v411q0 105 -35.5 154.5t-125.5 49.5t-125.5 -49.5t-35.5 -154.5v-411h-128v431q0 28 2.5 60.5t12.5 65t28.5 62t51 52.5t80 36.5t114.5 13.5t114.5 -13.5t80 -36.5t51 -52.5t28.5 -62t12.5 -65t2.5 -60.5v-136h140v-106h-140v-189h-128z" />
    <glyph glyph-name="uni054D" unicode="&#x54d;" horiz-adv-x="722" 
d="M200 700v-411q0 -105 35.5 -154.5t125.5 -49.5t125.5 49.5t35.5 154.5v411h128v-431q0 -28 -2.5 -60.5t-12.5 -65t-28.5 -62t-51 -52.5t-80 -36.5t-114.5 -13.5t-114.5 13.5t-80 36.5t-51 52.5t-28.5 62t-12.5 65t-2.5 60.5v431h128z" />
    <glyph glyph-name="uni054E" unicode="&#x54e;" horiz-adv-x="752" 
d="M198 547v-163q0 -58 27.5 -83t79.5 -25q29 0 72 6.5t92 28.5v389h128v-594h140v-106h-269l1 1v198q-44 -13 -90.5 -21t-89.5 -8q-62 0 -104.5 15.5t-68.5 43.5t-37 65.5t-11 81.5v171h130z" />
    <glyph glyph-name="uni054F" unicode="&#x54f;" horiz-adv-x="684" 
d="M172 225q1 -20 9 -44.5t28 -45.5t55 -35.5t90 -14.5q18 0 43 2.5t48.5 13t40 31.5t16.5 58q0 31 -13.5 51t-33 31.5t-41 17t-38.5 8.5q-21 4 -41.5 8t-40.5 9q-43 10 -82 22.5t-69 35t-48 57t-18 87.5q0 49 16.5 83.5t42 57.5t57.5 35.5t62.5 18.5t56.5 7.5t40 1.5
q69 0 119 -17t82.5 -45.5t49.5 -66t20 -77.5h-127q-5 37 -23 57t-41 29.5t-46 11.5t-37 2q-7 0 -29 -1.5t-45.5 -10t-42 -27.5t-18.5 -54q0 -27 13.5 -44t35.5 -27.5t50 -16.5t57 -11q61 -11 110.5 -25t84.5 -38t54.5 -61.5t19.5 -95.5q0 -74 -29 -118.5t-73 -68
t-95.5 -30.5t-95.5 -7q-90 0 -147.5 23t-91.5 58.5t-47.5 79t-14.5 85.5h127z" />
    <glyph glyph-name="uni0550" unicode="&#x550;" horiz-adv-x="693" 
d="M522 326v85q0 105 -35.5 154.5t-125.5 49.5t-125.5 -49.5t-35.5 -154.5v-411h-128v431q0 28 2.5 60.5t12.5 65t28.5 62t51 52.5t80 36.5t114.5 13.5t114.5 -13.5t80 -36.5t51 -52.5t28.5 -62t12.5 -65t2.5 -60.5v-105h-128z" />
    <glyph glyph-name="uni0551" unicode="&#x551;" horiz-adv-x="737" 
d="M539 219q0 128 -169 128q-69 0 -109 -18.5t-60 -66.5h-130q8 54 40.5 91t98.5 54v5q-22 9 -37 23.5t-24.5 31.5t-13.5 35t-4 33q0 61 23.5 98t59.5 56.5t78 25.5t78 6t78 -6t78 -26t59.5 -57t23.5 -98q0 -31 -14.5 -65t-56.5 -57v-5q43 -15 69 -37t40 -47.5t19 -52.5
t5 -51q0 -65 -26 -110.5t-68 -74t-96 -41.5t-110 -13q-57 0 -108.5 9.5t-92 32.5t-68 60.5t-36.5 94.5h132q9 -29 25.5 -47t39 -28t49.5 -13t58 -3q33 0 63.5 6.5t54 22t37.5 41t14 63.5zM370 444q21 0 41 4.5t35 15t24 28t9 42.5q0 37 -26 61t-83 24t-83 -24t-26 -61
q0 -25 9.5 -42.5t25 -28t35 -15t39.5 -4.5z" />
    <glyph glyph-name="uni0552" unicode="&#x552;" horiz-adv-x="590" 
d="M85 700h128v-147h33q43 0 72.5 -8t50 -23.5t35 -38t29.5 -52.5l53 -109q8 -15 18 -20t25 -5h51v-105h-62q-57 0 -92.5 21.5t-55.5 60.5l-55 112q-17 35 -32 48.5t-41 13.5h-29v-448h-128v700z" />
    <glyph glyph-name="uni0553" unicode="&#x553;" horiz-adv-x="926" 
d="M399 70h-27q-17 0 -48 2.5t-67.5 11.5t-75 27t-69.5 50t-50.5 80t-19.5 116q0 28 5 60t18 64t36.5 61.5t60 52t88.5 36t122 13.5h27v111h128v-111h27q70 0 122 -13.5t88.5 -36t60 -52t36.5 -61.5t18 -64t5 -60q0 -68 -19.5 -116t-50.5 -80t-69.5 -50t-75 -27t-67.5 -11.5
t-48 -2.5h-27v-100h-128v100zM399 547h-9q-71 0 -112.5 -18t-63.5 -46t-28.5 -61.5t-6.5 -64.5t6.5 -64.5t28.5 -61.5t63.5 -46t112.5 -18h9v380zM536 167q70 0 112 18t64 46t28.5 61.5t6.5 64.5t-6.5 64.5t-28.5 61.5t-64 46t-112 18h-9v-380h9z" />
    <glyph glyph-name="uni0554" unicode="&#x554;" horiz-adv-x="688" 
d="M110 477q0 112 65 178t193 66q59 0 107 -14.5t82.5 -43.5t53.5 -73t19 -102q0 -48 -17 -90.5t-49.5 -74.5t-78 -51t-102.5 -19q-22 0 -44 4t-41.5 11t-34.5 16.5t-23 21.5v-103h405v-104h-405v-104h-130v104h-87v104h87v274zM368 615q-56 0 -93 -31.5t-37 -96.5
q0 -57 35 -93t100 -36q24 0 47 7.5t40 23t27.5 40t10.5 58.5q0 36 -10.5 60.5t-28.5 39.5t-41.5 21.5t-49.5 6.5z" />
    <glyph glyph-name="uni0555" unicode="&#x555;" horiz-adv-x="776" 
d="M388 721q15 0 46.5 -2.5t69.5 -13t78.5 -33.5t73.5 -64.5t54 -104t21 -153.5t-21 -153.5t-54 -104t-73.5 -64.5t-78.5 -33.5t-69.5 -13t-46.5 -2.5t-46.5 2.5t-69.5 13t-78.5 33.5t-73.5 64.5t-54 104t-21 153.5t21 153.5t54 104t73.5 64.5t78.5 33.5t69.5 13t46.5 2.5z
M388 615q-65 0 -105 -26t-62.5 -66t-30.5 -86.5t-8 -86.5q0 -41 8 -87t30.5 -86t62.5 -66t105 -26t105 26t62.5 66t30.5 86t8 87q0 40 -8 86.5t-30.5 86.5t-62.5 66t-105 26z" />
    <glyph glyph-name="uni0556" unicode="&#x556;" horiz-adv-x="736" 
d="M290 388q-54 7 -96.5 17.5t-72 30t-45 50t-15.5 77.5q0 28 9 56t31 50.5t58.5 37t90.5 14.5h167v-244q46 -4 95 -14.5t88.5 -35t65 -68.5t25.5 -116q0 -79 -29 -130t-76 -81t-106.5 -41.5t-119.5 -11.5q-51 0 -107.5 7.5t-104.5 31t-81 68.5t-38 120h128q8 -67 45.5 -96
t87.5 -32v310zM417 80q28 3 54 13.5t45.5 30.5t31.5 48.5t12 67.5q0 62 -34.5 94.5t-108.5 43.5v-298zM292 626h-44q-34 0 -49.5 -20t-15.5 -43q0 -35 28 -53.5t81 -26.5v143z" />
    <glyph glyph-name="uni0559" unicode="&#x559;" horiz-adv-x="228" 
d="M183 765q-20 0 -32.5 -15t-12.5 -34q0 -20 12.5 -32t32.5 -13v-69q-68 0 -103 32.5t-35 83.5q0 24 9.5 45.5t27.5 37t43.5 24.5t57.5 9v-69z" />
    <glyph glyph-name="uni055A" unicode="&#x55a;" horiz-adv-x="232" 
d="M182 700v-139q0 -43 -12 -71.5t-31 -46t-42.5 -26t-46.5 -10.5v69q29 2 48 23t19 55v11h-67v135h132z" />
    <glyph glyph-name="uni055B" unicode="&#x55b;" horiz-adv-x="2" 
d="M-96 900l-118 -140h-96l78 140h136z" />
    <glyph glyph-name="uni055C" unicode="&#x55c;" horiz-adv-x="2" 
d="M-316 757v19q0 31 6 52t22.5 35t46 21.5t76.5 12.5q33 3 51.5 7.5t27.5 10.5t11 13.5t2 16.5v19h91v-19q0 -30 -11.5 -49.5t-33 -31.5t-53.5 -19t-73 -12q-45 -5 -58.5 -21.5t-13.5 -35.5v-19h-91z" />
    <glyph glyph-name="uni055D" unicode="&#x55d;" horiz-adv-x="290" 
d="M260 657h-90l-110 132h130z" />
    <glyph glyph-name="uni055E" unicode="&#x55e;" horiz-adv-x="2" 
d="M-303 755q1 51 16 88.5t40 61.5t58.5 35.5t72.5 11.5q24 0 48 -5t43 -17t31 -32.5t12 -51.5q0 -15 -5.5 -32.5t-18.5 -32.5t-34 -24.5t-52 -9.5q-13 0 -29 3.5t-29.5 12.5t-23 24.5t-9.5 39.5h69q1 -14 8.5 -19t16.5 -5q30 0 30 40q0 28 -20 38t-43 10q-30 0 -49.5 -12
t-31.5 -31t-17 -43.5t-5 -49.5h-78z" />
    <glyph glyph-name="uni055F" unicode="&#x55f;" horiz-adv-x="346" 
d="M151 635q-54 0 -87.5 22t-33.5 78v69h119v-80h-32q1 -11 8 -17.5t21 -6.5h175v-65h-170z" />
    <glyph glyph-name="uni0561" unicode="&#x561;" horiz-adv-x="916" 
d="M724 0v64h-2q-12 -21 -30 -37t-39 -26.5t-43.5 -15.5t-43.5 -5q-53 0 -88 20t-55 72q-28 -45 -75.5 -68.5t-105.5 -23.5q-57 0 -91 20.5t-51.5 51.5t-22.5 68t-5 69v319h120v-312q0 -24 2.5 -47.5t11.5 -43t26.5 -31.5t47.5 -12q19 0 40 7.5t38.5 25t28.5 45.5t11 69v299
h120v-312q0 -24 2.5 -47.5t11.5 -43t26.5 -31.5t47.5 -12q19 0 40 9.5t38.5 29t28.5 48.5t11 69v290h120v-508h-120z" />
    <glyph glyph-name="uni0562" unicode="&#x562;" horiz-adv-x="601" 
d="M192 508v-67q13 22 32.5 38.5t42 27t46.5 16t46 5.5q65 0 100.5 -24t52 -56t19.5 -63t3 -45v-153h-120v115q0 23 -1.5 48.5t-10.5 46.5t-28.5 35t-54.5 14q-12 0 -33.5 -4.5t-42.5 -21t-36 -48.5t-15 -88v-202h349v-82h-349v-185h-120v693h120z" />
    <glyph glyph-name="uni0563" unicode="&#x563;" horiz-adv-x="689" 
d="M564 508v-426h120v-82h-120v-185h-120v237q-15 -27 -40 -41.5t-50 -21.5t-45 -8t-25 -1q-64 0 -109.5 23t-75 61.5t-43 88.5t-13.5 104q0 74 21.5 125.5t56.5 84t78.5 47t88.5 14.5q15 0 36 -2.5t43 -10t44.5 -21.5t40.5 -36h2v50h110zM171 250q0 -64 16.5 -101
t39.5 -56.5t47.5 -25t39.5 -5.5q32 0 58 14t44 39.5t27.5 60.5t9.5 77q0 62 -14.5 100t-36 58.5t-46 27.5t-43.5 7q-27 0 -53 -10.5t-45.5 -33.5t-31.5 -60.5t-12 -91.5z" />
    <glyph glyph-name="uni0564" unicode="&#x564;" horiz-adv-x="659" 
d="M192 508v-67q13 22 32.5 38.5t42 27t46.5 16t46 5.5q65 0 100.5 -24t52 -56t19.5 -63t3 -45v-258h120v-82h-120v-185h-120v487q0 23 -1.5 48.5t-10.5 46.5t-28.5 35t-54.5 14q-12 0 -33.5 -4.5t-42.5 -21t-36 -48.5t-15 -88v-284h-120v508h120z" />
    <glyph glyph-name="uni0565" unicode="&#x565;" horiz-adv-x="602" 
d="M414 0v67h-2q-25 -45 -72.5 -66t-96.5 -21q-42 0 -71 11t-48 29t-29.5 39.5t-15.5 42.5t-6 38.5t-1 27.5v532h120v-192h352v-82h-352v-220q0 -22 2 -47t11 -46.5t28 -36t54 -14.5q47 0 73 22t38 50t14 54.5t2 35.5v84h120v-308h-120z" />
    <glyph glyph-name="uni0566" unicode="&#x566;" horiz-adv-x="644" 
d="M564 508v-611h120v-82h-240v237q-15 -27 -40 -41.5t-50 -21.5t-45 -8t-25 -1q-64 0 -109.5 23t-75 61.5t-43 88.5t-13.5 104q0 74 21.5 125.5t56.5 84t78.5 47t88.5 14.5q15 0 36 -2.5t43 -10t44.5 -21.5t40.5 -36h2v50h110zM171 250q0 -64 16.5 -101t39.5 -56.5
t47.5 -25t39.5 -5.5q32 0 58 14t44 39.5t27.5 60.5t9.5 77q0 62 -14.5 100t-36 58.5t-46 27.5t-43.5 7q-27 0 -53 -10.5t-45.5 -33.5t-31.5 -60.5t-12 -91.5z" />
    <glyph glyph-name="uni0567" unicode="&#x567;" horiz-adv-x="513" 
d="M192 700v-192h318v-82h-318v-344h142q49 0 77 -11t42 -28t18 -37t4 -37v-41h-120v41q0 14 -9 22.5t-32 8.5h-242v700h120z" />
    <glyph glyph-name="uni0568" unicode="&#x568;" horiz-adv-x="603" 
d="M192 508v-67q13 22 32.5 38.5t42 27t46.5 16t46 5.5q65 0 100.5 -24t52 -56t19.5 -63t3 -45v-340h-120v302q0 23 -1.5 48.5t-10.5 46.5t-28.5 35t-54.5 14q-12 0 -33.5 -4.5t-42.5 -21t-36 -48.5t-15 -88v-387h349v-82h-469v693h120z" />
    <glyph glyph-name="uni0569" unicode="&#x569;" horiz-adv-x="714" 
d="M192 508v-71q79 91 210 91q66 0 107 -18t64 -46.5t33 -63t15 -67.5h85v-82h-82v-38q0 -43 -9 -85t-31.5 -75t-62 -53t-100.5 -20q-35 0 -67 10.5t-56 31.5t-38.5 53.5t-14.5 76.5q0 49 14.5 83.5t42 56t66.5 31.5t88 10h45q-2 20 -8.5 40.5t-20.5 36.5t-37.5 26t-57.5 10
q-56 0 -92 -15.5t-56.5 -39.5t-28.5 -53t-8 -55v-468h-120v693h120zM457 252q-53 0 -77.5 -25t-24.5 -78q0 -15 3 -31t10.5 -29t20.5 -21.5t34 -8.5q47 0 65 34t18 109v50h-49z" />
    <glyph glyph-name="uni056A" unicode="&#x56a;" horiz-adv-x="686" 
d="M561 700v-205h120v-82h-120v-161q0 -62 -14 -112.5t-44.5 -86t-80.5 -54.5t-122 -19q-71 0 -119.5 19.5t-79.5 53.5t-44.5 80.5t-13.5 99.5q0 69 22 119t61.5 81.5t95.5 46.5t124 15h95v205h120zM346 413q-85 0 -130 -45t-45 -136q0 -32 5.5 -62.5t20 -54.5t39.5 -38.5
t64 -14.5q42 0 69.5 14.5t43.5 40t22 60.5t6 75v161h-95z" />
    <glyph glyph-name="uni056B" unicode="&#x56b;" horiz-adv-x="606" 
d="M192 700v-259q13 22 32.5 38.5t42 27t46.5 16t46 5.5q65 0 100.5 -24t52 -56t19.5 -63t3 -45v-340h-120v302q0 23 -1.5 48.5t-10.5 46.5t-28.5 35t-54.5 14q-12 0 -33.5 -4.5t-42.5 -21t-36 -48.5t-15 -88v-469h-120v885h120z" />
    <glyph glyph-name="uni056C" unicode="&#x56c;" horiz-adv-x="299" 
d="M72 508h120v-611h161v-82h-281v693z" />
    <glyph glyph-name="uni056D" unicode="&#x56d;" horiz-adv-x="822" 
d="M630 0v66h-2q-25 -45 -67.5 -65.5t-94.5 -20.5q-39 0 -66 11t-45 29t-28 39.5t-15.5 42.5t-6.5 38.5t-1 27.5v258h-112v-611h-120v885h120v-192h232v-302q0 -22 1.5 -47t9.5 -46.5t25.5 -36t49.5 -14.5q42 0 66 20t36 47t15 54t3 41v284h120v-508h-120z" />
    <glyph glyph-name="uni056E" unicode="&#x56e;" horiz-adv-x="691" 
d="M238 700v-72h67q49 0 95 -5.5t81 -23.5t57 -53.5t23 -95.5h120v-81h-120v-131q0 -53 -14 -100t-45 -82t-81.5 -55.5t-122.5 -20.5q-17 0 -42.5 2.5t-54 11t-57 24t-51 41.5t-36.5 64t-14 91q0 62 21.5 106.5t60.5 73.5t93.5 42.5t120.5 13.5h102q-2 56 -33.5 77
t-102.5 21h-187v152h120zM344 369q-31 0 -62 -7t-55.5 -24t-40 -46.5t-15.5 -75.5q0 -71 31.5 -112.5t95.5 -41.5q41 0 68.5 14t44 38t23.5 55t7 65v135h-97z" />
    <glyph glyph-name="uni056F" unicode="&#x56f;" horiz-adv-x="595" 
d="M414 -185v252h-2q-25 -45 -72.5 -66t-96.5 -21q-42 0 -71 11t-48 29t-29.5 39.5t-15.5 42.5t-6 38.5t-1 27.5v532h120v-494q0 -22 2 -47t11 -46.5t28 -36t54 -14.5q47 0 73 22t38 50t14 54.5t2 35.5v284h120v-693h-120z" />
    <glyph glyph-name="uni0570" unicode="&#x570;" horiz-adv-x="606" 
d="M192 700v-259q13 22 32.5 38.5t42 27t46.5 16t46 5.5q65 0 100.5 -24t52 -56t19.5 -63t3 -45v-340h-120v302q0 23 -1.5 48.5t-10.5 46.5t-28.5 35t-54.5 14q-12 0 -33.5 -4.5t-42.5 -21t-36 -48.5t-15 -88v-284h-120v700h120z" />
    <glyph glyph-name="uni0571" unicode="&#x571;" horiz-adv-x="593" 
d="M330 665l-50 -58l160 -114l-69 -63l239 -430h-128l-29 53q-53 -44 -102.5 -58.5t-98.5 -14.5q-54 0 -95 12.5t-68.5 34.5t-41.5 53t-14 68q0 52 24.5 98t68.5 88l162 154l-149 108l109 125zM211 275q-21 -20 -36.5 -50t-15.5 -75q0 -38 23.5 -63t69.5 -25q48 0 87.5 21
t69.5 52l-118 219z" />
    <glyph glyph-name="uni0572" unicode="&#x572;" horiz-adv-x="614" 
d="M192 508v-67q13 22 32.5 38.5t42 27t46.5 16t46 5.5q65 0 100.5 -24t52 -56t19.5 -63t3 -45v-443h120v-82h-240v487q0 23 -1.5 48.5t-10.5 46.5t-28.5 35t-54.5 14q-12 0 -33.5 -4.5t-42.5 -21t-36 -48.5t-15 -88v-284h-120v508h120z" />
    <glyph glyph-name="uni0573" unicode="&#x573;" horiz-adv-x="624" 
d="M56 475h123l40 82q16 33 32 59t38 45t54 29t81 10h105v-82h-98q-17 0 -30 -4t-24.5 -13t-21.5 -24.5t-22 -39.5l-30 -62q63 0 106 -19t71.5 -52.5t45 -79.5t27.5 -100l45 -224h-120l-13 59q-17 -16 -37.5 -30.5t-46 -25t-57 -17t-70.5 -6.5q-28 0 -62.5 7t-65 24.5
t-51 47.5t-20.5 77q0 38 16 82.5t33 85.5l39 89h-87v82zM213 270q-17 -37 -24.5 -69.5t-7.5 -56.5q0 -33 22.5 -57.5t68.5 -24.5q51 0 94.5 24.5t80.5 64.5l-12 61q-9 48 -20 82.5t-28 56.5t-41.5 32.5t-61.5 10.5h-16z" />
    <glyph glyph-name="uni0574" unicode="&#x574;" horiz-adv-x="614" 
d="M414 0v67h-2q-25 -45 -72.5 -66t-96.5 -21q-42 0 -71 11t-48 29t-29.5 39.5t-15.5 42.5t-6 38.5t-1 27.5v340h120v-302q0 -22 2 -47t11 -46.5t28 -36t54 -14.5q47 0 73 22t38 50t14 54.5t2 35.5v476h235v-85h-115v-615h-120z" />
    <glyph glyph-name="uni0575" unicode="&#x575;" horiz-adv-x="264" 
d="M192 508v-535q0 -33 -4.5 -62.5t-19 -51.5t-43 -35t-76.5 -13q-13 0 -33 1t-35 3v82q49 1 70 18t21 65v528h120z" />
    <glyph glyph-name="uni0576" unicode="&#x576;" horiz-adv-x="617" 
d="M425 0v67h-2q-25 -45 -72.5 -66t-96.5 -21q-42 0 -71 11t-48 29t-29.5 39.5t-15.5 42.5t-6 38.5t-1 27.5v447h-116v85h236v-494q0 -22 2 -47t11 -46.5t28 -36t54 -14.5q47 0 73 22t38 50t14 54.5t2 35.5v284h120v-508h-120z" />
    <glyph glyph-name="uni0577" unicode="&#x577;" horiz-adv-x="515" 
d="M35 298v59q0 52 21 85.5t54 52.5t73.5 26t78.5 7q61 0 103.5 -13t69.5 -36t39 -54t12 -68q0 -55 -29 -99.5t-71 -81.5l-225 -198q-11 -10 -20.5 -23t-9.5 -31q0 -27 40 -27h296v-82h-302q-72 0 -114.5 23.5t-42.5 82.5q0 35 20.5 64t45.5 50l223 196q22 20 42.5 50
t20.5 74q0 30 -9.5 47.5t-24.5 27.5t-32.5 13t-32.5 3q-14 0 -32.5 -3.5t-35 -13.5t-27.5 -27.5t-11 -45.5v-58h-120z" />
    <glyph glyph-name="uni0578" unicode="&#x578;" horiz-adv-x="606" 
d="M192 508v-67q13 22 32.5 38.5t42 27t46.5 16t46 5.5q65 0 100.5 -24t52 -56t19.5 -63t3 -45v-340h-120v302q0 23 -1.5 48.5t-10.5 46.5t-28.5 35t-54.5 14q-12 0 -33.5 -4.5t-42.5 -21t-36 -48.5t-15 -88v-284h-120v508h120z" />
    <glyph glyph-name="uni0579" unicode="&#x579;" horiz-adv-x="373" 
d="M138 -185q-24 0 -50 3t-47.5 13t-36 29t-14.5 51q0 30 13.5 55t30.5 48l170 224l-53 33q-70 44 -70 89q0 21 12 43t33 48l64 77l95 -61l-66 -72q-17 -18 -17 -32q0 -11 9.5 -20.5t26.5 -20.5l110 -69l-198 -255q-11 -14 -21.5 -34t-10.5 -35q0 -12 8.5 -22t30.5 -10h246
v-82h-265z" />
    <glyph glyph-name="uni057A" unicode="&#x57a;" horiz-adv-x="916" 
d="M724 -185v249h-2q-12 -21 -30 -37t-39 -26.5t-43.5 -15.5t-43.5 -5q-53 0 -88 20t-55 72q-28 -45 -75.5 -68.5t-105.5 -23.5q-57 0 -91 20.5t-51.5 51.5t-22.5 68t-5 69v319h120v-312q0 -24 2.5 -47.5t11.5 -43t26.5 -31.5t47.5 -12q19 0 40 7.5t38.5 25t28.5 45.5t11 69
v299h120v-312q0 -24 2.5 -47.5t11.5 -43t26.5 -31.5t47.5 -12q19 0 40 9.5t38.5 29t28.5 48.5t11 69v290h120v-693h-120z" />
    <glyph glyph-name="uni057B" unicode="&#x57b;" horiz-adv-x="589" 
d="M188 -185q-15 0 -39 2.5t-47 12t-39.5 28t-16.5 51.5q0 38 23.5 65t56.5 48l55 35q40 26 40 50q0 13 -8 22t-21 16t-30 14t-34 17t-33 23t-28 31t-19.5 41t-7.5 52q0 59 25 98.5t63 63t83 33.5t86 10q54 0 100 -12t79.5 -36.5t53 -62t19.5 -88.5q0 -56 -19.5 -98.5
t-50 -76t-69 -60t-76.5 -50.5l-114 -72q-23 -15 -37 -26.5t-14 -28.5q0 -8 6 -14t26 -6h328v-82h-341zM241 220q29 -14 44.5 -36.5t15.5 -58.5l2 -1q51 35 85.5 86.5t34.5 115.5q0 43 -16 67t-37 36t-42.5 14.5t-32.5 2.5q-9 0 -31 -3t-45.5 -15.5t-41 -37t-17.5 -67.5
q0 -22 7.5 -38t19 -28.5t26 -21t28.5 -15.5z" />
    <glyph glyph-name="uni057C" unicode="&#x57c;" horiz-adv-x="639" 
d="M192 508v-67q12 19 31 35.5t43 27.5t50 17.5t52 6.5q60 0 97.5 -17t58.5 -44.5t29 -61.5t8 -67q0 -56 -24 -121.5t-86 -134.5h130v-82h-237v63q28 39 45.5 72t27.5 63.5t14 59t4 57.5q0 27 -5.5 51t-18.5 41.5t-33 28t-50 10.5q-17 0 -40.5 -5t-44.5 -21.5t-36 -48.5
t-15 -87v-284h-120v508h120z" />
    <glyph glyph-name="uni057D" unicode="&#x57d;" horiz-adv-x="606" 
d="M414 0v67h-2q-25 -45 -72.5 -66t-96.5 -21q-42 0 -71 11t-48 29t-29.5 39.5t-15.5 42.5t-6 38.5t-1 27.5v340h120v-302q0 -22 2 -47t11 -46.5t28 -36t54 -14.5q47 0 73 22t38 50t14 54.5t2 35.5v284h120v-508h-120z" />
    <glyph glyph-name="uni057E" unicode="&#x57e;" horiz-adv-x="614" 
d="M654 -103v-82h-240v252h-2q-25 -45 -72.5 -66t-96.5 -21q-42 0 -71 11t-48 29t-29.5 39.5t-15.5 42.5t-6 38.5t-1 27.5v340h120v-302q0 -22 2 -47t11 -46.5t28 -36t54 -14.5q47 0 73 22t38 50t14 54.5t2 35.5v476h120v-803h120z" />
    <glyph glyph-name="uni057F" unicode="&#x57f;" horiz-adv-x="917" 
d="M519 508v-66h2q25 45 67.5 65.5t94.5 20.5q39 0 66 -11t45 -29t28 -39.5t15.5 -42.5t6.5 -38.5t1 -27.5v-340h-120v302q0 22 -1.5 47t-9.5 46.5t-25.5 36t-49.5 14.5q-42 0 -66 -20.5t-36 -47.5t-15 -54t-3 -40v-284h-121v66h-2q-25 -45 -67.5 -65.5t-94.5 -20.5
q-39 0 -66 11t-45 29t-28 39.5t-15.5 42.5t-6.5 38.5t-1 27.5v340h120v-302q0 -22 1.5 -47t9.5 -46.5t25.5 -36t49.5 -14.5q42 0 66 20.5t36 48t15 54.5t3 41v282h121z" />
    <glyph glyph-name="uni0580" unicode="&#x580;" horiz-adv-x="606" 
d="M192 508v-67q13 22 32.5 38.5t42 27t46.5 16t46 5.5q65 0 100.5 -24t52 -56t19.5 -63t3 -45v-340h-120v302q0 23 -1.5 48.5t-10.5 46.5t-28.5 35t-54.5 14q-12 0 -33.5 -4.5t-42.5 -21t-36 -48.5t-15 -88v-469h-120v693h120z" />
    <glyph glyph-name="uni0581" unicode="&#x581;" horiz-adv-x="640" 
d="M568 508v-485q0 -106 -68 -161t-189 -55q-93 0 -152 34t-70 110h110q4 -18 16.5 -29.5t29 -18t35.5 -9.5t36 -3q46 0 72.5 14t40 34.5t16.5 43.5t3 42v39q-15 -27 -40 -41.5t-50 -21.5t-45 -8t-25 -1q-64 0 -109.5 22t-75 58.5t-43 84.5t-13.5 100q0 74 21.5 125.5
t56.5 84t78.5 47t88.5 14.5q15 0 36 -2.5t43 -10t44.5 -21.5t40.5 -36h2v50h110zM175 256q0 -62 16.5 -98.5t39 -55t47 -23.5t40.5 -5q26 0 51 11t44.5 33.5t31.5 57.5t12 83q0 52 -12 88t-31.5 58t-44.5 31.5t-52 9.5q-67 0 -104.5 -50t-37.5 -140z" />
    <glyph glyph-name="uni0582" unicode="&#x582;" horiz-adv-x="360" 
d="M72 508h120v-426h163v-82h-283v508z" />
    <glyph glyph-name="uni0583" unicode="&#x583;" horiz-adv-x="916" 
d="M398 -185v251h-2q-25 -45 -67.5 -65.5t-94.5 -20.5q-39 0 -66 11t-45 29t-28 39.5t-15.5 42.5t-6.5 38.5t-1 27.5v340h120v-302q0 -22 1.5 -47t9.5 -46.5t25.5 -36t49.5 -14.5q39 0 62.5 17.5t36 43t17 53.5t4.5 48v476h120v-258h2q25 45 67.5 65.5t94.5 20.5
q39 0 66 -11t45 -29t28 -39.5t15.5 -42.5t6.5 -38.5t1 -27.5v-340h-120v302q0 22 -1.5 47t-9.5 46.5t-25.5 36t-49.5 14.5q-42 0 -66 -20.5t-36 -47.5t-15 -54t-3 -40v-469h-120z" />
    <glyph glyph-name="uni0584" unicode="&#x584;" horiz-adv-x="632" 
d="M5 -8h74v516h110v-50h2q32 37 77 53.5t93 16.5q61 0 104 -20t70 -53t39 -74.5t12 -84.5q0 -44 -12.5 -89t-40 -81t-72.5 -59t-109 -23q-27 0 -51.5 6t-44.5 16t-34.5 21.5t-22.5 22.5v-118h390v-81h-390v-96h-120v96h-74v81zM190 279q0 -47 13.5 -76t34.5 -46t45.5 -23
t47.5 -6q21 0 44.5 6.5t42.5 24.5t31.5 50.5t12.5 84.5q0 70 -32.5 111t-95.5 41q-65 0 -104.5 -38.5t-39.5 -128.5z" />
    <glyph glyph-name="uni0585" unicode="&#x585;" 
d="M305 528q54 0 94.5 -13.5t69.5 -36t48 -51t30 -59t15.5 -60.5t4.5 -54t-4.5 -54t-15.5 -60.5t-30 -59t-48 -51t-69.5 -36t-94.5 -13.5t-94.5 13.5t-69.5 36t-48 51t-30 59t-15.5 60t-4.5 54.5q0 24 4.5 54t15.5 60.5t30 59t48 51t69.5 36t94.5 13.5zM305 446
q-16 0 -39 -5.5t-44 -25t-36 -58t-15 -103.5t15 -103.5t36 -58t44 -25t39 -5.5t39 5.5t44 25t36 58t15 103.5t-15 103.5t-36 58t-44 25t-39 5.5z" />
    </font>
</defs>
</svg>
