<?xml version="1.0" standalone="no"?>
<!DOCTYPE svg PUBLIC "-//W3C//DTD SVG 1.1//EN" "http://www.w3.org/Graphics/SVG/1.1/DTD/svg11.dtd" >
<svg xmlns="http://www.w3.org/2000/svg" xmlns:xlink="http://www.w3.org/1999/xlink" version="1.1">
<metadata>
Created by FontForge 20150715 at Mon Oct 19 16:47:38 2015
 By Jimmy Wärting
Copyright (c) 2011 Orange Brand Services Limited
</metadata>
<defs>
<font id="OrangeSans45-Light" horiz-adv-x="617" >
  <font-face 
    font-family="Orange Sans 45 Light"
    font-weight="300"
    font-stretch="normal"
    units-per-em="1000"
    panose-1="2 11 4 3 4 5 2 2 2 4"
    ascent="785"
    descent="-215"
    x-height="508"
    cap-height="700"
    bbox="-533 -251 1257 1088"
    underline-thickness="50"
    underline-position="-100"
    unicode-range="U+0020-FB17"
  />
<missing-glyph horiz-adv-x="500" 
d="M442 8v496h-384v-496h384zM50 512h400v-512h-400v512z" />
    <glyph glyph-name="IJ" unicode="IJ" horiz-adv-x="770" 
d="M163 700v-700h-74v700h74zM358 225v-6q0 -19 1 -39t5.5 -39.5t13.5 -37.5t24 -31q8 -8 29 -19t59 -11q29 0 50 8.5t36 22.5q28 27 34.5 66.5t6.5 78.5v482h74v-472q0 -23 -1.5 -49t-7.5 -52t-17 -50t-30 -44q-32 -34 -72 -44t-77 -10q-34 0 -73 9t-70 39
q-18 18 -29.5 40.5t-18 47.5t-9 52t-2.5 54v4h74z" />
    <glyph glyph-name="ij" unicode="ij" horiz-adv-x="446" 
d="M143 508v-508h-69v508h69zM73 700h71v-84h-71v84zM369 508v-556q0 -30 -5 -61.5t-24 -50.5q-10 -10 -22.5 -15.5t-25.5 -8.5t-24 -3.5t-18 -0.5q-19 0 -38 3v51h4q14 0 32 2.5t32 13.5q14 13 17 31.5t3 41.5v553h69zM298 700h72v-84h-72v84z" />
    <glyph glyph-name="fi" unicode="fi" horiz-adv-x="495" 
d="M98 571q0 30 5.5 54.5t24.5 44.5q22 22 51.5 27.5t61.5 5.5q12 0 26 -0.5t27 -2.5v-50q-5 1 -14.5 1.5t-18.5 0.5q-4 0 -13 -0.5t-19.5 -2.5t-21.5 -5.5t-19 -10.5q-14 -13 -17.5 -30.5t-3.5 -34.5v-60h252v-508h-69v458h-183v-458h-69v458h-94v50h94v63zM349 700h72v-84
h-72v84z" />
    <glyph glyph-name="fl" unicode="fl" horiz-adv-x="496" 
d="M419 0h-69v458h-183v-458h-69v458h-94v50h94v63q0 30 5.5 54.5t24.5 44.5q22 22 51.5 27.5t61.5 5.5q12 0 26 -0.5t27 -2.5v-50q-5 1 -14.5 1.5t-18.5 0.5q-4 0 -13 -0.5t-19.5 -2.5t-21.5 -5.5t-19 -10.5q-14 -13 -17.5 -30.5t-3.5 -34.5v-60h183v192h69v-700z" />
    <glyph glyph-name=".notdef" horiz-adv-x="500" 
d="M442 8v496h-384v-496h384zM50 512h400v-512h-400v512z" />
    <glyph glyph-name=".null" horiz-adv-x="0" 
 />
    <glyph glyph-name="nonmarkingreturn" horiz-adv-x="233" 
 />
    <glyph glyph-name="space" unicode=" " horiz-adv-x="233" 
 />
    <glyph glyph-name="exclam" unicode="!" horiz-adv-x="296" 
d="M188 700v-286l-20 -224h-40l-19 224v286h79zM108 94h80v-94h-80v94z" />
    <glyph glyph-name="quotedbl" unicode="&#x22;" horiz-adv-x="368" 
d="M124 508h-42l-34 192h110zM287 508h-43l-33 192h109z" />
    <glyph glyph-name="numbersign" unicode="#" horiz-adv-x="576" 
d="M311 32l24 161h-143l-24 -161h-54l24 161h-134l11 70h134l28 179h-134l11 70h134l25 160h54l-25 -160h143l25 160h54l-25 -160h134l-11 -70h-134l-28 -179h134l-10 -70h-134l-25 -161h-54zM374 442h-143l-28 -179h143z" />
    <glyph glyph-name="dollar" unicode="$" horiz-adv-x="576" 
d="M117 213q0 -27 9.5 -63.5t39.5 -64.5q20 -18 48 -28.5t57 -12.5v289q-51 14 -89 28.5t-66 41.5t-39 60t-11 69q0 43 13 74.5t35 53.5q29 29 72 43.5t85 12.5v61h45v-61q35 0 75 -12.5t67 -39.5q18 -18 28 -38.5t15.5 -38.5t6.5 -31.5t1 -16.5h-69q-2 27 -12 50t-24 37
t-37 24t-51 11v-269q60 -14 100 -30.5t65 -42.5q20 -20 34.5 -52t14.5 -80t-15 -84.5t-39 -59.5q-28 -28 -71 -43.5t-89 -13.5v-79h-45v79q-51 -2 -93.5 15.5t-69.5 43.5q-17 17 -29 38t-19.5 43.5t-11 44.5t-3.5 42h72zM316 43q32 0 59.5 10.5t44.5 27.5q17 16 27.5 40
t10.5 59q0 39 -12 62.5t-26 36.5q-10 9 -23 17t-27 13.5t-28 9.5t-26 6v-282zM271 661q-29 2 -56 -8t-45 -27q-17 -17 -25.5 -41.5t-8.5 -50.5q0 -24 8.5 -47t24.5 -38q9 -9 21.5 -16.5t26.5 -13.5t28 -10.5t26 -7.5v260z" />
    <glyph glyph-name="percent" unicode="%" horiz-adv-x="889" 
d="M212 708q27 0 55 -9t54 -34q18 -18 29 -38t17 -40t7.5 -39t1.5 -34q0 -57 -14 -96t-42 -67q-43 -43 -105 -43q-30 0 -57.5 10t-51.5 34q-17 17 -27.5 37t-16.5 40.5t-8.5 40.5t-2.5 38q0 39 12 81t42 74q20 21 46 33t61 12zM210 663q-35 0 -61 -25q-14 -14 -22 -30
t-12 -33.5t-5.5 -34t-1.5 -30.5q0 -11 0.5 -26.5t4.5 -33.5t11 -35.5t21 -32.5q14 -16 31.5 -22.5t36.5 -6.5q39 0 67 29q22 24 31 60.5t9 68.5q0 38 -10.5 71t-30.5 53q-11 11 -27.5 19.5t-41.5 8.5zM653 700h58l-473 -700h-58zM674 392q27 0 55 -9t54 -34q18 -18 29 -38
t17 -40t7.5 -39t1.5 -34q0 -57 -14 -96t-42 -67q-43 -43 -105 -43q-30 0 -57.5 10t-51.5 34q-17 17 -27.5 37t-16.5 40.5t-8.5 40.5t-2.5 38q0 39 12 81t42 74q20 21 46 33t61 12zM672 347q-35 0 -61 -25q-14 -14 -22 -30t-12 -33.5t-5.5 -34t-1.5 -30.5q0 -11 0.5 -26.5
t4.5 -33.5t11 -35.5t21 -32.5q14 -16 31.5 -22.5t36.5 -6.5q39 0 67 29q22 24 31 60.5t9 68.5q0 38 -10.5 71t-30.5 53q-11 11 -27.5 19.5t-41.5 8.5z" />
    <glyph glyph-name="ampersand" unicode="&#x26;" horiz-adv-x="646" 
d="M566 306q-2 -23 -6 -44t-10 -40q-7 -22 -16 -42.5t-19 -37.5l120 -142h-85l-73 87q-3 -4 -10 -13t-18 -20t-26 -23.5t-33 -22.5q-30 -17 -62.5 -23t-65.5 -6q-20 0 -41.5 2t-43 8.5t-42.5 18t-40 30.5q-57 57 -57 147q0 88 60 148q23 23 56 41.5t60 29.5q-11 13 -22.5 28
t-22.5 33q-14 23 -21 45t-7 49q0 32 10.5 56t26.5 41q26 28 56.5 36t56.5 8q45 0 71.5 -12.5t39.5 -25.5q20 -19 29.5 -46t9.5 -55q0 -37 -13 -64.5t-37 -50.5q-25 -25 -49 -38.5t-34 -18.5l165 -197q6 12 11.5 26.5t8.5 27.5q4 14 6 31t3 29h64zM251 359q-26 -10 -52 -26
t-42 -32q-22 -22 -34 -51t-12 -61t12 -61t31 -48q26 -26 56.5 -33t56.5 -7q24 0 53 6t57 23q17 11 32.5 26.5t28.5 37.5zM273 432q18 8 36.5 19.5t31.5 24.5q16 16 25 36t9 46q0 40 -24 64q-12 12 -27 17t-32 5q-14 0 -30 -4t-30 -18q-9 -9 -16 -23.5t-7 -36.5t6.5 -40
t17.5 -35q2 -3 9.5 -14t30.5 -41z" />
    <glyph glyph-name="quotesingle" unicode="'" horiz-adv-x="205" 
d="M124 508h-43l-33 192h109z" />
    <glyph glyph-name="parenleft" unicode="(" horiz-adv-x="347" 
d="M266 700q-23 -43 -45.5 -95.5t-38.5 -100.5q-18 -56 -29.5 -120.5t-11.5 -125.5t11.5 -125.5t29.5 -120.5q16 -48 38.5 -100.5t45.5 -95.5h-50q-27 44 -53.5 94.5t-43.5 92.5q-28 71 -39 135t-11 120t11 120t39 135q17 42 43.5 92.5t53.5 94.5h50z" />
    <glyph glyph-name="parenright" unicode=")" horiz-adv-x="347" 
d="M131 700q27 -44 53.5 -94.5t43.5 -92.5q28 -71 39 -135t11 -120t-11 -120t-39 -135q-17 -42 -43.5 -92.5t-53.5 -94.5h-50q23 43 45.5 95.5t38.5 100.5q18 56 29.5 120.5t11.5 125.5t-11.5 125.5t-29.5 120.5q-16 48 -38.5 100.5t-45.5 95.5h50z" />
    <glyph glyph-name="asterisk" unicode="*" horiz-adv-x="485" 
d="M161 396l-35 26l81 112l-130 41l14 41l131 -41v136h43v-136l129 41l14 -41l-129 -41l81 -112l-35 -26l-82 112z" />
    <glyph glyph-name="plus" unicode="+" horiz-adv-x="600" 
d="M272 382v224l54 -1v-223h224v-54h-224v-224h-54v224h-224v54h224z" />
    <glyph glyph-name="comma" unicode="," horiz-adv-x="296" 
d="M188 94v-115q0 -29 -5.5 -52.5t-23.5 -41.5q-5 -5 -18 -13.5t-33 -13.5v46q7 2 15 6.5t15 16.5t8.5 25t1.5 26v22h-40v94h80z" />
    <glyph glyph-name="hyphen" unicode="-" horiz-adv-x="408" 
d="M68 294h272v-54h-272v54z" />
    <glyph glyph-name="period" unicode="." horiz-adv-x="296" 
d="M108 94h80v-94h-80v94z" />
    <glyph glyph-name="slash" unicode="/" horiz-adv-x="408" 
d="M355 700h62l-357 -885h-62z" />
    <glyph glyph-name="zero" unicode="0" horiz-adv-x="578" 
d="M289 -21q-44 0 -81 12.5t-69 46.5q-27 28 -44.5 66t-28 80.5t-15 86.5t-4.5 84q0 39 4.5 82t15.5 84.5t29 78t45 63.5q31 31 67 44.5t79 13.5q44 0 81 -13t69 -45q47 -48 70.5 -129.5t23.5 -177.5q0 -102 -23 -187.5t-72 -133.5q-32 -32 -68.5 -44t-78.5 -12zM289 42
q53 0 94 39q10 10 22.5 28t24 49.5t19.5 78t8 113.5q0 34 -3 72t-11.5 74t-23 68t-36.5 55q-19 19 -42 29t-52 10q-35 0 -58.5 -12.5t-37.5 -26.5q-22 -22 -36 -56t-22 -71.5t-11 -75t-3 -66.5q0 -31 3 -68.5t11 -74.5t22.5 -70.5t37.5 -55.5q20 -20 44 -29.5t50 -9.5z" />
    <glyph glyph-name="one" unicode="1" horiz-adv-x="578" 
d="M152 575h19q28 0 57 8t50 22t37.5 38.5t19.5 56.5h50v-700h-75v536h-158v39z" />
    <glyph glyph-name="two" unicode="2" horiz-adv-x="578" 
d="M524 0h-456v10q0 30 4 55.5t14 48.5t25.5 44.5t38.5 44.5q32 31 70 58.5t86 57.5q31 20 58 39.5t47 45.5q36 46 36 109q0 23 -7.5 53t-34.5 55q-15 14 -41 25.5t-66 11.5q-45 0 -71.5 -13.5t-39.5 -26.5q-29 -28 -35.5 -61.5t-6.5 -62.5v-11h-74v18q0 59 20 99t43 63
q19 19 40.5 30.5t43 17.5t42.5 8t40 2q42 0 85 -10.5t80 -46.5q36 -35 47 -76.5t11 -78.5q0 -48 -13.5 -84t-45.5 -69q-19 -20 -47 -41t-76 -50l-51 -32q-27 -17 -54.5 -38.5t-45.5 -41.5q-20 -23 -29 -44t-11 -46h374v-63z" />
    <glyph glyph-name="three" unicode="3" horiz-adv-x="578" 
d="M118 206q0 -36 12.5 -69t32.5 -53q26 -27 58 -35.5t63 -8.5q29 0 60 7.5t57 31.5q23 21 34 54t11 70q0 21 -7.5 47.5t-31.5 48.5q-17 15 -45 26.5t-75 11.5h-49v61h28q12 0 26.5 0.5t30.5 3.5t32 10t30 20q17 15 27.5 38t10.5 55q0 38 -12.5 62t-26.5 38q-23 22 -50 28.5
t-50 6.5q-37 0 -65 -10t-45 -27q-19 -19 -30 -50t-11 -69v-12h-70v11q0 34 6.5 60.5t15.5 46.5t20 34t20 23q35 34 77.5 44t80.5 10q18 0 37.5 -2t40 -7.5t40 -16t37.5 -27.5q25 -24 40 -59t15 -80q0 -40 -13 -69.5t-35 -49.5q-11 -11 -27.5 -20.5t-36.5 -15.5v-2
q21 -3 42 -12.5t42 -29.5q30 -29 41 -61.5t11 -72.5q0 -39 -12 -78.5t-44 -72.5q-8 -8 -22.5 -19.5t-36.5 -22t-52 -17.5t-69 -7q-74 0 -119 23.5t-70.5 58.5t-34.5 74t-10 71h71z" />
    <glyph glyph-name="four" unicode="4" horiz-adv-x="578" 
d="M33 167v63l324 470h76v-470h112v-63h-112v-167h-74v167h-326zM359 230v370l-252 -370h252z" />
    <glyph glyph-name="five" unicode="5" horiz-adv-x="578" 
d="M135 173q3 -24 14 -50t30 -44q16 -16 43.5 -27.5t69.5 -11.5q45 0 72 12.5t43 26.5q8 7 17.5 19t17 29.5t12.5 41t5 54.5q0 13 -1.5 29.5t-6 34t-13.5 34.5t-24 32t-43.5 29t-75.5 14q-5 0 -21 -1.5t-37 -7.5t-44 -18.5t-41 -35.5h-69l50 367h359v-63h-303l-33 -234
q25 23 60 38q23 10 45.5 13t42.5 3q47 0 87 -12.5t74 -44.5q22 -21 35 -44t20 -46t9 -45t2 -41q0 -20 -2.5 -43t-9.5 -47.5t-20 -48t-34 -44.5t-44.5 -33t-47 -18.5t-45.5 -8.5t-41 -2q-21 0 -43.5 2.5t-44.5 9.5t-42 19t-38 31q-22 23 -37.5 57.5t-20.5 74.5h74z" />
    <glyph glyph-name="six" unicode="6" horiz-adv-x="578" 
d="M447 549q-4 23 -14 42.5t-24 33.5q-23 23 -50.5 29t-50.5 6q-32 0 -59.5 -9t-52.5 -35t-39 -63t-21 -74.5t-8 -70t-1 -49.5h2q14 27 32 44t35 26q29 16 58 20t52 4q37 0 77 -10.5t76 -44.5q26 -24 46.5 -66t20.5 -110q0 -58 -16.5 -102.5t-43.5 -74.5
q-38 -41 -82.5 -53.5t-84.5 -12.5q-18 0 -39 2t-43 9t-44.5 19t-41.5 33q-44 46 -61 122.5t-17 170.5q0 47 4 93.5t15 88.5t29.5 78.5t47.5 64.5q36 35 77 48t86 13q34 0 72.5 -9.5t73.5 -44.5q12 -11 31.5 -40.5t26.5 -77.5h-69zM138 222q0 -35 11 -74t37 -66
q16 -16 43.5 -29t70.5 -13q28 0 55 8.5t50 31.5q17 17 27 37t15 39t6 36t1 29q0 28 -8.5 64t-37.5 65q-14 14 -41 28t-70 14q-44 0 -71 -14t-42 -29q-17 -17 -31.5 -47t-14.5 -80z" />
    <glyph glyph-name="seven" unicode="7" horiz-adv-x="578" 
d="M43 700h491v-50q-71 -81 -115.5 -162t-76.5 -161q-24 -61 -46 -139.5t-34 -187.5h-80q8 61 18 110t22 88.5t24.5 72.5t24.5 62q15 35 32 70.5t39 73t50 77t65 82.5h-414v64z" />
    <glyph glyph-name="eight" unicode="8" horiz-adv-x="578" 
d="M192 381q-23 8 -42 21t-35 36q-31 43 -31 99q0 41 14 73t36 55q21 21 57.5 38.5t95.5 17.5q57 0 94 -16t57 -34q24 -22 40 -56t16 -77q0 -34 -10.5 -61.5t-26.5 -47.5q-12 -15 -30 -27.5t-41 -20.5q29 -7 49 -20t31 -24q9 -8 18.5 -20.5t17.5 -30t13.5 -40.5t5.5 -51
q0 -51 -16.5 -90.5t-41.5 -64.5q-20 -20 -43.5 -32t-47 -18.5t-45 -8.5t-37.5 -2q-18 0 -40.5 2t-46 9t-46.5 19.5t-44 33.5q-20 21 -38 57.5t-18 93.5q0 37 10.5 68.5t28.5 56t42.5 40.5t53.5 22zM289 408q20 0 47.5 6t50.5 28q17 16 27 39t10 54q0 35 -12 57.5t-26 35.5
q-24 21 -52 26.5t-45 5.5q-23 0 -49.5 -6t-49.5 -29q-17 -17 -26.5 -40.5t-9.5 -50.5q0 -32 11 -55t25 -37q14 -13 38 -23.5t61 -10.5zM293 40q40 0 66.5 13t42.5 28q17 17 31.5 45.5t14.5 72.5q0 35 -11 64.5t-39 52.5t-55.5 28t-53.5 5q-29 0 -61 -7t-58 -35
q-20 -20 -30.5 -49t-10.5 -59q0 -73 44 -115q20 -20 51.5 -32t68.5 -12z" />
    <glyph glyph-name="nine" unicode="9" horiz-adv-x="578" 
d="M131 151q4 -23 14 -42.5t24 -33.5q23 -23 50.5 -29t50.5 -6q32 0 59.5 9t52.5 35t39 63t21 74.5t8 70t1 49.5h-2q-14 -27 -32 -44t-35 -26q-26 -14 -52.5 -19t-51.5 -5q-16 0 -35.5 1.5t-40.5 7t-42 16.5t-41 30q-26 24 -46.5 66t-20.5 110q0 58 16.5 102.5t43.5 74.5
q19 21 40 33.5t42.5 20t43 10t41.5 2.5q18 0 39 -2t43 -9t44 -19t42 -33q25 -27 40.5 -63.5t24 -76.5t11 -80t2.5 -73q0 -48 -4 -94t-15 -88t-29.5 -78.5t-47.5 -64.5q-36 -35 -77 -48t-86 -13q-34 0 -72.5 9.5t-73.5 44.5q-12 11 -31.5 40.5t-26.5 77.5h69zM279 660
q-29 0 -56 -8.5t-50 -31.5q-17 -17 -27 -37t-15 -39t-6 -36t-1 -29q0 -28 8.5 -64t37.5 -65q14 -14 41 -28t70 -14q44 0 71 14t42 29q17 17 31.5 47t14.5 80q0 35 -11 74t-37 66q-16 17 -43.5 29.5t-69.5 12.5z" />
    <glyph glyph-name="colon" unicode=":" horiz-adv-x="296" 
d="M108 508h80v-94h-80v94zM108 94h80v-94h-80v94z" />
    <glyph glyph-name="semicolon" unicode=";" horiz-adv-x="296" 
d="M108 508h80v-94h-80v94zM188 94v-115q0 -29 -5.5 -52.5t-23.5 -41.5q-5 -5 -18 -13.5t-33 -13.5v46q7 2 15 6.5t15 16.5t8.5 25t1.5 26v22h-40v94h80z" />
    <glyph glyph-name="less" unicode="&#x3c;" horiz-adv-x="663" 
d="M554 652l26 -47l-455 -263l455 -262l-26 -48l-496 289v42z" />
    <glyph glyph-name="equal" unicode="=" horiz-adv-x="600" 
d="M550 471v-54h-502v54h502zM550 273v-54h-502v54h502z" />
    <glyph glyph-name="greater" unicode="&#x3e;" horiz-adv-x="663" 
d="M108 32l-26 48l455 262l-455 263l26 47l496 -289v-42z" />
    <glyph glyph-name="question" unicode="?" horiz-adv-x="554" 
d="M234 94h80v-94h-80v94zM64 492q-2 65 15 106.5t43 67.5q35 34 77 44.5t80 10.5q13 0 33 -1.5t41.5 -6.5t44 -16t41.5 -29q15 -14 33 -46t18 -84q0 -51 -18 -85t-48 -61l-42 -38q-35 -32 -47 -46.5t-14 -18.5q-7 -11 -12.5 -29t-5.5 -44v-20h-58v17q0 25 2.5 48t16.5 49
q10 17 25.5 35.5t28.5 30.5l39 36q10 9 21 21.5t20 29t15 36t6 42.5q0 25 -9.5 47t-25.5 38q-24 24 -52.5 30t-51.5 6q-25 0 -51 -5.5t-50 -28.5q-14 -12 -30 -43.5t-14 -92.5h-71z" />
    <glyph glyph-name="at" unicode="@" horiz-adv-x="858" 
d="M615 29q-48 -28 -95 -39t-105 -11q-75 0 -136.5 21t-115.5 75q-32 31 -52 65.5t-32 70t-16.5 71t-4.5 69.5q0 85 25.5 147t75.5 113q36 37 72.5 59t71.5 33.5t67 14.5t59 3q71 0 139.5 -19t129.5 -77q54 -51 78 -112.5t24 -133.5q0 -18 -2 -41.5t-9 -48t-20.5 -50
t-36.5 -48.5q-22 -22 -47 -33t-57 -11q-17 0 -33.5 4t-28.5 12q-14 10 -19.5 21t-7.5 20q-7 -14 -19 -26.5t-32 -21.5q-12 -5 -24 -8t-23 -4.5t-19.5 -2t-11.5 -0.5q-26 0 -60 8.5t-64 40.5q-20 20 -35.5 55t-15.5 89q0 30 5.5 54.5t14 43.5t19 33t20.5 24q26 26 56.5 36
t64.5 10q26 0 45.5 -5.5t34.5 -15.5t23.5 -21t13.5 -22h2v50h62v-261q0 -11 2 -26.5t11 -24.5q9 -11 31 -11q14 0 29 5.5t30 20.5q26 26 37 67.5t11 79.5q0 72 -25.5 130.5t-67.5 96.5q-26 24 -54 39t-57 24t-58 12t-56 3q-63 0 -116.5 -19.5t-107.5 -71.5
q-51 -50 -72.5 -106t-21.5 -128q0 -75 24.5 -135t62.5 -100q42 -43 104 -67.5t126 -24.5q32 0 74 10t88 37zM530 343q0 46 -11 72.5t-25 39.5q-18 17 -39 22t-38 5t-36 -5t-36 -22q-12 -12 -19 -27t-11.5 -30.5t-6 -31t-1.5 -28.5q0 -32 9 -64t32 -55q15 -14 31 -20t37 -6
q23 0 41 6t35 22q15 14 26.5 42t11.5 80z" />
    <glyph glyph-name="A" unicode="A" 
d="M81 0h-80l266 700h83l266 -700h-81l-74 201h-305zM439 264l-131 365l-131 -365h262z" />
    <glyph glyph-name="B" unicode="B" horiz-adv-x="690" 
d="M383 700q16 0 36.5 -1t42 -6t43 -15t39.5 -28q20 -20 33 -52.5t13 -72.5q0 -35 -11 -62.5t-33 -50.5q-20 -20 -40 -29t-34 -12v-2q26 -4 54 -16.5t48 -32.5q22 -22 34 -55t12 -70q0 -36 -13 -73t-37 -62q-21 -22 -47.5 -34t-53.5 -18t-52 -7t-43 -1h-284v700h293z
M164 395h201q10 0 24.5 0.5t30.5 3.5t32 10t29 20q14 14 24 37.5t10 52.5q0 30 -9.5 50.5t-21.5 32.5q-20 19 -50.5 27t-62.5 8h-207v-242zM164 63h206q32 0 55 3.5t39 9t25 11t14 9.5q17 15 29 41.5t12 61.5q0 37 -13 64t-33 41q-14 10 -33.5 15.5t-38.5 8.5t-35 3.5
t-22 0.5h-205v-269z" />
    <glyph glyph-name="C" unicode="C" horiz-adv-x="729" 
d="M681 228q-6 -51 -27 -96.5t-54 -78.5q-24 -24 -50.5 -39t-53.5 -22.5t-54 -10t-53 -2.5q-27 0 -56 3t-58 12.5t-58 26.5t-56 45t-45.5 62t-30 71t-16.5 75.5t-5 76.5q0 36 4.5 74.5t16 76t30 72t47.5 62.5q35 34 89 59.5t135 25.5q28 0 58 -4t59 -13t55 -23t47 -34
q26 -26 45.5 -66.5t22.5 -90.5h-75q-3 35 -17 63.5t-33 48.5q-21 22 -58.5 39t-97.5 17q-42 0 -85 -11.5t-82 -49.5q-42 -41 -62 -101t-20 -134q0 -35 4.5 -70.5t15 -69.5t26.5 -64t40 -53q23 -23 63.5 -43t101.5 -20q57 0 94 18t57 37q7 7 17 18.5t19 28t16 37.5t9 47h75z
" />
    <glyph glyph-name="D" unicode="D" horiz-adv-x="716" 
d="M335 700q27 0 56.5 -2t59.5 -10t59.5 -23.5t57.5 -41.5q18 -18 35.5 -42.5t31 -58t22 -76t8.5 -94.5q0 -97 -27 -167t-72 -111q-26 -24 -55.5 -38.5t-60.5 -22.5t-63 -10.5t-62 -2.5h-235v700h245zM164 63h139q22 0 48.5 1t54.5 7.5t56 19.5t52 37q36 36 54.5 94.5
t18.5 127.5q0 72 -19.5 130t-57.5 95q-21 21 -43.5 33t-45.5 18.5t-45 8.5t-42 2h-170v-574z" />
    <glyph glyph-name="E" unicode="E" horiz-adv-x="607" 
d="M538 394v-63h-374v-268h421v-63h-495v700h483v-63h-409v-243h374z" />
    <glyph glyph-name="F" unicode="F" horiz-adv-x="563" 
d="M500 388v-63h-336v-325h-74v700h455v-63h-381v-249h336z" />
    <glyph glyph-name="G" unicode="G" horiz-adv-x="743" 
d="M679 359v-359h-62v123h-2q-14 -29 -36 -56t-47 -45q-39 -28 -81.5 -35.5t-80.5 -7.5q-62 0 -118 16.5t-104 67.5q-10 10 -26.5 32t-32 57.5t-27 85.5t-11.5 116q0 54 8.5 98t22 79.5t31.5 62.5t36 45q14 14 35 29t50 27t66.5 20t85.5 8q77 0 127.5 -21.5t79.5 -48.5
t48.5 -68t25.5 -86h-74q-5 32 -18 59.5t-30 44.5q-27 28 -69 42.5t-91 14.5q-37 0 -66 -6.5t-51 -16.5t-38 -22t-26 -23q-26 -27 -41 -61.5t-22.5 -68.5t-9.5 -63t-2 -46q0 -77 21.5 -139t58.5 -101q26 -29 68 -50t105 -21q57 0 95.5 18.5t61.5 41.5q20 19 33.5 43t22 49.5
t12 51.5t3.5 50h-218v63h287z" />
    <glyph glyph-name="H" unicode="H" horiz-adv-x="704" 
d="M164 0h-74v700h74v-299h376v299h74v-700h-74v338h-376v-338z" />
    <glyph glyph-name="I" unicode="I" horiz-adv-x="254" 
d="M164 700v-700h-74v700h74z" />
    <glyph glyph-name="J" unicode="J" horiz-adv-x="512" 
d="M102 225v-6q0 -19 1 -39t5.5 -39.5t13.5 -37.5t24 -31q8 -8 29 -19t59 -11q29 0 50 8.5t36 22.5q28 27 34.5 66.5t6.5 78.5v482h74v-472q0 -23 -1.5 -49t-7.5 -52t-17 -50t-30 -44q-32 -34 -72 -44t-77 -10q-34 0 -73 9t-70 39q-18 18 -29.5 40.5t-18 47.5t-9 52t-2.5 54
v4h74z" />
    <glyph glyph-name="K" unicode="K" horiz-adv-x="651" 
d="M534 700h99l-292 -287l312 -413h-97l-269 364l-123 -120v-244h-74v700h74v-366z" />
    <glyph glyph-name="L" unicode="L" horiz-adv-x="526" 
d="M528 0h-438v700h74v-637h364v-63z" />
    <glyph glyph-name="M" unicode="M" horiz-adv-x="874" 
d="M164 608h-2l2 -27v-581h-74v700h112l235 -603l236 603h111v-700h-74v581l2 27h-3l-240 -608h-64z" />
    <glyph glyph-name="N" unicode="N" horiz-adv-x="732" 
d="M164 0h-74v700h85l393 -589v589h74v-700h-84l-394 589v-589z" />
    <glyph glyph-name="O" unicode="O" horiz-adv-x="786" 
d="M390 721q42 0 76.5 -7t62.5 -18.5t49.5 -25.5t37.5 -29q18 -17 37 -42t34 -60.5t25 -82t10 -106.5q0 -58 -9.5 -104.5t-24.5 -82.5t-33.5 -62t-36.5 -43q-26 -25 -54 -40.5t-57 -24t-57.5 -11.5t-54.5 -3q-89 0 -144.5 25t-86.5 56q-8 7 -24.5 28t-33 56t-29.5 86
t-13 120q0 52 8.5 96t22.5 80t32.5 64t38.5 48q13 13 33 27.5t47.5 27t63 20.5t80.5 8zM394 658q-64 0 -103 -19t-60 -38q-35 -32 -62 -95t-27 -160q0 -78 20.5 -139t57.5 -99q26 -26 69.5 -46t104.5 -20q64 0 105 21t66 46q35 35 57 93t22 146q0 50 -7.5 90t-20 71t-29 54
t-33.5 39q-38 35 -80 45.5t-80 10.5z" />
    <glyph glyph-name="P" unicode="P" horiz-adv-x="633" 
d="M362 700q19 0 42 -1t47 -6.5t47.5 -16.5t43.5 -30t36.5 -52.5t16.5 -90.5q0 -58 -16 -94t-36 -56q-21 -22 -46.5 -34.5t-51 -18.5t-49.5 -7t-44 -1h-188v-292h-74v700h272zM164 355h183q31 0 67 6t65 32q16 14 28 39.5t12 66.5q0 38 -12 62t-25 37q-14 13 -31.5 21
t-36 12t-36 5t-31.5 1h-183v-282z" />
    <glyph glyph-name="Q" unicode="Q" horiz-adv-x="786" 
d="M703 -27l-41 -41l-90 90q-25 -17 -64.5 -30t-109.5 -13q-47 0 -84 7.5t-66 19.5t-50.5 27.5t-36.5 31.5q-40 42 -68.5 115.5t-28.5 170.5q0 89 25.5 162t73.5 121q42 42 102 64.5t129 22.5t128 -22t98 -60q15 -15 33 -39t33.5 -59.5t25.5 -82t10 -106.5q0 -40 -6 -87
t-22 -89q-17 -45 -38 -73t-38 -44zM568 111q16 17 29.5 38.5t24.5 51.5q12 35 17 76t5 73q0 34 -4.5 68.5t-14.5 66.5t-25.5 60t-37.5 49q-22 22 -62.5 42.5t-105.5 20.5q-61 0 -103.5 -19t-68.5 -46q-35 -35 -57.5 -96.5t-22.5 -143.5q0 -85 23 -148.5t61 -100.5
q19 -19 40.5 -31t43 -18.5t42 -9t39.5 -2.5q28 0 49 3t36.5 7.5t26.5 10t19 11.5l-79 80l43 40z" />
    <glyph glyph-name="R" unicode="R" horiz-adv-x="690" 
d="M90 700h297q58 0 103.5 -9t80.5 -45q17 -18 32.5 -49.5t15.5 -80.5q0 -34 -9 -65t-33 -59q-20 -23 -41.5 -34t-38.5 -16v-2q25 -6 40 -17t21 -17q14 -14 22 -29.5t11.5 -32.5t4.5 -34t1 -34l2 -79q1 -18 4 -43t23 -54h-80q-5 8 -13 28.5t-10 62.5l-3 74q-1 18 -1.5 34
t-4 30.5t-10 27t-19.5 23.5q-12 10 -25 15.5t-26.5 8.5t-26 3.5t-22.5 0.5h-221v-308h-74v700zM164 371h216q35 0 68 9t53 28q17 17 28 44.5t11 59.5q0 37 -11 59.5t-25 33.5q-14 12 -31 18.5t-34.5 9.5t-34 3.5t-28.5 0.5h-212v-266z" />
    <glyph glyph-name="S" unicode="S" horiz-adv-x="651" 
d="M126 221q-1 -44 14.5 -74t31.5 -46q30 -31 75.5 -44t87.5 -13q43 0 83 11.5t65 35.5q17 17 28 41t11 53q0 25 -9 47t-22 36q-12 13 -30.5 22.5t-38 16.5t-37 11t-28.5 6l-70 13q-22 4 -46 9.5t-47.5 14t-45 21t-37.5 30.5q-15 17 -28 43.5t-13 67.5q0 55 24 94.5t60 62.5
q23 15 49.5 23.5t51 12.5t44 5t30.5 1q38 0 68.5 -6t53.5 -15t40 -20.5t29 -22.5q3 -3 12 -13.5t19 -27.5t18.5 -41t11.5 -55h-74q-3 31 -16 56t-30 41q-25 23 -62.5 32t-75.5 9q-6 0 -19 -0.5t-29.5 -3.5t-35 -8.5t-33.5 -14.5q-28 -17 -43 -44.5t-15 -59.5q0 -26 9 -43
t18 -27q21 -22 54.5 -33t69.5 -18l66 -13q57 -11 104.5 -27t79.5 -46q20 -19 35.5 -50t15.5 -79t-16 -86.5t-44 -64.5q-22 -20 -48 -32t-53 -18t-52 -8t-45 -2q-27 0 -56.5 2.5t-59.5 10t-58 22t-52 38.5q-23 23 -44 65t-21 102h75z" />
    <glyph glyph-name="T" unicode="T" horiz-adv-x="546" 
d="M4 637v63h538v-63h-232v-637h-74v637h-232z" />
    <glyph glyph-name="U" unicode="U" horiz-adv-x="691" 
d="M151 700v-420q0 -23 1 -47.5t5.5 -48t13.5 -45t25 -38.5q24 -26 64.5 -41t85.5 -15q46 0 85 14t63 40q31 34 38.5 82t7.5 99v420h74v-428q0 -26 -1.5 -55.5t-9 -58.5t-22 -57.5t-40.5 -53.5q-23 -22 -47.5 -35t-50 -19.5t-50.5 -8.5t-48 -2q-42 0 -74 6t-56 15.5
t-40.5 20.5t-27.5 21q-22 21 -35.5 47t-21 55.5t-10.5 61t-3 63.5v428h74z" />
    <glyph glyph-name="V" unicode="V" horiz-adv-x="589" 
d="M506 700h81l-247 -700h-91l-247 700h81l212 -624z" />
    <glyph glyph-name="W" unicode="W" horiz-adv-x="880" 
d="M282 0h-95l-183 700h83l152 -609l158 609h87l157 -609l152 609h83l-184 -700h-95l-157 612z" />
    <glyph glyph-name="X" unicode="X" horiz-adv-x="581" 
d="M478 700h91l-230 -342l240 -358h-95l-193 304l-194 -304h-95l240 358l-230 342h91l188 -288z" />
    <glyph glyph-name="Y" unicode="Y" horiz-adv-x="599" 
d="M509 700h88l-260 -401v-299h-74v299l-261 401h89l209 -334z" />
    <glyph glyph-name="Z" unicode="Z" horiz-adv-x="577" 
d="M534 700v-62l-422 -575h441v-63h-529v69l426 568h-403v63h487z" />
    <glyph glyph-name="bracketleft" unicode="[" horiz-adv-x="354" 
d="M303 700v-50h-129v-785h129v-50h-199v885h199z" />
    <glyph glyph-name="backslash" unicode="\" horiz-adv-x="415" 
d="M355 -185l-357 885h62l357 -885h-62z" />
    <glyph glyph-name="bracketright" unicode="]" horiz-adv-x="354" 
d="M250 700v-885h-199v50h128v785h-128v50h199z" />
    <glyph glyph-name="asciicircum" unicode="^" horiz-adv-x="409" 
d="M205 663l-95 -181h-56l116 218h69l116 -218h-55z" />
    <glyph glyph-name="underscore" unicode="_" horiz-adv-x="494" 
d="M-2 -131h498v-54h-498v54z" />
    <glyph glyph-name="grave" unicode="`" horiz-adv-x="288" 
d="M196 568h-60l-96 132h86z" />
    <glyph glyph-name="a" unicode="a" horiz-adv-x="552" 
d="M65 362q0 14 3 31t10.5 35t20 34.5t32.5 30.5q17 12 36.5 18.5t39 10.5t37 5t30.5 1q16 0 35 -1.5t39 -6.5t39.5 -14t35.5 -25q29 -29 35.5 -60.5t5.5 -58.5l-6 -253q0 -12 1 -25t9 -22q17 -20 46 -12v-50q-7 -2 -16.5 -3t-20.5 -1q-12 0 -28.5 2.5t-30.5 16.5
q-12 12 -17.5 30.5t-4.5 35.5q-15 -25 -33 -41t-33 -24q-33 -19 -67 -23.5t-52 -4.5q-29 0 -63.5 7.5t-61.5 33.5q-20 19 -31 47t-11 60q0 37 12.5 60.5t24.5 35.5q15 15 35.5 24.5t42.5 15.5t43.5 9.5t39.5 5.5l33 4q14 2 32.5 3.5t35.5 4.5q19 3 27.5 7t12.5 8
q8 9 10 23.5t2 25.5q0 19 -4.5 43t-26.5 44q-20 18 -46 23t-50 5q-23 0 -53 -5t-51 -26q-16 -16 -23.5 -39.5t-8.5 -45.5h-67zM393 269q-10 -9 -19 -12t-21 -5q-17 -3 -29 -5t-21.5 -3t-18.5 -1.5t-21 -1.5l-20 -2q-42 -5 -66 -14t-37 -21q-8 -8 -16 -25t-8 -44
q0 -21 7.5 -39t18.5 -29q18 -20 39.5 -24.5t40.5 -4.5q42 0 67.5 11t41.5 24q29 24 43.5 63t16.5 81z" />
    <glyph glyph-name="b" unicode="b" horiz-adv-x="593" 
d="M146 700v-266q10 19 24 35t31 27q29 20 60.5 26t55.5 6q59 0 96 -17.5t58 -38.5q24 -24 38.5 -53t21.5 -58t9 -55.5t2 -44.5q0 -80 -20.5 -135t-52.5 -87q-22 -23 -59 -41t-94 -18q-42 0 -71 10.5t-49 24.5q-14 11 -27.5 26t-23.5 34h-2v-75h-66v700h69zM142 254
q0 -16 1.5 -38.5t7 -47t17.5 -49.5t33 -46t47 -32t59 -11q40 0 66.5 13.5t41.5 30.5q29 31 42 81t13 103q0 70 -17.5 114t-42.5 67q-13 12 -37.5 25.5t-63.5 13.5q-40 0 -67 -14t-43 -31q-21 -22 -39 -64t-18 -115z" />
    <glyph glyph-name="c" unicode="c" horiz-adv-x="543" 
d="M505 178q-4 -38 -20.5 -78.5t-45.5 -69.5q-34 -34 -71 -42t-76 -8q-40 0 -82 9t-82 47q-35 34 -56 90.5t-21 132.5q0 66 17 118t48 85q23 26 64.5 46t107.5 20q60 0 97 -16.5t58 -36.5q20 -20 36 -50t21 -70h-66q-4 33 -16.5 53t-18.5 27q-22 25 -49.5 34t-56.5 9
q-46 0 -74 -15.5t-42 -29.5q-26 -26 -39.5 -69.5t-13.5 -102.5q0 -77 19.5 -121.5t41.5 -66.5q18 -18 44.5 -30.5t63.5 -12.5q41 0 65 12.5t36 25.5q19 20 31 50.5t14 59.5h66z" />
    <glyph glyph-name="d" unicode="d" horiz-adv-x="592" 
d="M515 700v-700h-66v75h-2q-11 -24 -27 -40.5t-33 -27.5q-28 -17 -58.5 -22t-52.5 -5q-16 0 -34.5 2t-38 7.5t-39.5 16.5t-38 29q-34 33 -54.5 88.5t-20.5 133.5q0 42 6.5 76t16.5 60t22.5 44.5t25.5 31.5q23 23 60.5 41t94.5 18q35 0 62.5 -8t47.5 -21q16 -10 31.5 -26
t27.5 -39v266h69zM124 258q0 -23 2 -47t7.5 -47.5t16 -46t28.5 -41.5q42 -46 107 -46q29 0 55 9t49 32q32 32 46.5 82.5t14.5 100.5q0 60 -16 108t-47 77q-20 19 -45 29t-58 10q-38 0 -62 -12.5t-37 -23.5q-30 -28 -45.5 -77t-15.5 -107z" />
    <glyph glyph-name="e" unicode="e" horiz-adv-x="572" 
d="M515 147q-7 -33 -21.5 -60.5t-33.5 -47.5q-37 -38 -78.5 -48.5t-83.5 -10.5q-20 0 -41.5 1.5t-43.5 7.5t-44 18t-43 32q-23 22 -38 48.5t-23 54.5t-11 57t-3 57q0 20 2 46t9.5 54t21 56t37.5 52q21 21 43.5 33.5t45.5 19.5t44 9t39 2q16 0 36.5 -2t42 -8t43 -18t40.5 -32
q41 -43 52.5 -100.5t13.5 -126.5h-398q2 -60 17 -99t37 -62q21 -23 51.5 -36.5t72.5 -13.5q40 0 65 12t40 26q12 11 20 23.5t13 23.5t7 19.5t3 12.5h66zM292 478q-43 0 -73.5 -14.5t-48.5 -34.5q-21 -24 -34 -62t-13 -76h325q0 15 -3 35t-9 40t-15 39t-22 32
q-15 16 -41.5 28.5t-65.5 12.5z" />
    <glyph glyph-name="f" unicode="f" horiz-adv-x="280" 
d="M276 458h-109v-458h-69v458h-94v50h94v72q0 25 4 48t23 43q11 11 24.5 17.5t27.5 9.5t27.5 4t23.5 1q24 0 48 -3v-50q-8 1 -15 1h-15q-20 0 -37 -4t-28 -15q-10 -11 -12 -28t-2 -25v-71h109v-50z" />
    <glyph glyph-name="g" unicode="g" horiz-adv-x="588" 
d="M151 -62q7 -21 18 -34t21 -21q23 -17 49 -21t47 -4q24 0 54 5.5t55 28.5q16 14 25.5 31.5t14 35.5t6 36t1.5 35v59q-11 -23 -28.5 -43t-36.5 -31q-23 -14 -48.5 -18.5t-49.5 -4.5q-41 0 -82.5 11.5t-78.5 52.5q-21 23 -34 50t-20.5 54t-10 53t-2.5 47q0 18 1.5 43t8 53.5
t20 58t37.5 54.5q36 37 77 48t79 11q27 0 54.5 -5.5t53.5 -22.5q16 -10 32.5 -26t29.5 -41h2v75h65v-484q0 -42 -10 -84.5t-46 -77.5t-81 -45t-82 -10q-17 0 -38.5 1.5t-44.5 6.5t-45 15.5t-40 28.5q-14 14 -25.5 33.5t-16.5 45.5h69zM289 42q29 0 55.5 11.5t43.5 28.5
q21 20 33 49.5t17.5 57t6.5 49.5t1 27q0 46 -11.5 92.5t-39.5 75.5q-20 20 -49 32.5t-66 12.5q-35 0 -61 -11.5t-44 -30.5q-18 -18 -28 -41t-15 -46.5t-6.5 -44.5t-1.5 -36q0 -18 1.5 -41t7 -47.5t16.5 -48.5t29 -43q23 -23 53 -34.5t58 -11.5z" />
    <glyph glyph-name="h" unicode="h" horiz-adv-x="562" 
d="M146 700v-266q12 22 27.5 37t34.5 27q25 16 50.5 23t58.5 7q47 0 77 -13t48 -31q16 -16 24.5 -33.5t12.5 -35.5t5 -36.5t1 -35.5v-343h-69v316v31t-2 34t-8 33.5t-19 30.5t-34 23.5t-49 9.5q-33 0 -62 -12.5t-49 -33.5q-17 -18 -26.5 -37.5t-14 -38.5t-5.5 -37.5
t-1 -34.5v-284h-69v700h69z" />
    <glyph glyph-name="i" unicode="i" horiz-adv-x="219" 
d="M144 508v-508h-69v508h69zM74 700h71v-84h-71v84z" />
    <glyph glyph-name="j" unicode="j" horiz-adv-x="223" 
d="M148 508v-556q0 -30 -5 -61.5t-24 -50.5q-10 -10 -22.5 -15.5t-25.5 -8.5t-24 -3.5t-18 -0.5q-19 0 -38 3v51h4q14 0 32 2.5t32 13.5q14 13 17 31.5t3 41.5v553h69zM77 700h72v-84h-72v84z" />
    <glyph glyph-name="k" unicode="k" horiz-adv-x="506" 
d="M406 508h83l-201 -195l220 -313h-80l-189 270l-93 -91v-179h-69v700h69v-445z" />
    <glyph glyph-name="l" unicode="l" horiz-adv-x="223" 
d="M146 700v-700h-69v700h69z" />
    <glyph glyph-name="m" unicode="m" horiz-adv-x="855" 
d="M146 508v-73q21 39 57 64q41 29 99 29q23 0 47.5 -6t47.5 -23q11 -9 26 -27.5t23 -49.5q4 8 18 29.5t40 41.5q46 35 111 35q44 0 72 -13.5t44 -29.5q17 -17 26.5 -35.5t14 -37t5.5 -36.5t1 -34v-342h-69v328q0 31 -5.5 65.5t-31.5 58.5q-14 12 -32 19t-41 7
q-28 0 -52 -10t-41 -27q-29 -29 -36.5 -65.5t-7.5 -66.5v-309h-69v327q0 8 -1 23.5t-4.5 33.5t-10.5 35.5t-20 31.5q-17 17 -35 22t-35 5q-28 0 -49.5 -9.5t-39.5 -26.5q-20 -19 -36 -51.5t-16 -84.5v-306h-69v508h69z" />
    <glyph glyph-name="n" unicode="n" horiz-adv-x="563" 
d="M146 508v-74q14 23 32 39t38 28q25 14 49 20.5t51 6.5q41 0 72.5 -12t51.5 -32q32 -32 39 -69t7 -72v-343h-69v333q0 12 -0.5 27.5t-4 31.5t-11 32t-21.5 28q-15 13 -36.5 19.5t-41.5 6.5q-30 0 -57 -11t-47 -30q-18 -18 -28.5 -38.5t-16 -41.5t-6.5 -40t-1 -33v-284h-69
v508h69z" />
    <glyph glyph-name="o" unicode="o" horiz-adv-x="588" 
d="M294 528q39 0 83 -11t83 -48q22 -21 36.5 -47t23.5 -54.5t13 -57.5t4 -56q0 -24 -3 -52.5t-12 -57.5t-25 -57t-41 -51q-38 -35 -78.5 -45.5t-82.5 -10.5t-84.5 10.5t-79.5 45.5q-14 12 -28 31t-25.5 46t-19 62t-7.5 79q0 45 7.5 80t19 61t25 44t25.5 30q19 19 40.5 30.5
t43 18t42.5 8.5t40 2zM294 479q-40 0 -68 -12.5t-45 -29.5q-23 -23 -40.5 -66.5t-17.5 -115.5t18 -116.5t44 -69.5q26 -24 54.5 -31.5t54.5 -7.5t54.5 7.5t53.5 30.5q27 25 44.5 71.5t17.5 115.5q0 47 -11.5 95.5t-41.5 81.5q-15 16 -43 31.5t-74 15.5z" />
    <glyph glyph-name="p" unicode="p" horiz-adv-x="591" 
d="M143 508v-75h2q17 26 34.5 41.5t28.5 23.5q26 17 52.5 23.5t55.5 6.5q57 0 93.5 -18t56.5 -37q12 -12 25.5 -30t24 -44t17.5 -60.5t7 -79.5q0 -62 -14 -113.5t-41.5 -88t-68 -57t-92.5 -20.5q-66 0 -113 28q-20 13 -37 31.5t-28 38.5v-263h-69v693h66zM142 252
q0 -18 2 -40.5t8 -46t17.5 -46.5t30.5 -42q17 -18 45 -32.5t68 -14.5q58 0 98 41q26 28 41.5 75.5t15.5 110.5q0 39 -5.5 68.5t-14 51.5t-19.5 37t-21 25q-14 14 -39 26.5t-63 12.5q-31 0 -57 -11t-46 -29q-21 -19 -33 -43t-18 -49t-8 -49.5t-2 -44.5z" />
    <glyph glyph-name="q" unicode="q" horiz-adv-x="591" 
d="M514 508v-693h-69v263q-11 -20 -28.5 -39.5t-39.5 -32.5q-20 -12 -46.5 -19t-59.5 -7q-49 0 -85.5 15.5t-62.5 42.5q-35 37 -53.5 95t-18.5 130q0 80 22.5 130t50.5 78q27 26 64 41.5t85 15.5q66 0 110 -28q17 -11 33.5 -27.5t29.5 -39.5h3v75h65zM123 252
q0 -72 18.5 -116.5t42.5 -67.5q15 -14 40 -26t60 -12q32 0 56 11t44 29q23 22 36 48t20 52.5t8.5 50t1.5 40.5q0 16 -1.5 39t-7.5 47.5t-18 49t-32 43.5q-14 13 -40 25.5t-68 12.5q-27 0 -51.5 -8.5t-47.5 -29.5q-12 -11 -23 -27.5t-19.5 -39t-13.5 -52.5t-5 -69z" />
    <glyph glyph-name="r" unicode="r" horiz-adv-x="339" 
d="M341 462h-10q-48 0 -79 -11t-56 -37q-32 -32 -41 -69.5t-9 -82.5v-262h-69v508h69v-101h2q12 30 29.5 49t33.5 30q31 21 61.5 26.5t57.5 5.5h11v-56z" />
    <glyph glyph-name="s" unicode="s" horiz-adv-x="491" 
d="M108 148q0 -31 11.5 -52t23.5 -32q14 -14 40.5 -24t69.5 -10q38 0 60.5 8.5t34.5 18.5q16 13 25 34t9 45q0 17 -6.5 32t-20.5 27q-9 8 -27.5 16.5t-56.5 16.5l-56 12q-35 8 -69 19t-55 32q-16 16 -25 39t-9 49q0 36 17 67.5t46 51.5q31 20 67 25t59 5q14 0 33 -1.5
t39.5 -7t40.5 -15.5t37 -26q16 -15 29 -40.5t14 -61.5h-67q0 22 -8 41t-20 31q-32 30 -99 30q-20 0 -46.5 -5t-46.5 -25q-8 -8 -15.5 -23.5t-7.5 -38.5q0 -17 6 -31t20 -27q17 -14 38.5 -21t42.5 -12l53 -12q32 -8 64 -17t55 -27q20 -15 32.5 -38.5t12.5 -58.5
q0 -42 -17 -74.5t-43 -51.5q-17 -13 -37.5 -20t-40 -10.5t-37 -4.5t-28.5 -1q-66 0 -104.5 17t-58.5 37q-22 23 -34 54.5t-15 59.5h70z" />
    <glyph glyph-name="t" unicode="t" horiz-adv-x="292" 
d="M101 508v152h69v-152h109v-50h-109v-368q0 -8 1.5 -19t8.5 -19q8 -9 19.5 -11t20.5 -2q15 0 28.5 2.5t30.5 8.5v-50q-21 -8 -41.5 -11t-38.5 -3q-34 0 -51.5 8.5t-24.5 16.5q-15 17 -18.5 39.5t-3.5 38.5v369h-95v50h95z" />
    <glyph glyph-name="u" unicode="u" horiz-adv-x="563" 
d="M417 0v73h-2q-28 -46 -66 -67q-23 -14 -53 -20t-57 -6q-46 0 -74 13.5t-44 29.5q-27 26 -35.5 61.5t-8.5 80.5v343h69v-316q0 -41 5 -75t28 -57q11 -11 30 -20.5t50 -9.5q23 0 53.5 9t59.5 39q31 33 38 70.5t7 75.5v284h69v-508h-69z" />
    <glyph glyph-name="v" unicode="v" horiz-adv-x="454" 
d="M380 508h76l-189 -508h-80l-189 508h75l154 -438z" />
    <glyph glyph-name="w" unicode="w" horiz-adv-x="707" 
d="M238 0h-77l-157 508h72l126 -428l116 428h71l116 -428l126 428h72l-157 -508h-77l-116 428z" />
    <glyph glyph-name="x" unicode="x" horiz-adv-x="459" 
d="M366 508h79l-175 -243l191 -265h-81l-151 221l-151 -221h-80l191 265l-175 243h78l137 -198z" />
    <glyph glyph-name="y" unicode="y" horiz-adv-x="471" 
d="M83 -132q16 -4 39 -4q11 0 24.5 2.5t24.5 12.5q6 5 13.5 17.5t15.5 38.5l21 65l-214 508h83l168 -431l146 431h69l-209 -585q-10 -26 -19.5 -49t-25.5 -37q-19 -17 -41 -21.5t-39 -4.5q-16 0 -29.5 1.5t-26.5 3.5v52z" />
    <glyph glyph-name="z" unicode="z" horiz-adv-x="452" 
d="M413 508v-52l-305 -406h320v-50h-404v49l315 409h-293v50h367z" />
    <glyph glyph-name="braceleft" unicode="{" horiz-adv-x="362" 
d="M73 285q19 2 32.5 8.5t22.5 14.5q23 20 28.5 50.5t5.5 61.5q0 15 -0.5 29.5t-1.5 29.5q-1 14 -1.5 26.5t-0.5 26.5q0 36 8.5 67.5t35.5 58.5q20 20 46.5 29.5t65.5 12.5v-45q-28 -4 -43.5 -15t-16.5 -12q-17 -17 -22 -40t-5 -43q0 -10 0.5 -20.5t1.5 -26.5
q2 -21 2.5 -35.5t0.5 -28.5q0 -29 -6 -58t-24 -57q-11 -17 -29.5 -33.5t-47.5 -27.5v-2q29 -11 47.5 -27.5t29.5 -33.5q19 -28 24.5 -57t5.5 -57q0 -14 -0.5 -29t-2.5 -36q-1 -16 -1.5 -26.5t-0.5 -20.5q0 -20 5 -43t22 -40q11 -11 27.5 -18t32.5 -9v-45q-39 3 -65.5 12.5
t-46.5 29.5q-27 27 -35.5 58.5t-8.5 67.5q0 14 0.5 26.5t1.5 26.5q1 15 1.5 29.5t0.5 29.5q0 31 -5.5 61.5t-28.5 50.5q-9 8 -22.5 14.5t-32.5 8.5v56z" />
    <glyph glyph-name="bar" unicode="|" horiz-adv-x="473" 
d="M206 829h61v-1053h-61v1053z" />
    <glyph glyph-name="braceright" unicode="}" horiz-adv-x="362" 
d="M289 229q-19 -2 -32.5 -8.5t-22.5 -14.5q-23 -20 -28.5 -50.5t-5.5 -61.5q0 -15 0.5 -29.5t1.5 -29.5q1 -14 1.5 -26.5t0.5 -26.5q0 -36 -8.5 -67.5t-35.5 -58.5q-20 -20 -46.5 -29.5t-65.5 -12.5v45q16 2 32.5 9t27.5 18q17 17 22 40t5 43q0 10 -0.5 20.5t-1.5 26.5
q-2 21 -2.5 36t-0.5 29q0 28 5.5 57t24.5 57q11 17 29.5 33.5t47.5 27.5v2q-29 11 -47.5 27.5t-29.5 33.5q-18 28 -24 57t-6 58q0 14 0.5 28.5t2.5 35.5q1 16 1.5 26.5t0.5 20.5q0 20 -5 43t-22 40q-1 1 -16.5 12t-43.5 15v45q39 -3 65.5 -12.5t46.5 -29.5
q27 -27 35.5 -58.5t8.5 -67.5q0 -14 -0.5 -26.5t-1.5 -26.5q-1 -15 -1.5 -29.5t-0.5 -29.5q0 -31 5.5 -61.5t28.5 -50.5q9 -8 22.5 -14.5t32.5 -8.5v-56z" />
    <glyph glyph-name="asciitilde" unicode="~" horiz-adv-x="587" 
d="M48 308q7 21 19 43.5t29 39.5q37 37 87 37q25 0 43.5 -7t35.5 -16l96 -51q11 -6 23.5 -11.5t32.5 -5.5q23 0 37.5 8t27.5 25q11 14 17.5 28.5t7.5 17.5l35 -14q-8 -23 -22 -46t-28 -38q-17 -18 -36.5 -27t-44.5 -9q-26 0 -46.5 7.5t-36.5 15.5l-98 53q-13 7 -28 11t-28 4
q-34 0 -55 -23q-11 -11 -20 -26.5t-14 -29.5z" />
    <glyph glyph-name="uni00A0" unicode="&#xa0;" horiz-adv-x="233" 
 />
    <glyph glyph-name="exclamdown" unicode="&#xa1;" horiz-adv-x="296" 
d="M109 -185v282l19 224h40l20 -224v-282h-79zM188 414h-80v94h80v-94z" />
    <glyph glyph-name="cent" unicode="&#xa2;" horiz-adv-x="578" 
d="M523 178q-2 -22 -10 -53.5t-32 -66.5q-19 -27 -53.5 -51t-95.5 -27v-72h-45v72q-61 2 -101 27.5t-63 56.5q-24 32 -39 79.5t-15 114.5q0 62 16 115.5t49 88.5q23 26 62 45t91 21v66h45v-66q38 -2 71 -15.5t56 -35.5q4 -4 13 -13.5t18 -25t17 -36t11 -47.5h-66
q-3 26 -12.5 46t-22.5 34q-23 26 -47 33.5t-38 9.5v-448q36 5 58.5 21.5t36.5 36.5q12 18 20 42t10 48h66zM287 477q-30 -2 -52 -13t-37 -26q-20 -20 -38 -61.5t-18 -115.5q0 -13 1 -30.5t4 -37t9 -39.5t15 -38q24 -46 56 -63t60 -22v446z" />
    <glyph glyph-name="sterling" unicode="&#xa3;" horiz-adv-x="578" 
d="M533 40q-8 -9 -20 -20t-27.5 -20t-34.5 -15t-41 -6q-30 0 -53 8t-46 17q-26 11 -52 18.5t-54 7.5q-26 0 -54.5 -9t-54.5 -29l-37 52q34 23 52.5 44t21.5 26q19 26 25 49.5t6 51.5q0 26 -5 48.5t-16 45.5h-98v50h75q-22 43 -31.5 77.5t-9.5 71.5q0 61 18 97t38 56
q21 21 45 33t48 18t45 7.5t35 1.5q39 0 83 -11t80 -48q33 -34 44.5 -77.5t11.5 -92.5h-73v7q0 12 -1 28.5t-5 34t-12 34.5t-23 32q-25 25 -55 31.5t-55 6.5q-27 0 -57 -7.5t-55 -33.5q-16 -17 -27.5 -43.5t-11.5 -62.5q0 -34 10.5 -71.5t36.5 -88.5h159v-50h-139
q6 -16 10.5 -36.5t4.5 -46.5q0 -25 -5 -46t-19 -46q-9 -16 -19 -29t-24 -25l2 -4q19 7 36 9.5t33 2.5q31 0 53 -7t45 -17q15 -7 34.5 -13.5t42.5 -6.5t43.5 9.5t43.5 32.5z" />
    <glyph glyph-name="currency" unicode="&#xa4;" horiz-adv-x="578" 
d="M84 173q-32 42 -42.5 84.5t-10.5 72.5t10 73.5t43 83.5l-87 88l46 46l87 -88q40 33 83.5 44.5t75.5 11.5q10 0 28 -1.5t39.5 -7t45.5 -17t46 -30.5l88 88l46 -46l-87 -88q29 -38 41 -78.5t12 -75.5q0 -38 -13 -80.5t-40 -79.5l87 -87l-46 -47l-88 88q-44 -36 -84.5 -45.5
t-72.5 -9.5q-56 0 -94.5 15.5t-66.5 39.5l-87 -88l-46 47zM86 330q0 -39 15 -76.5t44 -66.5q27 -28 65 -44.5t79 -16.5t79.5 16.5t64.5 42.5q25 25 42.5 63t17.5 83q0 38 -15 76t-45 68q-32 32 -70.5 45.5t-73.5 13.5q-38 0 -76 -15.5t-68 -45.5q-20 -20 -31.5 -40
t-17.5 -39t-8 -35.5t-2 -28.5z" />
    <glyph glyph-name="yen" unicode="&#xa5;" horiz-adv-x="578" 
d="M488 700h89l-252 -401v-21h115v-41h-115v-64h115v-41h-115v-132h-74v132h-115v41h115v64h-115v41h115v21l-250 401h89l198 -334z" />
    <glyph glyph-name="brokenbar" unicode="&#xa6;" horiz-adv-x="473" 
d="M267 206v-430h-61v430h61zM206 399v430h61v-430h-61z" />
    <glyph glyph-name="section" unicode="&#xa7;" horiz-adv-x="550" 
d="M372 559q-1 25 -5 47.5t-18 37.5q-16 17 -38 21.5t-39 4.5t-34.5 -3t-31.5 -17t-17.5 -30t-3.5 -27q0 -19 6 -34t21 -29q20 -18 47.5 -29t57.5 -25l45 -20q42 -19 63.5 -34t31.5 -25q25 -26 33.5 -54t8.5 -59q0 -36 -10 -64.5t-34 -54.5q-17 -18 -39 -31t-44 -20
q11 -4 24 -13t24 -26t14.5 -34t3.5 -35q0 -28 -8 -53.5t-31 -48.5q-28 -29 -59 -37t-63 -8q-30 0 -65.5 7.5t-63.5 35.5q-21 21 -34 57t-12 74h61q-1 -26 4.5 -49.5t22.5 -40.5q17 -18 40.5 -23t41.5 -5q29 0 47 7t29 18q8 8 15 22t7 37q0 15 -4.5 30t-18.5 29
q-17 17 -41.5 26.5t-62.5 25.5l-49 20q-38 16 -61 32.5t-36 29.5q-23 23 -34.5 50.5t-11.5 67.5q0 68 45 116q16 17 37 30t45 21q-5 3 -16.5 12t-22.5 24q-23 32 -23 73q0 32 9.5 55.5t25.5 40.5q26 28 59 36t62 8q48 0 77.5 -13t44.5 -28q13 -13 21 -29.5t12 -34t5 -33.5
t1 -29h-61zM316 144q20 5 42 17t37 27q20 21 27 44t7 46q0 24 -7 45t-26 40q-5 5 -14.5 12.5t-28 17.5t-48 23t-74.5 29q-21 -5 -42.5 -15.5t-38.5 -27.5q-17 -18 -23.5 -38.5t-6.5 -44.5q0 -19 5 -38.5t20 -39.5q4 -6 14 -15.5t29.5 -22.5t50.5 -28t77 -31z" />
    <glyph glyph-name="dieresis" unicode="&#xa8;" horiz-adv-x="370" 
d="M48 700h72v-84h-72v84zM251 700h71v-84h-71v84z" />
    <glyph glyph-name="copyright" unicode="&#xa9;" horiz-adv-x="796" 
d="M546 297q-4 -25 -15.5 -51t-34.5 -45t-48 -24t-46 -5q-42 0 -71 12.5t-48 32.5q-20 20 -33.5 54t-13.5 85q0 59 16 92t31 48t42 29t71 14q27 0 57 -8t50 -27q14 -13 24 -33.5t12 -46.5h-55q0 18 -6.5 30t-13.5 19q-8 9 -24 16t-42 7q-15 0 -33.5 -4.5t-35.5 -21.5
q-22 -22 -28.5 -54.5t-6.5 -59.5q0 -38 10.5 -67t25.5 -45q12 -12 30.5 -20.5t44.5 -8.5q15 0 31 5t30 20q10 11 15.5 26t7.5 31h57zM398 700q72 0 136 -28t108 -70q45 -44 75.5 -110t30.5 -142q0 -16 -3 -44t-14 -62.5t-33 -73t-60 -74.5q-30 -29 -62 -47.5t-63 -29
t-60.5 -15t-54.5 -4.5q-63 0 -126 23.5t-114 71.5q-59 55 -84.5 124t-25.5 133q0 75 30.5 140.5t79.5 112.5q51 48 114.5 71.5t125.5 23.5zM398 657q-53 0 -106 -20.5t-94 -59.5q-43 -42 -69 -102t-26 -126q0 -21 3.5 -48t14 -56.5t29 -60t48.5 -59.5q49 -48 102 -65t98 -17
q54 0 106.5 20.5t92.5 58.5q45 42 70.5 103t25.5 125q0 65 -26 125t-69 102q-41 39 -94 59.5t-106 20.5z" />
    <glyph glyph-name="ordfeminine" unicode="&#xaa;" horiz-adv-x="354" 
d="M52 619q0 13 5 33t22 37q19 19 44 25.5t52 6.5q38 0 57.5 -8t26.5 -13q24 -17 30.5 -38.5t5.5 -43.5l-3 -144q0 -9 1 -18t6 -13q4 -3 11 -4t11 -1h3v-34q-5 -1 -10.5 -1.5t-13.5 -0.5q-10 0 -20 1.5t-18 9.5q-7 6 -9 14.5t-3 18.5q-6 -10 -15.5 -19.5t-23.5 -17.5
q-17 -9 -35 -12.5t-35 -3.5q-15 0 -37 4t-39 21q-11 11 -18 27.5t-7 38.5q0 16 5.5 31.5t19.5 29.5q19 17 43 22.5t44 7.5l35 4q14 2 28 3.5t23 9.5q7 7 8.5 14.5t1.5 14.5q0 11 -2.5 24t-14.5 24t-28.5 14.5t-30.5 3.5t-28.5 -2.5t-26.5 -12.5q-13 -11 -17 -24.5t-4 -28.5
h-44zM247 561q-6 -5 -11 -7t-12 -4q-23 -5 -36.5 -5.5t-35.5 -2.5q-13 -2 -26 -5.5t-23 -13.5q-5 -6 -10 -15.5t-5 -24.5q0 -16 5 -25.5t10 -14.5q11 -11 24.5 -13.5t23.5 -2.5q17 0 34.5 5t32.5 21t21 37t7 44zM35 354h289v-31h-289v31z" />
    <glyph glyph-name="guillemotleft" unicode="&#xab;" horiz-adv-x="458" 
d="M209 178v-68l-149 131v65l149 131v-68l-112 -96zM385 178v-68l-149 131v65l149 131v-68l-112 -96z" />
    <glyph glyph-name="logicalnot" unicode="&#xac;" horiz-adv-x="597" 
d="M549 378v-193h-53v139h-448v54h501z" />
    <glyph glyph-name="uni00AD" unicode="&#xad;" horiz-adv-x="408" 
d="M68 294h272v-54h-272v54z" />
    <glyph glyph-name="registered" unicode="&#xae;" horiz-adv-x="796" 
d="M270 528h153q7 0 18 -0.5t24 -3.5t25.5 -8.5t23.5 -15.5q8 -8 17 -24.5t9 -44.5q0 -18 -5 -32t-14 -26q-5 -7 -15 -15t-25 -13v-2q10 -2 18 -7t13 -10q12 -12 14.5 -26.5t3.5 -31.5l2 -43q1 -11 3 -22t10 -25h-58q-8 12 -9 21t-2 20l-2 39q-1 11 -3 24.5t-11 23.5
q-8 9 -22.5 13t-29.5 4h-82v-145h-56v350zM326 365h84q9 0 27 3t30 16q8 8 12 20t4 24q0 14 -4.5 23.5t-9.5 15.5q-11 11 -27 15t-35 4h-81v-121zM103 349q0 -21 3.5 -48t14 -56.5t29 -60t48.5 -59.5q49 -48 102 -65t98 -17q54 0 106.5 20.5t92.5 58.5q45 42 70.5 103
t25.5 125q0 65 -26 125t-69 102q-41 39 -94 59.5t-106 20.5t-106 -20.5t-94 -59.5q-43 -42 -69 -102t-26 -126zM48 352q0 75 30.5 140.5t79.5 112.5q51 48 114.5 71.5t125.5 23.5q72 0 136 -28t108 -70q45 -44 75.5 -110t30.5 -142q0 -16 -3 -44t-14 -62.5t-33 -73
t-60 -74.5q-30 -29 -62 -47.5t-63 -29t-60.5 -15t-54.5 -4.5q-63 0 -126 23.5t-114 71.5q-59 55 -84.5 124t-25.5 133z" />
    <glyph glyph-name="macron" unicode="&#xaf;" horiz-adv-x="405" 
d="M48 666h309v-46h-309v46z" />
    <glyph glyph-name="degree" unicode="&#xb0;" horiz-adv-x="260" 
d="M74 605q0 -23 16.5 -39.5t39.5 -16.5t39.5 16.5t16.5 39.5t-16.5 39.5t-39.5 16.5t-39.5 -16.5t-16.5 -39.5zM35 605q0 19 7.5 36.5t20.5 30.5t30 20.5t37 7.5q19 0 36.5 -7.5t30.5 -20.5t20.5 -30.5t7.5 -36.5q0 -20 -7.5 -37t-20.5 -30t-30.5 -20.5t-36.5 -7.5
q-20 0 -37 7.5t-30 20.5t-20.5 30t-7.5 37z" />
    <glyph glyph-name="plusminus" unicode="&#xb1;" horiz-adv-x="598" 
d="M272 447v204h54v-204h224v-54h-224v-185h-54v185h-224v54h224zM550 133v-54h-502v54h502z" />
    <glyph glyph-name="twosuperior" unicode="&#xb2;" horiz-adv-x="367" 
d="M322 280h-277q0 48 16.5 78t33.5 47q13 13 32.5 27.5t55.5 38.5q20 14 33 23t23 19q18 17 24 34.5t6 40.5q0 14 -4 31t-18 31q-7 7 -22.5 14t-43.5 7q-14 0 -31 -4t-31 -19t-17.5 -34t-3.5 -39v-5h-51v4q0 23 4.5 40.5t10.5 30.5t12 20.5t10 11.5q14 14 38.5 25t65.5 11
q22 0 49.5 -6.5t50.5 -29.5q13 -13 23.5 -34t10.5 -53q0 -29 -9.5 -55t-34.5 -50q-14 -14 -35.5 -29t-54.5 -37q-23 -16 -37.5 -26t-24.5 -20q-11 -12 -17 -24.5t-8 -26.5h221v-42z" />
    <glyph glyph-name="threesuperior" unicode="&#xb3;" horiz-adv-x="366" 
d="M90 404q0 -19 6 -37.5t19 -32.5q14 -14 30 -19.5t35 -5.5q26 0 41.5 6t24.5 14q19 16 23 36.5t4 33.5q0 12 -3 27.5t-17 29.5q-15 15 -33.5 18.5t-32.5 3.5h-32v42h23q26 0 41.5 7t23.5 15t13.5 21t5.5 34q0 20 -6 33.5t-14 21.5q-12 12 -26.5 15.5t-28.5 3.5
q-15 0 -32.5 -3.5t-32.5 -18.5q-14 -14 -18 -32t-5 -41h-49q0 20 6 49.5t28 52.5q14 14 38 24.5t61 10.5q39 0 62.5 -11t35.5 -23q20 -19 25.5 -40.5t5.5 -38.5q0 -18 -5 -37t-23 -36q-8 -8 -18 -13.5t-21 -9.5v-3q17 -2 30 -9t22 -16t18.5 -27.5t9.5 -49.5q0 -33 -11 -57
t-25 -38q-20 -20 -49 -28.5t-59 -8.5q-38 0 -63.5 10.5t-41.5 26.5q-18 18 -26 43t-10 57h50z" />
    <glyph glyph-name="acute" unicode="&#xb4;" horiz-adv-x="288" 
d="M248 700l-95 -132h-61l70 132h86z" />
    <glyph glyph-name="mu" unicode="&#xb5;" horiz-adv-x="565" 
d="M145 -185h-68v693h68v-299q0 -42 7.5 -73.5t34.5 -59.5q21 -21 43.5 -29.5t45.5 -8.5q50 0 86 36q29 29 36 62t7 74v298h69v-398q0 -12 1.5 -28t10.5 -24q15 -13 41 -8v-50q-12 -2 -22 -3t-21 -1q-14 0 -30 2.5t-29 15.5q-8 8 -14 21.5t-6 30.5q-9 -18 -22 -34t-26 -26
q-18 -14 -39 -20t-44 -6q-21 0 -40 5t-38 18q-16 11 -29 25t-22 28v-241z" />
    <glyph glyph-name="paragraph" unicode="&#xb6;" horiz-adv-x="448" 
d="M194 387q-40 2 -70 17t-48 35q-17 18 -27.5 44t-10.5 61q0 37 12 65t31 47q15 15 31 23.5t32.5 13t32 6t28.5 1.5h40v-885h-51v572zM332 700h51v-885h-51v885z" />
    <glyph glyph-name="periodcentered" unicode="&#xb7;" horiz-adv-x="296" 
d="M108 315h80v-95h-80v95z" />
    <glyph glyph-name="cedilla" unicode="&#xb8;" horiz-adv-x="294" 
d="M55 -187q15 -5 29.5 -6.5t28.5 -1.5q22 0 43 3t32 15q5 5 8 14t3 17q0 11 -4 18.5t-9 11.5q-11 10 -31.5 13t-40.5 3h-31l12 42h28q38 0 67.5 -5.5t48.5 -24.5q21 -21 21 -53q0 -23 -7 -40.5t-18 -28.5q-19 -19 -48.5 -24.5t-62.5 -5.5q-22 0 -42.5 2t-40.5 6z" />
    <glyph glyph-name="onesuperior" unicode="&#xb9;" horiz-adv-x="363" 
d="M78 625h6q16 0 35.5 3t36.5 17q11 8 20.5 22.5t13.5 32.5h35v-420h-52v320h-95v25z" />
    <glyph glyph-name="ordmasculine" unicode="&#xba;" horiz-adv-x="382" 
d="M41 354h300v-31h-300v31zM191 687q-17 0 -33.5 -4t-31.5 -18q-17 -15 -26.5 -42.5t-9.5 -65.5q0 -36 8.5 -63.5t25.5 -43.5q14 -14 31.5 -19t35.5 -5t35.5 5t31.5 19q17 16 25.5 43.5t8.5 63.5q0 38 -9.5 65.5t-26.5 42.5q-15 14 -31.5 18t-33.5 4zM191 392
q-26 0 -51 5.5t-49 27.5q-15 14 -25 31t-15.5 35t-7.5 35.5t-2 31.5q0 28 8.5 64t38.5 63q25 23 52.5 29.5t50.5 6.5t50.5 -6.5t52.5 -29.5q30 -27 38.5 -63t8.5 -64q0 -14 -2 -31.5t-7.5 -35.5t-15.5 -35t-25 -31q-24 -22 -49 -27.5t-51 -5.5z" />
    <glyph glyph-name="guillemotright" unicode="&#xbb;" horiz-adv-x="458" 
d="M249 369v68l149 -131v-65l-149 -131v68l113 95zM73 369v68l149 -131v-65l-149 -131v68l113 95z" />
    <glyph glyph-name="onequarter" unicode="&#xbc;" horiz-adv-x="780" 
d="M438 95v37l190 288h54v-283h69v-42h-69v-95h-52v95h-192zM630 137v208l-138 -208h138zM614 700h52l-464 -700h-52zM78 625h6q16 0 35.5 3t36.5 17q11 8 20.5 22.5t13.5 32.5h35v-420h-52v320h-95v25z" />
    <glyph glyph-name="onehalf" unicode="&#xbd;" horiz-adv-x="776" 
d="M574 700h52l-464 -700h-52zM78 625h6q16 0 35.5 3t36.5 17q11 8 20.5 22.5t13.5 32.5h35v-420h-52v320h-95v25zM732 0h-277q0 48 16.5 78t33.5 47q13 13 32.5 27.5t55.5 38.5q20 14 33 23t23 19q18 17 24 34.5t6 40.5q0 14 -4 31t-18 31q-7 7 -22.5 14t-43.5 7
q-14 0 -31 -4t-31 -19t-17.5 -34t-3.5 -39v-5h-51v4q0 23 4.5 40.5t10.5 30.5t12 20.5t10 11.5q14 14 38.5 25t65.5 11q22 0 49.5 -6.5t50.5 -29.5q13 -13 23.5 -34t10.5 -53q0 -29 -9.5 -55t-34.5 -50q-14 -14 -35.5 -29t-54.5 -37q-23 -16 -37.5 -26t-24.5 -20
q-11 -12 -17 -24.5t-8 -26.5h221v-42z" />
    <glyph glyph-name="threequarters" unicode="&#xbe;" horiz-adv-x="776" 
d="M438 95v37l190 288h54v-283h69v-42h-69v-95h-52v95h-192zM630 137v208l-138 -208h138zM634 700h52l-464 -700h-52zM90 404q0 -19 6 -37.5t19 -32.5q14 -14 30 -19.5t35 -5.5q26 0 41.5 6t24.5 14q19 16 23 36.5t4 33.5q0 12 -3 27.5t-17 29.5q-15 15 -33.5 18.5
t-32.5 3.5h-32v42h23q26 0 41.5 7t23.5 15t13.5 21t5.5 34q0 20 -6 33.5t-14 21.5q-12 12 -26.5 15.5t-28.5 3.5q-15 0 -32.5 -3.5t-32.5 -18.5q-14 -14 -18 -32t-5 -41h-49q0 20 6 49.5t28 52.5q14 14 38 24.5t61 10.5q39 0 62.5 -11t35.5 -23q20 -19 25.5 -40.5t5.5 -38.5
q0 -18 -5 -37t-23 -36q-8 -8 -18 -13.5t-21 -9.5v-3q17 -2 30 -9t22 -16t18.5 -27.5t9.5 -49.5q0 -33 -11 -57t-25 -38q-20 -20 -49 -28.5t-59 -8.5q-38 0 -63.5 10.5t-41.5 26.5q-18 18 -26 43t-10 57h50z" />
    <glyph glyph-name="questiondown" unicode="&#xbf;" horiz-adv-x="554" 
d="M320 414h-80v94h80v-94zM490 20q2 -65 -15 -106.5t-43 -67.5q-19 -19 -41 -30t-43.5 -16.5t-41 -7t-34.5 -1.5q-36 0 -79 10t-78 43q-8 7 -16.5 18.5t-16.5 27.5t-13 37t-5 47q0 51 18 85t48 61l42 38q35 32 47 46.5t14 18.5q7 11 12.5 29t5.5 44v20h58v-17
q0 -25 -2.5 -48t-16.5 -49q-10 -17 -25.5 -35.5t-28.5 -30.5l-39 -36q-10 -9 -21 -21.5t-20 -29t-15 -36t-6 -42.5q0 -25 9.5 -47t25.5 -38q24 -24 52.5 -30t51.5 -6q25 0 51 5.5t50 28.5q7 6 15 16.5t15 27t11 39t3 53.5h71z" />
    <glyph glyph-name="Agrave" unicode="&#xc0;" 
d="M81 0h-80l266 700h83l266 -700h-81l-74 201h-305zM439 264l-131 365l-131 -365h262zM355 760h-65l-100 140h92z" />
    <glyph glyph-name="Aacute" unicode="&#xc1;" 
d="M81 0h-80l266 700h83l266 -700h-81l-74 201h-305zM439 264l-131 365l-131 -365h262zM426 900l-99 -140h-65l72 140h92z" />
    <glyph glyph-name="Acircumflex" unicode="&#xc2;" 
d="M81 0h-80l266 700h83l266 -700h-81l-74 201h-305zM439 264l-131 365l-131 -365h262zM366 900l119 -132h-68l-109 105l-108 -105h-68l119 132h115z" />
    <glyph glyph-name="Atilde" unicode="&#xc3;" 
d="M81 0h-80l266 700h83l266 -700h-81l-74 201h-305zM439 264l-131 365l-131 -365h262zM494 860q-5 -19 -15.5 -41t-24.5 -36q-25 -25 -61 -25q-29 0 -47.5 7t-36.5 19l-24 16q-14 9 -25.5 15t-34.5 6q-9 0 -19 -3t-18 -11q-7 -8 -11 -19t-5 -20h-50q8 43 35 70q14 14 31 22
t41 8q23 0 40 -6t34 -18l24 -17q11 -8 26.5 -15t36.5 -7q19 0 32 13q13 12 17 25t5 17h50z" />
    <glyph glyph-name="Adieresis" unicode="&#xc4;" 
d="M81 0h-80l266 700h83l266 -700h-81l-74 201h-305zM439 264l-131 365l-131 -365h262zM163 846h75v-74h-75v74zM367 846h75v-74h-75v74z" />
    <glyph glyph-name="Aring" unicode="&#xc5;" 
d="M81 0h-80l266 700h83l266 -700h-81l-74 201h-305zM439 264l-131 365l-131 -365h262zM210 832q0 41 28.5 69.5t69.5 28.5t69.5 -28.5t28.5 -69.5t-28.5 -69.5t-69.5 -28.5t-69.5 28.5t-28.5 69.5zM246 832q0 -9 4 -20t11.5 -20.5t19 -15.5t27.5 -6q26 0 44 18t18 44
t-18 44t-44 18q-16 0 -27.5 -6t-19 -15.5t-11.5 -20.5t-4 -20z" />
    <glyph glyph-name="AE" unicode="&#xc6;" horiz-adv-x="967" 
d="M450 197h-255l-108 -197h-89l390 700h546v-63h-410v-243h374v-63h-374v-268h421v-63h-495v197zM450 637h-18l-204 -377h222v377z" />
    <glyph glyph-name="Ccedilla" unicode="&#xc7;" horiz-adv-x="729" 
d="M681 228q-6 -51 -27 -96.5t-54 -78.5q-24 -24 -50.5 -39t-53.5 -22.5t-54 -10t-53 -2.5q-27 0 -56 3t-58 12.5t-58 26.5t-56 45t-45.5 62t-30 71t-16.5 75.5t-5 76.5q0 36 4.5 74.5t16 76t30 72t47.5 62.5q35 34 89 59.5t135 25.5q28 0 58 -4t59 -13t55 -23t47 -34
q26 -26 45.5 -66.5t22.5 -90.5h-75q-3 35 -17 63.5t-33 48.5q-21 22 -58.5 39t-97.5 17q-42 0 -85 -11.5t-82 -49.5q-42 -41 -62 -101t-20 -134q0 -35 4.5 -70.5t15 -69.5t26.5 -64t40 -53q23 -23 63.5 -43t101.5 -20q57 0 94 18t57 37q7 7 17 18.5t19 28t16 37.5t9 47h75z
M285 -187q15 -5 29.5 -6.5t28.5 -1.5q22 0 43 3t32 15q5 5 8 14t3 17q0 11 -4 18.5t-9 11.5q-11 10 -31.5 13t-40.5 3h-31l12 42h28q38 0 67.5 -5.5t48.5 -24.5q21 -21 21 -53q0 -23 -7 -40.5t-18 -28.5q-19 -19 -48.5 -24.5t-62.5 -5.5q-22 0 -42.5 2t-40.5 6z" />
    <glyph glyph-name="Egrave" unicode="&#xc8;" horiz-adv-x="607" 
d="M538 394v-63h-374v-268h421v-63h-495v700h483v-63h-409v-243h374zM390 760h-65l-100 140h92z" />
    <glyph glyph-name="Eacute" unicode="&#xc9;" horiz-adv-x="607" 
d="M538 394v-63h-374v-268h421v-63h-495v700h483v-63h-409v-243h374zM441 900l-99 -140h-65l72 140h92z" />
    <glyph glyph-name="Ecircumflex" unicode="&#xca;" horiz-adv-x="607" 
d="M538 394v-63h-374v-268h421v-63h-495v700h483v-63h-409v-243h374zM392 900l119 -132h-68l-109 105l-108 -105h-68l119 132h115z" />
    <glyph glyph-name="Edieresis" unicode="&#xcb;" horiz-adv-x="607" 
d="M538 394v-63h-374v-268h421v-63h-495v700h483v-63h-409v-243h374zM198 846h75v-74h-75v74zM402 846h75v-74h-75v74z" />
    <glyph glyph-name="Igrave" unicode="&#xcc;" horiz-adv-x="254" 
d="M164 700v-700h-74v700h74zM175 760h-65l-100 140h92z" />
    <glyph glyph-name="Iacute" unicode="&#xcd;" horiz-adv-x="254" 
d="M164 700v-700h-74v700h74zM243 900l-99 -140h-65l72 140h92z" />
    <glyph glyph-name="Icircumflex" unicode="&#xce;" horiz-adv-x="254" 
d="M164 700v-700h-74v700h74zM187 900l119 -132h-68l-109 105l-108 -105h-68l119 132h115z" />
    <glyph glyph-name="Idieresis" unicode="&#xcf;" horiz-adv-x="254" 
d="M164 700v-700h-74v700h74zM-9 846h75v-74h-75v74zM195 846h75v-74h-75v74z" />
    <glyph glyph-name="Eth" unicode="&#xd0;" horiz-adv-x="718" 
d="M337 700q27 0 56.5 -2t59.5 -10t59.5 -23.5t57.5 -41.5q18 -18 35.5 -42.5t31 -58t22 -76t8.5 -94.5q0 -97 -27 -167t-72 -111q-26 -24 -55.5 -38.5t-60.5 -22.5t-63 -10.5t-62 -2.5h-236v372h-93v50h93v278h246zM165 422h199v-50h-199v-309h139q21 0 47.5 1t54.5 7.5
t56 19.5t52 37q36 36 54.5 94.5t18.5 127.5q0 72 -19.5 130t-57.5 95q-21 21 -43.5 33t-45.5 18.5t-45 8.5t-41 2h-170v-215z" />
    <glyph glyph-name="Ntilde" unicode="&#xd1;" horiz-adv-x="732" 
d="M164 0h-74v700h85l393 -589v589h74v-700h-84l-394 589v-589zM552 860q-5 -19 -15.5 -41t-24.5 -36q-25 -25 -61 -25q-29 0 -47.5 7t-36.5 19l-24 16q-14 9 -25.5 15t-34.5 6q-9 0 -19 -3t-18 -11q-7 -8 -11 -19t-5 -20h-50q8 43 35 70q14 14 31 22t41 8q23 0 40 -6
t34 -18l24 -17q11 -8 26.5 -15t36.5 -7q19 0 32 13q13 12 17 25t5 17h50z" />
    <glyph glyph-name="Ograve" unicode="&#xd2;" horiz-adv-x="786" 
d="M390 721q42 0 76.5 -7t62.5 -18.5t49.5 -25.5t37.5 -29q18 -17 37 -42t34 -60.5t25 -82t10 -106.5q0 -58 -9.5 -104.5t-24.5 -82.5t-33.5 -62t-36.5 -43q-26 -25 -54 -40.5t-57 -24t-57.5 -11.5t-54.5 -3q-89 0 -144.5 25t-86.5 56q-8 7 -24.5 28t-33 56t-29.5 86
t-13 120q0 52 8.5 96t22.5 80t32.5 64t38.5 48q13 13 33 27.5t47.5 27t63 20.5t80.5 8zM394 658q-64 0 -103 -19t-60 -38q-35 -32 -62 -95t-27 -160q0 -78 20.5 -139t57.5 -99q26 -26 69.5 -46t104.5 -20q64 0 105 21t66 46q35 35 57 93t22 146q0 50 -7.5 90t-20 71t-29 54
t-33.5 39q-38 35 -80 45.5t-80 10.5zM449 760h-65l-100 140h92z" />
    <glyph glyph-name="Oacute" unicode="&#xd3;" horiz-adv-x="786" 
d="M390 721q42 0 76.5 -7t62.5 -18.5t49.5 -25.5t37.5 -29q18 -17 37 -42t34 -60.5t25 -82t10 -106.5q0 -58 -9.5 -104.5t-24.5 -82.5t-33.5 -62t-36.5 -43q-26 -25 -54 -40.5t-57 -24t-57.5 -11.5t-54.5 -3q-89 0 -144.5 25t-86.5 56q-8 7 -24.5 28t-33 56t-29.5 86
t-13 120q0 52 8.5 96t22.5 80t32.5 64t38.5 48q13 13 33 27.5t47.5 27t63 20.5t80.5 8zM394 658q-64 0 -103 -19t-60 -38q-35 -32 -62 -95t-27 -160q0 -78 20.5 -139t57.5 -99q26 -26 69.5 -46t104.5 -20q64 0 105 21t66 46q35 35 57 93t22 146q0 50 -7.5 90t-20 71t-29 54
t-33.5 39q-38 35 -80 45.5t-80 10.5zM521 900l-99 -140h-65l72 140h92z" />
    <glyph glyph-name="Ocircumflex" unicode="&#xd4;" horiz-adv-x="786" 
d="M390 721q42 0 76.5 -7t62.5 -18.5t49.5 -25.5t37.5 -29q18 -17 37 -42t34 -60.5t25 -82t10 -106.5q0 -58 -9.5 -104.5t-24.5 -82.5t-33.5 -62t-36.5 -43q-26 -25 -54 -40.5t-57 -24t-57.5 -11.5t-54.5 -3q-89 0 -144.5 25t-86.5 56q-8 7 -24.5 28t-33 56t-29.5 86
t-13 120q0 52 8.5 96t22.5 80t32.5 64t38.5 48q13 13 33 27.5t47.5 27t63 20.5t80.5 8zM394 658q-64 0 -103 -19t-60 -38q-35 -32 -62 -95t-27 -160q0 -78 20.5 -139t57.5 -99q26 -26 69.5 -46t104.5 -20q64 0 105 21t66 46q35 35 57 93t22 146q0 50 -7.5 90t-20 71t-29 54
t-33.5 39q-38 35 -80 45.5t-80 10.5zM450 900l119 -132h-68l-109 105l-108 -105h-68l119 132h115z" />
    <glyph glyph-name="Otilde" unicode="&#xd5;" horiz-adv-x="786" 
d="M390 721q42 0 76.5 -7t62.5 -18.5t49.5 -25.5t37.5 -29q18 -17 37 -42t34 -60.5t25 -82t10 -106.5q0 -58 -9.5 -104.5t-24.5 -82.5t-33.5 -62t-36.5 -43q-26 -25 -54 -40.5t-57 -24t-57.5 -11.5t-54.5 -3q-89 0 -144.5 25t-86.5 56q-8 7 -24.5 28t-33 56t-29.5 86
t-13 120q0 52 8.5 96t22.5 80t32.5 64t38.5 48q13 13 33 27.5t47.5 27t63 20.5t80.5 8zM394 658q-64 0 -103 -19t-60 -38q-35 -32 -62 -95t-27 -160q0 -78 20.5 -139t57.5 -99q26 -26 69.5 -46t104.5 -20q64 0 105 21t66 46q35 35 57 93t22 146q0 50 -7.5 90t-20 71t-29 54
t-33.5 39q-38 35 -80 45.5t-80 10.5zM580 860q-5 -19 -15.5 -41t-24.5 -36q-25 -25 -61 -25q-29 0 -47.5 7t-36.5 19l-24 16q-14 9 -25.5 15t-34.5 6q-9 0 -19 -3t-18 -11q-7 -8 -11 -19t-5 -20h-50q8 43 35 70q14 14 31 22t41 8q23 0 40 -6t34 -18l24 -17q11 -8 26.5 -15
t36.5 -7q19 0 32 13q13 12 17 25t5 17h50z" />
    <glyph glyph-name="Odieresis" unicode="&#xd6;" horiz-adv-x="786" 
d="M390 721q42 0 76.5 -7t62.5 -18.5t49.5 -25.5t37.5 -29q18 -17 37 -42t34 -60.5t25 -82t10 -106.5q0 -58 -9.5 -104.5t-24.5 -82.5t-33.5 -62t-36.5 -43q-26 -25 -54 -40.5t-57 -24t-57.5 -11.5t-54.5 -3q-89 0 -144.5 25t-86.5 56q-8 7 -24.5 28t-33 56t-29.5 86
t-13 120q0 52 8.5 96t22.5 80t32.5 64t38.5 48q13 13 33 27.5t47.5 27t63 20.5t80.5 8zM394 658q-64 0 -103 -19t-60 -38q-35 -32 -62 -95t-27 -160q0 -78 20.5 -139t57.5 -99q26 -26 69.5 -46t104.5 -20q64 0 105 21t66 46q35 35 57 93t22 146q0 50 -7.5 90t-20 71t-29 54
t-33.5 39q-38 35 -80 45.5t-80 10.5zM258 846h75v-74h-75v74zM462 846h75v-74h-75v74z" />
    <glyph glyph-name="multiply" unicode="&#xd7;" horiz-adv-x="598" 
d="M299 393l187 187l38 -38l-187 -187l187 -187l-38 -38l-187 187l-187 -187l-38 38l187 187l-187 187l38 38z" />
    <glyph glyph-name="Oslash" unicode="&#xd8;" horiz-adv-x="784" 
d="M138 91q-9 12 -21.5 32.5t-24.5 52t-20.5 75t-8.5 100.5q0 30 4.5 67t15.5 75.5t31 76t51 67.5q16 15 37 30t49 27t62.5 19.5t76.5 7.5q72 0 123 -19.5t93 -51.5l81 97l40 -30l-86 -103q13 -17 27.5 -41.5t26 -57.5t19 -76.5t7.5 -98.5q0 -100 -29.5 -170t-73.5 -112
q-26 -24 -54.5 -39.5t-58.5 -24.5t-60 -12t-58 -3q-66 0 -116.5 16.5t-98.5 58.5l-96 -115l-38 32zM560 596q-36 34 -75 48t-91 14q-42 0 -83.5 -11.5t-79.5 -46.5q-45 -41 -67.5 -103.5t-22.5 -140.5q0 -63 12 -113t34 -94zM218 109q35 -33 76.5 -50t98.5 -17q63 0 104 20
t65 44q42 42 61.5 108.5t19.5 143.5q0 58 -12.5 105t-38.5 93z" />
    <glyph glyph-name="Ugrave" unicode="&#xd9;" horiz-adv-x="691" 
d="M151 700v-420q0 -23 1 -47.5t5.5 -48t13.5 -45t25 -38.5q24 -26 64.5 -41t85.5 -15q46 0 85 14t63 40q31 34 38.5 82t7.5 99v420h74v-428q0 -26 -1.5 -55.5t-9 -58.5t-22 -57.5t-40.5 -53.5q-23 -22 -47.5 -35t-50 -19.5t-50.5 -8.5t-48 -2q-42 0 -74 6t-56 15.5
t-40.5 20.5t-27.5 21q-22 21 -35.5 47t-21 55.5t-10.5 61t-3 63.5v428h74zM390 760h-65l-100 140h92z" />
    <glyph glyph-name="Uacute" unicode="&#xda;" horiz-adv-x="691" 
d="M151 700v-420q0 -23 1 -47.5t5.5 -48t13.5 -45t25 -38.5q24 -26 64.5 -41t85.5 -15q46 0 85 14t63 40q31 34 38.5 82t7.5 99v420h74v-428q0 -26 -1.5 -55.5t-9 -58.5t-22 -57.5t-40.5 -53.5q-23 -22 -47.5 -35t-50 -19.5t-50.5 -8.5t-48 -2q-42 0 -74 6t-56 15.5
t-40.5 20.5t-27.5 21q-22 21 -35.5 47t-21 55.5t-10.5 61t-3 63.5v428h74zM461 900l-99 -140h-65l72 140h92z" />
    <glyph glyph-name="Ucircumflex" unicode="&#xdb;" horiz-adv-x="691" 
d="M151 700v-420q0 -23 1 -47.5t5.5 -48t13.5 -45t25 -38.5q24 -26 64.5 -41t85.5 -15q46 0 85 14t63 40q31 34 38.5 82t7.5 99v420h74v-428q0 -26 -1.5 -55.5t-9 -58.5t-22 -57.5t-40.5 -53.5q-23 -22 -47.5 -35t-50 -19.5t-50.5 -8.5t-48 -2q-42 0 -74 6t-56 15.5
t-40.5 20.5t-27.5 21q-22 21 -35.5 47t-21 55.5t-10.5 61t-3 63.5v428h74zM402 900l119 -132h-68l-109 105l-108 -105h-68l119 132h115z" />
    <glyph glyph-name="Udieresis" unicode="&#xdc;" horiz-adv-x="691" 
d="M151 700v-420q0 -23 1 -47.5t5.5 -48t13.5 -45t25 -38.5q24 -26 64.5 -41t85.5 -15q46 0 85 14t63 40q31 34 38.5 82t7.5 99v420h74v-428q0 -26 -1.5 -55.5t-9 -58.5t-22 -57.5t-40.5 -53.5q-23 -22 -47.5 -35t-50 -19.5t-50.5 -8.5t-48 -2q-42 0 -74 6t-56 15.5
t-40.5 20.5t-27.5 21q-22 21 -35.5 47t-21 55.5t-10.5 61t-3 63.5v428h74zM206 846h75v-74h-75v74zM410 846h75v-74h-75v74z" />
    <glyph glyph-name="Yacute" unicode="&#xdd;" horiz-adv-x="599" 
d="M509 700h88l-260 -401v-299h-74v299l-261 401h89l209 -334zM421 900l-99 -140h-65l72 140h92z" />
    <glyph glyph-name="Thorn" unicode="&#xde;" horiz-adv-x="633" 
d="M164 700v-134h198q19 0 40.5 -0.5t43.5 -5t44 -14t42 -26.5q22 -19 42.5 -56t20.5 -98q0 -55 -16.5 -92.5t-40.5 -60.5q-21 -20 -45.5 -31t-49 -16.5t-46.5 -6.5t-37 -1h-196v-158h-74v700h74zM164 221h183q14 0 30.5 1t33.5 4t33 9t29 17q18 14 32 41t14 70
q0 42 -14.5 70.5t-33.5 42.5q-24 18 -58 22.5t-66 4.5h-183v-282z" />
    <glyph glyph-name="germandbls" unicode="&#xdf;" horiz-adv-x="559" 
d="M77 459q0 25 1 51t6 51.5t15.5 49t30.5 44.5q18 19 38.5 29.5t40.5 15.5t38.5 6.5t33.5 1.5q32 0 69.5 -8.5t66.5 -37.5q16 -16 29.5 -44.5t13.5 -73.5q0 -26 -6.5 -51.5t-20.5 -45.5q-14 -22 -31.5 -33t-36.5 -16v-3q25 -5 49 -17t43 -30q33 -32 42 -70t9 -70
q0 -62 -19.5 -101.5t-41.5 -60.5q-36 -36 -76 -44.5t-74 -8.5q-20 0 -38 2t-35 5v52q13 -4 26.5 -6t30.5 -2q26 0 56.5 6.5t55.5 32.5q22 22 33 57t11 70q0 38 -12.5 68t-32.5 48q-15 13 -33 20t-37 11t-37.5 5t-33.5 1h-27v50l30 -1q39 -2 63 7.5t38 21.5q13 11 24 34
t11 61q0 16 -4.5 42.5t-26.5 48.5q-20 20 -44 25t-41 5q-26 0 -48 -6.5t-41 -24.5q-28 -28 -34 -67.5t-6 -90.5v-468h-68v459z" />
    <glyph glyph-name="agrave" unicode="&#xe0;" horiz-adv-x="552" 
d="M65 362q0 14 3 31t10.5 35t20 34.5t32.5 30.5q17 12 36.5 18.5t39 10.5t37 5t30.5 1q16 0 35 -1.5t39 -6.5t39.5 -14t35.5 -25q29 -29 35.5 -60.5t5.5 -58.5l-6 -253q0 -12 1 -25t9 -22q17 -20 46 -12v-50q-7 -2 -16.5 -3t-20.5 -1q-12 0 -28.5 2.5t-30.5 16.5
q-12 12 -17.5 30.5t-4.5 35.5q-15 -25 -33 -41t-33 -24q-33 -19 -67 -23.5t-52 -4.5q-29 0 -63.5 7.5t-61.5 33.5q-20 19 -31 47t-11 60q0 37 12.5 60.5t24.5 35.5q15 15 35.5 24.5t42.5 15.5t43.5 9.5t39.5 5.5l33 4q14 2 32.5 3.5t35.5 4.5q19 3 27.5 7t12.5 8
q8 9 10 23.5t2 25.5q0 19 -4.5 43t-26.5 44q-20 18 -46 23t-50 5q-23 0 -53 -5t-51 -26q-16 -16 -23.5 -39.5t-8.5 -45.5h-67zM393 269q-10 -9 -19 -12t-21 -5q-17 -3 -29 -5t-21.5 -3t-18.5 -1.5t-21 -1.5l-20 -2q-42 -5 -66 -14t-37 -21q-8 -8 -16 -25t-8 -44
q0 -21 7.5 -39t18.5 -29q18 -20 39.5 -24.5t40.5 -4.5q42 0 67.5 11t41.5 24q29 24 43.5 63t16.5 81zM331 568h-60l-96 132h86z" />
    <glyph glyph-name="aacute" unicode="&#xe1;" horiz-adv-x="552" 
d="M65 362q0 14 3 31t10.5 35t20 34.5t32.5 30.5q17 12 36.5 18.5t39 10.5t37 5t30.5 1q16 0 35 -1.5t39 -6.5t39.5 -14t35.5 -25q29 -29 35.5 -60.5t5.5 -58.5l-6 -253q0 -12 1 -25t9 -22q17 -20 46 -12v-50q-7 -2 -16.5 -3t-20.5 -1q-12 0 -28.5 2.5t-30.5 16.5
q-12 12 -17.5 30.5t-4.5 35.5q-15 -25 -33 -41t-33 -24q-33 -19 -67 -23.5t-52 -4.5q-29 0 -63.5 7.5t-61.5 33.5q-20 19 -31 47t-11 60q0 37 12.5 60.5t24.5 35.5q15 15 35.5 24.5t42.5 15.5t43.5 9.5t39.5 5.5l33 4q14 2 32.5 3.5t35.5 4.5q19 3 27.5 7t12.5 8
q8 9 10 23.5t2 25.5q0 19 -4.5 43t-26.5 44q-20 18 -46 23t-50 5q-23 0 -53 -5t-51 -26q-16 -16 -23.5 -39.5t-8.5 -45.5h-67zM393 269q-10 -9 -19 -12t-21 -5q-17 -3 -29 -5t-21.5 -3t-18.5 -1.5t-21 -1.5l-20 -2q-42 -5 -66 -14t-37 -21q-8 -8 -16 -25t-8 -44
q0 -21 7.5 -39t18.5 -29q18 -20 39.5 -24.5t40.5 -4.5q42 0 67.5 11t41.5 24q29 24 43.5 63t16.5 81zM383 700l-95 -132h-61l70 132h86z" />
    <glyph glyph-name="acircumflex" unicode="&#xe2;" horiz-adv-x="552" 
d="M65 362q0 14 3 31t10.5 35t20 34.5t32.5 30.5q17 12 36.5 18.5t39 10.5t37 5t30.5 1q16 0 35 -1.5t39 -6.5t39.5 -14t35.5 -25q29 -29 35.5 -60.5t5.5 -58.5l-6 -253q0 -12 1 -25t9 -22q17 -20 46 -12v-50q-7 -2 -16.5 -3t-20.5 -1q-12 0 -28.5 2.5t-30.5 16.5
q-12 12 -17.5 30.5t-4.5 35.5q-15 -25 -33 -41t-33 -24q-33 -19 -67 -23.5t-52 -4.5q-29 0 -63.5 7.5t-61.5 33.5q-20 19 -31 47t-11 60q0 37 12.5 60.5t24.5 35.5q15 15 35.5 24.5t42.5 15.5t43.5 9.5t39.5 5.5l33 4q14 2 32.5 3.5t35.5 4.5q19 3 27.5 7t12.5 8
q8 9 10 23.5t2 25.5q0 19 -4.5 43t-26.5 44q-20 18 -46 23t-50 5q-23 0 -53 -5t-51 -26q-16 -16 -23.5 -39.5t-8.5 -45.5h-67zM393 269q-10 -9 -19 -12t-21 -5q-17 -3 -29 -5t-21.5 -3t-18.5 -1.5t-21 -1.5l-20 -2q-42 -5 -66 -14t-37 -21q-8 -8 -16 -25t-8 -44
q0 -21 7.5 -39t18.5 -29q18 -20 39.5 -24.5t40.5 -4.5q42 0 67.5 11t41.5 24q29 24 43.5 63t16.5 81zM335 700l119 -132h-68l-109 105l-108 -105h-68l119 132h115z" />
    <glyph glyph-name="atilde" unicode="&#xe3;" horiz-adv-x="552" 
d="M65 362q0 14 3 31t10.5 35t20 34.5t32.5 30.5q17 12 36.5 18.5t39 10.5t37 5t30.5 1q16 0 35 -1.5t39 -6.5t39.5 -14t35.5 -25q29 -29 35.5 -60.5t5.5 -58.5l-6 -253q0 -12 1 -25t9 -22q17 -20 46 -12v-50q-7 -2 -16.5 -3t-20.5 -1q-12 0 -28.5 2.5t-30.5 16.5
q-12 12 -17.5 30.5t-4.5 35.5q-15 -25 -33 -41t-33 -24q-33 -19 -67 -23.5t-52 -4.5q-29 0 -63.5 7.5t-61.5 33.5q-20 19 -31 47t-11 60q0 37 12.5 60.5t24.5 35.5q15 15 35.5 24.5t42.5 15.5t43.5 9.5t39.5 5.5l33 4q14 2 32.5 3.5t35.5 4.5q19 3 27.5 7t12.5 8
q8 9 10 23.5t2 25.5q0 19 -4.5 43t-26.5 44q-20 18 -46 23t-50 5q-23 0 -53 -5t-51 -26q-16 -16 -23.5 -39.5t-8.5 -45.5h-67zM393 269q-10 -9 -19 -12t-21 -5q-17 -3 -29 -5t-21.5 -3t-18.5 -1.5t-21 -1.5l-20 -2q-42 -5 -66 -14t-37 -21q-8 -8 -16 -25t-8 -44
q0 -21 7.5 -39t18.5 -29q18 -20 39.5 -24.5t40.5 -4.5q42 0 67.5 11t41.5 24q29 24 43.5 63t16.5 81zM453 700q-5 -18 -15.5 -40.5t-24.5 -36.5q-25 -25 -61 -25q-26 0 -43.5 7t-35.5 19l-24 16q-14 9 -25 15t-30 6q-14 0 -23 -4.5t-14 -9.5q-6 -7 -10.5 -18t-6.5 -21h-49
q8 43 35 70q16 17 34 23.5t38 6.5q23 0 39 -7t30 -17l24 -17q8 -6 23.5 -14t34.5 -8q18 0 32 13q8 8 14 19.5t10 22.5h48z" />
    <glyph glyph-name="adieresis" unicode="&#xe4;" horiz-adv-x="552" 
d="M65 362q0 14 3 31t10.5 35t20 34.5t32.5 30.5q17 12 36.5 18.5t39 10.5t37 5t30.5 1q16 0 35 -1.5t39 -6.5t39.5 -14t35.5 -25q29 -29 35.5 -60.5t5.5 -58.5l-6 -253q0 -12 1 -25t9 -22q17 -20 46 -12v-50q-7 -2 -16.5 -3t-20.5 -1q-12 0 -28.5 2.5t-30.5 16.5
q-12 12 -17.5 30.5t-4.5 35.5q-15 -25 -33 -41t-33 -24q-33 -19 -67 -23.5t-52 -4.5q-29 0 -63.5 7.5t-61.5 33.5q-20 19 -31 47t-11 60q0 37 12.5 60.5t24.5 35.5q15 15 35.5 24.5t42.5 15.5t43.5 9.5t39.5 5.5l33 4q14 2 32.5 3.5t35.5 4.5q19 3 27.5 7t12.5 8
q8 9 10 23.5t2 25.5q0 19 -4.5 43t-26.5 44q-20 18 -46 23t-50 5q-23 0 -53 -5t-51 -26q-16 -16 -23.5 -39.5t-8.5 -45.5h-67zM393 269q-10 -9 -19 -12t-21 -5q-17 -3 -29 -5t-21.5 -3t-18.5 -1.5t-21 -1.5l-20 -2q-42 -5 -66 -14t-37 -21q-8 -8 -16 -25t-8 -44
q0 -21 7.5 -39t18.5 -29q18 -20 39.5 -24.5t40.5 -4.5q42 0 67.5 11t41.5 24q29 24 43.5 63t16.5 81zM137 700h72v-84h-72v84zM340 700h71v-84h-71v84z" />
    <glyph glyph-name="aring" unicode="&#xe5;" horiz-adv-x="552" 
d="M65 362q0 14 3 31t10.5 35t20 34.5t32.5 30.5q17 12 36.5 18.5t39 10.5t37 5t30.5 1q16 0 35 -1.5t39 -6.5t39.5 -14t35.5 -25q29 -29 35.5 -60.5t5.5 -58.5l-6 -253q0 -12 1 -25t9 -22q17 -20 46 -12v-50q-7 -2 -16.5 -3t-20.5 -1q-12 0 -28.5 2.5t-30.5 16.5
q-12 12 -17.5 30.5t-4.5 35.5q-15 -25 -33 -41t-33 -24q-33 -19 -67 -23.5t-52 -4.5q-29 0 -63.5 7.5t-61.5 33.5q-20 19 -31 47t-11 60q0 37 12.5 60.5t24.5 35.5q15 15 35.5 24.5t42.5 15.5t43.5 9.5t39.5 5.5l33 4q14 2 32.5 3.5t35.5 4.5q19 3 27.5 7t12.5 8
q8 9 10 23.5t2 25.5q0 19 -4.5 43t-26.5 44q-20 18 -46 23t-50 5q-23 0 -53 -5t-51 -26q-16 -16 -23.5 -39.5t-8.5 -45.5h-67zM393 269q-10 -9 -19 -12t-21 -5q-17 -3 -29 -5t-21.5 -3t-18.5 -1.5t-21 -1.5l-20 -2q-42 -5 -66 -14t-37 -21q-8 -8 -16 -25t-8 -44
q0 -21 7.5 -39t18.5 -29q18 -20 39.5 -24.5t40.5 -4.5q42 0 67.5 11t41.5 24q29 24 43.5 63t16.5 81zM178 644q0 19 7 36t19.5 29.5t29.5 19.5t36 7t36 -7t29.5 -19.5t19.5 -29.5t7 -36t-7 -36t-19.5 -29.5t-29.5 -19.5t-36 -7t-36 7t-29.5 19.5t-19.5 29.5t-7 36zM211 644
q0 -23 16.5 -41t42.5 -18q24 0 41 17.5t17 41.5t-17 41.5t-41 17.5q-26 0 -42.5 -18t-16.5 -41z" />
    <glyph glyph-name="ae" unicode="&#xe6;" horiz-adv-x="912" 
d="M67 362q0 15 3 33.5t11.5 36.5t23 35.5t38.5 31.5q33 20 65.5 24.5t62.5 4.5q29 0 59 -4t59 -21q14 -8 30.5 -23t29.5 -41q11 17 27 33t33 27q30 19 61 24t57 5q47 0 91 -12t81 -50q38 -40 50 -93t12 -122v-10h-396q0 -18 2.5 -39t9 -43t17 -43.5t26.5 -38.5
q26 -27 56 -37t62 -10q41 0 67.5 11.5t43.5 28.5q16 16 25.5 36.5t14.5 40.5h67q-8 -32 -23 -61.5t-35 -49.5q-18 -18 -40 -29t-43.5 -17t-42 -8t-35.5 -2q-11 0 -27 1t-34.5 4.5t-37.5 10t-37 18.5q-3 2 -11 8t-19 17t-22.5 26.5t-21.5 36.5q-16 -35 -36.5 -55t-37.5 -31
q-23 -14 -54.5 -23.5t-76.5 -9.5t-79.5 10t-58.5 33q-26 25 -33 53.5t-7 53.5q0 29 7.5 52t30.5 46q32 31 74.5 41.5t90.5 15.5l38 4q21 2 32.5 3t28.5 3q9 2 21 5t20 12q4 5 7 16.5t3 37.5q0 20 -5 41t-25 39q-22 20 -50 24.5t-46 4.5q-22 0 -46.5 -3.5t-46.5 -18.5
q-26 -18 -34.5 -44.5t-9.5 -49.5h-67zM396 269q-12 -10 -30 -14q-25 -7 -62 -10q-24 -2 -45 -4t-39 -5q-56 -9 -79 -32q-9 -9 -17.5 -24.5t-8.5 -41.5t8.5 -45.5t21.5 -31.5q18 -17 40 -22t40 -5q26 0 61 9t64 40q28 29 37 66t9 85v35zM791 291q0 31 -5 55t-12 41
t-15.5 28.5t-15.5 19.5q-26 26 -54 34.5t-56 8.5q-34 0 -64 -10t-55 -37q-27 -30 -36.5 -69.5t-11.5 -70.5h325z" />
    <glyph glyph-name="ccedilla" unicode="&#xe7;" horiz-adv-x="543" 
d="M505 178q-4 -38 -20.5 -78.5t-45.5 -69.5q-34 -34 -71 -42t-76 -8q-40 0 -82 9t-82 47q-35 34 -56 90.5t-21 132.5q0 66 17 118t48 85q23 26 64.5 46t107.5 20q60 0 97 -16.5t58 -36.5q20 -20 36 -50t21 -70h-66q-4 33 -16.5 53t-18.5 27q-22 25 -49.5 34t-56.5 9
q-46 0 -74 -15.5t-42 -29.5q-26 -26 -39.5 -69.5t-13.5 -102.5q0 -77 19.5 -121.5t41.5 -66.5q18 -18 44.5 -30.5t63.5 -12.5q41 0 65 12.5t36 25.5q19 20 31 50.5t14 59.5h66zM195 -187q15 -5 29.5 -6.5t28.5 -1.5q22 0 43 3t32 15q5 5 8 14t3 17q0 11 -4 18.5t-9 11.5
q-11 10 -31.5 13t-40.5 3h-31l12 42h28q38 0 67.5 -5.5t48.5 -24.5q21 -21 21 -53q0 -23 -7 -40.5t-18 -28.5q-19 -19 -48.5 -24.5t-62.5 -5.5q-22 0 -42.5 2t-40.5 6z" />
    <glyph glyph-name="egrave" unicode="&#xe8;" horiz-adv-x="572" 
d="M515 147q-7 -33 -21.5 -60.5t-33.5 -47.5q-37 -38 -78.5 -48.5t-83.5 -10.5q-20 0 -41.5 1.5t-43.5 7.5t-44 18t-43 32q-23 22 -38 48.5t-23 54.5t-11 57t-3 57q0 20 2 46t9.5 54t21 56t37.5 52q21 21 43.5 33.5t45.5 19.5t44 9t39 2q16 0 36.5 -2t42 -8t43 -18t40.5 -32
q41 -43 52.5 -100.5t13.5 -126.5h-398q2 -60 17 -99t37 -62q21 -23 51.5 -36.5t72.5 -13.5q40 0 65 12t40 26q12 11 20 23.5t13 23.5t7 19.5t3 12.5h66zM292 478q-43 0 -73.5 -14.5t-48.5 -34.5q-21 -24 -34 -62t-13 -76h325q0 15 -3 35t-9 40t-15 39t-22 32
q-15 16 -41.5 28.5t-65.5 12.5zM346 568h-60l-96 132h86z" />
    <glyph glyph-name="eacute" unicode="&#xe9;" horiz-adv-x="572" 
d="M515 147q-7 -33 -21.5 -60.5t-33.5 -47.5q-37 -38 -78.5 -48.5t-83.5 -10.5q-20 0 -41.5 1.5t-43.5 7.5t-44 18t-43 32q-23 22 -38 48.5t-23 54.5t-11 57t-3 57q0 20 2 46t9.5 54t21 56t37.5 52q21 21 43.5 33.5t45.5 19.5t44 9t39 2q16 0 36.5 -2t42 -8t43 -18t40.5 -32
q41 -43 52.5 -100.5t13.5 -126.5h-398q2 -60 17 -99t37 -62q21 -23 51.5 -36.5t72.5 -13.5q40 0 65 12t40 26q12 11 20 23.5t13 23.5t7 19.5t3 12.5h66zM292 478q-43 0 -73.5 -14.5t-48.5 -34.5q-21 -24 -34 -62t-13 -76h325q0 15 -3 35t-9 40t-15 39t-22 32
q-15 16 -41.5 28.5t-65.5 12.5zM403 700l-95 -132h-61l70 132h86z" />
    <glyph glyph-name="ecircumflex" unicode="&#xea;" horiz-adv-x="572" 
d="M515 147q-7 -33 -21.5 -60.5t-33.5 -47.5q-37 -38 -78.5 -48.5t-83.5 -10.5q-20 0 -41.5 1.5t-43.5 7.5t-44 18t-43 32q-23 22 -38 48.5t-23 54.5t-11 57t-3 57q0 20 2 46t9.5 54t21 56t37.5 52q21 21 43.5 33.5t45.5 19.5t44 9t39 2q16 0 36.5 -2t42 -8t43 -18t40.5 -32
q41 -43 52.5 -100.5t13.5 -126.5h-398q2 -60 17 -99t37 -62q21 -23 51.5 -36.5t72.5 -13.5q40 0 65 12t40 26q12 11 20 23.5t13 23.5t7 19.5t3 12.5h66zM292 478q-43 0 -73.5 -14.5t-48.5 -34.5q-21 -24 -34 -62t-13 -76h325q0 15 -3 35t-9 40t-15 39t-22 32
q-15 16 -41.5 28.5t-65.5 12.5zM356 700l119 -132h-68l-109 105l-108 -105h-68l119 132h115z" />
    <glyph glyph-name="edieresis" unicode="&#xeb;" horiz-adv-x="572" 
d="M515 147q-7 -33 -21.5 -60.5t-33.5 -47.5q-37 -38 -78.5 -48.5t-83.5 -10.5q-20 0 -41.5 1.5t-43.5 7.5t-44 18t-43 32q-23 22 -38 48.5t-23 54.5t-11 57t-3 57q0 20 2 46t9.5 54t21 56t37.5 52q21 21 43.5 33.5t45.5 19.5t44 9t39 2q16 0 36.5 -2t42 -8t43 -18t40.5 -32
q41 -43 52.5 -100.5t13.5 -126.5h-398q2 -60 17 -99t37 -62q21 -23 51.5 -36.5t72.5 -13.5q40 0 65 12t40 26q12 11 20 23.5t13 23.5t7 19.5t3 12.5h66zM292 478q-43 0 -73.5 -14.5t-48.5 -34.5q-21 -24 -34 -62t-13 -76h325q0 15 -3 35t-9 40t-15 39t-22 32
q-15 16 -41.5 28.5t-65.5 12.5zM148 700h72v-84h-72v84zM351 700h71v-84h-71v84z" />
    <glyph glyph-name="igrave" unicode="&#xec;" horiz-adv-x="217" 
d="M143 508v-508h-69v508h69zM151 568h-60l-96 132h86z" />
    <glyph glyph-name="iacute" unicode="&#xed;" horiz-adv-x="217" 
d="M143 508v-508h-69v508h69zM220 700l-95 -132h-61l70 132h86z" />
    <glyph glyph-name="icircumflex" unicode="&#xee;" horiz-adv-x="217" 
d="M143 508v-508h-69v508h69zM171 700l119 -132h-68l-109 105l-108 -105h-68l119 132h115z" />
    <glyph glyph-name="idieresis" unicode="&#xef;" horiz-adv-x="217" 
d="M143 508v-508h-69v508h69zM-23 700h72v-84h-72v84zM180 700h71v-84h-71v84z" />
    <glyph glyph-name="eth" unicode="&#xf0;" horiz-adv-x="593" 
d="M157 730q48 -8 91 -20t82 -29l88 52l23 -28l-72 -43q22 -12 43.5 -27t36.5 -30q33 -31 51.5 -68t27.5 -74.5t11.5 -73.5t2.5 -65q0 -84 -16.5 -157t-67.5 -124q-38 -38 -83 -50.5t-88 -12.5q-42 0 -83.5 11.5t-77.5 45.5q-27 25 -51 74t-24 127q0 59 16.5 114t51.5 92
q23 24 65 44t108 20q44 0 75.5 -10.5t53.5 -25.5q22 -16 39 -39t27 -49h2q-3 62 -27 111.5t-59 84.5q-19 19 -39 32t-40 22l-141 -87l-23 28l124 77q-69 28 -138 38zM293 458q-29 0 -56.5 -7.5t-52.5 -31.5q-17 -16 -28 -38t-18.5 -46.5t-10.5 -49t-3 -46.5q0 -48 13.5 -94
t40.5 -73q14 -14 42.5 -28t74.5 -14q43 0 72.5 13t46.5 30q15 15 25.5 35.5t17 43.5t9.5 47.5t3 47.5q0 61 -16 102.5t-40 64.5q-28 28 -60 36t-60 8z" />
    <glyph glyph-name="ntilde" unicode="&#xf1;" horiz-adv-x="563" 
d="M146 508v-74q14 23 32 39t38 28q25 14 49 20.5t51 6.5q41 0 72.5 -12t51.5 -32q32 -32 39 -69t7 -72v-343h-69v333q0 12 -0.5 27.5t-4 31.5t-11 32t-21.5 28q-15 13 -36.5 19.5t-41.5 6.5q-30 0 -57 -11t-47 -30q-18 -18 -28.5 -38.5t-16 -41.5t-6.5 -40t-1 -33v-284h-69
v508h69zM475 700q-5 -18 -15.5 -40.5t-24.5 -36.5q-25 -25 -61 -25q-26 0 -43.5 7t-35.5 19l-24 16q-14 9 -25 15t-30 6q-14 0 -23 -4.5t-14 -9.5q-6 -7 -10.5 -18t-6.5 -21h-49q8 43 35 70q16 17 34 23.5t38 6.5q23 0 39 -7t30 -17l24 -17q8 -6 23.5 -14t34.5 -8
q18 0 32 13q8 8 14 19.5t10 22.5h48z" />
    <glyph glyph-name="ograve" unicode="&#xf2;" horiz-adv-x="588" 
d="M294 528q39 0 83 -11t83 -48q22 -21 36.5 -47t23.5 -54.5t13 -57.5t4 -56q0 -24 -3 -52.5t-12 -57.5t-25 -57t-41 -51q-38 -35 -78.5 -45.5t-82.5 -10.5t-84.5 10.5t-79.5 45.5q-14 12 -28 31t-25.5 46t-19 62t-7.5 79q0 45 7.5 80t19 61t25 44t25.5 30q19 19 40.5 30.5
t43 18t42.5 8.5t40 2zM294 479q-40 0 -68 -12.5t-45 -29.5q-23 -23 -40.5 -66.5t-17.5 -115.5t18 -116.5t44 -69.5q26 -24 54.5 -31.5t54.5 -7.5t54.5 7.5t53.5 30.5q27 25 44.5 71.5t17.5 115.5q0 47 -11.5 95.5t-41.5 81.5q-15 16 -43 31.5t-74 15.5zM346 568h-60l-96 132
h86z" />
    <glyph glyph-name="oacute" unicode="&#xf3;" horiz-adv-x="588" 
d="M294 528q39 0 83 -11t83 -48q22 -21 36.5 -47t23.5 -54.5t13 -57.5t4 -56q0 -24 -3 -52.5t-12 -57.5t-25 -57t-41 -51q-38 -35 -78.5 -45.5t-82.5 -10.5t-84.5 10.5t-79.5 45.5q-14 12 -28 31t-25.5 46t-19 62t-7.5 79q0 45 7.5 80t19 61t25 44t25.5 30q19 19 40.5 30.5
t43 18t42.5 8.5t40 2zM294 479q-40 0 -68 -12.5t-45 -29.5q-23 -23 -40.5 -66.5t-17.5 -115.5t18 -116.5t44 -69.5q26 -24 54.5 -31.5t54.5 -7.5t54.5 7.5t53.5 30.5q27 25 44.5 71.5t17.5 115.5q0 47 -11.5 95.5t-41.5 81.5q-15 16 -43 31.5t-74 15.5zM408 700l-95 -132
h-61l70 132h86z" />
    <glyph glyph-name="ocircumflex" unicode="&#xf4;" horiz-adv-x="588" 
d="M294 528q39 0 83 -11t83 -48q22 -21 36.5 -47t23.5 -54.5t13 -57.5t4 -56q0 -24 -3 -52.5t-12 -57.5t-25 -57t-41 -51q-38 -35 -78.5 -45.5t-82.5 -10.5t-84.5 10.5t-79.5 45.5q-14 12 -28 31t-25.5 46t-19 62t-7.5 79q0 45 7.5 80t19 61t25 44t25.5 30q19 19 40.5 30.5
t43 18t42.5 8.5t40 2zM294 479q-40 0 -68 -12.5t-45 -29.5q-23 -23 -40.5 -66.5t-17.5 -115.5t18 -116.5t44 -69.5q26 -24 54.5 -31.5t54.5 -7.5t54.5 7.5t53.5 30.5q27 25 44.5 71.5t17.5 115.5q0 47 -11.5 95.5t-41.5 81.5q-15 16 -43 31.5t-74 15.5zM354 700l119 -132
h-68l-109 105l-108 -105h-68l119 132h115z" />
    <glyph glyph-name="otilde" unicode="&#xf5;" horiz-adv-x="588" 
d="M294 528q39 0 83 -11t83 -48q22 -21 36.5 -47t23.5 -54.5t13 -57.5t4 -56q0 -24 -3 -52.5t-12 -57.5t-25 -57t-41 -51q-38 -35 -78.5 -45.5t-82.5 -10.5t-84.5 10.5t-79.5 45.5q-14 12 -28 31t-25.5 46t-19 62t-7.5 79q0 45 7.5 80t19 61t25 44t25.5 30q19 19 40.5 30.5
t43 18t42.5 8.5t40 2zM294 479q-40 0 -68 -12.5t-45 -29.5q-23 -23 -40.5 -66.5t-17.5 -115.5t18 -116.5t44 -69.5q26 -24 54.5 -31.5t54.5 -7.5t54.5 7.5t53.5 30.5q27 25 44.5 71.5t17.5 115.5q0 47 -11.5 95.5t-41.5 81.5q-15 16 -43 31.5t-74 15.5zM475 700
q-5 -18 -15.5 -40.5t-24.5 -36.5q-25 -25 -61 -25q-26 0 -43.5 7t-35.5 19l-24 16q-14 9 -25 15t-30 6q-14 0 -23 -4.5t-14 -9.5q-6 -7 -10.5 -18t-6.5 -21h-49q8 43 35 70q16 17 34 23.5t38 6.5q23 0 39 -7t30 -17l24 -17q8 -6 23.5 -14t34.5 -8q18 0 32 13q8 8 14 19.5
t10 22.5h48z" />
    <glyph glyph-name="odieresis" unicode="&#xf6;" horiz-adv-x="588" 
d="M294 528q39 0 83 -11t83 -48q22 -21 36.5 -47t23.5 -54.5t13 -57.5t4 -56q0 -24 -3 -52.5t-12 -57.5t-25 -57t-41 -51q-38 -35 -78.5 -45.5t-82.5 -10.5t-84.5 10.5t-79.5 45.5q-14 12 -28 31t-25.5 46t-19 62t-7.5 79q0 45 7.5 80t19 61t25 44t25.5 30q19 19 40.5 30.5
t43 18t42.5 8.5t40 2zM294 479q-40 0 -68 -12.5t-45 -29.5q-23 -23 -40.5 -66.5t-17.5 -115.5t18 -116.5t44 -69.5q26 -24 54.5 -31.5t54.5 -7.5t54.5 7.5t53.5 30.5q27 25 44.5 71.5t17.5 115.5q0 47 -11.5 95.5t-41.5 81.5q-15 16 -43 31.5t-74 15.5zM156 700h72v-84h-72
v84zM359 700h71v-84h-71v84z" />
    <glyph glyph-name="divide" unicode="&#xf7;" horiz-adv-x="596" 
d="M48 350h500v-48h-500v48zM298 205q23 0 38 -15t15 -38t-15 -38t-38 -15t-38 15t-15 38t15 38t38 15zM298 553q23 0 38 -15t15 -38t-15 -38t-38 -15t-38 15t-15 38t15 38t38 15z" />
    <glyph glyph-name="oslash" unicode="&#xf8;" horiz-adv-x="573" 
d="M97 67q-32 47 -42.5 94t-10.5 93q0 45 7.5 80t19 61t25 44t25.5 30q21 20 42.5 31.5t43 17.5t42 8t38.5 2q48 0 84 -10.5t72 -39.5l55 65l37 -32l-58 -69q7 -11 16 -27.5t17.5 -39.5t14 -53.5t5.5 -67.5q0 -24 -3 -52.5t-12 -57.5t-25 -57t-41 -51q-38 -35 -78.5 -45.5
t-82.5 -10.5q-48 0 -85 11t-73 40l-55 -66l-37 32zM404 432q-23 23 -50.5 35t-66.5 12q-40 0 -68 -12.5t-45 -29.5q-26 -25 -42 -69.5t-16 -112.5q0 -37 5.5 -68.5t20.5 -66.5zM170 78q13 -15 40 -31.5t77 -16.5q26 0 54 7.5t54 30.5q12 10 23 26t19.5 39t14 54t5.5 71
q0 36 -5.5 66.5t-19.5 64.5z" />
    <glyph glyph-name="ugrave" unicode="&#xf9;" horiz-adv-x="563" 
d="M417 0v73h-2q-28 -46 -66 -67q-23 -14 -53 -20t-57 -6q-46 0 -74 13.5t-44 29.5q-27 26 -35.5 61.5t-8.5 80.5v343h69v-316q0 -41 5 -75t28 -57q11 -11 30 -20.5t50 -9.5q23 0 53.5 9t59.5 39q31 33 38 70.5t7 75.5v284h69v-508h-69zM326 568h-60l-96 132h86z" />
    <glyph glyph-name="uacute" unicode="&#xfa;" horiz-adv-x="563" 
d="M417 0v73h-2q-28 -46 -66 -67q-23 -14 -53 -20t-57 -6q-46 0 -74 13.5t-44 29.5q-27 26 -35.5 61.5t-8.5 80.5v343h69v-316q0 -41 5 -75t28 -57q11 -11 30 -20.5t50 -9.5q23 0 53.5 9t59.5 39q31 33 38 70.5t7 75.5v284h69v-508h-69zM385 700l-95 -132h-61l70 132h86z
" />
    <glyph glyph-name="ucircumflex" unicode="&#xfb;" horiz-adv-x="563" 
d="M417 0v73h-2q-28 -46 -66 -67q-23 -14 -53 -20t-57 -6q-46 0 -74 13.5t-44 29.5q-27 26 -35.5 61.5t-8.5 80.5v343h69v-316q0 -41 5 -75t28 -57q11 -11 30 -20.5t50 -9.5q23 0 53.5 9t59.5 39q31 33 38 70.5t7 75.5v284h69v-508h-69zM342 700l119 -132h-68l-109 105
l-108 -105h-68l119 132h115z" />
    <glyph glyph-name="udieresis" unicode="&#xfc;" horiz-adv-x="563" 
d="M417 0v73h-2q-28 -46 -66 -67q-23 -14 -53 -20t-57 -6q-46 0 -74 13.5t-44 29.5q-27 26 -35.5 61.5t-8.5 80.5v343h69v-316q0 -41 5 -75t28 -57q11 -11 30 -20.5t50 -9.5q23 0 53.5 9t59.5 39q31 33 38 70.5t7 75.5v284h69v-508h-69zM148 700h72v-84h-72v84zM351 700h71
v-84h-71v84z" />
    <glyph glyph-name="yacute" unicode="&#xfd;" horiz-adv-x="471" 
d="M83 -132q16 -4 39 -4q11 0 24.5 2.5t24.5 12.5q6 5 13.5 17.5t15.5 38.5l21 65l-214 508h83l168 -431l146 431h69l-209 -585q-10 -26 -19.5 -49t-25.5 -37q-19 -17 -41 -21.5t-39 -4.5q-16 0 -29.5 1.5t-26.5 3.5v52zM358 700l-95 -132h-61l70 132h86z" />
    <glyph glyph-name="thorn" unicode="&#xfe;" horiz-adv-x="591" 
d="M143 700v-267h2q17 26 34.5 41.5t28.5 23.5q26 17 52.5 23.5t55.5 6.5q57 0 93.5 -18t56.5 -37q12 -12 25.5 -30t24 -44t17.5 -60.5t7 -79.5q0 -62 -14 -113.5t-41.5 -88t-68 -57t-92.5 -20.5q-66 0 -113 28q-20 13 -37 31.5t-28 38.5v-263h-69v885h66zM142 252
q0 -18 2 -40.5t8 -46t17.5 -46.5t30.5 -42q17 -18 45 -32.5t68 -14.5q58 0 98 41q26 28 41.5 75.5t15.5 110.5q0 39 -5.5 68.5t-14 51.5t-19.5 37t-21 25q-14 14 -39 26.5t-63 12.5q-31 0 -57 -11t-46 -29q-21 -19 -33 -43t-18 -49t-8 -49.5t-2 -44.5z" />
    <glyph glyph-name="ydieresis" unicode="&#xff;" horiz-adv-x="471" 
d="M83 -132q16 -4 39 -4q11 0 24.5 2.5t24.5 12.5q6 5 13.5 17.5t15.5 38.5l21 65l-214 508h83l168 -431l146 431h69l-209 -585q-10 -26 -19.5 -49t-25.5 -37q-19 -17 -41 -21.5t-39 -4.5q-16 0 -29.5 1.5t-26.5 3.5v52zM113 700h72v-84h-72v84zM316 700h71v-84h-71v84z" />
    <glyph glyph-name="Amacron" unicode="&#x100;" 
d="M81 0h-80l266 700h83l266 -700h-81l-74 201h-305zM439 264l-131 365l-131 -365h262zM154 827h309v-49h-309v49z" />
    <glyph glyph-name="amacron" unicode="&#x101;" horiz-adv-x="552" 
d="M65 362q0 14 3 31t10.5 35t20 34.5t32.5 30.5q17 12 36.5 18.5t39 10.5t37 5t30.5 1q16 0 35 -1.5t39 -6.5t39.5 -14t35.5 -25q29 -29 35.5 -60.5t5.5 -58.5l-6 -253q0 -12 1 -25t9 -22q17 -20 46 -12v-50q-7 -2 -16.5 -3t-20.5 -1q-12 0 -28.5 2.5t-30.5 16.5
q-12 12 -17.5 30.5t-4.5 35.5q-15 -25 -33 -41t-33 -24q-33 -19 -67 -23.5t-52 -4.5q-29 0 -63.5 7.5t-61.5 33.5q-20 19 -31 47t-11 60q0 37 12.5 60.5t24.5 35.5q15 15 35.5 24.5t42.5 15.5t43.5 9.5t39.5 5.5l33 4q14 2 32.5 3.5t35.5 4.5q19 3 27.5 7t12.5 8
q8 9 10 23.5t2 25.5q0 19 -4.5 43t-26.5 44q-20 18 -46 23t-50 5q-23 0 -53 -5t-51 -26q-16 -16 -23.5 -39.5t-8.5 -45.5h-67zM393 269q-10 -9 -19 -12t-21 -5q-17 -3 -29 -5t-21.5 -3t-18.5 -1.5t-21 -1.5l-20 -2q-42 -5 -66 -14t-37 -21q-8 -8 -16 -25t-8 -44
q0 -21 7.5 -39t18.5 -29q18 -20 39.5 -24.5t40.5 -4.5q42 0 67.5 11t41.5 24q29 24 43.5 63t16.5 81zM116 666h309v-46h-309v46z" />
    <glyph glyph-name="Abreve" unicode="&#x102;" 
d="M81 0h-80l266 700h83l266 -700h-81l-74 201h-305zM439 264l-131 365l-131 -365h262zM475 887q-5 -31 -16.5 -52t-24.5 -34q-29 -29 -61.5 -37.5t-61.5 -8.5q-13 0 -29 1.5t-33.5 6t-34.5 14t-32 24.5q-12 13 -24 34.5t-17 51.5h63q2 -18 8.5 -32.5t15.5 -24.5
q17 -18 38.5 -23t41.5 -5t41.5 5t38.5 23q9 10 15.5 24.5t8.5 32.5h63z" />
    <glyph glyph-name="abreve" unicode="&#x103;" horiz-adv-x="552" 
d="M65 362q0 14 3 31t10.5 35t20 34.5t32.5 30.5q17 12 36.5 18.5t39 10.5t37 5t30.5 1q16 0 35 -1.5t39 -6.5t39.5 -14t35.5 -25q29 -29 35.5 -60.5t5.5 -58.5l-6 -253q0 -12 1 -25t9 -22q17 -20 46 -12v-50q-7 -2 -16.5 -3t-20.5 -1q-12 0 -28.5 2.5t-30.5 16.5
q-12 12 -17.5 30.5t-4.5 35.5q-15 -25 -33 -41t-33 -24q-33 -19 -67 -23.5t-52 -4.5q-29 0 -63.5 7.5t-61.5 33.5q-20 19 -31 47t-11 60q0 37 12.5 60.5t24.5 35.5q15 15 35.5 24.5t42.5 15.5t43.5 9.5t39.5 5.5l33 4q14 2 32.5 3.5t35.5 4.5q19 3 27.5 7t12.5 8
q8 9 10 23.5t2 25.5q0 19 -4.5 43t-26.5 44q-20 18 -46 23t-50 5q-23 0 -53 -5t-51 -26q-16 -16 -23.5 -39.5t-8.5 -45.5h-67zM393 269q-10 -9 -19 -12t-21 -5q-17 -3 -29 -5t-21.5 -3t-18.5 -1.5t-21 -1.5l-20 -2q-42 -5 -66 -14t-37 -21q-8 -8 -16 -25t-8 -44
q0 -21 7.5 -39t18.5 -29q18 -20 39.5 -24.5t40.5 -4.5q42 0 67.5 11t41.5 24q29 24 43.5 63t16.5 81zM442 700q-4 -27 -15.5 -49t-25.5 -36q-26 -25 -57.5 -32.5t-58.5 -7.5t-58.5 7.5t-57.5 32.5q-14 14 -25.5 36t-15.5 49h58q2 -17 9 -32.5t18 -26.5q16 -15 35.5 -19
t36.5 -4t36.5 4t35.5 19q11 11 18 26.5t9 32.5h58z" />
    <glyph glyph-name="Aogonek" unicode="&#x104;" 
d="M81 0h-80l266 700h83l266 -700q-15 -9 -29 -21t-23 -24q-10 -13 -16 -29.5t-6 -35.5q0 -8 2.5 -20t13.5 -22q8 -8 18 -10.5t21 -2.5q10 0 20.5 2.5t21.5 12.5q9 8 15 22t7 28h57q-2 -26 -13 -47t-25 -35q-20 -19 -43 -25.5t-48 -6.5q-20 0 -43.5 5t-43.5 23
q-11 10 -20 26t-9 42q0 20 6 38t17 34q10 14 23 26t26 20h-10l-74 201h-305zM439 264l-131 365l-131 -365h262z" />
    <glyph glyph-name="aogonek" unicode="&#x105;" horiz-adv-x="552" 
d="M65 362q0 14 3 31t10.5 35t20 34.5t32.5 30.5q17 12 36.5 18.5t39 10.5t37 5t30.5 1q16 0 35 -1.5t39 -6.5t39.5 -14t35.5 -25q29 -29 35.5 -60.5t5.5 -58.5l-6 -253q0 -10 1.5 -25t9.5 -24q6 -7 18.5 -10.5t26.5 0.5v-50q-14 -9 -28.5 -21t-24.5 -25q-12 -16 -17 -32
t-5 -32q0 -8 2.5 -20t13.5 -22q8 -8 18 -10.5t21 -2.5q10 0 20.5 2.5t21.5 12.5q9 8 15 22t7 28h57q-2 -26 -13 -47t-25 -35q-20 -19 -43 -25.5t-48 -6.5q-20 0 -43.5 5t-43.5 23q-11 10 -20 26t-9 42q0 20 6 38t17 34q10 14 23 26t26 20q-12 5 -21 13.5t-14 18.5
q-13 24 -11 49q-13 -20 -30 -37t-36 -28q-25 -14 -56 -21t-63 -7q-29 0 -63.5 7.5t-61.5 33.5q-20 19 -31 47t-11 60q0 37 12.5 60.5t24.5 35.5q15 15 35.5 24.5t42.5 15.5t43.5 9.5t39.5 5.5l33 4q14 2 32.5 3.5t35.5 4.5q19 3 27.5 7t12.5 8q8 9 10 23.5t2 25.5
q0 19 -4.5 43t-26.5 44q-20 18 -46 23t-50 5q-23 0 -53 -5t-51 -26q-16 -16 -23.5 -39.5t-8.5 -45.5h-67zM393 269q-10 -9 -19 -12t-21 -5q-17 -3 -29 -5t-21.5 -3t-18.5 -1.5t-21 -1.5l-20 -2q-23 -2 -53 -8.5t-50 -26.5q-16 -16 -20 -33.5t-4 -31.5q0 -17 4.5 -35.5
t21.5 -36.5q19 -19 39.5 -24t40.5 -5q35 0 62 9t47 26q29 24 43.5 63t16.5 81z" />
    <glyph glyph-name="Cacute" unicode="&#x106;" horiz-adv-x="729" 
d="M681 228q-6 -51 -27 -96.5t-54 -78.5q-24 -24 -50.5 -39t-53.5 -22.5t-54 -10t-53 -2.5q-27 0 -56 3t-58 12.5t-58 26.5t-56 45t-45.5 62t-30 71t-16.5 75.5t-5 76.5q0 36 4.5 74.5t16 76t30 72t47.5 62.5q35 34 89 59.5t135 25.5q28 0 58 -4t59 -13t55 -23t47 -34
q26 -26 45.5 -66.5t22.5 -90.5h-75q-3 35 -17 63.5t-33 48.5q-21 22 -58.5 39t-97.5 17q-42 0 -85 -11.5t-82 -49.5q-42 -41 -62 -101t-20 -134q0 -35 4.5 -70.5t15 -69.5t26.5 -64t40 -53q23 -23 63.5 -43t101.5 -20q57 0 94 18t57 37q7 7 17 18.5t19 28t16 37.5t9 47h75z
M516 900l-99 -140h-65l72 140h92z" />
    <glyph glyph-name="cacute" unicode="&#x107;" horiz-adv-x="543" 
d="M505 178q-4 -38 -20.5 -78.5t-45.5 -69.5q-34 -34 -71 -42t-76 -8q-40 0 -82 9t-82 47q-35 34 -56 90.5t-21 132.5q0 66 17 118t48 85q23 26 64.5 46t107.5 20q60 0 97 -16.5t58 -36.5q20 -20 36 -50t21 -70h-66q-4 33 -16.5 53t-18.5 27q-22 25 -49.5 34t-56.5 9
q-46 0 -74 -15.5t-42 -29.5q-26 -26 -39.5 -69.5t-13.5 -102.5q0 -77 19.5 -121.5t41.5 -66.5q18 -18 44.5 -30.5t63.5 -12.5q41 0 65 12.5t36 25.5q19 20 31 50.5t14 59.5h66zM408 700l-95 -132h-61l70 132h86z" />
    <glyph glyph-name="Ccircumflex" unicode="&#x108;" horiz-adv-x="729" 
d="M681 228q-6 -51 -27 -96.5t-54 -78.5q-24 -24 -50.5 -39t-53.5 -22.5t-54 -10t-53 -2.5q-27 0 -56 3t-58 12.5t-58 26.5t-56 45t-45.5 62t-30 71t-16.5 75.5t-5 76.5q0 36 4.5 74.5t16 76t30 72t47.5 62.5q35 34 89 59.5t135 25.5q28 0 58 -4t59 -13t55 -23t47 -34
q26 -26 45.5 -66.5t22.5 -90.5h-75q-3 35 -17 63.5t-33 48.5q-21 22 -58.5 39t-97.5 17q-42 0 -85 -11.5t-82 -49.5q-42 -41 -62 -101t-20 -134q0 -35 4.5 -70.5t15 -69.5t26.5 -64t40 -53q23 -23 63.5 -43t101.5 -20q57 0 94 18t57 37q7 7 17 18.5t19 28t16 37.5t9 47h75z
M452 900l119 -132h-68l-109 105l-108 -105h-68l119 132h115z" />
    <glyph glyph-name="ccircumflex" unicode="&#x109;" horiz-adv-x="543" 
d="M505 178q-4 -38 -20.5 -78.5t-45.5 -69.5q-34 -34 -71 -42t-76 -8q-40 0 -82 9t-82 47q-35 34 -56 90.5t-21 132.5q0 66 17 118t48 85q23 26 64.5 46t107.5 20q60 0 97 -16.5t58 -36.5q20 -20 36 -50t21 -70h-66q-4 33 -16.5 53t-18.5 27q-22 25 -49.5 34t-56.5 9
q-46 0 -74 -15.5t-42 -29.5q-26 -26 -39.5 -69.5t-13.5 -102.5q0 -77 19.5 -121.5t41.5 -66.5q18 -18 44.5 -30.5t63.5 -12.5q41 0 65 12.5t36 25.5q19 20 31 50.5t14 59.5h66zM352 700l119 -132h-68l-109 105l-108 -105h-68l119 132h115z" />
    <glyph glyph-name="Cdotaccent" unicode="&#x10a;" horiz-adv-x="729" 
d="M681 228q-6 -51 -27 -96.5t-54 -78.5q-24 -24 -50.5 -39t-53.5 -22.5t-54 -10t-53 -2.5q-27 0 -56 3t-58 12.5t-58 26.5t-56 45t-45.5 62t-30 71t-16.5 75.5t-5 76.5q0 36 4.5 74.5t16 76t30 72t47.5 62.5q35 34 89 59.5t135 25.5q28 0 58 -4t59 -13t55 -23t47 -34
q26 -26 45.5 -66.5t22.5 -90.5h-75q-3 35 -17 63.5t-33 48.5q-21 22 -58.5 39t-97.5 17q-42 0 -85 -11.5t-82 -49.5q-42 -41 -62 -101t-20 -134q0 -35 4.5 -70.5t15 -69.5t26.5 -64t40 -53q23 -23 63.5 -43t101.5 -20q57 0 94 18t57 37q7 7 17 18.5t19 28t16 37.5t9 47h75z
M327 846h75v-74h-75v74z" />
    <glyph glyph-name="cdotaccent" unicode="&#x10b;" horiz-adv-x="543" 
d="M505 178q-4 -38 -20.5 -78.5t-45.5 -69.5q-34 -34 -71 -42t-76 -8q-40 0 -82 9t-82 47q-35 34 -56 90.5t-21 132.5q0 66 17 118t48 85q23 26 64.5 46t107.5 20q60 0 97 -16.5t58 -36.5q20 -20 36 -50t21 -70h-66q-4 33 -16.5 53t-18.5 27q-22 25 -49.5 34t-56.5 9
q-46 0 -74 -15.5t-42 -29.5q-26 -26 -39.5 -69.5t-13.5 -102.5q0 -77 19.5 -121.5t41.5 -66.5q18 -18 44.5 -30.5t63.5 -12.5q41 0 65 12.5t36 25.5q19 20 31 50.5t14 59.5h66zM234 700h74v-84h-74v84z" />
    <glyph glyph-name="Ccaron" unicode="&#x10c;" horiz-adv-x="729" 
d="M681 228q-6 -51 -27 -96.5t-54 -78.5q-24 -24 -50.5 -39t-53.5 -22.5t-54 -10t-53 -2.5q-27 0 -56 3t-58 12.5t-58 26.5t-56 45t-45.5 62t-30 71t-16.5 75.5t-5 76.5q0 36 4.5 74.5t16 76t30 72t47.5 62.5q35 34 89 59.5t135 25.5q28 0 58 -4t59 -13t55 -23t47 -34
q26 -26 45.5 -66.5t22.5 -90.5h-75q-3 35 -17 63.5t-33 48.5q-21 22 -58.5 39t-97.5 17q-42 0 -85 -11.5t-82 -49.5q-42 -41 -62 -101t-20 -134q0 -35 4.5 -70.5t15 -69.5t26.5 -64t40 -53q23 -23 63.5 -43t101.5 -20q57 0 94 18t57 37q7 7 17 18.5t19 28t16 37.5t9 47h75z
M282 900l109 -112l108 112h74l-121 -140h-123l-121 140h74z" />
    <glyph glyph-name="ccaron" unicode="&#x10d;" horiz-adv-x="543" 
d="M505 178q-4 -38 -20.5 -78.5t-45.5 -69.5q-34 -34 -71 -42t-76 -8q-40 0 -82 9t-82 47q-35 34 -56 90.5t-21 132.5q0 66 17 118t48 85q23 26 64.5 46t107.5 20q60 0 97 -16.5t58 -36.5q20 -20 36 -50t21 -70h-66q-4 33 -16.5 53t-18.5 27q-22 25 -49.5 34t-56.5 9
q-46 0 -74 -15.5t-42 -29.5q-26 -26 -39.5 -69.5t-13.5 -102.5q0 -77 19.5 -121.5t41.5 -66.5q18 -18 44.5 -30.5t63.5 -12.5q41 0 65 12.5t36 25.5q19 20 31 50.5t14 59.5h66zM237 568l-119 132h68l108 -105l109 105h68l-119 -132h-115z" />
    <glyph glyph-name="Dcaron" unicode="&#x10e;" horiz-adv-x="716" 
d="M335 700q27 0 56.5 -2t59.5 -10t59.5 -23.5t57.5 -41.5q18 -18 35.5 -42.5t31 -58t22 -76t8.5 -94.5q0 -97 -27 -167t-72 -111q-26 -24 -55.5 -38.5t-60.5 -22.5t-63 -10.5t-62 -2.5h-235v700h245zM164 63h139q22 0 48.5 1t54.5 7.5t56 19.5t52 37q36 36 54.5 94.5
t18.5 127.5q0 72 -19.5 130t-57.5 95q-21 21 -43.5 33t-45.5 18.5t-45 8.5t-42 2h-170v-574zM222 900l109 -112l108 112h74l-121 -140h-123l-121 140h74z" />
    <glyph glyph-name="dcaron" unicode="&#x10f;" horiz-adv-x="596" 
d="M515 700v-700h-66v75h-2q-11 -24 -27 -40.5t-33 -27.5q-28 -17 -58.5 -22t-52.5 -5q-16 0 -34.5 2t-38 7.5t-39.5 16.5t-38 29q-34 33 -54.5 88.5t-20.5 133.5q0 42 6.5 76t16.5 60t22.5 44.5t25.5 31.5q23 23 60.5 41t94.5 18q35 0 62.5 -8t47.5 -21q16 -10 31.5 -26
t27.5 -39v266h69zM124 258q0 -23 2 -47t7.5 -47.5t16 -46t28.5 -41.5q42 -46 107 -46q29 0 55 9t49 32q32 32 46.5 82.5t14.5 100.5q0 60 -16 108t-47 77q-20 19 -45 29t-58 10q-38 0 -62 -12.5t-37 -23.5q-30 -28 -45.5 -77t-15.5 -107zM638 700v-115q0 -29 -5.5 -52.5
t-23.5 -41.5q-5 -5 -18 -13.5t-33 -13.5v46q7 2 15 6.5t15 16.5t8.5 25t1.5 26v22h-40v94h80z" />
    <glyph glyph-name="Dcroat" unicode="&#x110;" horiz-adv-x="718" 
d="M337 700q27 0 56.5 -2t59.5 -10t59.5 -23.5t57.5 -41.5q18 -18 35.5 -42.5t31 -58t22 -76t8.5 -94.5q0 -97 -27 -167t-72 -111q-26 -24 -55.5 -38.5t-60.5 -22.5t-63 -10.5t-62 -2.5h-236v372h-93v50h93v278h246zM165 422h199v-50h-199v-309h139q21 0 47.5 1t54.5 7.5
t56 19.5t52 37q36 36 54.5 94.5t18.5 127.5q0 72 -19.5 130t-57.5 95q-21 21 -43.5 33t-45.5 18.5t-45 8.5t-41 2h-170v-215z" />
    <glyph glyph-name="dcroat" unicode="&#x111;" horiz-adv-x="596" 
d="M515 700v-67h83v-46h-83v-587h-66v75h-2q-11 -24 -27 -40.5t-33 -27.5q-28 -17 -58.5 -22t-52.5 -5q-16 0 -34.5 2t-38 7.5t-39.5 16.5t-38 29q-34 33 -54.5 88.5t-20.5 133.5q0 42 6.5 76t16.5 60t22.5 44.5t25.5 31.5q23 23 60.5 41t96.5 18q39 0 65 -9t43 -20
q16 -10 31.5 -26t27.5 -39v153h-182v46h182v67h69zM125 251q0 -20 2 -43t7.5 -46t16 -45t28.5 -41q42 -46 107 -46q29 0 55 9t49 32q32 32 46.5 82.5t14.5 100.5q0 60 -16 108t-47 77q-20 19 -45 29t-58 10q-38 0 -62 -12.5t-37 -23.5q-22 -20 -34.5 -48.5t-18.5 -57t-7 -52
t-1 -33.5z" />
    <glyph glyph-name="Emacron" unicode="&#x112;" horiz-adv-x="607" 
d="M538 394v-63h-374v-268h421v-63h-495v700h483v-63h-409v-243h374zM183 827h309v-49h-309v49z" />
    <glyph glyph-name="emacron" unicode="&#x113;" horiz-adv-x="572" 
d="M515 147q-7 -33 -21.5 -60.5t-33.5 -47.5q-37 -38 -78.5 -48.5t-83.5 -10.5q-20 0 -41.5 1.5t-43.5 7.5t-44 18t-43 32q-23 22 -38 48.5t-23 54.5t-11 57t-3 57q0 20 2 46t9.5 54t21 56t37.5 52q21 21 43.5 33.5t45.5 19.5t44 9t39 2q16 0 36.5 -2t42 -8t43 -18t40.5 -32
q41 -43 52.5 -100.5t13.5 -126.5h-398q2 -60 17 -99t37 -62q21 -23 51.5 -36.5t72.5 -13.5q40 0 65 12t40 26q12 11 20 23.5t13 23.5t7 19.5t3 12.5h66zM292 478q-43 0 -73.5 -14.5t-48.5 -34.5q-21 -24 -34 -62t-13 -76h325q0 15 -3 35t-9 40t-15 39t-22 32
q-15 16 -41.5 28.5t-65.5 12.5zM137 666h309v-46h-309v46z" />
    <glyph glyph-name="Edotaccent" unicode="&#x116;" horiz-adv-x="607" 
d="M538 394v-63h-374v-268h421v-63h-495v700h483v-63h-409v-243h374zM298 846h75v-74h-75v74z" />
    <glyph glyph-name="edotaccent" unicode="&#x117;" horiz-adv-x="572" 
d="M515 147q-7 -33 -21.5 -60.5t-33.5 -47.5q-37 -38 -78.5 -48.5t-83.5 -10.5q-20 0 -41.5 1.5t-43.5 7.5t-44 18t-43 32q-23 22 -38 48.5t-23 54.5t-11 57t-3 57q0 20 2 46t9.5 54t21 56t37.5 52q21 21 43.5 33.5t45.5 19.5t44 9t39 2q16 0 36.5 -2t42 -8t43 -18t40.5 -32
q41 -43 52.5 -100.5t13.5 -126.5h-398q2 -60 17 -99t37 -62q21 -23 51.5 -36.5t72.5 -13.5q40 0 65 12t40 26q12 11 20 23.5t13 23.5t7 19.5t3 12.5h66zM292 478q-43 0 -73.5 -14.5t-48.5 -34.5q-21 -24 -34 -62t-13 -76h325q0 15 -3 35t-9 40t-15 39t-22 32
q-15 16 -41.5 28.5t-65.5 12.5zM258 700h74v-84h-74v84z" />
    <glyph glyph-name="Eogonek" unicode="&#x118;" horiz-adv-x="608" 
d="M538 394v-63h-374v-268h422v-63h-153q-15 -9 -29 -21t-23 -24q-10 -13 -16 -29.5t-6 -35.5q0 -8 2.5 -20t13.5 -22q8 -8 18 -10.5t21 -2.5q10 0 20.5 2.5t21.5 12.5q9 8 15 22t7 28h57q-2 -26 -13 -47t-25 -35q-20 -19 -43 -25.5t-48 -6.5q-20 0 -43.5 5t-43.5 23
q-11 10 -20 26t-9 42q0 20 6 38t17 34q10 14 23 26t26 20h-272v700h484v-63h-410v-243h374z" />
    <glyph glyph-name="eogonek" unicode="&#x119;" horiz-adv-x="572" 
d="M515 147q-8 -38 -25 -66.5t-35 -46.5q-10 -9 -21.5 -18t-27.5 -20q-15 -11 -26 -18t-20 -16q-14 -14 -22.5 -32t-8.5 -40q0 -8 2.5 -20t13.5 -22q8 -8 18 -10.5t21 -2.5q10 0 20.5 2.5t21.5 12.5q9 8 15 22t7 28h57q-2 -26 -13 -47t-25 -35q-20 -19 -43 -25.5t-48 -6.5
q-20 0 -43.5 5t-43.5 23q-11 10 -20 26t-9 42q0 29 12 53q4 8 12 20t23 25q-59 -1 -101.5 10.5t-79.5 48.5q-23 22 -38 48.5t-23 54.5t-11 57t-3 57q0 20 2 46t9.5 54t21 56t37.5 52q21 21 43.5 33.5t45.5 19.5t44 9t39 2q16 0 36.5 -2t42 -8t43 -18t40.5 -32
q41 -43 52.5 -100.5t13.5 -126.5h-398q2 -60 17 -99t37 -62q21 -23 51.5 -36.5t72.5 -13.5q40 0 65 12t40 26q12 11 20 23.5t13 23.5t7 19.5t3 12.5h66zM292 478q-43 0 -73.5 -14.5t-48.5 -34.5q-21 -24 -34 -62t-13 -76h325q0 15 -3 35t-9 40t-15 39t-22 32
q-15 16 -41.5 28.5t-65.5 12.5z" />
    <glyph glyph-name="Ecaron" unicode="&#x11a;" horiz-adv-x="607" 
d="M538 394v-63h-374v-268h421v-63h-495v700h483v-63h-409v-243h374zM227 900l109 -112l108 112h74l-121 -140h-123l-121 140h74z" />
    <glyph glyph-name="ecaron" unicode="&#x11b;" horiz-adv-x="572" 
d="M515 147q-7 -33 -21.5 -60.5t-33.5 -47.5q-37 -38 -78.5 -48.5t-83.5 -10.5q-20 0 -41.5 1.5t-43.5 7.5t-44 18t-43 32q-23 22 -38 48.5t-23 54.5t-11 57t-3 57q0 20 2 46t9.5 54t21 56t37.5 52q21 21 43.5 33.5t45.5 19.5t44 9t39 2q16 0 36.5 -2t42 -8t43 -18t40.5 -32
q41 -43 52.5 -100.5t13.5 -126.5h-398q2 -60 17 -99t37 -62q21 -23 51.5 -36.5t72.5 -13.5q40 0 65 12t40 26q12 11 20 23.5t13 23.5t7 19.5t3 12.5h66zM292 478q-43 0 -73.5 -14.5t-48.5 -34.5q-21 -24 -34 -62t-13 -76h325q0 15 -3 35t-9 40t-15 39t-22 32
q-15 16 -41.5 28.5t-65.5 12.5zM237 568l-119 132h68l108 -105l109 105h68l-119 -132h-115z" />
    <glyph glyph-name="Gcircumflex" unicode="&#x11c;" horiz-adv-x="743" 
d="M679 359v-359h-62v123h-2q-14 -29 -36 -56t-47 -45q-39 -28 -81.5 -35.5t-80.5 -7.5q-62 0 -118 16.5t-104 67.5q-10 10 -26.5 32t-32 57.5t-27 85.5t-11.5 116q0 54 8.5 98t22 79.5t31.5 62.5t36 45q14 14 35 29t50 27t66.5 20t85.5 8q77 0 127.5 -21.5t79.5 -48.5
t48.5 -68t25.5 -86h-74q-5 32 -18 59.5t-30 44.5q-27 28 -69 42.5t-91 14.5q-37 0 -66 -6.5t-51 -16.5t-38 -22t-26 -23q-26 -27 -41 -61.5t-22.5 -68.5t-9.5 -63t-2 -46q0 -77 21.5 -139t58.5 -101q26 -29 68 -50t105 -21q57 0 95.5 18.5t61.5 41.5q20 19 33.5 43t22 49.5
t12 51.5t3.5 50h-218v63h287zM447 900l119 -132h-68l-109 105l-108 -105h-68l119 132h115z" />
    <glyph glyph-name="gcircumflex" unicode="&#x11d;" horiz-adv-x="588" 
d="M151 -62q7 -21 18 -34t21 -21q23 -17 49 -21t47 -4q24 0 54 5.5t55 28.5q16 14 25.5 31.5t14 35.5t6 36t1.5 35v59q-11 -23 -28.5 -43t-36.5 -31q-23 -14 -48.5 -18.5t-49.5 -4.5q-41 0 -82.5 11.5t-78.5 52.5q-21 23 -34 50t-20.5 54t-10 53t-2.5 47q0 18 1.5 43t8 53.5
t20 58t37.5 54.5q36 37 77 48t79 11q27 0 54.5 -5.5t53.5 -22.5q16 -10 32.5 -26t29.5 -41h2v75h65v-484q0 -42 -10 -84.5t-46 -77.5t-81 -45t-82 -10q-17 0 -38.5 1.5t-44.5 6.5t-45 15.5t-40 28.5q-14 14 -25.5 33.5t-16.5 45.5h69zM289 42q29 0 55.5 11.5t43.5 28.5
q21 20 33 49.5t17.5 57t6.5 49.5t1 27q0 46 -11.5 92.5t-39.5 75.5q-20 20 -49 32.5t-66 12.5q-35 0 -61 -11.5t-44 -30.5q-18 -18 -28 -41t-15 -46.5t-6.5 -44.5t-1.5 -36q0 -18 1.5 -41t7 -47.5t16.5 -48.5t29 -43q23 -23 53 -34.5t58 -11.5zM342 700l119 -132h-68
l-109 105l-108 -105h-68l119 132h115z" />
    <glyph glyph-name="Gbreve" unicode="&#x11e;" horiz-adv-x="743" 
d="M679 359v-359h-62v123h-2q-14 -29 -36 -56t-47 -45q-39 -28 -81.5 -35.5t-80.5 -7.5q-62 0 -118 16.5t-104 67.5q-10 10 -26.5 32t-32 57.5t-27 85.5t-11.5 116q0 54 8.5 98t22 79.5t31.5 62.5t36 45q14 14 35 29t50 27t66.5 20t85.5 8q77 0 127.5 -21.5t79.5 -48.5
t48.5 -68t25.5 -86h-74q-5 32 -18 59.5t-30 44.5q-27 28 -69 42.5t-91 14.5q-37 0 -66 -6.5t-51 -16.5t-38 -22t-26 -23q-26 -27 -41 -61.5t-22.5 -68.5t-9.5 -63t-2 -46q0 -77 21.5 -139t58.5 -101q26 -29 68 -50t105 -21q57 0 95.5 18.5t61.5 41.5q20 19 33.5 43t22 49.5
t12 51.5t3.5 50h-218v63h287zM547 887q-5 -31 -16.5 -52t-24.5 -34q-29 -29 -61.5 -37.5t-61.5 -8.5q-13 0 -29 1.5t-33.5 6t-34.5 14t-32 24.5q-12 13 -24 34.5t-17 51.5h63q2 -18 8.5 -32.5t15.5 -24.5q17 -18 38.5 -23t41.5 -5t41.5 5t38.5 23q9 10 15.5 24.5t8.5 32.5
h63z" />
    <glyph glyph-name="gbreve" unicode="&#x11f;" horiz-adv-x="588" 
d="M151 -62q7 -21 18 -34t21 -21q23 -17 49 -21t47 -4q24 0 54 5.5t55 28.5q16 14 25.5 31.5t14 35.5t6 36t1.5 35v59q-11 -23 -28.5 -43t-36.5 -31q-23 -14 -48.5 -18.5t-49.5 -4.5q-41 0 -82.5 11.5t-78.5 52.5q-21 23 -34 50t-20.5 54t-10 53t-2.5 47q0 18 1.5 43t8 53.5
t20 58t37.5 54.5q36 37 77 48t79 11q27 0 54.5 -5.5t53.5 -22.5q16 -10 32.5 -26t29.5 -41h2v75h65v-484q0 -42 -10 -84.5t-46 -77.5t-81 -45t-82 -10q-17 0 -38.5 1.5t-44.5 6.5t-45 15.5t-40 28.5q-14 14 -25.5 33.5t-16.5 45.5h69zM289 42q29 0 55.5 11.5t43.5 28.5
q21 20 33 49.5t17.5 57t6.5 49.5t1 27q0 46 -11.5 92.5t-39.5 75.5q-20 20 -49 32.5t-66 12.5q-35 0 -61 -11.5t-44 -30.5q-18 -18 -28 -41t-15 -46.5t-6.5 -44.5t-1.5 -36q0 -18 1.5 -41t7 -47.5t16.5 -48.5t29 -43q23 -23 53 -34.5t58 -11.5zM432 700q-4 -27 -15.5 -49
t-25.5 -36q-26 -25 -57.5 -32.5t-58.5 -7.5t-58.5 7.5t-57.5 32.5q-14 14 -25.5 36t-15.5 49h58q2 -17 9 -32.5t18 -26.5q16 -15 35.5 -19t36.5 -4t36.5 4t35.5 19q11 11 18 26.5t9 32.5h58z" />
    <glyph glyph-name="Gdotaccent" unicode="&#x120;" horiz-adv-x="743" 
d="M679 359v-359h-62v123h-2q-14 -29 -36 -56t-47 -45q-39 -28 -81.5 -35.5t-80.5 -7.5q-62 0 -118 16.5t-104 67.5q-10 10 -26.5 32t-32 57.5t-27 85.5t-11.5 116q0 54 8.5 98t22 79.5t31.5 62.5t36 45q14 14 35 29t50 27t66.5 20t85.5 8q77 0 127.5 -21.5t79.5 -48.5
t48.5 -68t25.5 -86h-74q-5 32 -18 59.5t-30 44.5q-27 28 -69 42.5t-91 14.5q-37 0 -66 -6.5t-51 -16.5t-38 -22t-26 -23q-26 -27 -41 -61.5t-22.5 -68.5t-9.5 -63t-2 -46q0 -77 21.5 -139t58.5 -101q26 -29 68 -50t105 -21q57 0 95.5 18.5t61.5 41.5q20 19 33.5 43t22 49.5
t12 51.5t3.5 50h-218v63h287zM334 846h75v-74h-75v74z" />
    <glyph glyph-name="gdotaccent" unicode="&#x121;" horiz-adv-x="588" 
d="M151 -62q7 -21 18 -34t21 -21q23 -17 49 -21t47 -4q24 0 54 5.5t55 28.5q16 14 25.5 31.5t14 35.5t6 36t1.5 35v59q-11 -23 -28.5 -43t-36.5 -31q-23 -14 -48.5 -18.5t-49.5 -4.5q-41 0 -82.5 11.5t-78.5 52.5q-21 23 -34 50t-20.5 54t-10 53t-2.5 47q0 18 1.5 43t8 53.5
t20 58t37.5 54.5q36 37 77 48t79 11q27 0 54.5 -5.5t53.5 -22.5q16 -10 32.5 -26t29.5 -41h2v75h65v-484q0 -42 -10 -84.5t-46 -77.5t-81 -45t-82 -10q-17 0 -38.5 1.5t-44.5 6.5t-45 15.5t-40 28.5q-14 14 -25.5 33.5t-16.5 45.5h69zM289 42q29 0 55.5 11.5t43.5 28.5
q21 20 33 49.5t17.5 57t6.5 49.5t1 27q0 46 -11.5 92.5t-39.5 75.5q-20 20 -49 32.5t-66 12.5q-35 0 -61 -11.5t-44 -30.5q-18 -18 -28 -41t-15 -46.5t-6.5 -44.5t-1.5 -36q0 -18 1.5 -41t7 -47.5t16.5 -48.5t29 -43q23 -23 53 -34.5t58 -11.5zM257 700h74v-84h-74v84z" />
    <glyph glyph-name="Gcommaaccent" unicode="&#x122;" horiz-adv-x="743" 
d="M679 359v-359h-62v123h-2q-14 -29 -36 -56t-47 -45q-39 -28 -81.5 -35.5t-80.5 -7.5q-62 0 -118 16.5t-104 67.5q-10 10 -26.5 32t-32 57.5t-27 85.5t-11.5 116q0 54 8.5 98t22 79.5t31.5 62.5t36 45q14 14 35 29t50 27t66.5 20t85.5 8q77 0 127.5 -21.5t79.5 -48.5
t48.5 -68t25.5 -86h-74q-5 32 -18 59.5t-30 44.5q-27 28 -69 42.5t-91 14.5q-37 0 -66 -6.5t-51 -16.5t-38 -22t-26 -23q-26 -27 -41 -61.5t-22.5 -68.5t-9.5 -63t-2 -46q0 -77 21.5 -139t58.5 -101q26 -29 68 -50t105 -21q57 0 95.5 18.5t61.5 41.5q20 19 33.5 43t22 49.5
t12 51.5t3.5 50h-218v63h287zM411 -60v-88q0 -19 -4 -40t-21 -38q-8 -8 -21.5 -15.5t-32.5 -9.5v46q17 3 27 13q9 9 11 20.5t2 18.5v12h-40v81h79z" />
    <glyph glyph-name="gcommaaccent" unicode="&#x123;" horiz-adv-x="588" 
d="M151 -62q7 -21 18 -34t21 -21q23 -17 49 -21t47 -4q24 0 54 5.5t55 28.5q16 14 25.5 31.5t14 35.5t6 36t1.5 35v59q-11 -23 -28.5 -43t-36.5 -31q-23 -14 -48.5 -18.5t-49.5 -4.5q-41 0 -82.5 11.5t-78.5 52.5q-21 23 -34 50t-20.5 54t-10 53t-2.5 47q0 18 1.5 43t8 53.5
t20 58t37.5 54.5q36 37 77 48t79 11q27 0 54.5 -5.5t53.5 -22.5q16 -10 32.5 -26t29.5 -41h2v75h65v-484q0 -42 -10 -84.5t-46 -77.5t-81 -45t-82 -10q-17 0 -38.5 1.5t-44.5 6.5t-45 15.5t-40 28.5q-14 14 -25.5 33.5t-16.5 45.5h69zM289 42q29 0 55.5 11.5t43.5 28.5
q21 20 33 49.5t17.5 57t6.5 49.5t1 27q0 46 -11.5 92.5t-39.5 75.5q-20 20 -49 32.5t-66 12.5q-35 0 -61 -11.5t-44 -30.5q-18 -18 -28 -41t-15 -46.5t-6.5 -44.5t-1.5 -36q0 -18 1.5 -41t7 -47.5t16.5 -48.5t29 -43q23 -23 53 -34.5t58 -11.5zM237.985 559.966v87.9951
q0 18.998 4 39.9971t20.999 37.998q7.99902 7.99902 21.498 15.499q13.499 7.49902 32.498 9.49902v-45.9971q-16.999 -3 -26.998 -12.999q-9 -9 -10.999 -20.499q-2 -11.499 -2 -18.499v-11.999h39.9971v-80.9951h-78.9951z" />
    <glyph glyph-name="Hcircumflex" unicode="&#x124;" horiz-adv-x="704" 
d="M164 0h-74v700h74v-299h376v299h74v-700h-74v338h-376v-338zM409 900l119 -132h-68l-109 105l-108 -105h-68l119 132h115z" />
    <glyph glyph-name="hcircumflex" unicode="&#x125;" horiz-adv-x="562" 
d="M146 700v-266q12 22 27.5 37t34.5 27q25 16 50.5 23t58.5 7q47 0 77 -13t48 -31q16 -16 24.5 -33.5t12.5 -35.5t5 -36.5t1 -35.5v-343h-69v316v31t-2 34t-8 33.5t-19 30.5t-34 23.5t-49 9.5q-33 0 -62 -12.5t-49 -33.5q-17 -18 -26.5 -37.5t-14 -38.5t-5.5 -37.5
t-1 -34.5v-284h-69v700h69zM171 860l119 -132h-68l-109 105l-108 -105h-68l119 132h115z" />
    <glyph glyph-name="Hbar" unicode="&#x126;" horiz-adv-x="704" 
d="M164 0h-74v562h-63v56h63v82h74v-82h376v82h74v-82h62v-56h-62v-562h-74v338h-376v-338zM540 401v161h-376v-161h376z" />
    <glyph glyph-name="hbar" unicode="&#x127;" horiz-adv-x="562" 
d="M16 646h61v54h69v-54h179v-46h-179v-166q12 22 27.5 37t34.5 27q25 16 50.5 23t58.5 7q47 0 77 -13t48 -31q16 -16 24.5 -33.5t12.5 -35.5t5 -36.5t1 -35.5v-343h-69v347q0 17 -2 34t-8 33.5t-19 30.5t-34 23.5t-49 9.5q-33 0 -62 -12.5t-49 -33.5q-17 -18 -26.5 -37.5
t-14 -38.5t-5.5 -37.5t-1 -34.5v-284h-69v600h-61v46z" />
    <glyph glyph-name="Itilde" unicode="&#x128;" horiz-adv-x="254" 
d="M164 700v-700h-74v700h74zM314 860q-5 -19 -15.5 -41t-24.5 -36q-25 -25 -61 -25q-29 0 -47.5 7t-36.5 19l-24 16q-14 9 -25.5 15t-34.5 6q-9 0 -19 -3t-18 -11q-7 -8 -11 -19t-5 -20h-50q8 43 35 70q14 14 31 22t41 8q23 0 40 -6t34 -18l24 -17q11 -8 26.5 -15t36.5 -7
q19 0 32 13q13 12 17 25t5 17h50z" />
    <glyph glyph-name="itilde" unicode="&#x129;" horiz-adv-x="217" 
d="M143 508v-508h-69v508h69zM294 700q-5 -18 -15.5 -40.5t-24.5 -36.5q-25 -25 -61 -25q-26 0 -43.5 7t-35.5 19l-24 16q-14 9 -25 15t-30 6q-14 0 -23 -4.5t-14 -9.5q-6 -7 -10.5 -18t-6.5 -21h-49q8 43 35 70q16 17 34 23.5t38 6.5q23 0 39 -7t30 -17l24 -17
q8 -6 23.5 -14t34.5 -8q18 0 32 13q8 8 14 19.5t10 22.5h48z" />
    <glyph glyph-name="Imacron" unicode="&#x12a;" horiz-adv-x="254" 
d="M164 700v-700h-74v700h74zM-25 827h309v-49h-309v49z" />
    <glyph glyph-name="imacron" unicode="&#x12b;" horiz-adv-x="217" 
d="M143 508v-508h-69v508h69zM-40 666h309v-46h-309v46z" />
    <glyph glyph-name="Iogonek" unicode="&#x12e;" horiz-adv-x="254" 
d="M164 700v-700q-15 -9 -29 -21t-23 -24q-10 -13 -16 -29.5t-6 -35.5q0 -8 2.5 -20t13.5 -22q8 -8 18 -10.5t21 -2.5q10 0 20.5 2.5t21.5 12.5q9 8 15 22t7 28h57q-2 -26 -13 -47t-25 -35q-22 -20 -46 -26t-47 -6q-21 0 -43 5t-42 23q-29 26 -29 70q0 38 23 70q10 14 23 26
t26 20h-3v700h74z" />
    <glyph glyph-name="iogonek" unicode="&#x12f;" horiz-adv-x="219" 
d="M144 508v-508q-15 -9 -29 -21t-23 -24q-10 -13 -16 -29.5t-6 -35.5q0 -8 2.5 -20t13.5 -22q8 -8 18 -10.5t21 -2.5q10 0 20.5 2.5t21.5 12.5q9 8 15 22t7 28h57q-2 -26 -13 -47t-25 -35q-20 -19 -43 -25.5t-48 -6.5q-20 0 -43.5 5t-43.5 23q-11 10 -20 27t-9 43
q0 14 4.5 32t18.5 38q8 11 20 23t31 23v508h69zM74 700h71v-84h-71v84z" />
    <glyph glyph-name="Idotaccent" unicode="&#x130;" horiz-adv-x="254" 
d="M164 700v-700h-74v700h74zM88 846h75v-74h-75v74z" />
    <glyph glyph-name="dotlessi" unicode="&#x131;" horiz-adv-x="217" 
d="M143 508v-508h-69v508h69z" />
    <glyph glyph-name="Jcircumflex" unicode="&#x134;" horiz-adv-x="512" 
d="M102 225v-6q0 -19 1 -39t5.5 -39.5t13.5 -37.5t24 -31q8 -8 29 -19t59 -11q29 0 50 8.5t36 22.5q28 27 34.5 66.5t6.5 78.5v482h74v-472q0 -23 -1.5 -49t-7.5 -52t-17 -50t-30 -44q-32 -34 -72 -44t-77 -10q-34 0 -73 9t-70 39q-18 18 -29.5 40.5t-18 47.5t-9 52t-2.5 54
v4h74zM452 900l119 -132h-68l-109 105l-108 -105h-68l119 132h115z" />
    <glyph glyph-name="jcircumflex" unicode="&#x135;" horiz-adv-x="222" 
d="M148 508v-556q0 -30 -5 -61.5t-24 -50.5q-10 -10 -22.5 -15.5t-25.5 -8.5t-24 -3.5t-18 -0.5q-19 0 -38 3v51h4q14 0 32 2.5t32 13.5q14 13 17 31.5t3 41.5v553h69zM176 700l119 -132h-68l-109 105l-108 -105h-68l119 132h115z" />
    <glyph glyph-name="Kcommaaccent" unicode="&#x136;" horiz-adv-x="651" 
d="M534 700h99l-292 -287l312 -413h-97l-269 364l-123 -120v-244h-74v700h74v-366zM392 -60v-88q0 -19 -4 -40t-21 -38q-8 -8 -21.5 -15.5t-32.5 -9.5v46q17 3 27 13q9 9 11 20.5t2 18.5v12h-40v81h79z" />
    <glyph glyph-name="kcommaaccent" unicode="&#x137;" horiz-adv-x="506" 
d="M406 508h83l-201 -195l220 -313h-80l-189 270l-93 -91v-179h-69v700h69v-445zM327 -60v-88q0 -19 -4 -40t-21 -38q-8 -8 -21.5 -15.5t-32.5 -9.5v46q17 3 27 13q9 9 11 20.5t2 18.5v12h-40v81h79z" />
    <glyph glyph-name="Lacute" unicode="&#x139;" horiz-adv-x="526" 
d="M528 0h-438v700h74v-637h364v-63zM276 900l-99 -140h-65l72 140h92z" />
    <glyph glyph-name="lacute" unicode="&#x13a;" horiz-adv-x="223" 
d="M146 700v-700h-69v700h69zM220 860l-95 -132h-61l70 132h86z" />
    <glyph glyph-name="Lcommaaccent" unicode="&#x13b;" horiz-adv-x="526" 
d="M528 0h-438v700h74v-637h364v-63zM352 -60v-88q0 -19 -4 -40t-21 -38q-8 -8 -21.5 -15.5t-32.5 -9.5v46q17 3 27 13q9 9 11 20.5t2 18.5v12h-40v81h79z" />
    <glyph glyph-name="lcommaaccent" unicode="&#x13c;" horiz-adv-x="223" 
d="M146 700v-700h-69v700h69zM150 -60v-88q0 -19 -4 -40t-21 -38q-8 -8 -21.5 -15.5t-32.5 -9.5v46q17 3 27 13q9 9 11 20.5t2 18.5v12h-40v81h79z" />
    <glyph glyph-name="Lcaron" unicode="&#x13d;" horiz-adv-x="526" 
d="M528 0h-438v700h74v-637h364v-63zM348 700v-115q0 -29 -5.5 -52.5t-23.5 -41.5q-5 -5 -18 -13.5t-33 -13.5v46q7 2 15 6.5t15 16.5t8.5 25t1.5 26v22h-40v94h80z" />
    <glyph glyph-name="lcaron" unicode="&#x13e;" horiz-adv-x="223" 
d="M146 700v-700h-69v700h69zM268 700v-115q0 -29 -5.5 -52.5t-23.5 -41.5q-5 -5 -18 -13.5t-33 -13.5v46q7 2 15 6.5t15 16.5t8.5 25t1.5 26v22h-40v94h80z" />
    <glyph glyph-name="Ldot" unicode="&#x13f;" horiz-adv-x="526" 
d="M528 0h-438v700h74v-637h364v-63zM338 397h75v-74h-75v74z" />
    <glyph glyph-name="ldot" unicode="&#x140;" horiz-adv-x="293" 
d="M146 700v-700h-69v700h69zM218 401h74v-84h-74v84z" />
    <glyph glyph-name="Lslash" unicode="&#x141;" horiz-adv-x="519" 
d="M521 0h-439v166l-84 -81v58l84 82v475h74v-407l234 231v-58l-234 -232v-171h365v-63z" />
    <glyph glyph-name="lslash" unicode="&#x142;" horiz-adv-x="251" 
d="M160 700v-260l113 78v-57l-113 -78v-383h-69v342l-113 -77v57l113 77v301h69z" />
    <glyph glyph-name="Nacute" unicode="&#x143;" horiz-adv-x="732" 
d="M164 0h-74v700h85l393 -589v589h74v-700h-84l-394 589v-589zM491 900l-99 -140h-65l72 140h92z" />
    <glyph glyph-name="nacute" unicode="&#x144;" horiz-adv-x="563" 
d="M146 508v-74q14 23 32 39t38 28q25 14 49 20.5t51 6.5q41 0 72.5 -12t51.5 -32q32 -32 39 -69t7 -72v-343h-69v333q0 12 -0.5 27.5t-4 31.5t-11 32t-21.5 28q-15 13 -36.5 19.5t-41.5 6.5q-30 0 -57 -11t-47 -30q-18 -18 -28.5 -38.5t-16 -41.5t-6.5 -40t-1 -33v-284h-69
v508h69zM403 700l-95 -132h-61l70 132h86z" />
    <glyph glyph-name="Ncommaaccent" unicode="&#x145;" horiz-adv-x="732" 
d="M164 0h-74v700h85l393 -589v589h74v-700h-84l-394 589v-589zM405 -60v-88q0 -19 -4 -40t-21 -38q-8 -8 -21.5 -15.5t-32.5 -9.5v46q17 3 27 13q9 9 11 20.5t2 18.5v12h-40v81h79z" />
    <glyph glyph-name="ncommaaccent" unicode="&#x146;" horiz-adv-x="563" 
d="M146 508v-74q14 23 32 39t38 28q25 14 49 20.5t51 6.5q41 0 72.5 -12t51.5 -32q32 -32 39 -69t7 -72v-343h-69v333q0 12 -0.5 27.5t-4 31.5t-11 32t-21.5 28q-15 13 -36.5 19.5t-41.5 6.5q-30 0 -57 -11t-47 -30q-18 -18 -28.5 -38.5t-16 -41.5t-6.5 -40t-1 -33v-284h-69
v508h69zM322 -60v-88q0 -19 -4 -40t-21 -38q-8 -8 -21.5 -15.5t-32.5 -9.5v46q17 3 27 13q9 9 11 20.5t2 18.5v12h-40v81h79z" />
    <glyph glyph-name="Ncaron" unicode="&#x147;" horiz-adv-x="732" 
d="M164 0h-74v700h85l393 -589v589h74v-700h-84l-394 589v-589zM257 900l109 -112l108 112h74l-121 -140h-123l-121 140h74z" />
    <glyph glyph-name="ncaron" unicode="&#x148;" horiz-adv-x="563" 
d="M146 508v-74q14 23 32 39t38 28q25 14 49 20.5t51 6.5q41 0 72.5 -12t51.5 -32q32 -32 39 -69t7 -72v-343h-69v333q0 12 -0.5 27.5t-4 31.5t-11 32t-21.5 28q-15 13 -36.5 19.5t-41.5 6.5q-30 0 -57 -11t-47 -30q-18 -18 -28.5 -38.5t-16 -41.5t-6.5 -40t-1 -33v-284h-69
v508h69zM247 568l-119 132h68l108 -105l109 105h68l-119 -132h-115z" />
    <glyph glyph-name="Omacron" unicode="&#x14c;" horiz-adv-x="786" 
d="M390 721q42 0 76.5 -7t62.5 -18.5t49.5 -25.5t37.5 -29q18 -17 37 -42t34 -60.5t25 -82t10 -106.5q0 -58 -9.5 -104.5t-24.5 -82.5t-33.5 -62t-36.5 -43q-26 -25 -54 -40.5t-57 -24t-57.5 -11.5t-54.5 -3q-89 0 -144.5 25t-86.5 56q-8 7 -24.5 28t-33 56t-29.5 86
t-13 120q0 52 8.5 96t22.5 80t32.5 64t38.5 48q13 13 33 27.5t47.5 27t63 20.5t80.5 8zM394 658q-64 0 -103 -19t-60 -38q-35 -32 -62 -95t-27 -160q0 -78 20.5 -139t57.5 -99q26 -26 69.5 -46t104.5 -20q64 0 105 21t66 46q35 35 57 93t22 146q0 50 -7.5 90t-20 71t-29 54
t-33.5 39q-38 35 -80 45.5t-80 10.5zM238 827h309v-49h-309v49z" />
    <glyph glyph-name="omacron" unicode="&#x14d;" horiz-adv-x="588" 
d="M294 528q39 0 83 -11t83 -48q22 -21 36.5 -47t23.5 -54.5t13 -57.5t4 -56q0 -24 -3 -52.5t-12 -57.5t-25 -57t-41 -51q-38 -35 -78.5 -45.5t-82.5 -10.5t-84.5 10.5t-79.5 45.5q-14 12 -28 31t-25.5 46t-19 62t-7.5 79q0 45 7.5 80t19 61t25 44t25.5 30q19 19 40.5 30.5
t43 18t42.5 8.5t40 2zM294 479q-40 0 -68 -12.5t-45 -29.5q-23 -23 -40.5 -66.5t-17.5 -115.5t18 -116.5t44 -69.5q26 -24 54.5 -31.5t54.5 -7.5t54.5 7.5t53.5 30.5q27 25 44.5 71.5t17.5 115.5q0 47 -11.5 95.5t-41.5 81.5q-15 16 -43 31.5t-74 15.5zM135 666h309v-46
h-309v46z" />
    <glyph glyph-name="Ohungarumlaut" unicode="&#x150;" horiz-adv-x="786" 
d="M390 721q42 0 76.5 -7t62.5 -18.5t49.5 -25.5t37.5 -29q18 -17 37 -42t34 -60.5t25 -82t10 -106.5q0 -58 -9.5 -104.5t-24.5 -82.5t-33.5 -62t-36.5 -43q-26 -25 -54 -40.5t-57 -24t-57.5 -11.5t-54.5 -3q-89 0 -144.5 25t-86.5 56q-8 7 -24.5 28t-33 56t-29.5 86
t-13 120q0 52 8.5 96t22.5 80t32.5 64t38.5 48q13 13 33 27.5t47.5 27t63 20.5t80.5 8zM394 658q-64 0 -103 -19t-60 -38q-35 -32 -62 -95t-27 -160q0 -78 20.5 -139t57.5 -99q26 -26 69.5 -46t104.5 -20q64 0 105 21t66 46q35 35 57 93t22 146q0 50 -7.5 90t-20 71t-29 54
t-33.5 39q-38 35 -80 45.5t-80 10.5zM424 900l-95 -140h-61l70 140h86zM567 900l-95 -140h-61l70 140h86z" />
    <glyph glyph-name="ohungarumlaut" unicode="&#x151;" horiz-adv-x="588" 
d="M294 528q39 0 83 -11t83 -48q22 -21 36.5 -47t23.5 -54.5t13 -57.5t4 -56q0 -24 -3 -52.5t-12 -57.5t-25 -57t-41 -51q-38 -35 -78.5 -45.5t-82.5 -10.5t-84.5 10.5t-79.5 45.5q-14 12 -28 31t-25.5 46t-19 62t-7.5 79q0 45 7.5 80t19 61t25 44t25.5 30q19 19 40.5 30.5
t43 18t42.5 8.5t40 2zM294 479q-40 0 -68 -12.5t-45 -29.5q-23 -23 -40.5 -66.5t-17.5 -115.5t18 -116.5t44 -69.5q26 -24 54.5 -31.5t54.5 -7.5t54.5 7.5t53.5 30.5q27 25 44.5 71.5t17.5 115.5q0 47 -11.5 95.5t-41.5 81.5q-15 16 -43 31.5t-74 15.5zM344 700l-95 -132
h-61l70 132h86zM487 700l-95 -132h-61l70 132h86z" />
    <glyph glyph-name="OE" unicode="&#x152;" horiz-adv-x="1162" 
d="M1128 700v-63h-410v-243h374v-63h-374v-268h422v-63h-496v107q-23 -38 -50.5 -61t-49.5 -34t-44.5 -17.5t-44 -10t-40 -4.5t-31.5 -1q-63 0 -116 17t-100 62q-14 14 -32 37.5t-34 59t-27 83.5t-11 111q0 100 26.5 171t71.5 116q50 50 109.5 67.5t121.5 17.5q41 0 76.5 -6
t71.5 -25q38 -20 62.5 -45.5t40.5 -56.5v112h484zM393 658q-48 0 -91.5 -16t-75.5 -47q-25 -24 -41.5 -56t-26 -65t-13 -65.5t-3.5 -58.5t3.5 -58.5t13 -65.5t26 -65t41.5 -56q32 -31 75.5 -47t91.5 -16t91.5 16t75.5 47q25 24 41.5 56t26 65t13 65.5t3.5 58.5t-3.5 58.5
t-13 65.5t-26 65t-41.5 56q-32 31 -75.5 47t-91.5 16z" />
    <glyph glyph-name="oe" unicode="&#x153;" horiz-adv-x="983" 
d="M927 148q-8 -40 -25.5 -68t-35.5 -45q-36 -35 -76.5 -45t-82.5 -10q-30 0 -66 6.5t-69 27.5q-21 14 -40.5 35.5t-33.5 52.5q-14 -34 -35.5 -56t-42.5 -34q-29 -17 -63.5 -24.5t-63.5 -7.5q-18 0 -38.5 2t-42.5 8t-43.5 18t-41.5 32q-37 37 -56.5 94.5t-19.5 121.5
t20.5 122.5t59.5 94.5q19 18 40.5 28.5t43 16.5t42.5 8t39 2q29 0 61.5 -5.5t64.5 -25.5q33 -20 50.5 -44t25.5 -45q15 31 35.5 52.5t41.5 35.5q32 20 65.5 26t62.5 6q19 0 40 -2.5t42.5 -9t42.5 -19t40 -31.5q22 -23 35 -50.5t19.5 -56t8 -56.5t1.5 -52v-10h-398
q0 -17 2 -38t8 -43t17 -43t28 -39q46 -48 120 -48q43 0 69.5 12.5t41.5 27.5q16 16 26 37t14 41h67zM859 291q0 31 -5 55t-12 41t-15.5 28.5t-15.5 19.5q-23 23 -49.5 33t-58.5 10q-28 0 -60.5 -8.5t-60.5 -38.5q-14 -15 -22.5 -32.5t-14 -36.5t-8 -37t-3.5 -34h325z
M124 254q0 -18 1.5 -41.5t7.5 -48.5t17.5 -49.5t31.5 -43.5q29 -27 60 -34t51 -7q40 0 67 12t45 29q19 19 30.5 43.5t17.5 49.5t8 48.5t2 41.5t-2 41.5t-8 48.5t-17.5 49.5t-30.5 43.5q-18 17 -45 29t-67 12q-20 0 -51 -7t-60 -34q-20 -19 -31.5 -43.5t-17.5 -49.5
t-7.5 -48.5t-1.5 -41.5z" />
    <glyph glyph-name="Racute" unicode="&#x154;" horiz-adv-x="690" 
d="M90 700h297q58 0 103.5 -9t80.5 -45q17 -18 32.5 -49.5t15.5 -80.5q0 -34 -9 -65t-33 -59q-20 -23 -41.5 -34t-38.5 -16v-2q25 -6 40 -17t21 -17q14 -14 22 -29.5t11.5 -32.5t4.5 -34t1 -34l2 -79q1 -18 4 -43t23 -54h-80q-5 8 -13 28.5t-10 62.5l-3 74q-1 18 -1.5 34
t-4 30.5t-10 27t-19.5 23.5q-12 10 -25 15.5t-26.5 8.5t-26 3.5t-22.5 0.5h-221v-308h-74v700zM164 371h216q35 0 68 9t53 28q17 17 28 44.5t11 59.5q0 37 -11 59.5t-25 33.5q-14 12 -31 18.5t-34.5 9.5t-34 3.5t-28.5 0.5h-212v-266zM461 900l-99 -140h-65l72 140h92z" />
    <glyph glyph-name="racute" unicode="&#x155;" horiz-adv-x="339" 
d="M341 462h-10q-48 0 -79 -11t-56 -37q-32 -32 -41 -69.5t-9 -82.5v-262h-69v508h69v-101h2q12 30 29.5 49t33.5 30q31 21 61.5 26.5t57.5 5.5h11v-56zM308 700l-95 -132h-61l70 132h86z" />
    <glyph glyph-name="Rcommaaccent" unicode="&#x156;" horiz-adv-x="690" 
d="M90 700h297q58 0 103.5 -9t80.5 -45q17 -18 32.5 -49.5t15.5 -80.5q0 -34 -9 -65t-33 -59q-20 -23 -41.5 -34t-38.5 -16v-2q25 -6 40 -17t21 -17q14 -14 22 -29.5t11.5 -32.5t4.5 -34t1 -34l2 -79q1 -18 4 -43t23 -54h-80q-5 8 -13 28.5t-10 62.5l-3 74q-1 18 -1.5 34
t-4 30.5t-10 27t-19.5 23.5q-12 10 -25 15.5t-26.5 8.5t-26 3.5t-22.5 0.5h-221v-308h-74v700zM164 371h216q35 0 68 9t53 28q17 17 28 44.5t11 59.5q0 37 -11 59.5t-25 33.5q-14 12 -31 18.5t-34.5 9.5t-34 3.5t-28.5 0.5h-212v-266zM392 -60v-88q0 -19 -4 -40t-21 -38
q-8 -8 -21.5 -15.5t-32.5 -9.5v46q17 3 27 13q9 9 11 20.5t2 18.5v12h-40v81h79z" />
    <glyph glyph-name="rcommaaccent" unicode="&#x157;" horiz-adv-x="339" 
d="M341 462h-10q-48 0 -79 -11t-56 -37q-32 -32 -41 -69.5t-9 -82.5v-262h-69v508h69v-101h2q12 30 29.5 49t33.5 30q31 21 61.5 26.5t57.5 5.5h11v-56zM150 -60v-88q0 -19 -4 -40t-21 -38q-8 -8 -21.5 -15.5t-32.5 -9.5v46q17 3 27 13q9 9 11 20.5t2 18.5v12h-40v81h79z
" />
    <glyph glyph-name="Rcaron" unicode="&#x158;" horiz-adv-x="690" 
d="M90 700h297q58 0 103.5 -9t80.5 -45q17 -18 32.5 -49.5t15.5 -80.5q0 -34 -9 -65t-33 -59q-20 -23 -41.5 -34t-38.5 -16v-2q25 -6 40 -17t21 -17q14 -14 22 -29.5t11.5 -32.5t4.5 -34t1 -34l2 -79q1 -18 4 -43t23 -54h-80q-5 8 -13 28.5t-10 62.5l-3 74q-1 18 -1.5 34
t-4 30.5t-10 27t-19.5 23.5q-12 10 -25 15.5t-26.5 8.5t-26 3.5t-22.5 0.5h-221v-308h-74v700zM164 371h216q35 0 68 9t53 28q17 17 28 44.5t11 59.5q0 37 -11 59.5t-25 33.5q-14 12 -31 18.5t-34.5 9.5t-34 3.5t-28.5 0.5h-212v-266zM237 900l109 -112l108 112h74
l-121 -140h-123l-121 140h74z" />
    <glyph glyph-name="rcaron" unicode="&#x159;" horiz-adv-x="339" 
d="M341 462h-10q-48 0 -79 -11t-56 -37q-32 -32 -41 -69.5t-9 -82.5v-262h-69v508h69v-101h2q12 30 29.5 49t33.5 30q31 21 61.5 26.5t57.5 5.5h11v-56zM99 568l-119 132h68l108 -105l109 105h68l-119 -132h-115z" />
    <glyph glyph-name="Sacute" unicode="&#x15a;" horiz-adv-x="651" 
d="M126 221q-1 -44 14.5 -74t31.5 -46q30 -31 75.5 -44t87.5 -13q43 0 83 11.5t65 35.5q17 17 28 41t11 53q0 25 -9 47t-22 36q-12 13 -30.5 22.5t-38 16.5t-37 11t-28.5 6l-70 13q-22 4 -46 9.5t-47.5 14t-45 21t-37.5 30.5q-15 17 -28 43.5t-13 67.5q0 55 24 94.5t60 62.5
q23 15 49.5 23.5t51 12.5t44 5t30.5 1q38 0 68.5 -6t53.5 -15t40 -20.5t29 -22.5q3 -3 12 -13.5t19 -27.5t18.5 -41t11.5 -55h-74q-3 31 -16 56t-30 41q-25 23 -62.5 32t-75.5 9q-6 0 -19 -0.5t-29.5 -3.5t-35 -8.5t-33.5 -14.5q-28 -17 -43 -44.5t-15 -59.5q0 -26 9 -43
t18 -27q21 -22 54.5 -33t69.5 -18l66 -13q57 -11 104.5 -27t79.5 -46q20 -19 35.5 -50t15.5 -79t-16 -86.5t-44 -64.5q-22 -20 -48 -32t-53 -18t-52 -8t-45 -2q-27 0 -56.5 2.5t-59.5 10t-58 22t-52 38.5q-23 23 -44 65t-21 102h75zM446 900l-99 -140h-65l72 140h92z" />
    <glyph glyph-name="sacute" unicode="&#x15b;" horiz-adv-x="491" 
d="M108 148q0 -31 11.5 -52t23.5 -32q14 -14 40.5 -24t69.5 -10q38 0 60.5 8.5t34.5 18.5q16 13 25 34t9 45q0 17 -6.5 32t-20.5 27q-9 8 -27.5 16.5t-56.5 16.5l-56 12q-35 8 -69 19t-55 32q-16 16 -25 39t-9 49q0 36 17 67.5t46 51.5q31 20 67 25t59 5q14 0 33 -1.5
t39.5 -7t40.5 -15.5t37 -26q16 -15 29 -40.5t14 -61.5h-67q0 22 -8 41t-20 31q-32 30 -99 30q-20 0 -46.5 -5t-46.5 -25q-8 -8 -15.5 -23.5t-7.5 -38.5q0 -17 6 -31t20 -27q17 -14 38.5 -21t42.5 -12l53 -12q32 -8 64 -17t55 -27q20 -15 32.5 -38.5t12.5 -58.5
q0 -42 -17 -74.5t-43 -51.5q-17 -13 -37.5 -20t-40 -10.5t-37 -4.5t-28.5 -1q-66 0 -104.5 17t-58.5 37q-22 23 -34 54.5t-15 59.5h70zM350 700l-95 -132h-61l70 132h86z" />
    <glyph glyph-name="Scircumflex" unicode="&#x15c;" horiz-adv-x="651" 
d="M126 221q-1 -44 14.5 -74t31.5 -46q30 -31 75.5 -44t87.5 -13q43 0 83 11.5t65 35.5q17 17 28 41t11 53q0 25 -9 47t-22 36q-12 13 -30.5 22.5t-38 16.5t-37 11t-28.5 6l-70 13q-22 4 -46 9.5t-47.5 14t-45 21t-37.5 30.5q-15 17 -28 43.5t-13 67.5q0 55 24 94.5t60 62.5
q23 15 49.5 23.5t51 12.5t44 5t30.5 1q38 0 68.5 -6t53.5 -15t40 -20.5t29 -22.5q3 -3 12 -13.5t19 -27.5t18.5 -41t11.5 -55h-74q-3 31 -16 56t-30 41q-25 23 -62.5 32t-75.5 9q-6 0 -19 -0.5t-29.5 -3.5t-35 -8.5t-33.5 -14.5q-28 -17 -43 -44.5t-15 -59.5q0 -26 9 -43
t18 -27q21 -22 54.5 -33t69.5 -18l66 -13q57 -11 104.5 -27t79.5 -46q20 -19 35.5 -50t15.5 -79t-16 -86.5t-44 -64.5q-22 -20 -48 -32t-53 -18t-52 -8t-45 -2q-27 0 -56.5 2.5t-59.5 10t-58 22t-52 38.5q-23 23 -44 65t-21 102h75zM392 900l119 -132h-68l-109 105
l-108 -105h-68l119 132h115z" />
    <glyph glyph-name="scircumflex" unicode="&#x15d;" horiz-adv-x="491" 
d="M108 148q0 -31 11.5 -52t23.5 -32q14 -14 40.5 -24t69.5 -10q38 0 60.5 8.5t34.5 18.5q16 13 25 34t9 45q0 17 -6.5 32t-20.5 27q-9 8 -27.5 16.5t-56.5 16.5l-56 12q-35 8 -69 19t-55 32q-16 16 -25 39t-9 49q0 36 17 67.5t46 51.5q31 20 67 25t59 5q14 0 33 -1.5
t39.5 -7t40.5 -15.5t37 -26q16 -15 29 -40.5t14 -61.5h-67q0 22 -8 41t-20 31q-32 30 -99 30q-20 0 -46.5 -5t-46.5 -25q-8 -8 -15.5 -23.5t-7.5 -38.5q0 -17 6 -31t20 -27q17 -14 38.5 -21t42.5 -12l53 -12q32 -8 64 -17t55 -27q20 -15 32.5 -38.5t12.5 -58.5
q0 -42 -17 -74.5t-43 -51.5q-17 -13 -37.5 -20t-40 -10.5t-37 -4.5t-28.5 -1q-66 0 -104.5 17t-58.5 37q-22 23 -34 54.5t-15 59.5h70zM302 700l119 -132h-68l-109 105l-108 -105h-68l119 132h115z" />
    <glyph glyph-name="Scedilla" unicode="&#x15e;" horiz-adv-x="651" 
d="M126 221q-1 -44 14.5 -74t31.5 -46q30 -31 75.5 -44t87.5 -13q43 0 83 11.5t65 35.5q17 17 28 41t11 53q0 25 -9 47t-22 36q-12 13 -30.5 22.5t-38 16.5t-37 11t-28.5 6l-70 13q-22 4 -46 9.5t-47.5 14t-45 21t-37.5 30.5q-15 17 -28 43.5t-13 67.5q0 55 24 94.5t60 62.5
q23 15 49.5 23.5t51 12.5t44 5t30.5 1q38 0 68.5 -6t53.5 -15t40 -20.5t29 -22.5q3 -3 12 -13.5t19 -27.5t18.5 -41t11.5 -55h-74q-3 31 -16 56t-30 41q-25 23 -62.5 32t-75.5 9q-6 0 -19 -0.5t-29.5 -3.5t-35 -8.5t-33.5 -14.5q-28 -17 -43 -44.5t-15 -59.5q0 -26 9 -43
t18 -27q21 -22 54.5 -33t69.5 -18l66 -13q57 -11 104.5 -27t79.5 -46q20 -19 35.5 -50t15.5 -79t-16 -86.5t-44 -64.5q-22 -20 -48 -32t-53 -18t-52 -8t-45 -2q-27 0 -56.5 2.5t-59.5 10t-58 22t-52 38.5q-23 23 -44 65t-21 102h75zM235 -187q15 -5 29.5 -6.5t28.5 -1.5
q22 0 43 3t32 15q5 5 8 14t3 17q0 11 -4 18.5t-9 11.5q-11 10 -31.5 13t-40.5 3h-31l12 42h28q38 0 67.5 -5.5t48.5 -24.5q21 -21 21 -53q0 -23 -7 -40.5t-18 -28.5q-19 -19 -48.5 -24.5t-62.5 -5.5q-22 0 -42.5 2t-40.5 6z" />
    <glyph glyph-name="scedilla" unicode="&#x15f;" horiz-adv-x="491" 
d="M108 148q0 -31 11.5 -52t23.5 -32q14 -14 40.5 -24t69.5 -10q38 0 60.5 8.5t34.5 18.5q16 13 25 34t9 45q0 17 -6.5 32t-20.5 27q-9 8 -27.5 16.5t-56.5 16.5l-56 12q-35 8 -69 19t-55 32q-16 16 -25 39t-9 49q0 36 17 67.5t46 51.5q31 20 67 25t59 5q14 0 33 -1.5
t39.5 -7t40.5 -15.5t37 -26q16 -15 29 -40.5t14 -61.5h-67q0 22 -8 41t-20 31q-32 30 -99 30q-20 0 -46.5 -5t-46.5 -25q-8 -8 -15.5 -23.5t-7.5 -38.5q0 -17 6 -31t20 -27q17 -14 38.5 -21t42.5 -12l53 -12q32 -8 64 -17t55 -27q20 -15 32.5 -38.5t12.5 -58.5
q0 -42 -17 -74.5t-43 -51.5q-17 -13 -37.5 -20t-40 -10.5t-37 -4.5t-28.5 -1q-66 0 -104.5 17t-58.5 37q-22 23 -34 54.5t-15 59.5h70zM145 -187q15 -5 29.5 -6.5t28.5 -1.5q22 0 43 3t32 15q5 5 8 14t3 17q0 11 -4 18.5t-9 11.5q-11 10 -31.5 13t-40.5 3h-31l12 42h28
q38 0 67.5 -5.5t48.5 -24.5q21 -21 21 -53q0 -23 -7 -40.5t-18 -28.5q-19 -19 -48.5 -24.5t-62.5 -5.5q-22 0 -42.5 2t-40.5 6z" />
    <glyph glyph-name="Scaron" unicode="&#x160;" horiz-adv-x="651" 
d="M126 221q-1 -44 14.5 -74t31.5 -46q30 -31 75.5 -44t87.5 -13q43 0 83 11.5t65 35.5q17 17 28 41t11 53q0 25 -9 47t-22 36q-12 13 -30.5 22.5t-38 16.5t-37 11t-28.5 6l-70 13q-22 4 -46 9.5t-47.5 14t-45 21t-37.5 30.5q-15 17 -28 43.5t-13 67.5q0 55 24 94.5t60 62.5
q23 15 49.5 23.5t51 12.5t44 5t30.5 1q38 0 68.5 -6t53.5 -15t40 -20.5t29 -22.5q3 -3 12 -13.5t19 -27.5t18.5 -41t11.5 -55h-74q-3 31 -16 56t-30 41q-25 23 -62.5 32t-75.5 9q-6 0 -19 -0.5t-29.5 -3.5t-35 -8.5t-33.5 -14.5q-28 -17 -43 -44.5t-15 -59.5q0 -26 9 -43
t18 -27q21 -22 54.5 -33t69.5 -18l66 -13q57 -11 104.5 -27t79.5 -46q20 -19 35.5 -50t15.5 -79t-16 -86.5t-44 -64.5q-22 -20 -48 -32t-53 -18t-52 -8t-45 -2q-27 0 -56.5 2.5t-59.5 10t-58 22t-52 38.5q-23 23 -44 65t-21 102h75zM217 900l109 -112l108 112h74l-121 -140
h-123l-121 140h74z" />
    <glyph glyph-name="scaron" unicode="&#x161;" horiz-adv-x="491" 
d="M108 148q0 -31 11.5 -52t23.5 -32q14 -14 40.5 -24t69.5 -10q38 0 60.5 8.5t34.5 18.5q16 13 25 34t9 45q0 17 -6.5 32t-20.5 27q-9 8 -27.5 16.5t-56.5 16.5l-56 12q-35 8 -69 19t-55 32q-16 16 -25 39t-9 49q0 36 17 67.5t46 51.5q31 20 67 25t59 5q14 0 33 -1.5
t39.5 -7t40.5 -15.5t37 -26q16 -15 29 -40.5t14 -61.5h-67q0 22 -8 41t-20 31q-32 30 -99 30q-20 0 -46.5 -5t-46.5 -25q-8 -8 -15.5 -23.5t-7.5 -38.5q0 -17 6 -31t20 -27q17 -14 38.5 -21t42.5 -12l53 -12q32 -8 64 -17t55 -27q20 -15 32.5 -38.5t12.5 -58.5
q0 -42 -17 -74.5t-43 -51.5q-17 -13 -37.5 -20t-40 -10.5t-37 -4.5t-28.5 -1q-66 0 -104.5 17t-58.5 37q-22 23 -34 54.5t-15 59.5h70zM187 568l-119 132h68l108 -105l109 105h68l-119 -132h-115z" />
    <glyph glyph-name="Tcedilla" unicode="&#x162;" horiz-adv-x="546" 
d="M4 637v63h538v-63h-232v-637h-74v637h-232zM175 -187q15 -5 29.5 -6.5t28.5 -1.5q22 0 43 3t32 15q5 5 8 14t3 17q0 11 -4 18.5t-9 11.5q-11 10 -31.5 13t-40.5 3h-31l12 42h28q38 0 67.5 -5.5t48.5 -24.5q21 -21 21 -53q0 -23 -7 -40.5t-18 -28.5q-19 -19 -48.5 -24.5
t-62.5 -5.5q-22 0 -42.5 2t-40.5 6z" />
    <glyph glyph-name="tcedilla" unicode="&#x163;" horiz-adv-x="292" 
d="M101 508v152h69v-152h109v-50h-109v-368q0 -8 1.5 -19t8.5 -19q8 -9 19.5 -11t20.5 -2q15 0 28.5 2.5t30.5 8.5v-50q-21 -8 -41.5 -11t-38.5 -3q-34 0 -51.5 8.5t-24.5 16.5q-15 17 -18.5 39.5t-3.5 38.5v369h-95v50h95zM90 -187q15 -5 29.5 -6.5t28.5 -1.5q22 0 43 3
t32 15q5 5 8 14t3 17q0 11 -4 18.5t-9 11.5q-11 10 -31.5 13t-40.5 3h-31l12 42h28q38 0 67.5 -5.5t48.5 -24.5q21 -21 21 -53q0 -23 -7 -40.5t-18 -28.5q-19 -19 -48.5 -24.5t-62.5 -5.5q-22 0 -42.5 2t-40.5 6z" />
    <glyph glyph-name="Tcaron" unicode="&#x164;" horiz-adv-x="546" 
d="M4 637v63h538v-63h-232v-637h-74v637h-232zM164 900l109 -112l108 112h74l-121 -140h-123l-121 140h74z" />
    <glyph glyph-name="tcaron" unicode="&#x165;" horiz-adv-x="346" 
d="M101 508v152h69v-152h109v-50h-109v-368q0 -8 1.5 -19t8.5 -19q8 -9 19.5 -11t20.5 -2q15 0 28.5 2.5t30.5 8.5v-50q-21 -8 -41.5 -11t-38.5 -3q-34 0 -51.5 8.5t-24.5 16.5q-15 17 -18.5 39.5t-3.5 38.5v369h-95v50h95zM388 700v-115q0 -29 -5.5 -52.5t-23.5 -41.5
q-5 -5 -18 -13.5t-33 -13.5v46q7 2 15 6.5t15 16.5t8.5 25t1.5 26v22h-40v94h80z" />
    <glyph glyph-name="Tbar" unicode="&#x166;" horiz-adv-x="546" 
d="M89 458h147v179h-232v63h538v-63h-232v-179h148v-56h-148v-402h-74v402h-147v56z" />
    <glyph glyph-name="tbar" unicode="&#x167;" horiz-adv-x="288" 
d="M4 346h95v112h-95v50h95v152h69v-152h109v-50h-109v-112h109v-50h-109v-206q0 -8 1.5 -19t8.5 -19q8 -9 19.5 -11t20.5 -2q15 0 28.5 2.5t30.5 8.5v-50q-21 -8 -41.5 -11t-38.5 -3q-34 0 -51.5 8.5t-24.5 16.5q-15 17 -18.5 39.5t-3.5 38.5v207h-95v50z" />
    <glyph glyph-name="Utilde" unicode="&#x168;" horiz-adv-x="691" 
d="M151 700v-420q0 -23 1 -47.5t5.5 -48t13.5 -45t25 -38.5q24 -26 64.5 -41t85.5 -15q46 0 85 14t63 40q31 34 38.5 82t7.5 99v420h74v-428q0 -26 -1.5 -55.5t-9 -58.5t-22 -57.5t-40.5 -53.5q-23 -22 -47.5 -35t-50 -19.5t-50.5 -8.5t-48 -2q-42 0 -74 6t-56 15.5
t-40.5 20.5t-27.5 21q-22 21 -35.5 47t-21 55.5t-10.5 61t-3 63.5v428h74zM538 860q-5 -19 -15.5 -41t-24.5 -36q-25 -25 -61 -25q-29 0 -47.5 7t-36.5 19l-24 16q-14 9 -25.5 15t-34.5 6q-9 0 -19 -3t-18 -11q-7 -8 -11 -19t-5 -20h-50q8 43 35 70q14 14 31 22t41 8
q23 0 40 -6t34 -18l24 -17q11 -8 26.5 -15t36.5 -7q19 0 32 13q13 12 17 25t5 17h50z" />
    <glyph glyph-name="utilde" unicode="&#x169;" horiz-adv-x="563" 
d="M417 0v73h-2q-28 -46 -66 -67q-23 -14 -53 -20t-57 -6q-46 0 -74 13.5t-44 29.5q-27 26 -35.5 61.5t-8.5 80.5v343h69v-316q0 -41 5 -75t28 -57q11 -11 30 -20.5t50 -9.5q23 0 53.5 9t59.5 39q31 33 38 70.5t7 75.5v284h69v-508h-69zM462 700q-5 -18 -15.5 -40.5
t-24.5 -36.5q-25 -25 -61 -25q-26 0 -43.5 7t-35.5 19l-24 16q-14 9 -25 15t-30 6q-14 0 -23 -4.5t-14 -9.5q-6 -7 -10.5 -18t-6.5 -21h-49q8 43 35 70q16 17 34 23.5t38 6.5q23 0 39 -7t30 -17l24 -17q8 -6 23.5 -14t34.5 -8q18 0 32 13q8 8 14 19.5t10 22.5h48z" />
    <glyph glyph-name="Umacron" unicode="&#x16a;" horiz-adv-x="691" 
d="M151 700v-420q0 -23 1 -47.5t5.5 -48t13.5 -45t25 -38.5q24 -26 64.5 -41t85.5 -15q46 0 85 14t63 40q31 34 38.5 82t7.5 99v420h74v-428q0 -26 -1.5 -55.5t-9 -58.5t-22 -57.5t-40.5 -53.5q-23 -22 -47.5 -35t-50 -19.5t-50.5 -8.5t-48 -2q-42 0 -74 6t-56 15.5
t-40.5 20.5t-27.5 21q-22 21 -35.5 47t-21 55.5t-10.5 61t-3 63.5v428h74zM191 827h309v-49h-309v49z" />
    <glyph glyph-name="umacron" unicode="&#x16b;" horiz-adv-x="563" 
d="M417 0v73h-2q-28 -46 -66 -67q-23 -14 -53 -20t-57 -6q-46 0 -74 13.5t-44 29.5q-27 26 -35.5 61.5t-8.5 80.5v343h69v-316q0 -41 5 -75t28 -57q11 -11 30 -20.5t50 -9.5q23 0 53.5 9t59.5 39q31 33 38 70.5t7 75.5v284h69v-508h-69zM128 666h309v-46h-309v46z" />
    <glyph glyph-name="Ubreve" unicode="&#x16c;" horiz-adv-x="691" 
d="M151 700v-420q0 -23 1 -47.5t5.5 -48t13.5 -45t25 -38.5q24 -26 64.5 -41t85.5 -15q46 0 85 14t63 40q31 34 38.5 82t7.5 99v420h74v-428q0 -26 -1.5 -55.5t-9 -58.5t-22 -57.5t-40.5 -53.5q-23 -22 -47.5 -35t-50 -19.5t-50.5 -8.5t-48 -2q-42 0 -74 6t-56 15.5
t-40.5 20.5t-27.5 21q-22 21 -35.5 47t-21 55.5t-10.5 61t-3 63.5v428h74zM512 887q-5 -31 -16.5 -52t-24.5 -34q-29 -29 -61.5 -37.5t-61.5 -8.5q-13 0 -29 1.5t-33.5 6t-34.5 14t-32 24.5q-12 13 -24 34.5t-17 51.5h63q2 -18 8.5 -32.5t15.5 -24.5q17 -18 38.5 -23
t41.5 -5t41.5 5t38.5 23q9 10 15.5 24.5t8.5 32.5h63z" />
    <glyph glyph-name="ubreve" unicode="&#x16d;" horiz-adv-x="563" 
d="M417 0v73h-2q-28 -46 -66 -67q-23 -14 -53 -20t-57 -6q-46 0 -74 13.5t-44 29.5q-27 26 -35.5 61.5t-8.5 80.5v343h69v-316q0 -41 5 -75t28 -57q11 -11 30 -20.5t50 -9.5q23 0 53.5 9t59.5 39q31 33 38 70.5t7 75.5v284h69v-508h-69zM437 700q-4 -27 -15.5 -49t-25.5 -36
q-26 -25 -57.5 -32.5t-58.5 -7.5t-58.5 7.5t-57.5 32.5q-14 14 -25.5 36t-15.5 49h58q2 -17 9 -32.5t18 -26.5q16 -15 35.5 -19t36.5 -4t36.5 4t35.5 19q11 11 18 26.5t9 32.5h58z" />
    <glyph glyph-name="Uring" unicode="&#x16e;" horiz-adv-x="691" 
d="M151 700v-420q0 -23 1 -47.5t5.5 -48t13.5 -45t25 -38.5q24 -26 64.5 -41t85.5 -15q46 0 85 14t63 40q31 34 38.5 82t7.5 99v420h74v-428q0 -26 -1.5 -55.5t-9 -58.5t-22 -57.5t-40.5 -53.5q-23 -22 -47.5 -35t-50 -19.5t-50.5 -8.5t-48 -2q-42 0 -74 6t-56 15.5
t-40.5 20.5t-27.5 21q-22 21 -35.5 47t-21 55.5t-10.5 61t-3 63.5v428h74zM247 832q0 41 28.5 69.5t69.5 28.5t69.5 -28.5t28.5 -69.5t-28.5 -69.5t-69.5 -28.5t-69.5 28.5t-28.5 69.5zM283 832q0 -9 4 -20t11.5 -20.5t19 -15.5t27.5 -6q26 0 44 18t18 44t-18 44t-44 18
q-16 0 -27.5 -6t-19 -15.5t-11.5 -20.5t-4 -20z" />
    <glyph glyph-name="uring" unicode="&#x16f;" horiz-adv-x="563" 
d="M417 0v73h-2q-28 -46 -66 -67q-23 -14 -53 -20t-57 -6q-46 0 -74 13.5t-44 29.5q-27 26 -35.5 61.5t-8.5 80.5v343h69v-316q0 -41 5 -75t28 -57q11 -11 30 -20.5t50 -9.5q23 0 53.5 9t59.5 39q31 33 38 70.5t7 75.5v284h69v-508h-69zM186 644q0 19 7 36t19.5 29.5
t29.5 19.5t36 7t36 -7t29.5 -19.5t19.5 -29.5t7 -36t-7 -36t-19.5 -29.5t-29.5 -19.5t-36 -7t-36 7t-29.5 19.5t-19.5 29.5t-7 36zM219 644q0 -23 16.5 -41t42.5 -18q24 0 41 17.5t17 41.5t-17 41.5t-41 17.5q-26 0 -42.5 -18t-16.5 -41z" />
    <glyph glyph-name="Uhungarumlaut" unicode="&#x170;" horiz-adv-x="691" 
d="M151 700v-420q0 -23 1 -47.5t5.5 -48t13.5 -45t25 -38.5q24 -26 64.5 -41t85.5 -15q46 0 85 14t63 40q31 34 38.5 82t7.5 99v420h74v-428q0 -26 -1.5 -55.5t-9 -58.5t-22 -57.5t-40.5 -53.5q-23 -22 -47.5 -35t-50 -19.5t-50.5 -8.5t-48 -2q-42 0 -74 6t-56 15.5
t-40.5 20.5t-27.5 21q-22 21 -35.5 47t-21 55.5t-10.5 61t-3 63.5v428h74zM379 900l-95 -140h-61l70 140h86zM522 900l-95 -140h-61l70 140h86z" />
    <glyph glyph-name="uhungarumlaut" unicode="&#x171;" horiz-adv-x="563" 
d="M417 0v73h-2q-28 -46 -66 -67q-23 -14 -53 -20t-57 -6q-46 0 -74 13.5t-44 29.5q-27 26 -35.5 61.5t-8.5 80.5v343h69v-316q0 -41 5 -75t28 -57q11 -11 30 -20.5t50 -9.5q23 0 53.5 9t59.5 39q31 33 38 70.5t7 75.5v284h69v-508h-69zM319 700l-95 -132h-61l70 132h86z
M462 700l-95 -132h-61l70 132h86z" />
    <glyph glyph-name="Uogonek" unicode="&#x172;" horiz-adv-x="691" 
d="M151 700v-420q0 -23 1 -47.5t5.5 -48t13.5 -45t25 -38.5q24 -26 64.5 -41t85.5 -15q46 0 85 14t63 40q31 34 38.5 82t7.5 99v420h74v-428q0 -26 -1.5 -55.5t-9 -58.5t-22 -57.5t-40.5 -53.5q-40 -38 -89 -52t-112 -13q-8 -8 -16.5 -17t-15.5 -20q-8 -13 -12 -26t-4 -29
q0 -11 3.5 -22t12.5 -20q8 -8 18 -10.5t21 -2.5q10 0 20.5 2.5t21.5 12.5q9 8 15 22t7 28h57q-2 -26 -13 -47t-25 -35q-20 -19 -43 -25.5t-49 -6.5q-38 0 -58.5 10t-30.5 20q-9 9 -17.5 25t-8.5 41q0 18 4.5 33t12.5 29q5 9 14.5 20.5t23.5 22.5q-28 5 -65 18.5t-66 39.5
q-22 20 -35.5 46.5t-21 56t-10.5 61t-3 63.5v428h74z" />
    <glyph glyph-name="uogonek" unicode="&#x173;" horiz-adv-x="563" 
d="M486 0q-15 -9 -29 -21t-23 -24q-10 -13 -16 -29.5t-6 -35.5q0 -8 2.5 -20t13.5 -22q8 -8 18 -10.5t21 -2.5q10 0 20.5 2.5t21.5 12.5q9 8 15 22t7 28h57q-2 -26 -13 -47t-25 -35q-20 -19 -43 -25.5t-48 -6.5q-20 0 -43.5 5t-43.5 23q-11 10 -20 26t-9 42q0 20 6 38t17 34
q8 12 21 24t30 22v73h-2q-28 -46 -66 -67q-23 -14 -53 -20t-57 -6q-46 0 -74 13.5t-44 29.5q-27 26 -35.5 61.5t-8.5 80.5v343h69v-316q0 -41 5 -75t28 -57q11 -11 30 -20.5t50 -9.5q23 0 53.5 9t59.5 39q31 33 38 70.5t7 75.5v284h69v-508z" />
    <glyph glyph-name="Wcircumflex" unicode="&#x174;" horiz-adv-x="880" 
d="M282 0h-95l-183 700h83l152 -609l158 609h87l157 -609l152 609h83l-184 -700h-95l-157 612zM498 900l119 -132h-68l-109 105l-108 -105h-68l119 132h115z" />
    <glyph glyph-name="wcircumflex" unicode="&#x175;" horiz-adv-x="707" 
d="M238 0h-77l-157 508h72l126 -428l116 428h71l116 -428l126 428h72l-157 -508h-77l-116 428zM411 700l119 -132h-68l-109 105l-108 -105h-68l119 132h115z" />
    <glyph glyph-name="Ycircumflex" unicode="&#x176;" horiz-adv-x="599" 
d="M509 700h88l-260 -401v-299h-74v299l-261 401h89l209 -334zM357 900l119 -132h-68l-109 105l-108 -105h-68l119 132h115z" />
    <glyph glyph-name="ycircumflex" unicode="&#x177;" horiz-adv-x="471" 
d="M83 -132q16 -4 39 -4q11 0 24.5 2.5t24.5 12.5q6 5 13.5 17.5t15.5 38.5l21 65l-214 508h83l168 -431l146 431h69l-209 -585q-10 -26 -19.5 -49t-25.5 -37q-19 -17 -41 -21.5t-39 -4.5q-16 0 -29.5 1.5t-26.5 3.5v52zM305 700l119 -132h-68l-109 105l-108 -105h-68
l119 132h115z" />
    <glyph glyph-name="Ydieresis" unicode="&#x178;" horiz-adv-x="599" 
d="M509 700h88l-260 -401v-299h-74v299l-261 401h89l209 -334zM160 846h75v-74h-75v74zM364 846h75v-74h-75v74z" />
    <glyph glyph-name="Zacute" unicode="&#x179;" horiz-adv-x="577" 
d="M534 700v-62l-422 -575h441v-63h-529v69l426 568h-403v63h487zM406 900l-99 -140h-65l72 140h92z" />
    <glyph glyph-name="zacute" unicode="&#x17a;" horiz-adv-x="452" 
d="M413 508v-52l-305 -406h320v-50h-404v49l315 409h-293v50h367zM334 700l-95 -132h-61l70 132h86z" />
    <glyph glyph-name="Zdotaccent" unicode="&#x17b;" horiz-adv-x="577" 
d="M534 700v-62l-422 -575h441v-63h-529v69l426 568h-403v63h487zM251 846h75v-74h-75v74z" />
    <glyph glyph-name="zdotaccent" unicode="&#x17c;" horiz-adv-x="452" 
d="M413 508v-52l-305 -406h320v-50h-404v49l315 409h-293v50h367zM198 700h74v-84h-74v84z" />
    <glyph glyph-name="Zcaron" horiz-adv-x="577" 
d="M534 700v-62l-422 -575h441v-63h-529v69l426 568h-403v63h487zM180 900l109 -112l108 112h74l-121 -140h-123l-121 140h74z" />
    <glyph glyph-name="Zcaron" unicode="&#x17d;" horiz-adv-x="577" 
d="M534 700v-62l-422 -575h441v-63h-529v69l426 568h-403v63h487zM180 900l109 -112l108 112h74l-121 -140h-123l-121 140h74z" />
    <glyph glyph-name="zcaron" horiz-adv-x="452" 
d="M413 508v-52l-305 -406h320v-50h-404v49l315 409h-293v50h367zM177 568l-119 132h68l108 -105l109 105h68l-119 -132h-115z" />
    <glyph glyph-name="zcaron" unicode="&#x17e;" horiz-adv-x="452" 
d="M413 508v-52l-305 -406h320v-50h-404v49l315 409h-293v50h367zM177 568l-119 132h68l108 -105l109 105h68l-119 -132h-115z" />
    <glyph glyph-name="uni018F" unicode="&#x18f;" horiz-adv-x="741" 
d="M130 332q0 -18 1.5 -47.5t8.5 -63.5t21.5 -67.5t40.5 -58.5q18 -17 37.5 -28t39.5 -17t40 -8.5t39 -2.5q63 0 102.5 17.5t61.5 39.5q18 18 32.5 45t25 58.5t15.5 65.5t5 67h-470zM74 497q10 39 29.5 78t48.5 68q15 16 35.5 30t46.5 25t59 17.5t73 6.5q38 0 69 -6
t55.5 -15.5t42.5 -21t30 -21.5q10 -8 29 -28.5t38 -55.5t33 -86.5t14 -121.5q0 -47 -7 -94.5t-21 -90.5t-35.5 -80t-51.5 -62q-24 -20 -50.5 -32.5t-54 -19.5t-53.5 -9t-48 -2q-55 0 -108.5 15t-98.5 62q-29 31 -48 71.5t-29 86t-12.5 92.5t0.5 91h539q0 9 -2.5 32t-10 53
t-22.5 62t-41 58q-38 37 -80 48.5t-80 11.5q-44 0 -81 -12t-69 -42q-11 -10 -30.5 -36.5t-30.5 -71.5h-78z" />
    <glyph glyph-name="florin" unicode="&#x192;" horiz-adv-x="578" 
d="M444 458h-109l-108 -512q-5 -25 -15.5 -53t-30.5 -48q-10 -10 -33 -22t-65 -12q-21 0 -40 4l11 52q5 -1 10 -1.5t12 -0.5q14 0 28 3t27 17q12 12 17.5 28.5t8.5 30.5l108 514h-93l11 50h93l15 69q5 20 13 42t25 40q26 27 57.5 34t55.5 7q26 0 53 -7l-9 -49q-21 6 -44 6
q-14 0 -28.5 -3t-28.5 -17q-12 -12 -18 -28t-8 -28l-14 -66h109z" />
    <glyph glyph-name="Ohorn" unicode="&#x1a0;" horiz-adv-x="786" 
d="M64 350q0 52 8.5 96t22.5 80t32.5 64t38.5 48q13 13 33 27.5t47.5 27t63 20.5t80.5 8q58 0 102 -13t76 -32q7 -1 13.5 -1h14.5q91 0 91 95q0 9 -1.5 21t-5.5 25h77q4 -12 5 -25.5t1 -21.5q0 -28 -8.5 -52t-24.5 -42t-39.5 -28t-53.5 -10h-18q18 -17 36.5 -42.5t33 -60.5
t24 -80.5t9.5 -103.5t-9.5 -104.5t-24.5 -82.5t-33.5 -62t-36.5 -43q-26 -25 -54 -40.5t-57 -24t-57.5 -11.5t-54.5 -3q-89 0 -144.5 25t-86.5 56q-8 7 -24.5 28t-33 56t-29.5 86t-13 120zM142 346q0 -78 20.5 -139t57.5 -99q26 -26 69.5 -46t104.5 -20q64 0 105 21t66 46
q35 35 57 93t22 146q0 50 -7.5 90t-20 71t-29 54t-33.5 39q-38 35 -80 45.5t-80 10.5q-64 0 -103 -19t-60 -38q-35 -32 -62 -95t-27 -160z" />
    <glyph glyph-name="ohorn" unicode="&#x1a1;" horiz-adv-x="593" 
d="M51 254q0 45 7.5 80t19 61t25 44t25.5 30q19 19 40.5 30.5t43 18t42.5 8.5t40 2q26 0 53 -4t55 -16h28q45 0 65.5 24t20.5 66q0 9 -1.5 17.5t-3.5 19.5h75q4 -17 4 -43q0 -24 -8.5 -46t-25.5 -38t-42 -25.5t-59 -9.5q3 -3 5 -4q22 -21 36.5 -47t23.5 -54.5t13 -57.5
t4 -56q0 -24 -3 -52.5t-12 -57.5t-25 -57t-41 -51q-38 -35 -78.5 -45.5t-82.5 -10.5t-84.5 10.5t-79.5 45.5q-14 12 -28 31t-25.5 46t-19 62t-7.5 79zM123 255q0 -72 18 -116.5t44 -69.5q26 -24 54.5 -31.5t54.5 -7.5t54.5 7.5t53.5 30.5q27 25 44.5 71.5t17.5 115.5
q0 47 -11.5 95.5t-41.5 81.5q-15 16 -43 31.5t-74 15.5q-40 0 -68 -12.5t-45 -29.5q-23 -23 -40.5 -66.5t-17.5 -115.5z" />
    <glyph glyph-name="Uhorn" unicode="&#x1af;" horiz-adv-x="743" 
d="M614 272q0 -26 -1.5 -55.5t-9 -58.5t-22 -57.5t-40.5 -53.5q-23 -22 -47.5 -35t-50 -19.5t-50.5 -8.5t-48 -2q-42 0 -74 6t-56 15.5t-40.5 20.5t-27.5 21q-22 21 -35.5 47t-21 55.5t-10.5 61t-3 63.5v428h74v-420q0 -23 1 -47.5t5.5 -48t13.5 -45t25 -38.5
q24 -26 64.5 -41t85.5 -15q46 0 85 14t63 40q31 34 38.5 82t7.5 99v420h78q91 0 91 95q0 8 -2 19.5t-4 24.5h76q3 -12 4.5 -24.5t1.5 -20.5q0 -56 -32.5 -92.5t-93.5 -36.5h-19t-26 1v-394z" />
    <glyph glyph-name="uhorn" unicode="&#x1b0;" horiz-adv-x="606" 
d="M417 0v73h-2q-28 -46 -66 -67q-23 -14 -53 -20t-57 -6q-46 0 -74 13.5t-44 29.5q-27 26 -35.5 61.5t-8.5 80.5v343h69v-316q0 -41 5 -75t28 -57q11 -11 30 -20.5t50 -9.5q23 0 53.5 9t59.5 39q31 33 38 70.5t7 75.5v284h69q37 5 56.5 26.5t19.5 63.5q0 9 -1.5 17.5
t-3.5 19.5h75q4 -17 4 -43q0 -49 -32.5 -84t-93.5 -35h-24v-473h-69z" />
    <glyph glyph-name="uni01DD" unicode="&#x1dd;" horiz-adv-x="572" 
d="M57 361q7 33 21.5 60.5t33.5 47.5q37 38 78.5 48.5t83.5 10.5q20 0 41.5 -1.5t43.5 -7.5t44 -18t43 -32q23 -23 37.5 -49t23 -54t11.5 -57t3 -57q0 -20 -2 -46t-9.5 -54t-21 -56t-37.5 -52q-21 -21 -43.5 -33.5t-45.5 -19.5t-44 -9t-39 -2q-17 0 -37 2t-41.5 8t-43 18
t-40.5 32q-41 43 -52.5 100.5t-13.5 126.5h398q-2 60 -17 99t-37 62q-21 23 -51.5 36.5t-72.5 13.5q-40 0 -65 -12t-40 -26q-24 -23 -33 -47t-10 -32h-66zM124 217q0 -15 3 -35t9 -40.5t15 -39t22 -31.5q15 -16 41.5 -28.5t65.5 -12.5q43 0 73.5 14.5t48.5 34.5q21 24 34 62
t13 76h-325z" />
    <glyph glyph-name="Gcaron" unicode="&#x1e6;" horiz-adv-x="743" 
d="M679 359v-359h-62v123h-2q-14 -29 -36 -56t-47 -45q-39 -28 -81.5 -35.5t-80.5 -7.5q-62 0 -118 16.5t-104 67.5q-10 10 -26.5 32t-32 57.5t-27 85.5t-11.5 116q0 54 8.5 98t22 79.5t31.5 62.5t36 45q14 14 35 29t50 27t66.5 20t85.5 8q77 0 127.5 -21.5t79.5 -48.5
t48.5 -68t25.5 -86h-74q-5 32 -18 59.5t-30 44.5q-27 28 -69 42.5t-91 14.5q-37 0 -66 -6.5t-51 -16.5t-38 -22t-26 -23q-26 -27 -41 -61.5t-22.5 -68.5t-9.5 -63t-2 -46q0 -77 21.5 -139t58.5 -101q26 -29 68 -50t105 -21q57 0 95.5 18.5t61.5 41.5q20 19 33.5 43t22 49.5
t12 51.5t3.5 50h-218v63h287zM272 900l109 -112l108 112h74l-121 -140h-123l-121 140h74z" />
    <glyph glyph-name="gcaron" unicode="&#x1e7;" horiz-adv-x="588" 
d="M151 -62q7 -21 18 -34t21 -21q23 -17 49 -21t47 -4q24 0 54 5.5t55 28.5q16 14 25.5 31.5t14 35.5t6 36t1.5 35v59q-11 -23 -28.5 -43t-36.5 -31q-23 -14 -48.5 -18.5t-49.5 -4.5q-41 0 -82.5 11.5t-78.5 52.5q-21 23 -34 50t-20.5 54t-10 53t-2.5 47q0 18 1.5 43t8 53.5
t20 58t37.5 54.5q36 37 77 48t79 11q27 0 54.5 -5.5t53.5 -22.5q16 -10 32.5 -26t29.5 -41h2v75h65v-484q0 -42 -10 -84.5t-46 -77.5t-81 -45t-82 -10q-17 0 -38.5 1.5t-44.5 6.5t-45 15.5t-40 28.5q-14 14 -25.5 33.5t-16.5 45.5h69zM289 42q29 0 55.5 11.5t43.5 28.5
q21 20 33 49.5t17.5 57t6.5 49.5t1 27q0 46 -11.5 92.5t-39.5 75.5q-20 20 -49 32.5t-66 12.5q-35 0 -61 -11.5t-44 -30.5q-18 -18 -28 -41t-15 -46.5t-6.5 -44.5t-1.5 -36q0 -18 1.5 -41t7 -47.5t16.5 -48.5t29 -43q23 -23 53 -34.5t58 -11.5zM236 568l-119 132h68
l108 -105l109 105h68l-119 -132h-115z" />
    <glyph glyph-name="Scommaaccent" unicode="&#x218;" horiz-adv-x="651" 
d="M126 221q-1 -44 14.5 -74t31.5 -46q30 -31 75.5 -44t87.5 -13q43 0 83 11.5t65 35.5q17 17 28 41t11 53q0 25 -9 47t-22 36q-12 13 -30.5 22.5t-38 16.5t-37 11t-28.5 6l-70 13q-22 4 -46 9.5t-47.5 14t-45 21t-37.5 30.5q-15 17 -28 43.5t-13 67.5q0 55 24 94.5t60 62.5
q23 15 49.5 23.5t51 12.5t44 5t30.5 1q38 0 68.5 -6t53.5 -15t40 -20.5t29 -22.5q3 -3 12 -13.5t19 -27.5t18.5 -41t11.5 -55h-74q-3 31 -16 56t-30 41q-25 23 -62.5 32t-75.5 9q-6 0 -19 -0.5t-29.5 -3.5t-35 -8.5t-33.5 -14.5q-28 -17 -43 -44.5t-15 -59.5q0 -26 9 -43
t18 -27q21 -22 54.5 -33t69.5 -18l66 -13q57 -11 104.5 -27t79.5 -46q20 -19 35.5 -50t15.5 -79t-16 -86.5t-44 -64.5q-22 -20 -48 -32t-53 -18t-52 -8t-45 -2q-27 0 -56.5 2.5t-59.5 10t-58 22t-52 38.5q-23 23 -44 65t-21 102h75zM382 -60v-88q0 -19 -4 -40t-21 -38
q-8 -8 -21.5 -15.5t-32.5 -9.5v46q17 3 27 13q9 9 11 20.5t2 18.5v12h-40v81h79z" />
    <glyph glyph-name="scommaaccent" unicode="&#x219;" horiz-adv-x="491" 
d="M108 148q0 -31 11.5 -52t23.5 -32q14 -14 40.5 -24t69.5 -10q38 0 60.5 8.5t34.5 18.5q16 13 25 34t9 45q0 17 -6.5 32t-20.5 27q-9 8 -27.5 16.5t-56.5 16.5l-56 12q-35 8 -69 19t-55 32q-16 16 -25 39t-9 49q0 36 17 67.5t46 51.5q31 20 67 25t59 5q14 0 33 -1.5
t39.5 -7t40.5 -15.5t37 -26q16 -15 29 -40.5t14 -61.5h-67q0 22 -8 41t-20 31q-32 30 -99 30q-20 0 -46.5 -5t-46.5 -25q-8 -8 -15.5 -23.5t-7.5 -38.5q0 -17 6 -31t20 -27q17 -14 38.5 -21t42.5 -12l53 -12q32 -8 64 -17t55 -27q20 -15 32.5 -38.5t12.5 -58.5
q0 -42 -17 -74.5t-43 -51.5q-17 -13 -37.5 -20t-40 -10.5t-37 -4.5t-28.5 -1q-66 0 -104.5 17t-58.5 37q-22 23 -34 54.5t-15 59.5h70zM292 -60v-88q0 -19 -4 -40t-21 -38q-8 -8 -21.5 -15.5t-32.5 -9.5v46q17 3 27 13q9 9 11 20.5t2 18.5v12h-40v81h79z" />
    <glyph glyph-name="Tcommaaccent" unicode="&#x21a;" horiz-adv-x="546" 
d="M4 637v63h538v-63h-232v-637h-74v637h-232zM312 -60v-88q0 -19 -4 -40t-21 -38q-8 -8 -21.5 -15.5t-32.5 -9.5v46q17 3 27 13q9 9 11 20.5t2 18.5v12h-40v81h79z" />
    <glyph glyph-name="tcommaaccent" unicode="&#x21b;" horiz-adv-x="292" 
d="M101 508v152h69v-152h109v-50h-109v-368q0 -8 1.5 -19t8.5 -19q8 -9 19.5 -11t20.5 -2q15 0 28.5 2.5t30.5 8.5v-50q-21 -8 -41.5 -11t-38.5 -3q-34 0 -51.5 8.5t-24.5 16.5q-15 17 -18.5 39.5t-3.5 38.5v369h-95v50h95zM237 -60v-88q0 -19 -4 -40t-21 -38
q-8 -8 -21.5 -15.5t-32.5 -9.5v46q17 3 27 13q9 9 11 20.5t2 18.5v12h-40v81h79z" />
    <glyph glyph-name="uni0237" unicode="&#x237;" horiz-adv-x="222" 
d="M148 508v-556q0 -30 -5 -61.5t-24 -50.5q-10 -10 -22.5 -15.5t-25.5 -8.5t-24 -3.5t-18 -0.5q-19 0 -38 3v51h4q14 0 32 2.5t32 13.5q14 13 17 31.5t3 41.5v553h69z" />
    <glyph glyph-name="uni0259" unicode="&#x259;" horiz-adv-x="572" 
d="M57 361q7 33 21.5 60.5t33.5 47.5q37 38 78.5 48.5t83.5 10.5q20 0 41.5 -1.5t43.5 -7.5t44 -18t43 -32q23 -23 37.5 -49t23 -54t11.5 -57t3 -57q0 -20 -2 -46t-9.5 -54t-21 -56t-37.5 -52q-21 -21 -43.5 -33.5t-45.5 -19.5t-44 -9t-39 -2q-17 0 -37 2t-41.5 8t-43 18
t-40.5 32q-41 43 -52.5 100.5t-13.5 126.5h398q-2 60 -17 99t-37 62q-21 23 -51.5 36.5t-72.5 13.5q-40 0 -65 -12t-40 -26q-24 -23 -33 -47t-10 -32h-66zM124 217q0 -15 3 -35t9 -40.5t15 -39t22 -31.5q15 -16 41.5 -28.5t65.5 -12.5q43 0 73.5 14.5t48.5 34.5q21 24 34 62
t13 76h-325z" />
    <glyph glyph-name="afii57929" unicode="&#x2bc;" horiz-adv-x="176" 
d="M128 700v-115q0 -29 -5.5 -52.5t-23.5 -41.5q-5 -5 -18 -13.5t-33 -13.5v46q7 2 15 6.5t15 16.5t8.5 25t1.5 26v22h-40v94h80z" />
    <glyph glyph-name="circumflex" unicode="&#x2c6;" horiz-adv-x="449" 
d="M282 700l119 -132h-68l-109 105l-108 -105h-68l119 132h115z" />
    <glyph glyph-name="caron" unicode="&#x2c7;" horiz-adv-x="449" 
d="M167 568l-119 132h68l108 -105l109 105h68l-119 -132h-115z" />
    <glyph glyph-name="uni02C9" unicode="&#x2c9;" horiz-adv-x="405" 
d="M48 666h309v-46h-309v46z" />
    <glyph glyph-name="breve" unicode="&#x2d8;" horiz-adv-x="410" 
d="M362 700q-4 -27 -15.5 -49t-25.5 -36q-26 -25 -57.5 -32.5t-58.5 -7.5t-58.5 7.5t-57.5 32.5q-14 14 -25.5 36t-15.5 49h58q2 -17 9 -32.5t18 -26.5q16 -15 35.5 -19t36.5 -4t36.5 4t35.5 19q11 11 18 26.5t9 32.5h58z" />
    <glyph glyph-name="dotaccent" unicode="&#x2d9;" horiz-adv-x="170" 
d="M48 700h74v-84h-74v84z" />
    <glyph glyph-name="ring" unicode="&#x2da;" horiz-adv-x="280" 
d="M48 644q0 19 7 36t19.5 29.5t29.5 19.5t36 7t36 -7t29.5 -19.5t19.5 -29.5t7 -36t-7 -36t-19.5 -29.5t-29.5 -19.5t-36 -7t-36 7t-29.5 19.5t-19.5 29.5t-7 36zM81 644q0 -23 16.5 -41t42.5 -18q24 0 41 17.5t17 41.5t-17 41.5t-41 17.5q-26 0 -42.5 -18t-16.5 -41z" />
    <glyph glyph-name="ogonek" unicode="&#x2db;" horiz-adv-x="337" 
d="M189 0q-15 -9 -29 -21t-23 -24q-10 -13 -16 -29.5t-6 -35.5q0 -8 2.5 -20t13.5 -22q8 -8 18 -10.5t21 -2.5q10 0 20.5 2.5t21.5 12.5q9 8 15 22t7 28h57q-2 -26 -13 -47t-25 -35q-20 -19 -43 -25.5t-48 -6.5q-20 0 -43.5 5t-43.5 23q-11 10 -20 26t-9 42q0 20 6 38t17 34
q10 14 23 26t26 20h71z" />
    <glyph glyph-name="tilde" unicode="&#x2dc;" horiz-adv-x="458" 
d="M410 700q-5 -18 -15.5 -40.5t-24.5 -36.5q-25 -25 -61 -25q-26 0 -43.5 7t-35.5 19l-24 16q-14 9 -25 15t-30 6q-14 0 -23 -4.5t-14 -9.5q-6 -7 -10.5 -18t-6.5 -21h-49q8 43 35 70q16 17 34 23.5t38 6.5q23 0 39 -7t30 -17l24 -17q8 -6 23.5 -14t34.5 -8q18 0 32 13
q8 8 14 19.5t10 22.5h48z" />
    <glyph glyph-name="hungarumlaut" unicode="&#x2dd;" horiz-adv-x="395" 
d="M204 700l-95 -132h-61l70 132h86zM347 700l-95 -132h-61l70 132h86z" />
    <glyph glyph-name="gravecomb" unicode="&#x300;" horiz-adv-x="-2" 
d="M-254 568h-60l-96 132h86z" />
    <glyph glyph-name="acutecomb" unicode="&#x301;" horiz-adv-x="-2" 
d="M-171 700l-95 -132h-61l70 132h86z" />
    <glyph glyph-name="tildecomb" unicode="&#x303;" horiz-adv-x="-2" 
d="M-114 700q-5 -18 -15.5 -40.5t-24.5 -36.5q-25 -25 -61 -25q-26 0 -43.5 7t-35.5 19l-24 16q-14 9 -25 15t-30 6q-14 0 -23 -4.5t-14 -9.5q-6 -7 -10.5 -18t-6.5 -21h-49q8 43 35 70q16 17 34 23.5t38 6.5q23 0 39 -7t30 -17l24 -17q8 -6 23.5 -14t34.5 -8q18 0 32 13
q8 8 14 19.5t10 22.5h48z" />
    <glyph glyph-name="hookabovecomb" unicode="&#x309;" horiz-adv-x="531" 
d="M151 688q0 17 5 33.5t18 30t36 21.5t60 8q60 0 87 -22t27 -54q0 -29 -14 -45.5t-35 -32.5q-23 -17 -31.5 -28t-8.5 -24v-7h-65v9q0 14 7.5 29.5t31.5 35.5q26 20 38 32t12 29q0 13 -9.5 24t-39.5 11q-29 0 -42.5 -13t-15.5 -37h-61z" />
    <glyph glyph-name="uni0313" unicode="&#x313;" horiz-adv-x="176" 
d="M128 700v-115q0 -29 -5.5 -52.5t-23.5 -41.5q-5 -5 -18 -13.5t-33 -13.5v46q7 2 15 6.5t15 16.5t8.5 25t1.5 26v22h-40v94h80z" />
    <glyph glyph-name="uni0315" unicode="&#x315;" horiz-adv-x="176" 
d="M128 700v-115q0 -29 -5.5 -52.5t-23.5 -41.5q-5 -5 -18 -13.5t-33 -13.5v46q7 2 15 6.5t15 16.5t8.5 25t1.5 26v22h-40v94h80z" />
    <glyph glyph-name="uni031B" unicode="&#x31b;" horiz-adv-x="401" 
d="M129 508h6q32 0 57 24t25 66q0 9 -1.5 17.5t-3.5 19.5h75q4 -17 4 -43q0 -49 -32.5 -84t-93.5 -35h-36v35z" />
    <glyph glyph-name="dotbelowcomb" unicode="&#x323;" horiz-adv-x="219" 
d="M74 -101h71v-84h-71v84z" />
    <glyph glyph-name="uni0326" unicode="&#x326;" horiz-adv-x="175" 
d="M127 -60v-88q0 -19 -4 -40t-21 -38q-8 -8 -21.5 -15.5t-32.5 -9.5v46q17 3 27 13q9 9 11 20.5t2 18.5v12h-40v81h79z" />
    <glyph glyph-name="uni037E" unicode="&#x37e;" horiz-adv-x="296" 
d="M108 508h80v-94h-80v94zM188 94v-115q0 -29 -5.5 -52.5t-23.5 -41.5q-5 -5 -18 -13.5t-33 -13.5v46q7 2 15 6.5t15 16.5t8.5 25t1.5 26v22h-40v94h80z" />
    <glyph glyph-name="tonos" unicode="&#x384;" horiz-adv-x="288" 
d="M248 700l-95 -132h-61l70 132h86z" />
    <glyph glyph-name="dieresistonos" unicode="&#x385;" horiz-adv-x="380" 
d="M18 700h70v-82h-70v82zM293 700h69v-82h-69v82zM270 722l-96 -132h-58l70 132h84z" />
    <glyph glyph-name="Alphatonos" unicode="&#x386;" 
d="M81 0h-80l266 700h83l266 -700h-81l-74 201h-305zM439 264l-131 365l-131 -365h262zM201 721l-99 -140h-65l72 140h92z" />
    <glyph glyph-name="anoteleia" unicode="&#x387;" horiz-adv-x="296" 
d="M108 315h80v-95h-80v95z" />
    <glyph glyph-name="Epsilontonos" unicode="&#x388;" horiz-adv-x="690" 
d="M617 394v-63h-374v-268h421v-63h-495v700h483v-63h-409v-243h374zM138 721l-99 -140h-65l72 140h92z" />
    <glyph glyph-name="Etatonos" unicode="&#x389;" horiz-adv-x="782" 
d="M238 0h-74v700h74v-299h376v299h74v-700h-74v338h-376v-338zM138 721l-99 -140h-65l72 140h92z" />
    <glyph glyph-name="Iotatonos" unicode="&#x38a;" horiz-adv-x="326" 
d="M138 721l-99 -140h-65l72 140h92zM232 700v-700h-74v700h74z" />
    <glyph glyph-name="Omicrontonos" unicode="&#x38c;" horiz-adv-x="790" 
d="M138 721l-99 -140h-65l72 140h92zM390 721q42 0 76.5 -7t62.5 -18.5t49.5 -25.5t37.5 -29q18 -17 37 -42t34 -60.5t25 -82t10 -106.5q0 -58 -9.5 -104.5t-24.5 -82.5t-33.5 -62t-36.5 -43q-26 -25 -54 -40.5t-57 -24t-57.5 -11.5t-54.5 -3q-89 0 -144.5 25t-86.5 56
q-8 7 -24.5 28t-33 56t-29.5 86t-13 120q0 52 8.5 96t22.5 80t32.5 64t38.5 48q13 13 33 27.5t47.5 27t63 20.5t80.5 8zM394 658q-64 0 -103 -19t-60 -38q-35 -32 -62 -95t-27 -160q0 -78 20.5 -139t57.5 -99q26 -26 69.5 -46t104.5 -20q64 0 105 21t66 46q35 35 57 93
t22 146q0 50 -7.5 90t-20 71t-29 54t-33.5 39q-38 35 -80 45.5t-80 10.5z" />
    <glyph glyph-name="Upsilontonos" unicode="&#x38e;" horiz-adv-x="750" 
d="M138 721l-99 -140h-65l72 140h92zM656 700h88l-260 -401v-299h-74v299l-261 401h89l209 -334z" />
    <glyph glyph-name="Omegatonos" unicode="&#x38f;" horiz-adv-x="749" 
d="M138 721l-99 -140h-65l72 140h92zM694 0h-249v83q60 18 94 56t51.5 81.5t21.5 84t4 62.5q0 24 -3.5 55t-13 63t-26 63t-42.5 55t-62.5 39t-85.5 15t-85.5 -15t-62.5 -39t-42.5 -55t-26 -63t-13 -63t-3.5 -55q0 -22 4 -62.5t21.5 -84t51.5 -81.5t94 -56v-83h-249v63h148v5
q-70 39 -109 114t-39 185q0 85 23.5 151t65 111t98.5 68t124 23t124 -23t98.5 -68t65 -111t23.5 -151q0 -110 -39 -185t-109 -114v-5h148v-63z" />
    <glyph glyph-name="iotadieresistonos" unicode="&#x390;" horiz-adv-x="242" 
d="M83 508h69v-394q0 -35 12 -49.5t43 -14.5v-50q-5 -1 -15 -1.5t-16 -0.5q-45 0 -69 17.5t-24 69.5v423zM-42 700h70v-82h-70v82zM233 700h69v-82h-69v82zM210 722l-96 -132h-58l70 132h84z" />
    <glyph glyph-name="Alpha" unicode="&#x391;" 
d="M81 0h-80l266 700h83l266 -700h-81l-74 201h-305zM439 264l-131 365l-131 -365h262z" />
    <glyph glyph-name="Beta" unicode="&#x392;" horiz-adv-x="690" 
d="M383 700q16 0 36.5 -1t42 -6t43 -15t39.5 -28q20 -20 33 -52.5t13 -72.5q0 -35 -11 -62.5t-33 -50.5q-20 -20 -40 -29t-34 -12v-2q26 -4 54 -16.5t48 -32.5q22 -22 34 -55t12 -70q0 -36 -13 -73t-37 -62q-21 -22 -47.5 -34t-53.5 -18t-52 -7t-43 -1h-284v700h293z
M164 395h201q10 0 24.5 0.5t30.5 3.5t32 10t29 20q14 14 24 37.5t10 52.5q0 30 -9.5 50.5t-21.5 32.5q-20 19 -50.5 27t-62.5 8h-207v-242zM164 63h206q32 0 55 3.5t39 9t25 11t14 9.5q17 15 29 41.5t12 61.5q0 37 -13 64t-33 41q-14 10 -33.5 15.5t-38.5 8.5t-35 3.5
t-22 0.5h-205v-269z" />
    <glyph glyph-name="Gamma" unicode="&#x393;" horiz-adv-x="533" 
d="M164 0h-74v700h439v-63h-365v-637z" />
    <glyph glyph-name="uni0394" unicode="&#x394;" 
d="M1 0l266 700h83l266 -700h-615zM104 63h408l-204 566z" />
    <glyph glyph-name="Epsilon" unicode="&#x395;" horiz-adv-x="607" 
d="M538 394v-63h-374v-268h421v-63h-495v700h483v-63h-409v-243h374z" />
    <glyph glyph-name="Zeta" unicode="&#x396;" horiz-adv-x="577" 
d="M534 700v-62l-422 -575h441v-63h-529v69l426 568h-403v63h487z" />
    <glyph glyph-name="Eta" unicode="&#x397;" horiz-adv-x="704" 
d="M164 0h-74v700h74v-299h376v299h74v-700h-74v338h-376v-338z" />
    <glyph glyph-name="Theta" unicode="&#x398;" horiz-adv-x="786" 
d="M64 350q0 52 8.5 96t22.5 80t32.5 64t38.5 48q13 13 33 27.5t47.5 27t63 20.5t80.5 8q42 0 76.5 -7t62.5 -18.5t49.5 -25.5t37.5 -29q18 -17 37 -42t34 -60.5t25 -82t10 -106.5q0 -58 -9.5 -104.5t-24.5 -82.5t-33.5 -62t-36.5 -43q-26 -25 -54 -40.5t-57 -24
t-57.5 -11.5t-54.5 -3q-89 0 -144.5 25t-86.5 56q-8 7 -24.5 28t-33 56t-29.5 86t-13 120zM142 346q0 -78 20.5 -139t57.5 -99q26 -26 69.5 -46t104.5 -20q64 0 105 21t66 46q35 35 57 93t22 146q0 50 -7.5 90t-20 71t-29 54t-33.5 39q-38 35 -80 45.5t-80 10.5
q-64 0 -103 -19t-60 -38q-35 -32 -62 -95t-27 -160zM212 391h362v-63h-362v63z" />
    <glyph glyph-name="Iota" unicode="&#x399;" horiz-adv-x="254" 
d="M164 700v-700h-74v700h74z" />
    <glyph glyph-name="Kappa" unicode="&#x39a;" horiz-adv-x="610" 
d="M499 700h93l-347 -325l367 -375h-100l-348 366v-366h-74v700h74v-321z" />
    <glyph glyph-name="Lambda" unicode="&#x39b;" 
d="M81 0h-80l266 700h83l266 -700h-81l-227 629z" />
    <glyph glyph-name="Mu" unicode="&#x39c;" horiz-adv-x="874" 
d="M164 608h-2l2 -27v-581h-74v700h112l235 -603l236 603h111v-700h-74v581l2 27h-3l-240 -608h-64z" />
    <glyph glyph-name="Nu" unicode="&#x39d;" horiz-adv-x="732" 
d="M164 0h-74v700h85l393 -589v589h74v-700h-84l-394 589v-589z" />
    <glyph glyph-name="Xi" unicode="&#x39e;" horiz-adv-x="562" 
d="M41 700h480v-63h-480v63zM71 394h420v-63h-420v63zM22 63h518v-63h-518v63z" />
    <glyph glyph-name="Omicron" unicode="&#x39f;" horiz-adv-x="786" 
d="M390 721q42 0 76.5 -7t62.5 -18.5t49.5 -25.5t37.5 -29q18 -17 37 -42t34 -60.5t25 -82t10 -106.5q0 -58 -9.5 -104.5t-24.5 -82.5t-33.5 -62t-36.5 -43q-26 -25 -54 -40.5t-57 -24t-57.5 -11.5t-54.5 -3q-89 0 -144.5 25t-86.5 56q-8 7 -24.5 28t-33 56t-29.5 86
t-13 120q0 52 8.5 96t22.5 80t32.5 64t38.5 48q13 13 33 27.5t47.5 27t63 20.5t80.5 8zM394 658q-64 0 -103 -19t-60 -38q-35 -32 -62 -95t-27 -160q0 -78 20.5 -139t57.5 -99q26 -26 69.5 -46t104.5 -20q64 0 105 21t66 46q35 35 57 93t22 146q0 50 -7.5 90t-20 71t-29 54
t-33.5 39q-38 35 -80 45.5t-80 10.5z" />
    <glyph glyph-name="Pi" unicode="&#x3a0;" horiz-adv-x="704" 
d="M164 0h-74v700h524v-700h-74v637h-376v-637z" />
    <glyph glyph-name="Rho" unicode="&#x3a1;" horiz-adv-x="633" 
d="M362 700q19 0 42 -1t47 -6.5t47.5 -16.5t43.5 -30t36.5 -52.5t16.5 -90.5q0 -58 -16 -94t-36 -56q-21 -22 -46.5 -34.5t-51 -18.5t-49.5 -7t-44 -1h-188v-292h-74v700h272zM164 355h183q31 0 67 6t65 32q16 14 28 39.5t12 66.5q0 38 -12 62t-25 37q-14 13 -31.5 21
t-36 12t-36 5t-31.5 1h-183v-282z" />
    <glyph glyph-name="Sigma" unicode="&#x3a3;" horiz-adv-x="560" 
d="M527 637h-397l239 -269l-256 -305h430v-63h-505v66l243 302l-227 264v68h473v-63z" />
    <glyph glyph-name="Tau" unicode="&#x3a4;" horiz-adv-x="546" 
d="M4 637v63h538v-63h-232v-637h-74v637h-232z" />
    <glyph glyph-name="Upsilon" unicode="&#x3a5;" horiz-adv-x="599" 
d="M509 700h88l-260 -401v-299h-74v299l-261 401h89l209 -334z" />
    <glyph glyph-name="Phi" unicode="&#x3a6;" horiz-adv-x="850" 
d="M388 84h-38q-24 0 -53 2.5t-59.5 10t-60.5 21.5t-55 38q-28 26 -52 74t-24 125q0 40 7 71t17.5 54t22 39t19.5 25q22 24 50 40.5t59.5 26t65.5 13.5t68 4h33v72h74v-72h33q69 0 133 -17.5t110 -66.5q21 -22 33.5 -46t20 -48t10 -47t2.5 -44q0 -38 -6.5 -69t-17 -56
t-24.5 -43.5t-28 -32.5q-45 -44 -104.5 -59t-123.5 -15h-38v-84h-74v84zM493 144q15 0 36.5 1t45.5 6.5t48 16t44 28.5q30 29 44.5 74t14.5 89q0 46 -15 86.5t-42 66.5q-21 20 -47.5 31.5t-52.5 17t-48.5 6.5t-34.5 1h-24v-424h31zM388 568h-24q-12 0 -34.5 -1t-48.5 -6.5
t-52.5 -17t-47.5 -31.5q-27 -26 -42 -66.5t-15 -86.5q0 -44 14.5 -89t44.5 -74q19 -18 43.5 -28.5t48.5 -16t45.5 -6.5t36.5 -1h31v424z" />
    <glyph glyph-name="Chi" unicode="&#x3a7;" horiz-adv-x="581" 
d="M478 700h91l-230 -342l240 -358h-95l-193 304l-194 -304h-95l240 358l-230 342h91l188 -288z" />
    <glyph glyph-name="Psi" unicode="&#x3a8;" horiz-adv-x="750" 
d="M412 700v-428q31 0 60 5.5t53.5 15.5t43 25t29.5 36q15 30 17.5 71.5t2.5 97.5v177h74v-176q0 -40 -1 -74t-7.5 -63.5t-20 -56t-38.5 -50.5q-33 -32 -88.5 -51t-124.5 -20v-209h-74v209q-31 0 -62.5 5.5t-60 14.5t-52.5 22t-39 29q-24 25 -37.5 51.5t-19.5 56t-7.5 63.5
t-1.5 73v176h74v-177q0 -54 2.5 -96.5t17.5 -72.5q20 -40 70.5 -61t115.5 -21v428h74z" />
    <glyph glyph-name="uni03A9" unicode="&#x3a9;" horiz-adv-x="724" 
d="M673 0h-249v83q60 18 94 56t51.5 81.5t21.5 84t4 62.5q0 24 -3.5 55t-13 63t-26 63t-42.5 55t-62.5 39t-85.5 15t-85.5 -15t-62.5 -39t-42.5 -55t-26 -63t-13 -63t-3.5 -55q0 -22 4 -62.5t21.5 -84t51.5 -81.5t94 -56v-83h-249v63h148v5q-70 39 -109 114t-39 185
q0 85 23.5 151t65 111t98.5 68t124 23t124 -23t98.5 -68t65 -111t23.5 -151q0 -110 -39 -185t-109 -114v-5h148v-63z" />
    <glyph glyph-name="Iotadieresis" unicode="&#x3aa;" horiz-adv-x="254" 
d="M164 700v-700h-74v700h74zM-9 846h75v-74h-75v74zM195 846h75v-74h-75v74z" />
    <glyph glyph-name="Upsilondieresis" unicode="&#x3ab;" horiz-adv-x="599" 
d="M509 700h88l-260 -401v-299h-74v299l-261 401h89l209 -334zM169 846h75v-74h-75v74zM373 846h75v-74h-75v74z" />
    <glyph glyph-name="alphatonos" unicode="&#x3ac;" horiz-adv-x="616" 
d="M480 508h68l-38 -237q3 -72 17 -140.5t37 -130.5h-68q-5 13 -10.5 29.5t-10 34t-7.5 34t-4 28.5h-2q-9 -30 -26 -56.5t-41 -46.5t-54.5 -31.5t-64.5 -11.5q-104 0 -164.5 66.5t-60.5 207.5q0 57 13.5 107t41.5 87t69.5 58.5t97.5 21.5q63 0 113 -34t78 -104h3zM444 263
l-8 39q-6 28 -17 59t-30 57t-45.5 43.5t-62.5 17.5q-33 0 -62 -14t-50.5 -41.5t-33.5 -70t-12 -99.5q0 -112 43.5 -168t121.5 -56q33 0 59.5 16t46 42.5t31 59.5t14.5 67zM392 700l-95 -132h-61l70 132h86z" />
    <glyph glyph-name="epsilontonos" unicode="&#x3ad;" horiz-adv-x="508" 
d="M470 146q0 -51 -20.5 -83.5t-52 -51t-69.5 -25t-73 -6.5q-33 0 -69 5t-67 22t-51 49.5t-20 86.5q0 17 5 36t17 36.5t32.5 31.5t51.5 20v2q-40 7 -64.5 37t-24.5 75t18.5 73.5t47 45t61 22.5t61.5 6q55 0 92.5 -12.5t60.5 -33.5t33.5 -48t12.5 -55h-66q-1 31 -14 50.5
t-31.5 30.5t-40.5 15t-41 4q-54 0 -89 -24.5t-35 -75.5q0 -42 28.5 -65.5t87.5 -23.5h58v-50h-67q-55 0 -89 -21.5t-34 -74.5q0 -20 6 -42.5t27 -41.5q23 -20 53 -25t50 -5q14 0 39 3t49.5 14.5t42.5 34.5t18 64h66zM363 700l-95 -132h-61l70 132h86z" />
    <glyph glyph-name="etatonos" unicode="&#x3ae;" horiz-adv-x="580" 
d="M94 0v400q0 35 -10.5 48t-41.5 13v47q8 2 16.5 3t13.5 1q78 0 90 -80q14 23 30 39t36 28q50 29 105 29q41 0 72.5 -12t51.5 -32q32 -32 39 -69t7 -72v-528h-69v518q0 12 -0.5 27.5t-4.5 32t-11.5 32t-20.5 27.5q-15 13 -36.5 19.5t-41.5 6.5q-30 0 -57 -11t-47 -30
q-29 -29 -40.5 -63.5t-11.5 -63.5v-310h-69zM386 700l-95 -132h-61l70 132h86z" />
    <glyph glyph-name="iotatonos" unicode="&#x3af;" horiz-adv-x="226" 
d="M77 508h69v-394q0 -35 12 -49.5t43 -14.5v-50q-5 -1 -15 -1.5t-16 -0.5q-45 0 -69 17.5t-24 69.5v423zM233 700l-95 -132h-61l70 132h86z" />
    <glyph glyph-name="upsilondieresistonos" unicode="&#x3b0;" horiz-adv-x="562" 
d="M146 508v-285q0 -102 32 -147.5t101 -45.5q76 0 111.5 57t35.5 181q0 80 -14.5 139t-36.5 103l66 9q13 -21 23.5 -50t18 -62t11 -68.5t3.5 -70.5q0 -67 -12 -120t-38 -90.5t-67 -57.5t-99 -20q-105 0 -154.5 57.5t-49.5 184.5v286h69zM91 700h70v-82h-70v82zM366 700h69
v-82h-69v82zM343 722l-96 -132h-58l70 132h84z" />
    <glyph glyph-name="alpha" unicode="&#x3b1;" horiz-adv-x="616" 
d="M480 508h68l-38 -237q3 -72 17 -140.5t37 -130.5h-68q-5 13 -10.5 29.5t-10 34t-7.5 34t-4 28.5h-2q-9 -30 -26 -56.5t-41 -46.5t-54.5 -31.5t-64.5 -11.5q-104 0 -164.5 66.5t-60.5 207.5q0 57 13.5 107t41.5 87t69.5 58.5t97.5 21.5q63 0 113 -34t78 -104h3zM444 263
l-8 39q-6 28 -17 59t-30 57t-45.5 43.5t-62.5 17.5q-33 0 -62 -14t-50.5 -41.5t-33.5 -70t-12 -99.5q0 -112 43.5 -168t121.5 -56q33 0 59.5 16t46 42.5t31 59.5t14.5 67z" />
    <glyph glyph-name="beta" unicode="&#x3b2;" horiz-adv-x="561" 
d="M77 -185v643q0 53 3 87t15 64q22 54 67.5 83t117.5 29q86 0 138.5 -43.5t52.5 -127.5q0 -25 -8 -50t-23 -46t-36.5 -35.5t-48.5 -19.5v-3q78 -14 116.5 -66.5t38.5 -127.5q0 -105 -57 -163.5t-154 -58.5q-21 0 -43.5 4.5t-43 13.5t-38 22.5t-28.5 31.5v-237h-69zM146 112
q26 -42 65.5 -62t81.5 -20q65 0 105 46.5t40 127.5q-1 85 -48 125t-135 40h-25v50h31q68 0 103.5 35.5t35.5 94.5q0 60 -33 91t-92 31q-34 0 -58.5 -10t-40 -33.5t-23 -61.5t-7.5 -95v-359z" />
    <glyph glyph-name="gamma" unicode="&#x3b3;" horiz-adv-x="512" 
d="M240 -185v230l-154 374q-9 22 -21 32.5t-38 10.5q-11 0 -16 -1v47q9 2 22.5 3t21.5 1q34 0 58 -17t40 -58l124 -320l154 391h76l-198 -463v-230h-69z" />
    <glyph glyph-name="delta" unicode="&#x3b4;" horiz-adv-x="570" 
d="M392 583q-3 42 -30 65t-78 23t-81.5 -22.5t-30.5 -63.5q0 -25 10 -40.5t30 -26t50 -17.5t70 -15q88 -17 137.5 -81t49.5 -172q-1 -123 -64.5 -188t-169.5 -65q-109 0 -171.5 65t-62.5 188q0 46 11.5 85.5t31.5 70t47.5 51t59.5 29.5v3q-48 12 -74.5 41t-26.5 74
q0 65 49 99.5t136 34.5q82 0 128 -36t50 -102h-71zM123 233q0 -105 44 -154t118 -49q36 0 65.5 12t51 37t33.5 63t12 91q0 104 -45.5 156t-116.5 52q-74 -1 -118 -52t-44 -156z" />
    <glyph glyph-name="epsilon" unicode="&#x3b5;" horiz-adv-x="508" 
d="M470 146q0 -51 -20.5 -83.5t-52 -51t-69.5 -25t-73 -6.5q-33 0 -69 5t-67 22t-51 49.5t-20 86.5q0 17 5 36t17 36.5t32.5 31.5t51.5 20v2q-40 7 -64.5 37t-24.5 75t18.5 73.5t47 45t61 22.5t61.5 6q55 0 92.5 -12.5t60.5 -33.5t33.5 -48t12.5 -55h-66q-1 31 -14 50.5
t-31.5 30.5t-40.5 15t-41 4q-54 0 -89 -24.5t-35 -75.5q0 -42 28.5 -65.5t87.5 -23.5h58v-50h-67q-55 0 -89 -21.5t-34 -74.5q0 -20 6 -42.5t27 -41.5q23 -20 53 -25t50 -5q14 0 39 3t49.5 14.5t42.5 34.5t18 64h66z" />
    <glyph glyph-name="zeta" unicode="&#x3b6;" horiz-adv-x="435" 
d="M431 700v-51q-78 -8 -135 -45t-95 -92.5t-56.5 -124t-18.5 -139.5q0 -102 38.5 -150t130.5 -48h20q63 0 101 -26t38 -80q0 -14 -4 -31t-11 -34.5t-15.5 -34t-17.5 -29.5l-63 20q15 26 28.5 52.5t13.5 46.5q0 38 -22.5 52t-67.5 14h-20q-114 0 -167.5 62t-53.5 185
q0 58 12.5 119t42 116t77 98.5t117.5 66.5v3h-201v50h329z" />
    <glyph glyph-name="eta" unicode="&#x3b7;" horiz-adv-x="580" 
d="M94 0v400q0 35 -10.5 48t-41.5 13v47q8 2 16.5 3t13.5 1q78 0 90 -80q14 23 30 39t36 28q50 29 105 29q41 0 72.5 -12t51.5 -32q32 -32 39 -69t7 -72v-528h-69v518q0 12 -0.5 27.5t-4.5 32t-11.5 32t-20.5 27.5q-15 13 -36.5 19.5t-41.5 6.5q-30 0 -57 -11t-47 -30
q-29 -29 -40.5 -63.5t-11.5 -63.5v-310h-69z" />
    <glyph glyph-name="theta" unicode="&#x3b8;" horiz-adv-x="611" 
d="M65 350q0 175 63 273q33 51 76.5 74.5t100.5 23.5q55 0 99 -23.5t76 -74.5q32 -49 48.5 -117t17.5 -156q0 -85 -16.5 -155t-48.5 -118t-77 -72t-99 -24q-113 0 -177 96q-32 49 -47.5 117t-15.5 156zM137 352q0 -73 8 -131t30 -103q43 -88 130 -88q86 0 129 88
q22 46 31 104t9 130h-337zM472 402q-2 61 -13.5 108t-32.5 85q-42 75 -121 76q-79 0 -122 -76q-20 -37 -31.5 -85.5t-12.5 -107.5h333z" />
    <glyph glyph-name="iota" unicode="&#x3b9;" horiz-adv-x="226" 
d="M77 508h69v-394q0 -35 12 -49.5t43 -14.5v-50q-5 -1 -15 -1.5t-16 -0.5q-45 0 -69 17.5t-24 69.5v423z" />
    <glyph glyph-name="kappa" unicode="&#x3ba;" horiz-adv-x="472" 
d="M377 508h82l-245 -236l260 -272h-86l-242 259v-259h-69v508h69v-228z" />
    <glyph glyph-name="lambda" unicode="&#x3bb;" horiz-adv-x="517" 
d="M85 0h-80l220 506l-35 108q-8 25 -20 33.5t-35 8.5h-12.5t-8.5 -1v49q9 2 25 3t23 1q35 -1 54.5 -18t33.5 -56q45 -130 91 -265t90 -266q6 -18 11.5 -29t12.5 -16.5t14.5 -7t18.5 -1.5h8.5t9.5 1v-50q-21 -3 -41 -3q-19 0 -34 3.5t-27 13.5t-22.5 28t-19.5 47l-107 336z
" />
    <glyph glyph-name="uni03BC" unicode="&#x3bc;" horiz-adv-x="565" 
d="M145 -185h-68v693h68v-299q0 -42 7.5 -73.5t34.5 -59.5q21 -21 43.5 -29.5t45.5 -8.5q50 0 86 36q29 29 36 62t7 74v298h69v-398q0 -12 1.5 -28t10.5 -24q15 -13 41 -8v-50q-12 -2 -22 -3t-21 -1q-14 0 -30 2.5t-29 15.5q-8 8 -14 21.5t-6 30.5q-9 -18 -22 -34t-26 -26
q-18 -14 -39 -20t-44 -6q-21 0 -40 5t-38 18q-16 11 -29 25t-22 28v-241z" />
    <glyph glyph-name="nu" unicode="&#x3bd;" horiz-adv-x="450" 
d="M234 70l122 327q13 35 14 52.5t2 26.5q0 8 -2 18t-5 19l69 8q3 -11 4.5 -22t1.5 -19q0 -16 -3 -33.5t-13 -43.5l-149 -403h-81l-189 508h75z" />
    <glyph glyph-name="xi" unicode="&#x3be;" horiz-adv-x="454" 
d="M380 -66q0 38 -22.5 52t-67.5 14h-32q-103 0 -155 43t-52 134q0 74 41 122.5t110 56.5v3q-69 14 -96.5 55t-27.5 95q0 44 23 82t73 55v4h-117v50h350v-50h-86q-82 0 -127.5 -33t-45.5 -105q0 -69 42.5 -99t127.5 -30h74v-50h-75q-46 0 -82 -8t-60.5 -26.5t-37.5 -49
t-13 -74.5q0 -66 36 -95.5t99 -29.5h51q63 0 101 -26t38 -80q0 -14 -4 -31t-11 -34.5t-15.5 -34t-17.5 -29.5l-63 20q15 26 28.5 52.5t13.5 46.5z" />
    <glyph glyph-name="omicron" unicode="&#x3bf;" horiz-adv-x="588" 
d="M294 528q39 0 83 -11t83 -48q22 -21 36.5 -47t23.5 -54.5t13 -57.5t4 -56q0 -24 -3 -52.5t-12 -57.5t-25 -57t-41 -51q-38 -35 -78.5 -45.5t-82.5 -10.5t-84.5 10.5t-79.5 45.5q-14 12 -28 31t-25.5 46t-19 62t-7.5 79q0 45 7.5 80t19 61t25 44t25.5 30q19 19 40.5 30.5
t43 18t42.5 8.5t40 2zM294 479q-40 0 -68 -12.5t-45 -29.5q-23 -23 -40.5 -66.5t-17.5 -115.5t18 -116.5t44 -69.5q26 -24 54.5 -31.5t54.5 -7.5t54.5 7.5t53.5 30.5q27 25 44.5 71.5t17.5 115.5q0 47 -11.5 95.5t-41.5 81.5q-15 16 -43 31.5t-74 15.5z" />
    <glyph glyph-name="pi" unicode="&#x3c0;" horiz-adv-x="594" 
d="M110 458h-10q-11 0 -20.5 -1t-20.5 -5q-6 -2 -14 -6t-15 -8v50q15 9 33 14q14 4 28 5t28 1h437v-50h-64v-348q0 -11 1 -27t11 -25q7 -7 18.5 -8.5t22.5 0.5v-50q-10 -2 -20 -3t-21 -1q-20 0 -37 4.5t-27 15.5q-12 12 -14.5 27.5t-2.5 26.5v388h-244v-458h-69v458z" />
    <glyph glyph-name="rho" unicode="&#x3c1;" horiz-adv-x="589" 
d="M75 -190v432q0 66 14.5 119t44.5 90t75 57t105 20t102.5 -21.5t69.5 -59t39.5 -87t12.5 -105.5q0 -63 -15 -114t-43.5 -87t-69 -55t-91.5 -19q-55 0 -101.5 22.5t-68.5 67.5l-6 1v-261h-68zM140 252q0 -42 10 -81.5t30 -71t50.5 -50.5t72.5 -19q77 0 120 58t43 167
q0 105 -43.5 164.5t-124.5 59.5q-39 0 -68.5 -18t-49.5 -48.5t-30 -72t-10 -88.5z" />
    <glyph glyph-name="sigma1" unicode="&#x3c2;" horiz-adv-x="535" 
d="M431 -66q0 38 -22.5 52t-67.5 14h-52q-60 0 -105 18t-74.5 52t-44 81.5t-14.5 107.5q0 66 17 118t48 85q23 26 64.5 46t107.5 20q60 0 97 -16.5t58 -36.5q20 -20 36 -50t21 -70h-66q-4 33 -16.5 53t-18.5 27q-22 25 -49.5 34t-56.5 9q-46 0 -74 -15.5t-42 -29.5
q-26 -26 -39.5 -70.5t-13.5 -103.5q0 -100 45 -154.5t122 -54.5h70q63 0 101 -26t38 -80q0 -14 -4 -31t-11 -34.5t-15.5 -34t-17.5 -29.5l-63 20q15 26 28.5 52.5t13.5 46.5z" />
    <glyph glyph-name="sigma" unicode="&#x3c3;" horiz-adv-x="595" 
d="M51 254q0 45 7.5 80t19 61t25 44t25.5 30q19 19 40.5 30.5t43 18t42.5 8.5t40 2q26 0 53 -4t55 -16h181v-50h-113q19 -21 31.5 -46t20.5 -52t11.5 -54t3.5 -52q0 -24 -3 -52.5t-12 -57.5t-25 -57t-41 -51q-38 -35 -78.5 -45.5t-82.5 -10.5t-84.5 10.5t-79.5 45.5
q-14 12 -28 31t-25.5 46t-19 62t-7.5 79zM123 255q0 -72 18 -116.5t44 -69.5q26 -24 54.5 -31.5t54.5 -7.5t54.5 7.5t53.5 30.5q27 25 44.5 71.5t17.5 115.5q0 47 -11.5 95.5t-41.5 81.5q-15 16 -43 31.5t-74 15.5q-40 0 -68 -12.5t-45 -29.5q-23 -23 -40.5 -66.5
t-17.5 -115.5z" />
    <glyph glyph-name="tau" unicode="&#x3c4;" horiz-adv-x="422" 
d="M177 458h-75q-29 0 -51.5 -3.5t-42.5 -13.5v51q17 7 41 11.5t53 4.5h312v-50h-168v-344q0 -35 12 -49.5t43 -14.5v-50q-5 -1 -15 -1.5t-16 -0.5q-45 0 -69 17.5t-24 69.5v373z" />
    <glyph glyph-name="upsilon" unicode="&#x3c5;" horiz-adv-x="562" 
d="M146 508v-285q0 -102 32 -147.5t101 -45.5q76 0 111.5 57t35.5 181q0 80 -14.5 139t-36.5 103l66 9q13 -21 23.5 -50t18 -62t11 -68.5t3.5 -70.5q0 -67 -12 -120t-38 -90.5t-67 -57.5t-99 -20q-105 0 -154.5 57.5t-49.5 184.5v286h69z" />
    <glyph glyph-name="phi" unicode="&#x3c6;" horiz-adv-x="760" 
d="M346 -184v184q-156 3 -225.5 70t-69.5 187q0 51 15 96.5t43.5 79.5t69.5 54t93 21v-50q-70 -11 -109.5 -63t-39.5 -139q0 -101 57 -153.5t166 -52.5v458h78q75 0 129 -17.5t88.5 -49.5t51 -78.5t16.5 -104.5q0 -121 -76 -188t-218 -70v-184h-69zM415 50q57 0 99 15
t69.5 43t41 66t13.5 85q0 97 -55.5 148.5t-167.5 51.5v-409z" />
    <glyph glyph-name="chi" unicode="&#x3c7;" horiz-adv-x="432" 
d="M7 508q9 2 20 3t19 1q25 0 44.5 -10.5t36.5 -47.5l100 -222l132 276h65l-165 -331q31 -65 63.5 -135.5t65.5 -136.5q11 -22 23.5 -32.5t34.5 -10.5q12 0 17 1v-47q-9 -2 -22 -3t-21 -1q-26 0 -44.5 10.5t-30.5 36.5l-127 274l-153 -318h-73l193 373l-108 235
q-12 26 -23.5 32.5t-29.5 6.5h-8.5t-8.5 -1v47z" />
    <glyph glyph-name="psi" unicode="&#x3c8;" horiz-adv-x="725" 
d="M327 -185v185q-84 3 -133.5 28t-75.5 68.5t-33.5 103t-7.5 130.5v178h69v-170q0 -72 5 -123t23.5 -85t54.5 -53.5t98 -26.5v650h69v-650q99 3 145.5 59t46.5 176q0 60 -12.5 119t-38.5 107l71 9q26 -52 39 -113t13 -124q0 -140 -66 -209t-198 -74v-185h-69z" />
    <glyph glyph-name="omega" unicode="&#x3c9;" horiz-adv-x="731" 
d="M398 209q0 -31 1.5 -63t11 -57.5t29 -42t55.5 -16.5t58 18t34 47.5t16 66t4 74.5q0 42 -6.5 80t-22.5 68.5t-43 52.5t-69 32v50q55 -3 95.5 -28t67 -64t39 -88.5t12.5 -102.5t-9.5 -99.5t-31.5 -81t-56.5 -54.5t-85.5 -20q-109 0 -129 96h-5q-20 -96 -129 -96
q-51 0 -85.5 20t-56.5 54.5t-31.5 81t-9.5 99.5t12.5 102.5t39 88.5t66.5 64t96 28v-50q-42 -10 -69 -32t-43 -52.5t-22.5 -68.5t-6.5 -80q0 -38 4 -74.5t16 -66t34 -47.5t58 -18t55.5 16.5t29 42t11 57.5t1.5 63v63h65v-63z" />
    <glyph glyph-name="iotadieresis" unicode="&#x3ca;" horiz-adv-x="226" 
d="M77 508h69v-394q0 -35 12 -49.5t43 -14.5v-50q-5 -1 -15 -1.5t-16 -0.5q-45 0 -69 17.5t-24 69.5v423zM-23 700h72v-84h-72v84zM180 700h71v-84h-71v84z" />
    <glyph glyph-name="upsilondieresis" unicode="&#x3cb;" horiz-adv-x="562" 
d="M146 508v-285q0 -102 32 -147.5t101 -45.5q76 0 111.5 57t35.5 181q0 80 -14.5 139t-36.5 103l66 9q13 -21 23.5 -50t18 -62t11 -68.5t3.5 -70.5q0 -67 -12 -120t-38 -90.5t-67 -57.5t-99 -20q-105 0 -154.5 57.5t-49.5 184.5v286h69zM118 700h72v-84h-72v84zM321 700h71
v-84h-71v84z" />
    <glyph glyph-name="omicrontonos" unicode="&#x3cc;" horiz-adv-x="588" 
d="M294 528q39 0 83 -11t83 -48q22 -21 36.5 -47t23.5 -54.5t13 -57.5t4 -56q0 -24 -3 -52.5t-12 -57.5t-25 -57t-41 -51q-38 -35 -78.5 -45.5t-82.5 -10.5t-84.5 10.5t-79.5 45.5q-14 12 -28 31t-25.5 46t-19 62t-7.5 79q0 45 7.5 80t19 61t25 44t25.5 30q19 19 40.5 30.5
t43 18t42.5 8.5t40 2zM294 479q-40 0 -68 -12.5t-45 -29.5q-23 -23 -40.5 -66.5t-17.5 -115.5t18 -116.5t44 -69.5q26 -24 54.5 -31.5t54.5 -7.5t54.5 7.5t53.5 30.5q27 25 44.5 71.5t17.5 115.5q0 47 -11.5 95.5t-41.5 81.5q-15 16 -43 31.5t-74 15.5zM419 700l-95 -132
h-61l70 132h86z" />
    <glyph glyph-name="upsilontonos" unicode="&#x3cd;" horiz-adv-x="562" 
d="M146 508v-285q0 -102 32 -147.5t101 -45.5q76 0 111.5 57t35.5 181q0 80 -14.5 139t-36.5 103l66 9q13 -21 23.5 -50t18 -62t11 -68.5t3.5 -70.5q0 -67 -12 -120t-38 -90.5t-67 -57.5t-99 -20q-105 0 -154.5 57.5t-49.5 184.5v286h69zM375 700l-95 -132h-61l70 132h86z
" />
    <glyph glyph-name="omegatonos" unicode="&#x3ce;" horiz-adv-x="731" 
d="M398 209q0 -31 1.5 -63t11 -57.5t29 -42t55.5 -16.5t58 18t34 47.5t16 66t4 74.5q0 42 -6.5 80t-22.5 68.5t-43 52.5t-69 32v50q55 -3 95.5 -28t67 -64t39 -88.5t12.5 -102.5t-9.5 -99.5t-31.5 -81t-56.5 -54.5t-85.5 -20q-109 0 -129 96h-5q-20 -96 -129 -96
q-51 0 -85.5 20t-56.5 54.5t-31.5 81t-9.5 99.5t12.5 102.5t39 88.5t66.5 64t96 28v-50q-42 -10 -69 -32t-43 -52.5t-22.5 -68.5t-6.5 -80q0 -38 4 -74.5t16 -66t34 -47.5t58 -18t55.5 16.5t29 42t11 57.5t1.5 63v63h65v-63zM485 700l-95 -132h-61l70 132h86z" />
    <glyph glyph-name="afii10023" unicode="&#x401;" horiz-adv-x="607" 
d="M538 394v-63h-374v-268h421v-63h-495v700h484v-63h-410v-243h374zM199 846h75v-74h-75v74zM403 846h75v-74h-75v74z" />
    <glyph glyph-name="afii10051" unicode="&#x402;" horiz-adv-x="743" 
d="M4 700h509v-63h-232v-245q16 2 55.5 6t89.5 4q22 0 49 -2t54 -8t53 -18.5t47 -33.5q17 -18 27 -37.5t15 -38.5t6.5 -35.5t1.5 -28.5q0 -50 -15.5 -93t-44.5 -70q-22 -21 -56.5 -35.5t-85.5 -14.5q-49 0 -88 13v63q15 -5 33.5 -9t41.5 -4q40 0 64.5 12t38.5 26
q17 19 27 47.5t10 64.5q0 22 -6 48.5t-28 48.5q-14 14 -33 22.5t-39 13t-40.5 5.5t-38.5 1q-17 0 -53.5 -1t-84.5 -6v-332h-74v637h-203v63z" />
    <glyph glyph-name="afii10052" unicode="&#x403;" horiz-adv-x="533" 
d="M164 0h-74v700h439v-63h-365v-637zM421 900l-99 -140h-65l72 140h92z" />
    <glyph glyph-name="afii10053" unicode="&#x404;" horiz-adv-x="732" 
d="M500 331h-357q0 -22 3 -50t11 -58.5t23 -60t38 -54.5q38 -41 81.5 -53.5t87.5 -12.5q16 0 36 2t40.5 7.5t41 16.5t38.5 29q27 27 43 64t20 73h78q-5 -49 -26 -96t-54 -81q-48 -48 -105.5 -63t-110.5 -15q-26 0 -54 3t-57 12t-58 25t-55 43q-48 49 -74 125t-26 169
q0 95 29.5 169t75.5 119q25 24 52.5 39.5t56 23.5t56 11t52.5 3q42 0 76.5 -6.5t61.5 -17t47 -24t34 -28.5q28 -29 45 -69t22 -79h-79q-4 39 -19.5 64.5t-28.5 39.5q-35 35 -79 46t-82 11q-43 0 -84.5 -11.5t-79.5 -50.5q-26 -26 -41 -57t-23 -60t-10.5 -52t-2.5 -33h357
v-63z" />
    <glyph glyph-name="afii10054" unicode="&#x405;" horiz-adv-x="651" 
d="M126 221q-1 -44 14.5 -74t31.5 -46q30 -31 75.5 -44t87.5 -13q43 0 83 11.5t65 35.5q17 17 28 41t11 53q0 25 -9 47t-22 36q-12 13 -30.5 22.5t-38 16.5t-37 11t-28.5 6l-70 13q-22 4 -46 9.5t-47.5 14t-45 21t-37.5 30.5q-15 17 -28 43.5t-13 67.5q0 55 24 94.5t60 62.5
q23 15 49.5 23.5t51 12.5t44 5t30.5 1q38 0 68.5 -6t53.5 -15t40 -20.5t29 -22.5q3 -3 12 -13.5t19 -27.5t18.5 -41t11.5 -55h-74q-3 31 -16 56t-30 41q-25 23 -62.5 32t-75.5 9q-6 0 -19 -0.5t-29.5 -3.5t-35 -8.5t-33.5 -14.5q-28 -17 -43 -44.5t-15 -59.5q0 -26 9 -43
t18 -27q21 -22 54.5 -33t69.5 -18l66 -13q57 -11 104.5 -27t79.5 -46q20 -19 35.5 -50t15.5 -79t-16 -86.5t-44 -64.5q-22 -20 -48 -32t-53 -18t-52 -8t-45 -2q-27 0 -56.5 2.5t-59.5 10t-58 22t-52 38.5q-23 23 -44 65t-21 102h75z" />
    <glyph glyph-name="afii10055" unicode="&#x406;" horiz-adv-x="254" 
d="M164 700v-700h-74v700h74z" />
    <glyph glyph-name="afii10056" unicode="&#x407;" horiz-adv-x="275" 
d="M174 700v-700h-74v700h74zM31 846h75v-74h-75v74zM169 846h75v-74h-75v74z" />
    <glyph glyph-name="afii10057" unicode="&#x408;" horiz-adv-x="512" 
d="M102 225v-6q0 -19 1 -39t5.5 -39.5t13.5 -37.5t24 -31q8 -8 29 -19t59 -11q29 0 50 8.5t36 22.5q28 27 34.5 66.5t6.5 78.5v482h74v-472q0 -23 -1.5 -49t-7.5 -52t-17 -50t-30 -44q-32 -34 -72 -44t-77 -10q-34 0 -73 9t-70 39q-18 18 -29.5 40.5t-18 47.5t-9 52t-2.5 54
v4h74z" />
    <glyph glyph-name="afii10058" unicode="&#x409;" horiz-adv-x="1046" 
d="M779 407q20 0 43 -2t46 -8.5t45.5 -18.5t41.5 -31q18 -18 35.5 -52t17.5 -88q0 -44 -14 -85t-43 -69q-19 -18 -40.5 -28.5t-43.5 -16t-43.5 -7t-39.5 -1.5h-279v637h-264v-207q0 -86 -5 -136.5t-8 -70.5q-3 -22 -9 -46t-15 -48t-22 -46t-31 -40q-26 -26 -56 -35.5
t-62 -9.5q-9 0 -17.5 0.5t-17.5 1.5v65q27 -5 53 2.5t45 24.5q6 6 14.5 16t16.5 27t15.5 42t12.5 60q3 18 5 44t3.5 54t2.5 55.5t1 48.5v261h412v-293h200zM579 63h199q26 0 58.5 6.5t58.5 32.5q17 17 27 43.5t10 60.5q0 32 -10 57t-27 41q-13 13 -42.5 26.5t-85.5 13.5
h-188v-281z" />
    <glyph glyph-name="afii10059" unicode="&#x40a;" horiz-adv-x="1081" 
d="M814 407q20 0 43 -2t46 -8.5t45.5 -18.5t41.5 -31q18 -18 35.5 -52t17.5 -88q0 -44 -14 -85t-43 -69q-19 -18 -40.5 -28.5t-43.5 -16t-43.5 -7t-39.5 -1.5h-279v344h-376v-344h-74v700h74v-293h376v293h74v-293h200zM614 344v-281h199q26 0 58.5 6.5t58.5 32.5
q17 17 27 43.5t10 60.5q0 32 -10 57t-27 41q-13 13 -42.5 26.5t-85.5 13.5h-188z" />
    <glyph glyph-name="afii10060" unicode="&#x40b;" horiz-adv-x="747" 
d="M603 0v218q0 9 -0.5 20.5t-2.5 24t-7.5 24t-14.5 20.5q-6 6 -16.5 11.5t-28.5 10t-45 7.5t-66 3q-48 0 -86 -2.5t-55 -4.5v-332h-74v637h-203v63h509v-63h-232v-242q36 2 81.5 4.5t80.5 2.5q27 0 54.5 -1.5t53 -6t48 -14t38.5 -25.5q14 -14 22 -31.5t12 -35t5 -34
t1 -29.5v-225h-74z" />
    <glyph glyph-name="afii10061" unicode="&#x40c;" horiz-adv-x="610" 
d="M499 700h93l-347 -325l367 -375h-100l-348 366v-366h-74v700h74v-321zM436 900l-99 -140h-65l72 140h92z" />
    <glyph glyph-name="afii10062" unicode="&#x40e;" horiz-adv-x="572" 
d="M495 700h79l-227 -557q-21 -52 -36.5 -76.5t-26.5 -35.5q-28 -28 -58 -34.5t-57 -6.5q-21 0 -37 2.5t-33 7.5v64q30 -10 64 -10q16 0 33 4t34 20q7 7 14 18.5t13.5 24t11.5 25t8 22.5l-266 532h91l214 -446zM462 887q-5 -31 -16.5 -52t-24.5 -34q-29 -29 -61.5 -37.5
t-61.5 -8.5q-13 0 -29 1.5t-33.5 6t-34.5 14t-32 24.5q-12 13 -24 34.5t-17 51.5h63q2 -18 8.5 -32.5t15.5 -24.5q17 -18 38.5 -23t41.5 -5t41.5 5t38.5 23q9 10 15.5 24.5t8.5 32.5h63z" />
    <glyph glyph-name="afii10145" unicode="&#x40f;" horiz-adv-x="706" 
d="M542 700h74v-700h-229v-185h-68v185h-229v700h74v-637h378v637z" />
    <glyph glyph-name="afii10017" unicode="&#x410;" 
d="M81 0h-80l266 700h83l266 -700h-81l-74 201h-305zM439 264l-131 365l-131 -365h262z" />
    <glyph glyph-name="afii10018" unicode="&#x411;" horiz-adv-x="663" 
d="M164 404h240q18 0 38 -1.5t40.5 -7.5t41 -16.5t38.5 -28.5q25 -24 41 -62t16 -87q0 -50 -17.5 -88.5t-42.5 -61.5q-19 -17 -42 -27.5t-46 -15.5t-45 -6.5t-39 -1.5h-297v700h483v-63h-409v-233zM164 63h212q32 0 66 6t62 32q23 20 31 46t8 52q0 38 -11.5 63.5t-28.5 40.5
q-15 13 -32.5 21t-35 12t-33.5 5t-27 1h-211v-279z" />
    <glyph glyph-name="afii10019" unicode="&#x412;" horiz-adv-x="690" 
d="M383 700q16 0 36.5 -1t42 -6t43 -15t39.5 -28q20 -20 33 -52.5t13 -72.5q0 -35 -11 -62.5t-33 -50.5q-20 -20 -40 -29t-34 -12v-2q26 -4 54 -16.5t48 -32.5q22 -22 34 -55t12 -70q0 -36 -13 -73t-37 -62q-21 -22 -47.5 -34t-53.5 -18t-52 -7t-43 -1h-284v700h293z
M164 395h201q10 0 24.5 0.5t30.5 3.5t32 10t29 20q14 14 24 37.5t10 52.5q0 30 -9.5 50.5t-21.5 32.5q-20 19 -50.5 27t-62.5 8h-207v-242zM164 63h206q32 0 55 3.5t39 9t25 11t14 9.5q17 15 29 41.5t12 61.5q0 37 -13 64t-33 41q-14 10 -33.5 15.5t-38.5 8.5t-35 3.5
t-22 0.5h-205v-269z" />
    <glyph glyph-name="afii10020" unicode="&#x413;" horiz-adv-x="533" 
d="M164 0h-74v700h439v-63h-365v-637z" />
    <glyph glyph-name="afii10021" unicode="&#x414;" horiz-adv-x="713" 
d="M702 63l-8 -221h-65v158h-558v-158h-66l-7 221h64q26 35 45 68t32 62.5t21 53.5t13 42q9 33 14.5 68.5t9 71t5 69t1.5 62.5v140h398v-637h101zM271 637v-89q0 -65 -4.5 -117t-12 -93.5t-16.5 -73.5t-18 -57q-16 -44 -34 -78t-41 -66h382v574h-256z" />
    <glyph glyph-name="afii10022" unicode="&#x415;" horiz-adv-x="607" 
d="M538 394v-63h-374v-268h421v-63h-495v700h483v-63h-409v-243h374z" />
    <glyph glyph-name="afii10024" unicode="&#x416;" horiz-adv-x="878" 
d="M402 357l-313 -357h-91l332 375l-321 325h88l305 -315v315h74v-315l306 315h88l-321 -325l331 -375h-90l-314 357v-357h-74v357z" />
    <glyph glyph-name="afii10025" unicode="&#x417;" horiz-adv-x="662" 
d="M125 208q2 -38 16.5 -69t36.5 -51q17 -16 36.5 -25t39.5 -13.5t39.5 -6t36.5 -1.5q38 0 78 8.5t72 40.5q17 17 29.5 43t12.5 64q0 26 -6 46t-15 34t-19.5 23.5t-19.5 14.5q-14 8 -31 12.5t-32.5 7t-29 3t-19.5 0.5h-90v63h83q6 0 20 0.5t31 4t34 10t31 18.5q13 11 24 32
t11 56q0 70 -54 106q-29 19 -62 24t-56 5q-32 0 -66.5 -6.5t-59.5 -25.5q-19 -14 -36.5 -42t-19.5 -69h-74q1 30 8.5 54t17.5 42t19.5 29.5t15.5 17.5q22 21 48 33.5t52.5 19t51.5 8.5t46 2t45.5 -2t50 -8t50 -18t45.5 -31q34 -32 43.5 -67.5t9.5 -64.5q0 -25 -7 -55
t-32 -56q-6 -6 -26 -21t-55 -23v-2q36 -4 61 -18t40 -30q28 -29 38 -61.5t10 -64.5q0 -54 -18 -93t-44 -64q-21 -20 -47.5 -32.5t-54.5 -19.5t-55 -9t-51 -2q-25 0 -53 2.5t-56 10t-54.5 21.5t-48.5 37q-28 29 -45.5 70t-19.5 88h74z" />
    <glyph glyph-name="afii10026" unicode="&#x418;" horiz-adv-x="727" 
d="M561 700h76v-700h-74v597l-397 -597h-76v700h74v-594z" />
    <glyph glyph-name="afii10027" unicode="&#x419;" horiz-adv-x="727" 
d="M561 700h76v-700h-74v597l-397 -597h-76v700h74v-594zM532 862q-5 -31 -16.5 -52t-24.5 -34q-29 -29 -61.5 -37.5t-61.5 -8.5q-13 0 -29 1.5t-33.5 6t-34.5 14t-32 24.5q-12 13 -24 34.5t-17 51.5h63q2 -18 8.5 -32.5t15.5 -24.5q17 -18 38.5 -23t41.5 -5t41.5 5t38.5 23
q9 10 15.5 24.5t8.5 32.5h63z" />
    <glyph glyph-name="afii10028" unicode="&#x41a;" horiz-adv-x="610" 
d="M499 700h93l-347 -325l367 -375h-100l-348 366v-366h-74v700h74v-321z" />
    <glyph glyph-name="afii10029" unicode="&#x41b;" horiz-adv-x="667" 
d="M-2 65q27 -5 53 2.5t45 24.5q6 6 14.5 16t16.5 27t15.5 42t12.5 60q3 18 5 44t3.5 54t2.5 55.5t1 48.5v261h410v-700h-74v637h-268v-207q0 -86 -5 -136.5t-8 -70.5q-3 -22 -9 -46t-15 -48t-22 -46t-31 -40q-47 -45 -116 -45q-8 0 -15.5 0.5t-15.5 1.5v65z" />
    <glyph glyph-name="afii10030" unicode="&#x41c;" horiz-adv-x="874" 
d="M164 608h-2l2 -27v-581h-74v700h112l235 -603l236 603h111v-700h-74v581l2 27h-3l-240 -608h-64z" />
    <glyph glyph-name="afii10031" unicode="&#x41d;" horiz-adv-x="704" 
d="M164 0h-74v700h74v-299h376v299h74v-700h-74v338h-376v-338z" />
    <glyph glyph-name="afii10032" unicode="&#x41e;" horiz-adv-x="786" 
d="M390 721q42 0 76.5 -7t62.5 -18.5t49.5 -25.5t37.5 -29q18 -17 37 -42t34 -60.5t25 -82t10 -106.5q0 -58 -9.5 -104.5t-24.5 -82.5t-33.5 -62t-36.5 -43q-26 -25 -54 -40.5t-57 -24t-57.5 -11.5t-54.5 -3q-89 0 -144.5 25t-86.5 56q-8 7 -24.5 28t-33 56t-29.5 86
t-13 120q0 52 8.5 96t22.5 80t32.5 64t38.5 48q13 13 33 27.5t47.5 27t63 20.5t80.5 8zM394 658q-64 0 -103 -19t-60 -38q-35 -32 -62 -95t-27 -160q0 -78 20.5 -139t57.5 -99q26 -26 69.5 -46t104.5 -20q64 0 105 21t66 46q35 35 57 93t22 146q0 50 -7.5 90t-20 71t-29 54
t-33.5 39q-38 35 -80 45.5t-80 10.5z" />
    <glyph glyph-name="afii10033" unicode="&#x41f;" horiz-adv-x="704" 
d="M164 0h-74v700h524v-700h-74v637h-376v-637z" />
    <glyph glyph-name="afii10034" unicode="&#x420;" horiz-adv-x="633" 
d="M362 700q19 0 42 -1t47 -6.5t47.5 -16.5t43.5 -30t36.5 -52.5t16.5 -90.5q0 -58 -16 -94t-36 -56q-21 -22 -46.5 -34.5t-51 -18.5t-49.5 -7t-44 -1h-188v-292h-74v700h272zM164 355h183q31 0 67 6t65 32q16 14 28 39.5t12 66.5q0 38 -12 62t-25 37q-14 13 -31.5 21
t-36 12t-36 5t-31.5 1h-183v-282z" />
    <glyph glyph-name="afii10035" unicode="&#x421;" horiz-adv-x="729" 
d="M681 228q-6 -51 -27 -96.5t-54 -78.5q-24 -24 -50.5 -39t-53.5 -22.5t-54 -10t-53 -2.5q-27 0 -56 3t-58 12.5t-58 26.5t-56 45t-45.5 62t-30 71t-16.5 75.5t-5 76.5q0 36 4.5 74.5t16 76t30 72t47.5 62.5q35 34 89 59.5t135 25.5q28 0 58 -4t59 -13t55 -23t47 -34
q26 -26 45.5 -66.5t22.5 -90.5h-75q-3 35 -17 63.5t-33 48.5q-21 22 -58.5 39t-97.5 17q-42 0 -85 -11.5t-82 -49.5q-42 -41 -62 -101t-20 -134q0 -35 4.5 -70.5t15 -69.5t26.5 -64t40 -53q23 -23 63.5 -43t101.5 -20q57 0 94 18t57 37q7 7 17 18.5t19 28t16 37.5t9 47h75z
" />
    <glyph glyph-name="afii10036" unicode="&#x422;" horiz-adv-x="546" 
d="M4 637v63h538v-63h-232v-637h-74v637h-232z" />
    <glyph glyph-name="afii10037" unicode="&#x423;" horiz-adv-x="572" 
d="M495 700h79l-227 -557q-21 -52 -36.5 -76.5t-26.5 -35.5q-28 -28 -58 -34.5t-57 -6.5q-21 0 -37 2.5t-33 7.5v64q30 -10 64 -10q16 0 33 4t34 20q7 7 14 18.5t13.5 24t11.5 25t8 22.5l-266 532h91l214 -446z" />
    <glyph glyph-name="afii10038" unicode="&#x424;" horiz-adv-x="876" 
d="M401 84h-51q-24 0 -53 2.5t-59.5 10t-60.5 21.5t-55 38q-28 26 -52 74t-24 125q0 40 7 71t17.5 54t22 39t19.5 25q22 24 50 40.5t59.5 26t65.5 13.5t68 4h46v103h74v-103h46q69 0 133 -17.5t110 -66.5q21 -22 33.5 -46t20 -48t10 -47t2.5 -44q0 -38 -6.5 -69t-17 -56
t-24.5 -43.5t-28 -32.5q-45 -44 -104.5 -59t-123.5 -15h-51v-107h-74v107zM519 144q15 0 36.5 1t45.5 6.5t48 16t44 28.5q30 29 44.5 74t14.5 89q0 46 -15 86.5t-42 66.5q-21 20 -47.5 31.5t-52.5 17t-48.5 6.5t-34.5 1h-37v-424h44zM401 568h-37q-12 0 -34.5 -1t-48.5 -6.5
t-52.5 -17t-47.5 -31.5q-27 -26 -42 -66.5t-15 -86.5q0 -44 14.5 -89t44.5 -74q19 -18 43.5 -28.5t48.5 -16t45.5 -6.5t36.5 -1h44v424z" />
    <glyph glyph-name="afii10039" unicode="&#x425;" horiz-adv-x="581" 
d="M478 700h91l-230 -342l240 -358h-95l-193 304l-194 -304h-95l240 358l-230 342h91l188 -288z" />
    <glyph glyph-name="afii10040" unicode="&#x426;" horiz-adv-x="727" 
d="M542 63v637h74v-637h100l-7 -221h-65v158h-554v700h74v-637h378z" />
    <glyph glyph-name="afii10041" unicode="&#x427;" horiz-adv-x="630" 
d="M144 700v-215q0 -18 3 -43t20 -43q11 -12 29 -19t39 -10t43 -4t41 -1q35 0 74 2t73 5v328h74v-700h-74v309q-14 -1 -33.5 -2t-41 -2t-42 -2t-36.5 -1q-78 0 -126 10t-74 33q-15 13 -23.5 30.5t-13 35.5t-5.5 35.5t-1 32.5v221h74z" />
    <glyph glyph-name="afii10042" unicode="&#x428;" horiz-adv-x="1024" 
d="M475 63v637h74v-637h311v637h74v-700h-844v700h74v-637h311z" />
    <glyph glyph-name="afii10043" unicode="&#x429;" horiz-adv-x="1048" 
d="M164 63h312v637h74v-637h311v637h74v-637h102l-7 -221h-66v158h-874v700h74v-637z" />
    <glyph glyph-name="afii10044" unicode="&#x42a;" horiz-adv-x="698" 
d="M231 407h200q12 0 32 -1.5t43 -6.5t48 -16t46 -30q23 -20 41.5 -55.5t18.5 -93.5q0 -31 -5.5 -55.5t-14 -43.5t-19 -32.5t-20.5 -22.5q-20 -18 -43 -28t-45 -15t-42 -6t-34 -1h-280v637h-155v63h229v-293zM231 63h199q29 0 58.5 5t55.5 30q16 15 28 41t12 64q0 39 -13 65
t-29 40q-25 22 -60 29t-64 7h-187v-281z" />
    <glyph glyph-name="afii10045" unicode="&#x42b;" horiz-adv-x="839" 
d="M164 407h200q18 0 39.5 -1.5t43.5 -7t44 -16.5t42 -29q22 -20 41 -56t19 -93q0 -49 -15.5 -86.5t-39.5 -61.5q-18 -18 -39 -29t-43 -17t-44 -8t-42 -2h-280v700h74v-293zM164 63h198q45 0 74 11.5t45 28.5q18 19 27 46t9 54q0 38 -12 62.5t-27 38.5t-33.5 22t-36.5 12
t-34.5 5t-28.5 1h-181v-281zM749 700v-700h-74v700h74z" />
    <glyph glyph-name="afii10046" unicode="&#x42c;" horiz-adv-x="631" 
d="M164 407h200q20 0 43 -2t46 -8.5t45.5 -18.5t41.5 -31q18 -18 35.5 -52t17.5 -88q0 -44 -14 -85t-43 -69q-19 -18 -40.5 -28.5t-43.5 -16t-43.5 -7t-39.5 -1.5h-279v700h74v-293zM164 63h199q26 0 58.5 6.5t58.5 32.5q17 17 27 43.5t10 60.5q0 32 -10 57t-27 41
q-13 13 -42.5 26.5t-85.5 13.5h-188v-281z" />
    <glyph glyph-name="afii10047" unicode="&#x42d;" horiz-adv-x="729" 
d="M587 394q-1 26 -5.5 54.5t-14.5 57t-26 54.5t-38 46q-38 33 -79 43t-77 10q-46 0 -79.5 -9.5t-57.5 -26.5q-9 -6 -20.5 -16.5t-22.5 -25.5t-20 -36t-12 -48h-75q3 37 14.5 66t26.5 51t32.5 37.5t33.5 25.5q39 24 88.5 34.5t91.5 10.5q56 0 107 -15t89 -44
q59 -46 90.5 -128t31.5 -182q0 -48 -8 -95t-23.5 -88.5t-38.5 -76.5t-53 -59q-23 -19 -48.5 -30.5t-50.5 -17.5t-49.5 -8t-46.5 -2q-55 0 -111.5 15.5t-103.5 62.5q-33 33 -55 81t-29 99h75q5 -44 23.5 -80t42.5 -59q34 -33 74.5 -44.5t80.5 -11.5q31 0 69 7.5t74 34.5
q34 25 53.5 60.5t30 71.5t13.5 68t3 51h-349v62h349z" />
    <glyph glyph-name="afii10048" unicode="&#x42e;" horiz-adv-x="995" 
d="M275 401q2 26 8 57t18 62.5t30.5 62t45.5 56.5q34 32 88.5 57t135.5 25q76 0 132.5 -23t90.5 -55q16 -15 35 -40t35 -62t26.5 -86t10.5 -113q0 -24 -3 -59.5t-13.5 -74.5t-31 -79t-55.5 -73q-27 -26 -55 -41t-56.5 -23t-56.5 -10.5t-54 -2.5q-62 0 -120.5 16t-108.5 63
q-27 26 -47 58.5t-32.5 69.5t-18.5 75.5t-6 76.5h-109v-338h-74v700h74v-299h111zM602 42q60 0 103 19t72 49q44 45 60 106.5t16 127.5q0 62 -10.5 106.5t-24.5 75t-28.5 47.5t-21.5 24q-31 29 -76 45t-93 16q-54 0 -95 -17.5t-69 -44.5q-27 -26 -43.5 -59t-25.5 -66.5
t-12 -65.5t-3 -55q0 -90 23.5 -151t61.5 -96q27 -26 68 -43.5t98 -17.5z" />
    <glyph glyph-name="afii10049" unicode="&#x42f;" horiz-adv-x="683" 
d="M333 288l-174 -288h-89l186 295q-37 3 -73 17.5t-59 37.5q-22 21 -38 57t-16 87q0 54 16.5 90t39.5 58q20 19 43 30.5t47 17.5t47.5 8t45.5 2h284v-700h-74v288h-186zM311 637q-12 0 -27.5 -1t-32.5 -5t-33.5 -11.5t-30.5 -20.5q-20 -18 -30.5 -46t-10.5 -58t9 -56.5
t25 -43.5q17 -18 51 -31t91 -13h197v286h-208z" />
    <glyph glyph-name="afii10065" unicode="&#x430;" horiz-adv-x="552" 
d="M65 362q0 14 3 31t10.5 35t20 34.5t32.5 30.5q17 12 36.5 18.5t39 10.5t37 5t30.5 1q16 0 35 -1.5t39 -6.5t39.5 -14t35.5 -25q29 -29 35.5 -60.5t5.5 -58.5l-6 -253q0 -12 1 -25t9 -22q17 -20 46 -12v-50q-7 -2 -16.5 -3t-20.5 -1q-12 0 -28.5 2.5t-30.5 16.5
q-12 12 -17.5 30.5t-4.5 35.5q-15 -25 -33 -41t-33 -24q-33 -19 -67 -23.5t-52 -4.5q-29 0 -63.5 7.5t-61.5 33.5q-20 19 -31 47t-11 60q0 37 12.5 60.5t24.5 35.5q15 15 35.5 24.5t42.5 15.5t43.5 9.5t39.5 5.5l33 4q14 2 32.5 3.5t35.5 4.5q19 3 27.5 7t12.5 8
q8 9 10 23.5t2 25.5q0 19 -4.5 43t-26.5 44q-20 18 -46 23t-50 5q-23 0 -53 -5t-51 -26q-16 -16 -23.5 -39.5t-8.5 -45.5h-67zM393 269q-10 -9 -19 -12t-21 -5q-17 -3 -29 -5t-21.5 -3t-18.5 -1.5t-21 -1.5l-20 -2q-42 -5 -66 -14t-37 -21q-8 -8 -16 -25t-8 -44
q0 -21 7.5 -39t18.5 -29q18 -20 39.5 -24.5t40.5 -4.5q42 0 67.5 11t41.5 24q29 24 43.5 63t16.5 81z" />
    <glyph glyph-name="afii10066" unicode="&#x431;" horiz-adv-x="608" 
d="M520 730q-2 -26 -11.5 -43.5t-19.5 -26.5q-18 -17 -42.5 -23.5t-47.5 -9.5q-37 -5 -61 -7.5t-50 -7.5t-54.5 -16t-52.5 -35q-19 -18 -30 -41t-17 -46t-8.5 -43.5t-2.5 -35.5h2q9 25 22 43t27 31q32 29 68 40t78 11q64 0 104.5 -19.5t63.5 -43.5q34 -35 51.5 -89
t17.5 -110q0 -27 -4 -56t-13 -57.5t-23 -55t-35 -47.5q-20 -20 -40 -32.5t-41 -19t-43 -8.5t-44 -2q-20 0 -41.5 2t-43.5 8t-43.5 18t-40.5 32q-24 25 -39.5 57.5t-24 68.5t-12 72t-3.5 68q0 25 2.5 66.5t10.5 86t24.5 87t45.5 70.5q16 16 43 31.5t71 25.5q4 1 29.5 5.5
t79.5 9.5q20 2 37 4.5t29 9.5q11 6 15 13.5t6 14.5h61zM139 257q0 -63 16 -111t45 -76q26 -26 55.5 -33t55.5 -7q29 0 58 7t54 30q21 19 33 44t18.5 49.5t8 46.5t1.5 36q0 57 -13 106t-43 79q-28 27 -59.5 34.5t-57.5 7.5t-55 -6.5t-57 -33.5q-21 -20 -40.5 -61.5
t-19.5 -111.5z" />
    <glyph glyph-name="afii10067" unicode="&#x432;" horiz-adv-x="531" 
d="M300 508q39 0 69.5 -5.5t56.5 -31.5q17 -17 25 -37t8 -47q0 -33 -10.5 -54t-25.5 -35t-28.5 -20t-24.5 -9v-2q19 -5 39.5 -14.5t35.5 -24.5q23 -23 28 -47.5t5 -42.5q0 -36 -11.5 -59.5t-25.5 -37.5q-25 -24 -61.5 -32.5t-82.5 -8.5h-220v508h223zM146 291h133q24 0 48 5
t41 24q11 12 16 28t5 32q0 31 -19 52q-15 16 -38 21t-48 5h-138v-167zM146 50h138q42 0 64 8t33 19t18.5 28.5t7.5 40.5q0 17 -5 33.5t-19 30.5q-22 23 -50.5 27t-51.5 4h-135v-191z" />
    <glyph glyph-name="afii10068" unicode="&#x433;" horiz-adv-x="416" 
d="M146 0h-69v508h335v-50h-266v-458z" />
    <glyph glyph-name="afii10069" unicode="&#x434;" horiz-adv-x="586" 
d="M63 50q20 32 36.5 67t26.5 67q8 26 12 52t6 55t2.5 62t0.5 72v83h345v-458h88l-5 -182h-60v132h-447v-132h-60l-6 182h61zM212 458v-76q0 -9 -0.5 -30.5t-2.5 -49.5t-6.5 -59t-11.5 -59q-9 -33 -23 -67t-34 -67h289v408h-211z" />
    <glyph glyph-name="afii10070" unicode="&#x435;" horiz-adv-x="572" 
d="M515 147q-7 -33 -21.5 -60.5t-33.5 -47.5q-37 -38 -78.5 -48.5t-83.5 -10.5q-20 0 -41.5 1.5t-43.5 7.5t-44 18t-43 32q-23 22 -38 48.5t-23 54.5t-11 57t-3 57q0 20 2 46t9.5 54t21 56t37.5 52q21 21 43.5 33.5t45.5 19.5t44 9t39 2q16 0 36.5 -2t42 -8t43 -18t40.5 -32
q41 -43 52.5 -100.5t13.5 -126.5h-398q2 -60 17 -99t37 -62q21 -23 51.5 -36.5t72.5 -13.5q40 0 65 12t40 26q12 11 20 23.5t13 23.5t7 19.5t3 12.5h66zM292 478q-43 0 -73.5 -14.5t-48.5 -34.5q-21 -24 -34 -62t-13 -76h325q0 15 -3 35t-9 40t-15 39t-22 32
q-15 16 -41.5 28.5t-65.5 12.5z" />
    <glyph glyph-name="afii10072" unicode="&#x436;" horiz-adv-x="673" 
d="M302 256l-218 -256h-86l239 267l-225 241h82l208 -234v234h69v-234l208 234h82l-225 -241l239 -267h-86l-218 256v-256h-69v256z" />
    <glyph glyph-name="afii10073" unicode="&#x437;" horiz-adv-x="508" 
d="M104 152q0 -31 11.5 -53.5t25.5 -35.5q13 -12 29 -18.5t31.5 -10t29 -4t22.5 -0.5q20 0 50 5t53 25q21 19 27 41.5t6 42.5q0 19 -5.5 38.5t-25.5 36.5q-21 17 -46.5 20.5t-45.5 3.5h-80v50h71q43 0 63 9.5t24 12.5q17 14 23 31t6 33q0 17 -6 37.5t-27 37.5
q-20 16 -45.5 20t-45.5 4q-19 0 -44.5 -4t-45.5 -20q-15 -12 -25.5 -32.5t-11.5 -46.5h-66q2 32 14.5 59t30.5 45q20 20 56.5 34.5t97.5 14.5q34 0 75.5 -8.5t72.5 -38.5q20 -19 30 -45t10 -55q0 -25 -9 -46t-23 -35q-11 -10 -25.5 -17.5t-31.5 -10.5v-2q41 -8 70 -35
q23 -22 29.5 -46t6.5 -46q0 -50 -18 -80.5t-41 -47.5q-32 -23 -71 -29t-77 -6q-42 0 -87 8.5t-79 40.5q-17 17 -33 48t-16 75h66z" />
    <glyph glyph-name="afii10074" unicode="&#x438;" horiz-adv-x="582" 
d="M427 508h78v-508h-69v429l-280 -429h-79v508h69v-428z" />
    <glyph glyph-name="afii10075" unicode="&#x439;" horiz-adv-x="582" 
d="M427 508h78v-508h-69v429l-280 -429h-79v508h69v-428zM448 700q-4 -27 -15.5 -49t-25.5 -36q-26 -25 -57.5 -32.5t-58.5 -7.5t-58.5 7.5t-57.5 32.5q-14 14 -25.5 36t-15.5 49h58q2 -17 9 -32.5t18 -26.5q16 -15 35.5 -19t36.5 -4t36.5 4t35.5 19q11 11 18 26.5t9 32.5
h58z" />
    <glyph glyph-name="afii10076" unicode="&#x43a;" horiz-adv-x="472" 
d="M377 508h82l-245 -236l260 -272h-86l-242 259v-259h-69v508h69v-228z" />
    <glyph glyph-name="afii10077" unicode="&#x43b;" horiz-adv-x="536" 
d="M4 52q22 -5 41.5 0.5t34.5 19.5q4 4 10 11.5t12.5 21.5t12.5 34.5t9 49.5q2 16 3 37.5t1.5 42.5t0.5 37v24v178h330v-508h-69v458h-196v-127q0 -14 -0.5 -34t-1.5 -40.5t-2.5 -39.5t-2.5 -31q-2 -14 -4.5 -33.5t-8.5 -40.5t-16 -41.5t-26 -35.5q-27 -26 -62.5 -33
t-65.5 -2v52z" />
    <glyph glyph-name="afii10078" unicode="&#x43c;" horiz-adv-x="715" 
d="M146 427h-2l2 -27v-400h-69v508h95l185 -433l185 433h96v-508h-69v400l2 27h-2l-183 -427h-58z" />
    <glyph glyph-name="afii10079" unicode="&#x43d;" horiz-adv-x="562" 
d="M146 0h-69v508h69v-214h270v214h69v-508h-69v244h-270v-244z" />
    <glyph glyph-name="afii10080" unicode="&#x43e;" horiz-adv-x="588" 
d="M294 528q39 0 83 -11t83 -48q22 -21 36.5 -47t23.5 -54.5t13 -57.5t4 -56q0 -24 -3 -52.5t-12 -57.5t-25 -57t-41 -51q-38 -35 -78.5 -45.5t-82.5 -10.5t-84.5 10.5t-79.5 45.5q-14 12 -28 31t-25.5 46t-19 62t-7.5 79q0 45 7.5 80t19 61t25 44t25.5 30q19 19 40.5 30.5
t43 18t42.5 8.5t40 2zM294 479q-40 0 -68 -12.5t-45 -29.5q-23 -23 -40.5 -66.5t-17.5 -115.5t18 -116.5t44 -69.5q26 -24 54.5 -31.5t54.5 -7.5t54.5 7.5t53.5 30.5q27 25 44.5 71.5t17.5 115.5q0 47 -11.5 95.5t-41.5 81.5q-15 16 -43 31.5t-74 15.5z" />
    <glyph glyph-name="afii10081" unicode="&#x43f;" horiz-adv-x="566" 
d="M146 0h-69v508h412v-508h-69v458h-274v-458z" />
    <glyph glyph-name="afii10082" unicode="&#x440;" horiz-adv-x="591" 
d="M143 508v-75h2q17 26 34.5 41.5t28.5 23.5q26 17 52.5 23.5t55.5 6.5q57 0 93.5 -18t56.5 -37q12 -12 25.5 -30t24 -44t17.5 -60.5t7 -79.5q0 -62 -14 -113.5t-41.5 -88t-68 -57t-92.5 -20.5q-66 0 -113 28q-20 13 -37 31.5t-28 38.5v-263h-69v693h66zM142 252
q0 -18 2 -40.5t8 -46t17.5 -46.5t30.5 -42q17 -18 45 -32.5t68 -14.5q58 0 98 41q26 28 41.5 75.5t15.5 110.5q0 39 -5.5 68.5t-14 51.5t-19.5 37t-21 25q-14 14 -39 26.5t-63 12.5q-31 0 -57 -11t-46 -29q-21 -19 -33 -43t-18 -49t-8 -49.5t-2 -44.5z" />
    <glyph glyph-name="afii10083" unicode="&#x441;" horiz-adv-x="543" 
d="M505 178q-4 -38 -20.5 -78.5t-45.5 -69.5q-34 -34 -71 -42t-76 -8q-40 0 -82 9t-82 47q-35 34 -56 90.5t-21 132.5q0 66 17 118t48 85q23 26 64.5 46t107.5 20q60 0 97 -16.5t58 -36.5q20 -20 36 -50t21 -70h-66q-4 33 -16.5 53t-18.5 27q-22 25 -49.5 34t-56.5 9
q-46 0 -74 -15.5t-42 -29.5q-26 -26 -39.5 -69.5t-13.5 -102.5q0 -77 19.5 -121.5t41.5 -66.5q18 -18 44.5 -30.5t63.5 -12.5q41 0 65 12.5t36 25.5q19 20 31 50.5t14 59.5h66z" />
    <glyph glyph-name="afii10084" unicode="&#x442;" horiz-adv-x="430" 
d="M4 458v50h422v-50h-176v-458h-69v458h-177z" />
    <glyph glyph-name="afii10085" unicode="&#x443;" horiz-adv-x="471" 
d="M83 -132q16 -4 39 -4q11 0 24.5 2.5t24.5 12.5q6 5 13.5 17.5t15.5 38.5l21 65l-214 508h83l168 -431l146 431h69l-209 -585q-10 -26 -19.5 -49t-25.5 -37q-19 -17 -41 -21.5t-39 -4.5q-16 0 -29.5 1.5t-26.5 3.5v52z" />
    <glyph glyph-name="afii10086" unicode="&#x444;" horiz-adv-x="779" 
d="M355 -13q-30 -1 -61.5 2t-62.5 12.5t-60 26t-53 42.5q-35 39 -51 86t-16 101q0 36 6 65t15.5 52.5t21 40.5t23.5 29q27 28 60.5 43.5t67 23t63 9t47.5 0.5v180h69v-180q88 2 143.5 -19t89.5 -54q41 -40 56 -88t15 -99q0 -38 -6.5 -68.5t-17 -54.5t-23 -42t-25.5 -31
q-24 -24 -52.5 -39.5t-59 -24t-61.5 -11.5t-59 -2v-172h-69v172zM355 470q-69 3 -111.5 -15t-65.5 -42q-27 -28 -41 -69t-14 -87q0 -47 14.5 -89t43.5 -71q23 -24 64.5 -42t109.5 -18v433zM424 37q46 -1 94.5 13.5t80.5 46.5q27 27 42 70t15 91q0 44 -13 85.5t-42 69.5
q-17 16 -38.5 27.5t-45.5 18t-48 9.5t-45 2v-433z" />
    <glyph glyph-name="afii10087" unicode="&#x445;" horiz-adv-x="459" 
d="M366 508h79l-175 -243l191 -265h-81l-151 221l-151 -221h-80l191 265l-175 243h78l137 -198z" />
    <glyph glyph-name="afii10088" unicode="&#x446;" horiz-adv-x="582" 
d="M419 50v458h69v-458h88l-5 -182h-60v132h-434v508h68v-458h274z" />
    <glyph glyph-name="afii10089" unicode="&#x447;" horiz-adv-x="498" 
d="M120 508v-166q0 -15 2.5 -31.5t13.5 -27.5q14 -14 43.5 -17.5t80.5 -3.5q15 0 42.5 1t49.5 2v243h69v-508h-69v215q-32 -2 -60.5 -3t-57.5 -1q-19 0 -41 0.5t-44 4t-41 10.5t-32 20q-19 20 -22 44t-3 44v174h69z" />
    <glyph glyph-name="afii10090" unicode="&#x448;" horiz-adv-x="810" 
d="M370 50v458h69v-458h225v458h69v-508h-656v508h68v-458h225z" />
    <glyph glyph-name="afii10091" unicode="&#x449;" horiz-adv-x="827" 
d="M371 50v458h68v-458h226v458h68v-458h88l-6 -182h-60v132h-678v508h69v-458h225z" />
    <glyph glyph-name="afii10092" unicode="&#x44a;" horiz-adv-x="573" 
d="M4 508h199v-204h159q14 0 31.5 -1t35.5 -5.5t36 -13.5t33 -24q14 -14 25.5 -39t11.5 -66q0 -37 -11 -64.5t-27 -44.5q-15 -15 -33 -24.5t-36.5 -14t-36 -6t-30.5 -1.5h-227v458h-130v50zM203 50h134q11 0 24.5 1t27 4t26.5 9t23 17q11 12 18.5 31t7.5 44q0 46 -26 70
q-20 19 -46 23.5t-49 4.5h-140v-204z" />
    <glyph glyph-name="afii10093" unicode="&#x44b;" horiz-adv-x="689" 
d="M146 508v-204h133h31t34.5 -2t35 -7t33.5 -15q10 -6 21.5 -15.5t21.5 -24.5t16.5 -36t6.5 -49q0 -52 -21 -84t-44 -46q-26 -16 -56.5 -20.5t-53.5 -4.5h-227v508h69zM146 50h134q8 0 18.5 0.5t22.5 2.5t24 6t22 11q25 17 32.5 40t7.5 43q0 30 -9 48t-20 28
q-20 18 -46 21.5t-52 3.5h-134v-204zM612 508v-508h-69v508h69z" />
    <glyph glyph-name="afii10094" unicode="&#x44c;" horiz-adv-x="516" 
d="M146 508v-205h138q34 0 66.5 -3t61.5 -20q39 -23 52.5 -57t13.5 -69q0 -21 -7 -52t-33 -57q-19 -19 -51.5 -32t-83.5 -13h-226v508h69zM146 50h134q22 0 45 4t40 15q23 14 32.5 36t9.5 48q0 28 -8 45.5t-18 26.5q-19 19 -45 23.5t-49 4.5h-141v-203z" />
    <glyph glyph-name="afii10095" unicode="&#x44d;" horiz-adv-x="542" 
d="M187 291h232q0 31 -7.5 61t-19.5 52q-14 24 -31.5 38.5t-35.5 22.5t-35.5 10.5t-32.5 2.5q-45 0 -71 -13t-41 -29q-14 -15 -23 -36t-11 -45h-67q2 29 14.5 63t48.5 64q35 29 74 37.5t77 8.5q18 0 39 -2t43 -8t43.5 -17.5t40.5 -30.5q12 -12 24 -30t21.5 -43.5t15.5 -59
t6 -77.5q0 -16 -1.5 -41t-7 -53.5t-15.5 -57t-28 -51.5q-18 -24 -40 -39.5t-45.5 -23.5t-47 -11t-45.5 -3q-19 0 -40.5 2t-42.5 8t-41.5 16.5t-37.5 27.5q-27 26 -42.5 64.5t-18.5 74.5h68q1 -23 8 -45t18 -38q6 -9 17 -19.5t27 -19.5t38 -15t51 -6q52 0 81.5 21t48.5 63
q13 29 19 63t5 64h-232v50z" />
    <glyph glyph-name="afii10096" unicode="&#x44e;" horiz-adv-x="765" 
d="M230 293q2 52 21.5 97t51.5 76q38 37 82 49.5t87 12.5q37 0 82 -11.5t84 -48.5q29 -29 52.5 -81.5t23.5 -131.5q0 -72 -21.5 -128t-58.5 -91q-20 -19 -40.5 -30t-41 -17t-40.5 -7.5t-38 -1.5q-42 0 -85 11t-81 46q-39 38 -59 94.5t-20 111.5h-83v-243h-69v508h69v-215h84
zM302 255q0 -72 16.5 -115t39.5 -66q14 -14 42 -29t74 -15q29 0 55 8t49 29q25 23 44 68t19 120q0 70 -17.5 115.5t-44.5 70.5q-26 24 -54.5 30.5t-52.5 6.5q-33 0 -61.5 -9.5t-51.5 -32.5q-22 -22 -39.5 -64.5t-17.5 -116.5z" />
    <glyph glyph-name="afii10097" unicode="&#x44f;" horiz-adv-x="529" 
d="M114 0h-76l137 208q-28 4 -50 15t-36 25q-16 15 -28.5 40.5t-12.5 64.5q0 70 39 111q17 18 47 31t78 13h240v-508h-69v207h-138zM243 458q-28 0 -51.5 -3.5t-44.5 -23.5q-17 -16 -22.5 -35t-5.5 -39q0 -16 5 -35t22 -35q11 -11 35 -20.5t67 -9.5h135v201h-140z" />
    <glyph glyph-name="afii10071" unicode="&#x451;" horiz-adv-x="572" 
d="M143 700h71v-84h-71v84zM365 700h72v-84h-72v84zM292 478q-26 0 -46.5 -5.5t-35.5 -13t-24.5 -16t-15.5 -14.5q-21 -24 -34 -62t-13 -76h325q0 15 -3 35t-9 40t-15 39t-22 32q-15 16 -41.5 28.5t-65.5 12.5zM293 528q16 0 36.5 -2t42 -8t43 -18t40.5 -32
q41 -43 52.5 -100.5t13.5 -126.5h-398q2 -60 17 -99t37 -62q21 -23 51.5 -36.5t72.5 -13.5q40 0 65 12t40 26q12 11 20 23.5t13 23.5t7 19.5t3 12.5h66q-7 -33 -21.5 -60.5t-33.5 -47.5q-37 -38 -78.5 -48.5t-83.5 -10.5q-20 0 -41.5 1.5t-43.5 7.5t-44 18t-43 32
q-23 22 -38 48.5t-23 54.5t-11 57t-3 57q0 20 2 46t9.5 54t21 56t37.5 52q21 21 43.5 33.5t45.5 19.5t44 9t39 2z" />
    <glyph glyph-name="afii10099" unicode="&#x452;" horiz-adv-x="564" 
d="M146 700v-66h215v-45h-215v-155q11 17 25.5 33.5t36.5 30.5q25 17 49 23.5t55 6.5q47 0 77.5 -13.5t49.5 -33.5q39 -42 48.5 -116.5t9.5 -177.5q0 -44 -2 -89.5t-10 -87.5t-23 -79t-42 -64q-32 -32 -66.5 -42t-69.5 -10h-7v52h6q20 0 41.5 5t41.5 23q22 20 34 51t17 68.5
t6 78t1 79.5q0 115 -8 181.5t-37 95.5q-11 11 -30 20t-50 9q-26 0 -51.5 -9t-48.5 -31q-18 -18 -28.5 -37.5t-16 -39.5t-7 -39.5t-1.5 -37.5v-284h-69v589h-80v45h80v66h69z" />
    <glyph glyph-name="afii10100" unicode="&#x453;" horiz-adv-x="416" 
d="M146 0h-69v508h335v-50h-266v-458zM348 700l-95 -132h-61l70 132h86z" />
    <glyph glyph-name="afii10101" unicode="&#x454;" horiz-adv-x="546" 
d="M363 241h-239q0 -25 3.5 -50t11 -47.5t18.5 -41.5t24 -32q23 -23 51.5 -31.5t55.5 -8.5q44 0 70.5 13t40.5 27q19 20 30 49.5t13 56.5h66q-2 -45 -19.5 -83.5t-43.5 -62.5q-18 -17 -38 -26.5t-40.5 -15t-40.5 -7t-37 -1.5q-19 0 -39.5 1.5t-41.5 7.5t-42 17.5t-41 31.5
q-25 25 -40 54.5t-22.5 59.5t-9.5 58t-2 49q0 22 2.5 48.5t9.5 54.5t20 54.5t35 49.5q38 39 82.5 50.5t84.5 11.5q36 0 63.5 -6t47.5 -14t32.5 -17.5t19.5 -15.5q20 -19 35.5 -50t18.5 -70h-66q-2 26 -12 47t-24 35q-13 13 -28 21.5t-30 12.5t-29 5.5t-24 1.5
q-23 0 -53.5 -7t-56.5 -31q-25 -24 -40 -66t-15 -83h239v-50z" />
    <glyph glyph-name="afii10102" unicode="&#x455;" horiz-adv-x="491" 
d="M108 148q0 -31 11.5 -52t23.5 -32q14 -14 40.5 -24t69.5 -10q38 0 60.5 8.5t34.5 18.5q16 13 25 34t9 45q0 17 -6.5 32t-20.5 27q-9 8 -27.5 16.5t-56.5 16.5l-56 12q-35 8 -69 19t-55 32q-16 16 -25 39t-9 49q0 36 17 67.5t46 51.5q31 20 67 25t59 5q14 0 33 -1.5
t39.5 -7t40.5 -15.5t37 -26q16 -15 29 -40.5t14 -61.5h-67q0 22 -8 41t-20 31q-32 30 -99 30q-20 0 -46.5 -5t-46.5 -25q-8 -8 -15.5 -23.5t-7.5 -38.5q0 -17 6 -31t20 -27q17 -14 38.5 -21t42.5 -12l53 -12q32 -8 64 -17t55 -27q20 -15 32.5 -38.5t12.5 -58.5
q0 -42 -17 -74.5t-43 -51.5q-17 -13 -37.5 -20t-40 -10.5t-37 -4.5t-28.5 -1q-66 0 -104.5 17t-58.5 37q-22 23 -34 54.5t-15 59.5h70z" />
    <glyph glyph-name="afii10103" unicode="&#x456;" horiz-adv-x="219" 
d="M144 508v-508h-69v508h69zM74 700h71v-84h-71v84z" />
    <glyph glyph-name="afii10104" unicode="&#x457;" horiz-adv-x="245" 
d="M157 508v-508h-69v508h69zM27 700h72v-84h-72v84zM146 700h72v-84h-72v84z" />
    <glyph glyph-name="afii10105" unicode="&#x458;" horiz-adv-x="223" 
d="M148 508v-556q0 -30 -5 -61.5t-24 -50.5q-10 -10 -22.5 -15.5t-25.5 -8.5t-24 -3.5t-18 -0.5q-19 0 -38 3v51h4q14 0 32 2.5t32 13.5q14 13 17 31.5t3 41.5v553h69zM77 700h72v-84h-72v84z" />
    <glyph glyph-name="afii10106" unicode="&#x459;" horiz-adv-x="829" 
d="M597 303q34 0 66.5 -3t61.5 -20q39 -23 52.5 -57t13.5 -69q0 -21 -7 -52t-33 -57q-19 -19 -51.5 -32t-83.5 -13h-226v458h-196v-127q0 -14 -0.5 -34t-1.5 -40.5t-2.5 -39.5t-2.5 -31q-2 -14 -4.5 -33.5t-8.5 -40.5t-16 -41.5t-26 -35.5q-27 -26 -62.5 -33t-65.5 -2v52
q22 -5 41.5 0.5t34.5 19.5q4 4 10 11.5t12.5 21.5t12.5 34.5t9 49.5q2 16 3 37.5t1.5 42.5t0.5 37v24v178h330v-205h138zM459 50h134q22 0 45 4t40 15q23 14 32.5 36t9.5 48q0 28 -8 45.5t-18 26.5q-19 19 -45 23.5t-49 4.5h-141v-203z" />
    <glyph glyph-name="afii10107" unicode="&#x45a;" horiz-adv-x="855" 
d="M485 508v-205h138q34 0 66.5 -3t61.5 -20q39 -23 52.5 -57t13.5 -69q0 -21 -7 -52t-33 -57q-19 -19 -51.5 -32t-83.5 -13h-226v253h-270v-253h-69v508h69v-205h270v205h69zM485 50h134q22 0 45 4t40 15q23 14 32.5 36t9.5 48q0 28 -8 45.5t-18 26.5q-19 19 -45 23.5
t-49 4.5h-141v-203z" />
    <glyph glyph-name="afii10108" unicode="&#x45b;" horiz-adv-x="562" 
d="M146 700v-66h215v-45h-215v-155q12 22 27.5 37t34.5 27q25 16 50.5 23t58.5 7q47 0 77 -13t48 -31q16 -16 24.5 -33.5t12.5 -35.5t5 -36.5t1 -35.5v-343h-69v316v31t-2 34t-8 33.5t-19 30.5t-34 23.5t-49 9.5q-33 0 -62 -12.5t-49 -33.5q-17 -18 -26.5 -37.5t-14 -38.5
t-5.5 -37.5t-1 -34.5v-284h-69v589h-80v45h80v66h69z" />
    <glyph glyph-name="afii10109" unicode="&#x45c;" horiz-adv-x="472" 
d="M377 508h82l-245 -236l260 -272h-86l-242 259v-259h-69v508h69v-228zM363 700l-95 -132h-61l70 132h86z" />
    <glyph glyph-name="afii10110" unicode="&#x45e;" horiz-adv-x="471" 
d="M83 -132q16 -4 39 -4q11 0 24.5 2.5t24.5 12.5q6 5 13.5 17.5t15.5 38.5l21 65l-214 508h83l168 -431l146 431h69l-209 -585q-10 -26 -19.5 -49t-25.5 -37q-19 -17 -41 -21.5t-39 -4.5q-16 0 -29.5 1.5t-26.5 3.5v52zM402 700q-4 -27 -15.5 -49t-25.5 -36
q-26 -25 -57.5 -32.5t-58.5 -7.5t-58.5 7.5t-57.5 32.5q-14 14 -25.5 36t-15.5 49h58q2 -17 9 -32.5t18 -26.5q16 -15 35.5 -19t36.5 -4t36.5 4t35.5 19q11 11 18 26.5t9 32.5h58z" />
    <glyph glyph-name="afii10193" unicode="&#x45f;" horiz-adv-x="567" 
d="M421 508h69v-508h-175v-185h-63v185h-175v508h69v-458h275v458z" />
    <glyph glyph-name="afii10050" unicode="&#x490;" horiz-adv-x="535" 
d="M164 0h-74v700h369v158h65l7 -221h-367v-637z" />
    <glyph glyph-name="afii10098" unicode="&#x491;" horiz-adv-x="416" 
d="M146 0h-69v508h269v132h60l6 -182h-266v-458z" />
    <glyph glyph-name="uni0531" unicode="&#x531;" horiz-adv-x="749" 
d="M151 700v-420q0 -23 1 -47.5t5.5 -48t13.5 -45t25 -38.5q24 -26 64.5 -41t85.5 -15q46 0 85 14t63 40q31 34 38.5 82t7.5 99v420h74v-428q0 -33 -3 -70.5t-17 -73.5l131 -91l-40 -55l-124 87q-23 -29 -50 -46.5t-55.5 -26.5t-57 -11.5t-53.5 -2.5q-42 0 -74 6t-56 15.5
t-40.5 20.5t-27.5 21q-22 21 -35.5 47t-21 55.5t-10.5 61t-3 63.5v428h74z" />
    <glyph glyph-name="uni0532" unicode="&#x532;" horiz-adv-x="667" 
d="M540 404v19q0 23 -1 47.5t-5.5 48t-13.5 45t-25 38.5q-24 26 -64.5 41t-85.5 15q-46 0 -85 -14t-63 -40q-31 -34 -38.5 -82t-7.5 -99v-158h473v-63h-473v-202h-74v431q0 26 1.5 55.5t9 58.5t22 57.5t40.5 53.5q22 22 47 34.5t50.5 19.5t50.5 9t48 2q42 0 74 -6t56 -15.5
t40.5 -20.5t27.5 -21q22 -21 35.5 -47t21 -55.5t10.5 -61t3 -63.5v-27h-74z" />
    <glyph glyph-name="uni0533" unicode="&#x533;" horiz-adv-x="747" 
d="M591 0h-74v202h-155q-54 0 -109 9t-99.5 36.5t-72.5 78t-28 133.5q0 62 20 110.5t55.5 82t84.5 51t108 17.5q141 0 205.5 -69.5t64.5 -209.5v-176h138v-63h-138v-202zM517 437q0 51 -10 92t-33 69.5t-59.5 44t-88.5 15.5q-64 0 -102.5 -22t-59.5 -53.5t-28 -65.5t-7 -59
q0 -57 18 -94.5t48 -59t68 -30.5t78 -9h176v172z" />
    </font>
</defs>
</svg>
